<svg width="30" height="30" viewBox="0 0 30 30" fill="none" xmlns="http://www.w3.org/2000/svg">
<path d="M10.9823 15.8789C9.25159 15.8789 7.84358 17.2869 7.84358 19.0177V26.8612C7.84358 28.5919 9.25159 29.9999 10.9823 29.9999C12.7131 30 14.1211 28.592 14.1211 26.8612V19.0177C14.1211 17.2869 12.7131 15.8789 10.9823 15.8789Z" fill="#FF4340"/>
<path d="M6.08572 15.8789H3.04705C1.3715 15.8789 0.00837708 17.2421 0.00837708 18.9176C0.00837708 20.5931 1.37156 21.9562 3.04705 21.9562C4.72254 21.9562 6.08572 20.5931 6.08572 18.9176V15.8789Z" fill="#FF4340"/>
<path d="M0 10.9823C0 12.7131 1.40801 14.1211 3.13875 14.1211H10.9823C12.7131 14.1211 14.1211 12.7131 14.1211 10.9823C14.1211 9.25159 12.7131 7.84358 10.9823 7.84358H3.13875C1.40801 7.84352 0 9.25159 0 10.9823H0Z" fill="#36C6FF"/>
<path d="M11.0824 6.08572H14.1211V3.04705C14.1211 1.3715 12.7579 0.00837708 11.0824 0.00837708C9.40687 0.00837708 8.04375 1.37156 8.04375 3.04705C8.04375 4.72254 9.40687 6.08572 11.0824 6.08572Z" fill="#36C6FF"/>
<path d="M19.0177 14.1211C20.7484 14.1211 22.1564 12.7131 22.1564 10.9823V3.13875C22.1565 1.40801 20.7484 0 19.0177 0C17.2869 0 15.8789 1.40801 15.8789 3.13875V10.9823C15.8789 12.7131 17.2869 14.1211 19.0177 14.1211Z" fill="#0DC46E"/>
<path d="M23.9143 14.1211H26.9529C28.6285 14.1211 29.9916 12.7579 29.9916 11.0824C29.9916 9.40687 28.6284 8.04375 26.9529 8.04375C25.2775 8.04375 23.9143 9.40693 23.9143 11.0824V14.1211Z" fill="#0DC46E"/>
<path d="M30 19.0177C30 17.2869 28.592 15.8789 26.8612 15.8789H19.0177C17.2869 15.8789 15.8789 17.2869 15.8789 19.0177C15.8789 20.7484 17.2869 22.1564 19.0177 22.1564H26.8612C28.592 22.1565 30 20.7484 30 19.0177Z" fill="#FDCB02"/>
<path d="M18.9176 23.9143H15.8789V26.9529C15.8789 28.6285 17.2421 29.9916 18.9176 29.9916C20.5931 29.9916 21.9562 28.6284 21.9562 26.9529C21.9562 25.2775 20.5931 23.9143 18.9176 23.9143Z" fill="#FDCB02"/>
</svg>
