<svg width="31" height="31" viewBox="0 0 31 31" fill="none" xmlns="http://www.w3.org/2000/svg">
<path d="M12.2333 8.03333C9.20982 8.03333 6.3102 9.23439 4.17229 11.3723C2.03439 13.5102 0.833328 16.4099 0.833328 19.4333L0.833328 30.8333H12.2333C15.2567 30.8333 18.1563 29.6323 20.2942 27.4943C22.4321 25.3564 23.6332 22.4568 23.6332 19.4333C23.6332 16.4099 22.4321 13.5102 20.2942 11.3723C18.1563 9.23439 15.2567 8.03333 12.2333 8.03333Z" fill="#F37721"/>
<g style="mix-blend-mode:multiply">
<path d="M19.4324 0.833313C16.4092 0.833313 13.5099 2.03438 11.3722 4.1723C9.23443 6.31021 8.03348 9.20984 8.03348 12.2333C8.03348 15.2568 9.23443 18.1564 11.3722 20.2943C13.5099 22.4322 16.4092 23.6333 19.4324 23.6333C22.4558 23.6333 25.3554 22.4323 27.4934 20.2945C29.6314 18.1566 30.8328 15.257 30.8334 12.2333V0.833313H19.4324Z" fill="#1F69B2"/>
</g>
</svg>
