<svg width="26" height="21" viewBox="0 0 26 21" fill="none" xmlns="http://www.w3.org/2000/svg">
<path d="M10.1381 1C5.11716 1 1 5.04513 1 9.97823C1 12.2474 1.90377 14.3193 3.30962 15.8979C3.20921 18.1672 1.50209 19.9431 1.50209 19.9431C4.31381 20.3377 6.52301 18.5618 6.92469 18.2658C7.92887 18.6605 9.03347 18.8578 10.1381 18.8578C15.159 18.8578 19.2762 14.8127 19.2762 9.87956C19.1757 5.04513 15.159 1 10.1381 1Z" stroke="white" stroke-miterlimit="10" stroke-linecap="round" stroke-linejoin="round"/>
<path d="M6.42475 9.78092C6.42475 10.2858 6.05446 10.6622 5.5189 10.6622C4.99436 10.6622 4.62835 10.3011 4.61351 9.81194C4.69972 9.24214 5.12196 8.89966 5.5189 8.89966C6.05446 8.89966 6.42475 9.27605 6.42475 9.78092Z" fill="#767676" stroke="white"/>
<path d="M10.9436 9.78092C10.9436 10.2858 10.5733 10.6622 10.0378 10.6622C9.51324 10.6622 9.14724 10.3012 9.13237 9.81199C9.21568 9.26331 9.6228 8.89966 10.1382 8.89966C10.5492 8.89966 10.9436 9.25178 10.9436 9.78092Z" fill="#767676" stroke="white"/>
<path d="M15.4624 9.78092C15.4624 10.2858 15.0921 10.6622 14.5566 10.6622C14.021 10.6622 13.6507 10.2858 13.6507 9.78092C13.6507 9.27605 14.021 8.89966 14.5566 8.89966C15.0921 8.89966 15.4624 9.27605 15.4624 9.78092Z" fill="#767676" stroke="white"/>
<path d="M17.0669 1.78927C17.3681 1.69061 17.7698 1.69061 18.0711 1.69061C21.887 1.69061 24.9999 4.74913 24.9999 8.49828C24.9999 10.2742 24.297 11.8528 23.2928 13.0367C23.3933 14.8126 24.6987 16.1939 24.6987 16.1939C22.4895 16.4899 20.8828 15.1086 20.5815 14.9113C20.1799 15.1086 19.7782 15.2073 19.2761 15.3059" stroke="white" stroke-miterlimit="10" stroke-linecap="round" stroke-linejoin="round"/>
</svg>
