<?xml version="1.0" encoding="utf-8"?>
<!-- Generator: Adobe Illustrator 16.0.0, SVG Export Plug-In . SVG Version: 6.00 Build 0)  -->
<!DOCTYPE svg PUBLIC "-//W3C//DTD SVG 1.1//EN" "http://www.w3.org/Graphics/SVG/1.1/DTD/svg11.dtd">
<svg version="1.1" id="Layer_1" xmlns="http://www.w3.org/2000/svg" xmlns:xlink="http://www.w3.org/1999/xlink" x="0px" y="0px"
	 width="20px" height="20.002px" viewBox="10 9.998 20 20.002" enable-background="new 10 9.998 20 20.002" xml:space="preserve">
<path fill="#1F69B2" d="M24.98,14.22c0.777,0,1.406-0.617,1.406-1.385v-1.45c0-0.768-0.63-1.387-1.406-1.387
	c-0.777,0-1.407,0.618-1.407,1.387v1.45C23.574,13.602,24.203,14.219,24.98,14.22L24.98,14.22z M29.979,12.4h-2.834v0.705
	c0,1.164-0.959,2.112-2.142,2.112s-2.142-0.948-2.142-2.112V12.4h-5.717v0.705c0,1.164-0.96,2.112-2.143,2.112
	s-2.142-0.948-2.142-2.112V12.4L10,12.365V30l20-0.004L29.979,12.4z M28.57,28.596H11.43V17.33h17.143l-0.001,11.266H28.57z
	 M14.98,14.22c0.777,0,1.408-0.617,1.408-1.385v-1.45c0-0.77-0.63-1.387-1.408-1.387s-1.406,0.618-1.406,1.387v1.45
	C13.574,13.602,14.202,14.219,14.98,14.22L14.98,14.22z M19.4,18.84h-2.25v1.96h2.25V18.84z M23.04,18.84h-2.253v1.96h2.253V18.84z
	 M26.415,18.84h-2.25v1.96h2.25V18.84z M19.4,22.094h-2.25v1.957h2.25V22.094z M23.04,22.094h-2.253v1.957h2.253V22.094z
	 M26.415,22.094h-2.25v1.957h2.25V22.094z M19.4,25.4h-2.25v1.957h2.25V25.4z M15.823,22.084h-2.25v1.957h2.25V22.084z M15.823,25.4
	h-2.25v1.957h2.25V25.4z M23.04,25.4h-2.253v1.957h2.253V25.4z M26.415,25.4h-2.25v1.957h2.25V25.4z"/>
</svg>
