<svg width="20" height="12" viewBox="0 0 20 12" fill="none" xmlns="http://www.w3.org/2000/svg">
<path d="M19.8646 6.40891C20.0524 6.15385 20.0442 5.80567 19.8442 5.5587C16.8193 1.87045 13.5535 0 10.1327 0C4.3319 0 0.302789 5.36032 0.135419 5.58704C-0.0523607 5.8421 -0.0441963 6.19028 0.15583 6.43725C3.17664 10.1296 6.44238 12 9.86325 12C15.664 12 19.6931 6.63968 19.8646 6.40891ZM9.86325 10.6113C7.01389 10.6113 4.23801 9.05668 1.60092 5.99595C2.63371 4.78543 5.91578 1.38866 10.1327 1.38866C12.982 1.38866 15.7579 2.94332 18.395 6.00405C17.3622 7.21457 14.0801 10.6113 9.86325 10.6113Z" fill="#969696"/>
<path d="M9.99796 2.47366C8.03851 2.47366 6.44238 4.05666 6.44238 5.99998C6.44238 7.9433 8.03851 9.52629 9.99796 9.52629C11.9574 9.52629 13.5535 7.9433 13.5535 5.99998C13.5535 4.05666 11.9574 2.47366 9.99796 2.47366ZM9.99796 8.13763C8.81005 8.13763 7.84257 7.17812 7.84257 5.99998C7.84257 4.82184 8.81005 3.86233 9.99796 3.86233C11.1859 3.86233 12.1533 4.82184 12.1533 5.99998C12.1533 7.17812 11.1859 8.13763 9.99796 8.13763Z" fill="#969696"/>
</svg>
