<svg width="196" height="42" viewBox="0 0 196 42" fill="none" xmlns="http://www.w3.org/2000/svg">
<path d="M16.4986 8.92922C12.1229 8.92922 7.92641 10.6713 4.83232 13.7723C1.73824 16.8733 0 21.0792 0 25.4646L0 42H16.4986C20.8743 42 25.0708 40.2579 28.1649 37.1569C31.2589 34.0559 32.9972 29.8501 32.9972 25.4646C32.9972 21.0792 31.2589 16.8733 28.1649 13.7723C25.0708 10.6713 20.8743 8.92922 16.4986 8.92922Z" fill="#F37721"/>
<g style="mix-blend-mode:multiply">
<path d="M27.7169 0C23.3412 0 19.1447 1.74212 16.0506 4.8431C12.9565 7.94409 11.2183 12.1499 11.2183 16.5354C11.2183 20.9208 12.9565 25.1267 16.0506 28.2277C19.1447 31.3287 23.3412 33.0708 27.7169 33.0708C32.0928 33.0708 36.2896 31.3288 39.3841 28.2278C42.4787 25.1269 44.2176 20.9211 44.2183 16.5354V0H27.7169Z" fill="#1F69B2"/>
</g>
<path d="M87.2458 32.0655V30.8089C85.8243 31.5544 84.2577 31.9803 82.6551 32.0569C81.0525 32.1334 79.4525 31.8588 77.9667 31.2521C76.4809 30.6453 75.145 29.7212 74.0521 28.544C72.9592 27.3668 72.1356 25.9648 71.6387 24.4359C71.1418 22.907 70.9836 21.2879 71.1751 19.6914C71.3665 18.0949 71.9031 16.5595 72.7474 15.1921C73.5916 13.8248 74.7233 12.6584 76.0634 11.7743C77.4035 10.8902 78.9199 10.3097 80.5069 10.0732L81.8472 9.95185H93.1662V32.0655H87.2458ZM82.1469 15.949C81.1493 15.9461 80.1732 16.24 79.3423 16.7934C78.5113 17.3469 77.8629 18.1349 77.4792 19.0579C77.0954 19.9809 76.9935 20.9972 77.1864 21.9782C77.3793 22.9593 77.8583 23.8609 78.5627 24.5689C79.2672 25.277 80.1654 25.7596 81.1437 25.9558C82.122 26.1519 83.1364 26.0527 84.0584 25.6707C84.9804 25.2887 85.7686 24.6411 86.3231 23.8099C86.8777 22.9788 87.1737 22.0013 87.1738 21.0014C87.173 19.6642 86.6436 18.3817 85.7015 17.4347C84.7593 16.4878 83.4812 15.9535 82.1469 15.949Z" fill="#F37721"/>
<path d="M47.3599 42V10.0645H60.0192C61.786 10.0645 64.5877 11.532 66.2912 13.2826C68.1216 15.1667 69.2222 17.6429 69.3955 20.2669C69.5688 22.8908 68.8034 25.4908 67.2366 27.6002C65.6699 29.7096 63.4044 31.1904 60.8466 31.7769C58.2888 32.3633 55.6062 32.0171 53.2802 30.8002V42H47.3599ZM58.3935 15.949C57.3963 15.9484 56.4214 16.2442 55.592 16.7991C54.7626 17.3539 54.116 18.1428 53.734 19.0659C53.352 19.9891 53.2517 21.0051 53.4459 21.9854C53.6401 22.9656 54.12 23.8662 54.8249 24.5731C55.5298 25.28 56.4281 25.7614 57.4061 25.9566C58.3841 26.1518 59.3978 26.0519 60.3192 25.6696C61.2405 25.2873 62.028 24.6397 62.5821 23.8087C63.1361 22.9778 63.4319 22.0008 63.4319 21.0014C63.4303 19.6624 62.8991 18.3786 61.9547 17.4315C61.0102 16.4844 59.7296 15.9513 58.3935 15.949Z" fill="#F37721"/>
<path d="M95.0513 42V10.0645H107.713C109.48 10.0645 112.279 11.532 113.983 13.2826C115.816 15.1655 116.92 17.6421 117.095 20.2674C117.27 22.8928 116.506 25.4946 114.938 27.6054C113.371 29.7162 111.104 31.1975 108.544 31.7831C105.985 32.3687 103.301 32.0202 100.975 30.8002V42H95.0513ZM106.085 15.949C105.088 15.949 104.113 16.2453 103.284 16.8005C102.455 17.3556 101.809 18.1447 101.427 19.0679C101.046 19.9912 100.946 21.007 101.141 21.9871C101.335 22.9672 101.815 23.8675 102.52 24.5741C103.225 25.2807 104.124 25.7619 105.101 25.9568C106.079 26.1518 107.093 26.0517 108.014 25.6693C108.935 25.2869 109.723 24.6393 110.277 23.8084C110.83 22.9776 111.126 22.0007 111.126 21.0014C111.125 19.6617 110.594 18.377 109.649 17.4296C108.704 16.4823 107.422 15.9497 106.085 15.949Z" fill="#F37721"/>
<path d="M175.535 32.0655V30.6211C174.068 31.4622 172.427 31.9541 170.74 32.0588C169.053 32.1635 167.364 31.8782 165.804 31.2249C164.244 30.5717 162.855 29.5679 161.744 28.2912C160.632 27.0144 159.829 25.4988 159.394 23.8613C158.96 22.2238 158.907 20.5082 159.24 18.847C159.572 17.1857 160.281 15.6233 161.312 14.2802C162.342 12.9372 163.667 11.8494 165.184 11.1009C166.7 10.3524 168.368 9.96326 170.059 9.9634H181.09V32.0655H175.535ZM170.059 15.5214C168.976 15.5214 167.917 15.8433 167.016 16.4464C166.116 17.0495 165.414 17.9067 164.999 18.9097C164.585 19.9126 164.476 21.0162 164.688 22.0809C164.899 23.1456 165.421 24.1236 166.187 24.8912C166.952 25.6588 167.928 26.1815 168.991 26.3933C170.053 26.6051 171.154 26.4964 172.155 26.081C173.155 25.6656 174.011 24.9621 174.613 24.0595C175.214 23.1568 175.535 22.0957 175.535 21.0101C175.538 19.5554 174.964 18.1593 173.94 17.1285C172.915 16.0977 171.525 15.5166 170.073 15.5128L170.059 15.5214Z" fill="#1F69B2"/>
<path d="M151.802 32.0655V21.0014C151.802 19.5458 151.225 18.1497 150.198 17.1204C149.171 16.091 147.778 15.5128 146.326 15.5128C144.873 15.5128 143.48 16.091 142.453 17.1204C141.426 18.1497 140.849 19.5458 140.849 21.0014V32.0655H135.298V21.0014C135.298 19.5458 134.721 18.1497 133.694 17.1204C132.667 16.091 131.274 15.5128 129.821 15.5128C128.369 15.5128 126.976 16.091 125.949 17.1204C124.922 18.1497 124.345 19.5458 124.345 21.0014V32.0655H118.782V21.0014C118.781 18.7578 119.461 16.567 120.732 14.72C122.003 12.873 123.805 11.4574 125.898 10.6611C127.991 9.86482 130.276 9.72561 132.449 10.262C134.623 10.7983 136.583 11.9849 138.068 13.6639C139.551 11.9762 141.512 10.782 143.69 10.2405C145.868 9.699 148.158 9.83604 150.256 10.6333C152.355 11.4306 154.16 12.8503 155.432 14.7028C156.705 16.5553 157.383 18.7526 157.376 21.0014V32.0655H151.802Z" fill="#1F69B2"/>
<path d="M188.552 32.0568V7.62939e-06L182.989 7.62939e-06V32.0568H188.552Z" fill="#1F69B2"/>
<path d="M196 32.0568V-3.8147e-06L190.437 -3.8147e-06V32.0568H196Z" fill="#1F69B2"/>
</svg>
