<svg xmlns="http://www.w3.org/2000/svg" width="68" height="26" fill="#179bd7"  xmlns:v="https://vecta.io/nano"><path d="M6.32 6.196l-1.294-3.22-1.294 3.22H6.32zm28.626-1.269c-.264.171-.575.171-.934.171h-2.3V3.293h2.348c.335 0 .671.024.91.146s.407.366.407.707c-.048.366-.192.634-.431.781zm16.457 1.269l-1.318-3.22-1.317 3.22h2.635zM20.741 9.709h-1.94V3.366l-2.755 6.343h-1.677l-2.755-6.343v6.343H7.733l-.719-1.805H3.062l-.743 1.805H.259L3.661 1.61h2.827l3.21 7.66V1.61h3.09l2.491 5.489 2.276-5.489h3.162l.024 8.099zm7.738 0h-6.324V1.61h6.348v1.683h-4.456v1.464h4.336v1.659h-4.336v1.61h4.432v1.683zm8.959-5.928c0 1.293-.838 1.952-1.341 2.147.407.171.767.439.934.683.264.39.311.756.311 1.488v1.586h-1.916V8.66c0-.488.048-1.195-.311-1.586-.288-.293-.695-.342-1.389-.342H31.69v2.952h-1.892V1.586h4.36c.958 0 1.677.024 2.3.39.623.39.982.903.982 1.805zm3.042 5.928h-1.94V1.61h1.94v8.099zm22.47 0h-2.683l-3.593-6.074v6.074h-3.857l-.743-1.805h-3.953l-.719 1.805h-2.228c-.934 0-2.084-.22-2.755-.903s-1.006-1.61-1.006-3.098c0-1.195.216-2.293 1.03-3.171.623-.634 1.581-.951 2.875-.951h1.844v1.732h-1.797c-.695 0-1.078.098-1.461.488-.335.342-.551.976-.551 1.83 0 .878.168 1.488.527 1.903.288.317.815.415 1.318.415h.862l2.683-6.367h2.851l3.21 7.66v-7.66h2.898l3.33 5.635V1.586h1.94v8.123h-.024zM.235 11.295h3.234l.743-1.805h1.629l.719 1.805h6.372V9.929l.575 1.39h3.306l.575-1.39v1.39h15.858V8.367h.311c.216 0 .287.024.287.39v2.561h8.193v-.683c.671.366 1.701.683 3.042.683h3.45l.743-1.805H50.9l.719 1.805h6.66V9.612l1.006 1.708h5.318V0h-5.27v1.342L58.59 0h-5.414v1.342L52.505 0h-7.306c-1.222 0-2.3.171-3.162.659V0h-5.055v.659C36.431.171 35.665 0 34.826 0H16.429l-1.222 2.927L13.938 0H8.117v1.342L7.494 0H2.535l-2.3 5.367v5.928zm67.53 5.952h-3.45c-.335 0-.575.024-.767.146s-.287.317-.287.585c0 .317.168.512.407.61.192.073.407.098.743.098l1.03.024c1.03.024 1.725.22 2.156.659.072.073.12.122.168.195v-2.317zm0 5.343c-.455.683-1.365 1.025-2.587 1.025h-3.665v-1.732h3.641c.359 0 .623-.049.767-.195.144-.122.216-.317.216-.537 0-.244-.096-.415-.24-.537s-.335-.171-.671-.171c-1.773-.073-4.001.049-4.001-2.513 0-1.171.743-2.415 2.731-2.415h3.785v-1.61H64.22c-1.054 0-1.821.268-2.372.659v-.659H56.65c-.838 0-1.797.22-2.276.659v-.659h-9.271v.659c-.743-.537-1.988-.659-2.563-.659h-6.132v.659c-.575-.585-1.892-.659-2.683-.659h-6.851l-1.557 1.732-1.461-1.732H13.674V25.2h10.037l1.605-1.756L26.85 25.2h6.18v-2.659h.599c.814.024 1.797-.024 2.635-.39V25.2h5.102v-2.952h.239c.311 0 .335.024.335.341v2.61h15.547c.982 0 2.012-.268 2.587-.732v.732h4.911c1.03 0 2.012-.146 2.779-.512v-2.098h0zm-7.57-3.245c.359.39.575.878.575 1.708 0 1.732-1.078 2.562-2.97 2.562h-3.69v-1.732h3.69c.359 0 .623-.049.767-.195a.78.78 0 0 0 .216-.537c0-.244-.096-.415-.24-.537s-.335-.171-.671-.171c-1.773-.073-4.001.049-4.001-2.513 0-1.171.719-2.415 2.707-2.415h3.809v1.732h-3.473c-.335 0-.575.024-.767.146-.216.122-.287.317-.287.585 0 .317.168.512.407.61.192.073.407.098.743.098l1.03.024c1.03.024 1.725.195 2.156.634zm-17.128-.488c-.264.146-.575.171-.934.171h-2.3v-1.805h2.348c.335 0 .671 0 .91.146.24.122.383.39.383.732 0 .317-.144.61-.407.756zm1.15 1c.431.171.767.439.934.683.264.39.311.756.311 1.488v1.61h-1.916v-1c0-.488.048-1.195-.311-1.586-.288-.293-.695-.366-1.389-.366H39.81v2.952h-1.916v-8.099h4.384c.958 0 1.653.049 2.276.39.599.366.982.878.982 1.805.024 1.269-.814 1.927-1.318 2.122zm2.395-4.318h6.324v1.683H48.48v1.464h4.336v1.659H48.48v1.61h4.456v1.683h-6.324v-8.099zM33.82 19.271h-2.443v-2.049h2.467c.695 0 1.15.293 1.15 1 0 .683-.455 1.049-1.174 1.049zm-4.36 3.61l-2.922-3.293 2.922-3.196v6.489zm-7.522-.951h-4.671v-1.61h4.168v-1.659h-4.168v-1.464h4.767l2.084 2.366-2.18 2.366zm15.092-3.732c0 2.244-1.653 2.708-3.306 2.708h-2.372v2.708h-3.689l-2.348-2.683-2.42 2.683h-7.522v-8.099h7.642l2.348 2.659 2.419-2.659h6.061c1.485.024 3.186.439 3.186 2.683z"/></svg>