<svg width="88" height="80" viewBox="0 0 88 80" fill="none" xmlns="http://www.w3.org/2000/svg">
<mask id="path-1-inside-1" fill="white">
<path fill-rule="evenodd" clip-rule="evenodd" d="M88 0H0V8C4.41828 8 8 11.5817 8 16C8 20.4183 4.41828 24 0 24V32C4.41828 32 8 35.5817 8 40C8 44.4183 4.41828 48 0 48V56C4.41828 56 8 59.5817 8 64C8 68.4183 4.41828 72 0 72V80H88V0Z"/>
</mask>
<path fill-rule="evenodd" clip-rule="evenodd" d="M88 0H0V8C4.41828 8 8 11.5817 8 16C8 20.4183 4.41828 24 0 24V32C4.41828 32 8 35.5817 8 40C8 44.4183 4.41828 48 0 48V56C4.41828 56 8 59.5817 8 64C8 68.4183 4.41828 72 0 72V80H88V0Z" fill="#DDDDDD"/>
<path d="M0 0V-1H-1V0H0ZM88 0H89V-1H88V0ZM0 8H-1V9H0V8ZM0 24V23H-1V24H0ZM0 32H-1V33H0V32ZM0 48V47H-1V48H0ZM0 56H-1V57H0V56ZM0 72V71H-1V72H0ZM0 80H-1V81H0V80ZM88 80V81H89V80H88ZM0 1H88V-1H0V1ZM1 8V0H-1V8H1ZM9 16C9 11.0294 4.97056 7 0 7V9C3.86599 9 7 12.134 7 16H9ZM0 25C4.97056 25 9 20.9706 9 16H7C7 19.866 3.86599 23 0 23V25ZM1 32V24H-1V32H1ZM9 40C9 35.0294 4.97056 31 0 31V33C3.86599 33 7 36.134 7 40H9ZM0 49C4.97056 49 9 44.9706 9 40H7C7 43.866 3.86599 47 0 47V49ZM1 56V48H-1V56H1ZM0 57C3.86599 57 7 60.134 7 64H9C9 59.0294 4.97056 55 0 55V57ZM7 64C7 67.866 3.86599 71 0 71V73C4.97056 73 9 68.9706 9 64H7ZM1 80V72H-1V80H1ZM88 79H0V81H88V79ZM87 0V80H89V0H87Z" fill="#DDDDDD" mask="url(#path-1-inside-1)"/>
</svg>
