<?xml version="1.0" encoding="utf-8"?>
<!-- Generator: Adobe Illustrator 16.0.0, SVG Export Plug-In . SVG Version: 6.00 Build 0)  -->
<!DOCTYPE svg PUBLIC "-//W3C//DTD SVG 1.1//EN" "http://www.w3.org/Graphics/SVG/1.1/DTD/svg11.dtd">
<svg version="1.1" id="Layer_1" xmlns="http://www.w3.org/2000/svg" xmlns:xlink="http://www.w3.org/1999/xlink" x="0px" y="0px"
	 width="64px" height="64px" viewBox="0 0 64 64" enable-background="new 0 0 64 64" xml:space="preserve">
<g>
	<path fill="#FFFFFF" d="M27.049,16h-7.349C17.66,16,16,17.66,16,19.701v7.349c0,2.041,1.66,3.701,3.701,3.701h7.349
		c2.041,0,3.701-1.66,3.701-3.701v-7.349C30.75,17.66,29.09,16,27.049,16z M28.25,27.049c0,0.662-0.539,1.201-1.201,1.201h-7.349
		c-0.662,0-1.201-0.539-1.201-1.201v-7.349c0-0.662,0.539-1.201,1.201-1.201h7.349c0.662,0,1.201,0.539,1.201,1.201V27.049z"/>
	<path fill="#FFFFFF" d="M44.25,16H37c-2.068,0-3.75,1.682-3.75,3.75V27c0,2.068,1.682,3.75,3.75,3.75h7.25
		c2.068,0,3.75-1.682,3.75-3.75v-7.25C48,17.682,46.318,16,44.25,16z M45.5,27c0,0.689-0.561,1.25-1.25,1.25H37
		c-0.689,0-1.25-0.561-1.25-1.25v-7.25c0-0.689,0.561-1.25,1.25-1.25h7.25c0.689,0,1.25,0.561,1.25,1.25V27z"/>
	<path fill="#FFFFFF" d="M27.049,33.25h-7.349C17.66,33.25,16,34.91,16,36.951v7.348C16,46.34,17.66,48,19.701,48h7.349
		c2.041,0,3.701-1.66,3.701-3.701v-7.348C30.75,34.91,29.09,33.25,27.049,33.25z M28.25,44.299c0,0.662-0.539,1.201-1.201,1.201
		h-7.349c-0.662,0-1.201-0.539-1.201-1.201v-7.348c0-0.662,0.539-1.201,1.201-1.201h7.349c0.662,0,1.201,0.539,1.201,1.201V44.299z"
		/>
	<path fill="#FFFFFF" d="M44.25,33.25H37c-2.068,0-3.75,1.682-3.75,3.75v7.25c0,2.068,1.682,3.75,3.75,3.75h7.25
		c2.068,0,3.75-1.682,3.75-3.75V37C48,34.932,46.318,33.25,44.25,33.25z M45.5,44.25c0,0.689-0.561,1.25-1.25,1.25H37
		c-0.689,0-1.25-0.561-1.25-1.25V37c0-0.689,0.561-1.25,1.25-1.25h7.25c0.689,0,1.25,0.561,1.25,1.25V44.25z"/>
</g>
</svg>
