<svg width="300" height="250" viewBox="0 0 300 250" fill="none" xmlns="http://www.w3.org/2000/svg">
<path opacity="0.62" d="M113.711 250C176.513 250 227.423 246.971 227.423 243.234C227.423 239.497 176.513 236.468 113.711 236.468C50.9104 236.468 0 239.497 0 243.234C0 246.971 50.9104 250 113.711 250Z" fill="#F37721"/>
<path d="M2.81744 180.424V203.654C2.81744 205.909 4.6206 207.713 6.87454 207.713H220.661C222.915 207.713 224.718 205.909 224.718 203.654V180.424H2.81744Z" fill="#F1F1F1"/>
<path d="M224.606 51.7591C224.606 49.5038 222.802 47.6996 220.548 47.6996H6.87454C4.6206 47.6996 2.81744 49.5038 2.81744 51.7591V180.311H224.606V51.7591Z" fill="#767676"/>
<path d="M152.367 207.713H76.0706V231.168H152.367V207.713Z" fill="#DDDDDD"/>
<path d="M169.609 231.168H57.701V242.106H169.609V231.168Z" fill="#F1F1F1"/>
<path d="M152.367 207.713H76.0706V216.17H152.367V207.713Z" fill="#969696"/>
<path d="M213.223 59.3144H14.3126V168.584H213.223V59.3144Z" fill="#1F69B2"/>
<path d="M92.6371 80.7397L78.7753 94.6098L64.9136 80.7397L59.3914 86.2652L73.2532 100.135L59.3914 114.005L64.9136 119.531L78.7753 105.661L92.6371 119.531L98.1593 114.005L84.2975 100.135L98.1593 86.2652L92.6371 80.7397Z" fill="white"/>
<path d="M168.032 86.2652L162.509 80.7397L148.648 94.6098L134.786 80.7397L129.264 86.2652L143.125 100.135L129.264 114.005L134.786 119.531L148.648 105.661L162.509 119.531L168.032 114.005L154.17 100.135L168.032 86.2652Z" fill="white"/>
<path d="M143.351 153.36C114.05 133.175 84.4102 153.135 84.0721 153.36L80.2404 147.835C80.5785 147.609 114.05 124.944 147.183 147.835L143.351 153.36Z" fill="white"/>
<path d="M295.492 0H195.192C192.712 0 190.684 2.02977 190.684 4.5106V69.3505C190.684 71.8313 192.712 73.8611 195.192 73.8611H206.799L195.417 95.512L233.959 73.8611H295.492C297.971 73.8611 300 71.8313 300 69.3505V4.5106C300 2.02977 297.971 0 295.492 0Z" fill="#F1F1F1"/>
<path d="M221.788 41.61C221.45 41.61 221.225 41.4973 220.999 41.2717C220.774 41.0462 220.661 40.8207 220.661 40.4824V35.5207H208.039C207.701 35.5207 207.476 35.4079 207.25 35.1824C207.025 34.9569 206.912 34.7314 206.912 34.3931V31.5739C206.912 31.2356 207.025 30.8973 207.138 30.559C207.363 30.2208 207.476 29.9952 207.814 29.6569L220.21 14.0954C220.774 13.4188 221.337 13.0805 221.901 13.0805H224.944C225.282 13.0805 225.507 13.1932 225.733 13.4188C225.958 13.6443 226.071 13.8698 226.071 14.2081V30.4463H229.564C229.902 30.4463 230.128 30.559 230.353 30.7846C230.579 31.0101 230.691 31.2356 230.691 31.5739V34.5058C230.691 34.8441 230.579 35.0696 230.353 35.2952C230.128 35.5207 229.902 35.6335 229.564 35.6335H226.071V40.5951C226.071 40.9334 225.958 41.159 225.733 41.3845C225.507 41.61 225.282 41.7228 224.944 41.7228H221.788V41.61ZM220.774 30.4463V21.7634L213.787 30.4463H220.774Z" fill="#F37721"/>
<path d="M256.274 23.6807C256.274 24.2445 256.274 24.8083 256.274 25.3721C256.274 26.0487 256.274 26.6126 256.274 27.2892C256.274 27.9657 256.274 28.5296 256.274 29.2062C256.274 29.8827 256.274 30.4466 256.274 30.8976C256.161 32.4763 255.935 33.9423 255.597 35.2955C255.259 36.6486 254.583 37.7763 253.681 38.7912C252.78 39.8061 251.766 40.5954 250.301 41.1592C248.948 41.7231 247.258 41.9486 245.229 41.9486C243.201 41.9486 241.51 41.7231 240.158 41.1592C238.805 40.5954 237.678 39.8061 236.89 38.7912C235.988 37.7763 235.425 36.6486 234.974 35.2955C234.636 33.9423 234.298 32.4763 234.298 30.8976C234.298 29.8827 234.185 28.6423 234.185 27.4019C234.185 26.0487 234.185 24.9211 234.298 23.9062C234.41 22.3275 234.636 20.8615 234.974 19.5084C235.312 18.1552 235.988 16.9148 236.89 15.8999C237.791 14.885 238.805 14.0956 240.158 13.5318C241.51 12.968 243.201 12.6297 245.229 12.6297C247.258 12.6297 248.836 12.8552 250.301 13.4191C251.653 13.9829 252.78 14.7722 253.681 15.7871C254.583 16.802 255.147 17.9297 255.597 19.2828C255.935 20.636 256.274 22.102 256.274 23.6807ZM239.932 30.7849C240.045 32.7019 240.496 34.2806 241.285 35.2955C242.074 36.4231 243.426 36.8742 245.342 36.8742C247.258 36.8742 248.61 36.3103 249.399 35.2955C250.188 34.2806 250.639 32.7019 250.751 30.7849C250.751 29.77 250.864 28.6423 250.864 27.4019C250.864 26.1615 250.864 25.0338 250.751 24.019C250.639 22.102 250.188 20.5232 249.399 19.5084C248.61 18.3807 247.258 17.9297 245.342 17.9297C243.426 17.9297 242.074 18.4935 241.285 19.5084C240.496 20.5232 240.045 22.102 239.932 24.019C239.932 25.0338 239.82 26.1615 239.82 27.4019C239.82 28.6423 239.82 29.77 239.932 30.7849Z" fill="#F37721"/>
<path d="M274.643 41.61C274.305 41.61 274.08 41.4973 273.854 41.2717C273.629 41.0462 273.516 40.8207 273.516 40.4824V35.5207H260.894C260.556 35.5207 260.331 35.4079 260.105 35.1824C259.88 34.9569 259.767 34.7314 259.767 34.3931V31.5739C259.767 31.2356 259.88 30.8973 259.992 30.559C260.218 30.2208 260.331 29.9952 260.669 29.6569L273.065 14.0954C273.629 13.4188 274.192 13.0805 274.756 13.0805H277.799C278.137 13.0805 278.362 13.1932 278.588 13.4188C278.813 13.6443 278.926 13.8698 278.926 14.2081V30.4463H282.419C282.757 30.4463 282.983 30.559 283.208 30.7846C283.434 31.0101 283.546 31.2356 283.546 31.5739V34.5058C283.546 34.8441 283.434 35.0696 283.208 35.2952C282.983 35.5207 282.757 35.6335 282.419 35.6335H278.926V40.5951C278.926 40.9334 278.813 41.159 278.588 41.3845C278.362 41.61 278.137 41.7228 277.799 41.7228H274.643V41.61ZM273.516 30.4463V21.7634L266.529 30.4463H273.516Z" fill="#F37721"/>
<path d="M224.042 58.4122C224.155 58.4122 224.267 58.4122 224.38 58.525C224.493 58.6378 224.493 58.7505 224.493 58.8633V59.4271C224.493 59.5399 224.493 59.6527 224.38 59.7654C224.267 59.8782 224.155 59.8782 224.042 59.8782H217.618C217.506 59.8782 217.393 59.8782 217.28 59.7654C217.168 59.6527 217.168 59.5399 217.168 59.4271V49.1655C217.168 49.0527 217.168 48.94 217.28 48.8272C217.393 48.7144 217.506 48.7144 217.618 48.7144H223.929C224.042 48.7144 224.155 48.7144 224.267 48.8272C224.38 48.94 224.38 49.0527 224.38 49.1655V49.7293C224.38 49.8421 224.38 49.9549 224.267 50.0676C224.155 50.1804 224.042 50.1804 223.929 50.1804H218.633V53.5633H223.479C223.591 53.5633 223.704 53.5633 223.817 53.6761C223.929 53.7889 223.929 53.9016 223.929 54.0144V54.5782C223.929 54.691 223.929 54.8038 223.817 54.9165C223.704 55.0293 223.591 55.0293 223.479 55.0293H218.633V58.525H224.042V58.4122Z" fill="#F37721"/>
<path d="M232.494 48.7144C233.058 48.7144 233.509 48.8272 233.959 48.94C234.41 49.0527 234.861 49.2783 235.199 49.5038C235.537 49.7293 235.875 50.0676 235.988 50.5187C236.213 50.9697 236.326 51.4208 236.326 51.9846C236.326 52.8867 236.101 53.5633 235.65 54.0144C235.199 54.5782 234.636 54.9165 233.959 55.1421L236.326 59.3144C236.326 59.4271 236.326 59.4271 236.326 59.5399C236.326 59.6527 236.326 59.7654 236.213 59.7654C236.101 59.8782 236.101 59.8782 235.988 59.8782H235.312C235.086 59.8782 234.974 59.8782 234.861 59.7654C234.748 59.6527 234.636 59.5399 234.636 59.5399L232.382 55.4803H229.677V59.5399C229.677 59.6527 229.677 59.7654 229.564 59.8782C229.452 59.9909 229.339 59.9909 229.226 59.9909H228.55C228.437 59.9909 228.325 59.9909 228.212 59.8782C228.099 59.7654 228.099 59.6527 228.099 59.5399V49.2783C228.099 49.1655 228.099 49.0527 228.212 48.94C228.325 48.8272 228.437 48.8272 228.55 48.8272H232.494V48.7144ZM229.677 54.0144H232.382C233.171 54.0144 233.734 53.9016 234.185 53.5633C234.636 53.225 234.861 52.774 234.861 52.0974C234.861 51.4208 234.636 50.9697 234.185 50.6315C233.734 50.2932 233.171 50.1804 232.382 50.1804H229.677V54.0144Z" fill="#F37721"/>
<path d="M244.44 48.7144C245.004 48.7144 245.455 48.8272 245.905 48.94C246.356 49.0527 246.807 49.2783 247.145 49.5038C247.483 49.7293 247.821 50.0676 247.934 50.5187C248.159 50.9697 248.272 51.4208 248.272 51.9846C248.272 52.8867 248.047 53.5633 247.596 54.0144C247.145 54.5782 246.581 54.9165 245.905 55.1421L248.272 59.3144C248.272 59.4271 248.272 59.4271 248.272 59.5399C248.272 59.6527 248.272 59.7654 248.159 59.7654C248.047 59.8782 248.047 59.8782 247.934 59.8782H247.258C247.032 59.8782 246.92 59.8782 246.807 59.7654C246.694 59.6527 246.581 59.5399 246.581 59.5399L244.328 55.4803H241.623V59.5399C241.623 59.6527 241.623 59.7654 241.51 59.8782C241.397 59.9909 241.285 59.9909 241.172 59.9909H240.496C240.383 59.9909 240.27 59.9909 240.158 59.8782C240.045 59.7654 240.045 59.6527 240.045 59.5399V49.2783C240.045 49.1655 240.045 49.0527 240.158 48.94C240.27 48.8272 240.383 48.8272 240.496 48.8272H244.44V48.7144ZM241.623 54.0144H244.328C245.116 54.0144 245.68 53.9016 246.131 53.5633C246.581 53.225 246.807 52.774 246.807 52.0974C246.807 51.4208 246.581 50.9697 246.131 50.6315C245.68 50.2932 245.116 50.1804 244.328 50.1804H241.623V54.0144Z" fill="#F37721"/>
<path d="M251.653 52.8868C251.653 52.323 251.766 51.7592 251.991 51.1953C252.216 50.6315 252.442 50.1805 252.893 49.8422C253.231 49.5039 253.681 49.1656 254.245 48.94C254.808 48.7145 255.372 48.6017 256.161 48.6017C256.837 48.6017 257.513 48.7145 258.077 48.94C258.64 49.1656 259.091 49.5039 259.429 49.8422C259.767 50.1805 260.105 50.6315 260.331 51.1953C260.556 51.7592 260.669 52.323 260.669 52.8868C260.669 53.7889 260.669 54.8038 260.669 55.7059C260.669 56.2698 260.556 56.8336 260.331 57.3974C260.105 57.9612 259.88 58.4123 259.429 58.7506C259.091 59.0889 258.64 59.4272 258.077 59.6527C257.513 59.8782 256.95 59.991 256.273 59.991C255.597 59.991 254.921 59.8782 254.47 59.6527C253.907 59.4272 253.456 59.0889 253.118 58.7506C252.78 58.4123 252.442 57.8485 252.216 57.3974C251.991 56.8336 251.878 56.2698 251.878 55.7059C251.653 54.8038 251.653 53.7889 251.653 52.8868ZM258.978 52.9996C258.978 52.5485 258.866 52.0975 258.753 51.6464C258.64 51.3081 258.415 50.9698 258.189 50.7443C257.964 50.5188 257.626 50.2932 257.288 50.1805C256.95 50.0677 256.612 49.9549 256.161 49.9549C255.71 49.9549 255.372 50.0677 255.034 50.1805C254.696 50.2932 254.358 50.5188 254.132 50.7443C253.907 50.9698 253.681 51.3081 253.569 51.6464C253.456 51.9847 253.343 52.4358 253.343 52.9996C253.343 53.4506 253.343 53.9017 253.343 54.3528C253.343 54.8038 253.343 55.2549 253.343 55.7059C253.343 56.157 253.456 56.6081 253.569 57.0591C253.681 57.3974 253.907 57.7357 254.132 57.9612C254.358 58.1868 254.696 58.4123 255.034 58.5251C255.372 58.6378 255.71 58.7506 256.161 58.7506C256.612 58.7506 256.95 58.6378 257.288 58.5251C257.626 58.4123 257.964 58.1868 258.189 57.9612C258.415 57.7357 258.64 57.3974 258.753 57.0591C258.866 56.7208 258.978 56.2698 258.978 55.7059C258.978 55.2549 258.978 54.8038 258.978 54.3528C258.978 53.9017 258.978 53.4506 258.978 52.9996Z" fill="#F37721"/>
<path d="M268.67 48.7144C269.234 48.7144 269.684 48.8272 270.135 48.94C270.586 49.0527 271.037 49.2783 271.375 49.5038C271.713 49.7293 272.051 50.0676 272.164 50.5187C272.389 50.9697 272.502 51.4208 272.502 51.9846C272.502 52.8867 272.276 53.5633 271.826 54.0144C271.375 54.5782 270.811 54.9165 270.135 55.1421L272.502 59.3144C272.502 59.4271 272.502 59.4271 272.502 59.5399C272.502 59.6527 272.502 59.7654 272.389 59.7654C272.276 59.8782 272.276 59.8782 272.164 59.8782H271.6C271.375 59.8782 271.262 59.8782 271.15 59.7654C271.037 59.6527 270.924 59.5399 270.924 59.5399L268.67 55.4803H265.965V59.5399C265.965 59.6527 265.965 59.7654 265.853 59.8782C265.74 59.9909 265.627 59.9909 265.515 59.9909H264.838C264.726 59.9909 264.613 59.9909 264.5 59.8782C264.388 59.7654 264.388 59.6527 264.388 59.5399V49.2783C264.388 49.1655 264.388 49.0527 264.5 48.94C264.613 48.8272 264.726 48.8272 264.838 48.8272H268.67V48.7144ZM265.853 54.0144H268.557C269.346 54.0144 269.91 53.9016 270.361 53.5633C270.811 53.225 271.037 52.774 271.037 52.0974C271.037 51.4208 270.811 50.9697 270.361 50.6315C269.91 50.2932 269.346 50.1804 268.557 50.1804H265.853V54.0144Z" fill="#F37721"/>
</svg>
