<svg width="20" height="20" viewBox="0 0 20 20" fill="none" xmlns="http://www.w3.org/2000/svg">
<g clip-path="url(#clip0)">
<mask id="path-1-inside-1" fill="white">
<path d="M9.25016 17.4087H0.916829C0.416829 17.4087 0.0834961 16.9901 0.0834961 16.5715V3.42845C0.0834961 2.92616 0.500163 2.59131 0.916829 2.59131H16.5835C17.0835 2.59131 17.4168 3.00988 17.4168 3.42845V8.03271"/>
</mask>
<path d="M9.25016 18.4087C9.80245 18.4087 10.2502 17.9609 10.2502 17.4087C10.2502 16.8564 9.80245 16.4087 9.25016 16.4087V18.4087ZM16.4168 8.03271C16.4168 8.58499 16.8645 9.03271 17.4168 9.03271C17.9691 9.03271 18.4168 8.58499 18.4168 8.03271H16.4168ZM9.25016 16.4087H0.916829V18.4087H9.25016V16.4087ZM0.916829 16.4087C0.933909 16.4087 0.959368 16.4128 0.98663 16.4251C1.01254 16.4367 1.03196 16.4521 1.04527 16.4664C1.06678 16.4896 1.0835 16.5217 1.0835 16.5715H-0.916504C-0.916504 17.4718 -0.203447 18.4087 0.916829 18.4087V16.4087ZM1.0835 16.5715V3.42845H-0.916504V16.5715H1.0835ZM1.0835 3.42845C1.0835 3.44358 1.07985 3.46743 1.06816 3.49358C1.05706 3.51844 1.04225 3.53756 1.02789 3.55102C1.00456 3.5729 0.970375 3.59131 0.916829 3.59131V1.59131C0.00955471 1.59131 -0.916504 2.31416 -0.916504 3.42845H1.0835ZM0.916829 3.59131H16.5835V1.59131H0.916829V3.59131ZM16.5835 3.59131C16.5664 3.59131 16.541 3.5872 16.5137 3.57491C16.4878 3.56323 16.4684 3.54789 16.4551 3.53357C16.4335 3.51041 16.4168 3.47823 16.4168 3.42845H18.4168C18.4168 2.52813 17.7038 1.59131 16.5835 1.59131V3.59131ZM16.4168 3.42845V8.03271H18.4168V3.42845H16.4168Z" fill="#767676" mask="url(#path-1-inside-1)"/>
<path d="M0 6.94446H17.4167" stroke="#767676" stroke-miterlimit="10" stroke-linecap="round" stroke-linejoin="round"/>
<path d="M3.5 0.833344V3.42847" stroke="#767676" stroke-miterlimit="10" stroke-linecap="round" stroke-linejoin="round"/>
<path d="M13.9167 0.833344V3.42847" stroke="#767676" stroke-miterlimit="10" stroke-linecap="round" stroke-linejoin="round"/>
<path d="M19.5002 14.8136C19.5002 16.9673 17.8052 18.6667 15.6668 18.6667C13.5284 18.6667 11.8335 16.9673 11.8335 14.8136C11.8335 12.6599 13.5284 10.9604 15.6668 10.9604C17.8052 10.9604 19.5002 12.6599 19.5002 14.8136Z" stroke="#767676" stroke-miterlimit="10" stroke-linecap="round" stroke-linejoin="round"/>
<path d="M15.6665 12.2184V14.8135" stroke="#767676" stroke-miterlimit="10" stroke-linecap="round" stroke-linejoin="round"/>
<path d="M17.4165 16.5716L15.6665 14.8136" stroke="#767676" stroke-miterlimit="10" stroke-linecap="round" stroke-linejoin="round"/>
</g>
<defs>
<clipPath id="clip0">
<rect width="20" height="20" fill="white"/>
</clipPath>
</defs>
</svg>
