<svg width="20" height="18" viewBox="0 0 20 18" fill="none" xmlns="http://www.w3.org/2000/svg">
<path d="M6.47485 3.09177H18.9999" stroke="#363636" stroke-miterlimit="10" stroke-linecap="round" stroke-linejoin="round"/>
<path d="M4.15 3.09176C4.15 4.00133 3.475 4.68351 2.575 4.68351C1.675 4.68351 1 4.00133 1 3.09176C1 2.18218 1.675 1.5 2.575 1.5C3.4 1.5 4.15 2.18218 4.15 3.09176Z" stroke="#363636" stroke-miterlimit="10" stroke-linecap="round" stroke-linejoin="round"/>
<path d="M6.47485 8.625H18.9999" stroke="#363636" stroke-miterlimit="10" stroke-linecap="round" stroke-linejoin="round"/>
<path d="M4.15 8.62499C4.15 9.45877 3.4 10.2167 2.575 10.2167C1.675 10.2167 1 9.45877 1 8.62499C1 7.79121 1.675 7.03323 2.575 7.03323C3.4 7.03323 4.15 7.71541 4.15 8.62499Z" stroke="#363636" stroke-miterlimit="10" stroke-linecap="round" stroke-linejoin="round"/>
<path d="M6.47485 14.1583H18.9999" stroke="#363636" stroke-miterlimit="10" stroke-linecap="round" stroke-linejoin="round"/>
<path d="M4.15 14.1583C4.15 15.0678 3.475 15.75 2.575 15.75C1.675 15.75 1 15.0678 1 14.1583C1 13.2487 1.675 12.5665 2.575 12.5665C3.4 12.5665 4.15 13.2487 4.15 14.1583Z" stroke="#363636" stroke-miterlimit="10" stroke-linecap="round" stroke-linejoin="round"/>
</svg>
