<svg width="14" height="8" viewBox="0 0 14 8" fill="none" xmlns="http://www.w3.org/2000/svg">
<path d="M6.45372 0.217211L0.223657 6.27705C0.0794465 6.4172 0 6.6043 0 6.8038C0 7.00329 0.0794465 7.19039 0.223657 7.33055L0.682352 7.77681C0.981244 8.0672 1.46703 8.0672 1.76547 7.77681L6.9971 2.68822L12.2345 7.78246C12.3787 7.92261 12.571 8 12.776 8C12.9812 8 13.1734 7.92261 13.3178 7.78246L13.7763 7.33619C13.9206 7.19593 14 7.00894 14 6.80944C14 6.60995 13.9206 6.42285 13.7763 6.28269L7.54059 0.217211C7.39592 0.0767221 7.20277 -0.000441551 6.99744 1.43051e-06C6.79131 -0.000441551 6.59827 0.0767221 6.45372 0.217211Z" fill="#1F69B2"/>
</svg>
