<svg width="25" height="26" viewBox="0 0 25 26" fill="none" xmlns="http://www.w3.org/2000/svg">
<path d="M0.5 1H4.7L6.7 16.8C6.8 17.3 7.2 17.7 7.7 17.7H19.6C20 17.7 20.4 17.4 20.6 17L21.9 13.5" stroke="#F37721" stroke-miterlimit="10" stroke-linecap="round" stroke-linejoin="round"/>
<path d="M14.1 6.19995H5.70001" stroke="#F37721" stroke-miterlimit="10" stroke-linecap="round" stroke-linejoin="round"/>
<path d="M21.4 22.9C21.4 24.1 20.5 25 19.3 25C18.1 25 17.2 24.1 17.2 22.9C17.2 21.7 18.1 20.8 19.3 20.8C20.4 20.8 21.4 21.8 21.4 22.9Z" stroke="#F37721" stroke-miterlimit="10" stroke-linecap="round" stroke-linejoin="round"/>
<path d="M9.90001 22.9C9.90001 24.1 9.00001 25 7.80001 25C6.60001 25 5.70001 24.1 5.70001 22.9C5.70001 21.7 6.60001 20.8 7.80001 20.8C9.00001 20.8 9.90001 21.8 9.90001 22.9Z" stroke="#F37721" stroke-miterlimit="10" stroke-linecap="round" stroke-linejoin="round"/>
<path d="M21.4 3.09998V9.29998" stroke="#F37721" stroke-miterlimit="10" stroke-linecap="round" stroke-linejoin="round"/>
<path d="M24.5 6.19995H18.2" stroke="#F37721" stroke-miterlimit="10" stroke-linecap="round" stroke-linejoin="round"/>
</svg>
