<svg width="62" height="60" viewBox="0 0 62 60" fill="none" xmlns="http://www.w3.org/2000/svg">
<path d="M51.25 38.9032H10.75M35.25 23.4194H47H35.25ZM1 44.8387V45.6129C1 46.9032 1.5 47.9355 2.25 48.7097C3 49.4839 4 50 5.25 50H56.75C58 50 59 49.4839 59.75 48.7097C60.5 47.9355 61 46.9032 61 45.6129V44.8387H1ZM35.25 29.6129H47H35.25ZM54.75 41.2258V12.5806C54.75 11.8065 54.5 11.2903 54 10.7742C53.5 10.2581 53 10 52.25 10H44.25H17.75H9.75C9 10 8.5 10.2581 8 10.7742C7.5 11.2903 7.25 11.8065 7.25 12.5806V41.2258H54.75ZM20 19.0323C20 19.0323 20.25 19.0323 20 19.0323C21 18 21.75 17.7419 22.75 17.7419C23.75 17.7419 24.75 18.2581 25.5 19.0323C25.5 19.0323 25.5 19.0323 25.75 19.2903C26 19.5484 26.25 20.0645 26.5 20.3226C26.5 20.3226 26.5 20.5806 26.75 20.5806C27 21.0968 27 21.6129 27 22.3871C27 23.9355 26.75 25.2258 26 26.2581C25.75 26.7742 25.25 27.2903 25 27.5484C28 28.8387 29.5 29.6129 29.75 29.6129C30.5 30.129 31 31.1613 31 32.9677C31 33.4839 30.75 34 30 34.2581C29.5 34.5161 29 34.5161 28.5 34.7742C26.75 35.0323 24.75 35.2903 23 35.2903C21.25 35.2903 19.5 35.0323 17.5 34.7742C17 34.7742 16.5 34.5161 16 34.2581C15.5 33.7419 15.25 33.2258 15.25 32.7097C15.25 30.9032 15.75 29.871 16.5 29.3548C16.5 29.3548 18.25 28.5806 21.25 27.2903C20.75 27.2903 20.25 26.7742 20 26.2581C19.25 25.2258 18.75 23.9355 18.75 22.3871C18.75 21.871 18.75 21.0968 19 20.5806C19 20.5806 19 20.3226 19.25 20.3226C19.5 19.8065 19.75 19.2903 20 19.0323Z" stroke="#1F69B2" stroke-miterlimit="10" stroke-linecap="round" stroke-linejoin="round"/>
</svg>
