<svg width="22" height="22" viewBox="0 0 22 22" fill="none" xmlns="http://www.w3.org/2000/svg">
<path d="M20.1382 7.5625H14.9243C13.8978 7.5625 13.0625 8.39781 13.0625 9.42425V20.1383C13.0625 21.1647 13.8978 22 14.9243 22H20.1382C21.1647 22 22 21.1647 22 20.1383V9.42425C22 8.39781 21.1647 7.5625 20.1382 7.5625ZM20.625 20.1383C20.625 20.4071 20.4071 20.625 20.1382 20.625H14.9243C14.6554 20.625 14.4375 20.4071 14.4375 20.1383V9.42425C14.4375 9.15544 14.6554 8.9375 14.9243 8.9375H20.1382C20.4071 8.9375 20.625 9.15544 20.625 9.42425V20.1383Z" fill="#FFFFFF"/>
<path d="M21.3125 17.1875H13.75C13.3698 17.1875 13.0625 17.4955 13.0625 17.875C13.0625 18.2545 13.3698 18.5625 13.75 18.5625H21.3125C21.6927 18.5625 22 18.2545 22 17.875C22 17.4955 21.6927 17.1875 21.3125 17.1875Z" fill="#FFFFFF"/>
<path d="M18.0194 18.7618C17.765 18.5075 17.2899 18.5075 17.0431 18.7618C16.9187 18.8925 16.8438 19.0712 16.8438 19.25C16.8438 19.4287 16.9187 19.6074 17.0431 19.7381C17.1731 19.8618 17.3525 19.9375 17.5312 19.9375C17.71 19.9375 17.8887 19.8618 18.0194 19.7381C18.1431 19.6074 18.2188 19.4287 18.2188 19.25C18.2188 19.0712 18.1431 18.8925 18.0194 18.7618Z" fill="#FFFFFF"/>
<path d="M19.9128 0H2.07006C0.967312 0 0 0.959062 0 2.05219V14.586C0 15.6592 0.908875 16.5 2.07006 16.5H13.75C14.1302 16.5 14.4375 16.192 14.4375 15.8125C14.4375 15.433 14.1302 15.125 13.75 15.125H2.07006C1.73525 15.125 1.375 14.9187 1.375 14.586V2.05219C1.375 1.7105 1.71944 1.375 2.07006 1.375H19.9128C20.2661 1.375 20.625 1.71669 20.625 2.05219V8.9375C20.625 9.317 20.9323 9.625 21.3125 9.625C21.6927 9.625 22 9.317 22 8.9375V2.05219C22 0.959062 21.0244 0 19.9128 0Z" fill="#FFFFFF"/>
<path d="M7.5625 15.125C7.18231 15.125 6.875 15.433 6.875 15.8125V18.5625C6.875 18.942 7.18231 19.25 7.5625 19.25C7.94269 19.25 8.25 18.942 8.25 18.5625V15.8125C8.25 15.433 7.94269 15.125 7.5625 15.125Z" fill="#FFFFFF"/>
<path d="M13.75 17.875H5.5C5.11981 17.875 4.8125 18.183 4.8125 18.5625C4.8125 18.942 5.11981 19.25 5.5 19.25H13.75C14.1302 19.25 14.4375 18.942 14.4375 18.5625C14.4375 18.183 14.1302 17.875 13.75 17.875Z" fill="#FFFFFF"/>
<path d="M13.75 12.375H0.6875C0.307313 12.375 0 12.683 0 13.0625C0 13.442 0.307313 13.75 0.6875 13.75H13.75C14.1302 13.75 14.4375 13.442 14.4375 13.0625C14.4375 12.683 14.1302 12.375 13.75 12.375Z" fill="#FFFFFF"/>
<path d="M11 14.4375C10.6198 14.4375 10.3125 14.7455 10.3125 15.125V15.8125C10.3125 16.192 10.6198 16.5 11 16.5C11.3802 16.5 11.6875 16.192 11.6875 15.8125V15.125C11.6875 14.7455 11.3802 14.4375 11 14.4375Z" fill="#FFFFFF"/>
</svg>
