<svg xmlns="http://www.w3.org/2000/svg" width="30" height="30" fill="none"  xmlns:v="https://vecta.io/nano"><path d="M29.5 27H28v-9.5a.5.5 0 0 0-.91-.287l-7 10a.5.5 0 0 0 .41.787H27v1.5a.5.5 0 1 0 1 0V28h1.5a.5.5 0 1 0 0-1zM27 27h-5.54L27 19.086V27zm-6.5 2h-5.919l5.538-6.527a3.48 3.48 0 0 0-.785-4.722A4 4 0 0 0 13 21a.5.5 0 1 0 1 0 3 3 0 0 1 4.75-2.437 2.47 2.47 0 0 1 .55 3.332l-6.181 7.281A.5.5 0 0 0 13.5 30h7a.5.5 0 1 0 0-1zm-6.989-2.49a.5.5 0 0 0-.481-.518A12.49 12.49 0 0 1 1.018 14H3a.5.5 0 1 0 0-1H1.018A12.47 12.47 0 0 1 13 1.018V2.5a.5.5 0 1 0 1 0V1.018a12.48 12.48 0 0 1 11.976 11.75l-1.95-1.95a.5.5 0 0 0-.707.707l2.791 2.791a.49.49 0 0 0 .197.143.42.42 0 0 0 .059.014.48.48 0 0 0 .106.025h.029a.48.48 0 0 0 .112-.022.47.47 0 0 0 .061-.011c.068-.024.129-.063.181-.113l2.829-2.828a.5.5 0 0 0-.707-.707l-1.998 1.997A13.48 13.48 0 0 0 13.536.007C13.523.007 13.513 0 13.5 0s-.023.007-.036.007A13.48 13.48 0 0 0 .007 13.465c0 .013-.007.023-.007.036s.007.023.007.036a13.49 13.49 0 0 0 12.986 13.455h.018a.5.5 0 0 0 .499-.481zm6.707-19.727a.5.5 0 0 0-.707 0l-5.373 5.373c-.406-.181-.87-.181-1.276 0l-2.544-2.544a.5.5 0 0 0-.707.707l2.539 2.539a1.5 1.5 0 0 0 2.411 1.704c.451-.447.567-1.132.289-1.703l5.368-5.368a.5.5 0 0 0 0-.707zm-6.364 7.071a.51.51 0 0 1-.707 0 .5.5 0 1 1 .707 0z" fill="#767676"/><defs /></svg>