<svg width="24" height="24" viewBox="0 0 24 24" fill="none" xmlns="http://www.w3.org/2000/svg">
<g clip-path="url(#clip0)">
<path d="M15.4026 8.69531C15.0841 8.69531 14.8259 8.94692 14.8259 9.25737V19.8803C14.8259 20.1906 15.0841 20.4424 15.4026 20.4424C15.7212 20.4424 15.9793 20.1906 15.9793 19.8803V9.25737C15.9793 8.94692 15.7212 8.69531 15.4026 8.69531Z" fill="#767676"/>
<path d="M8.59757 8.69531C8.27904 8.69531 8.02087 8.94692 8.02087 9.25737V19.8803C8.02087 20.1906 8.27904 20.4424 8.59757 20.4424C8.9161 20.4424 9.17427 20.1906 9.17427 19.8803V9.25737C9.17427 8.94692 8.9161 8.69531 8.59757 8.69531Z" fill="#767676"/>
<path d="M3.63803 7.14505V20.993C3.63803 21.8115 3.94598 22.5802 4.48393 23.1317C5.0194 23.6848 5.7646 23.9988 6.54449 24.0001H17.4558C18.2359 23.9988 18.9811 23.6848 19.5163 23.1317C20.0543 22.5802 20.3622 21.8115 20.3622 20.993V7.14505C21.4316 6.86841 22.1245 5.86153 21.9815 4.79208C21.8382 3.72285 20.9035 2.92301 19.797 2.92279H16.8444V2.22021C16.8477 1.62939 16.6081 1.06206 16.1789 0.644687C15.7498 0.227533 15.1668 -0.00475636 14.5606 7.38502e-05H9.43968C8.83348 -0.00475636 8.25047 0.227533 7.82133 0.644687C7.39219 1.06206 7.1525 1.62939 7.15588 2.22021V2.92279H4.20324C3.0967 2.92301 2.16205 3.72285 2.01878 4.79208C1.87573 5.86153 2.56867 6.86841 3.63803 7.14505ZM17.4558 22.8759H6.54449C5.55848 22.8759 4.79142 22.0504 4.79142 20.993V7.19445H19.2088V20.993C19.2088 22.0504 18.4418 22.8759 17.4558 22.8759ZM8.30927 2.22021C8.30544 1.92755 8.42348 1.64586 8.63659 1.43926C8.84947 1.23266 9.13917 1.11915 9.43968 1.1242H14.5606C14.8611 1.11915 15.1508 1.23266 15.3637 1.43926C15.5768 1.64564 15.6948 1.92755 15.691 2.22021V2.92279H8.30927V2.22021ZM4.20324 4.04691H19.797C20.3703 4.04691 20.8351 4.49985 20.8351 5.05862C20.8351 5.61739 20.3703 6.07033 19.797 6.07033H4.20324C3.62992 6.07033 3.16519 5.61739 3.16519 5.05862C3.16519 4.49985 3.62992 4.04691 4.20324 4.04691Z" fill="#767676"/>
<path d="M12.0002 8.69531C11.6816 8.69531 11.4235 8.94692 11.4235 9.25737V19.8803C11.4235 20.1906 11.6816 20.4424 12.0002 20.4424C12.3187 20.4424 12.5769 20.1906 12.5769 19.8803V9.25737C12.5769 8.94692 12.3187 8.69531 12.0002 8.69531Z" fill="#767676"/>
</g>
<defs>
<clipPath id="clip0">
<rect width="24" height="24" fill="white"/>
</clipPath>
</defs>
</svg>
