<svg xmlns="http://www.w3.org/2000/svg" width="64" height="68" fill="none"  xmlns:v="https://vecta.io/nano"><g fill="#1f69b2"><ellipse opacity=".2" cx="31.059" cy="36.833" rx="23.529" ry="23.611"/><ellipse cx="46.118" cy="9.444" rx="3.765" ry="3.778"/></g><g fill="#ffcd34"><ellipse cx="26.353" cy="2.833" rx="2.824" ry="2.833"/><ellipse cx="4.706" cy="52.889" rx="2.824" ry="2.833"/></g><g fill="#ddd"><ellipse cx="47.059" cy="65.167" rx="2.824" ry="2.833"/><ellipse cx="61.176" cy="28.333" rx="2.824" ry="2.833"/></g><g fill="#f1f1f1"><ellipse cx="1.882" cy="25.5" rx="1.882" ry="1.889"/><ellipse cx="13.177" cy="15.111" rx="1.882" ry="1.889"/><ellipse cx="25.412" cy="9.444" rx="1.882" ry="1.889"/></g><g clip-path="url(#A)"><path d="M49.814 26.436L28.272 48.053c-.974.977-2.552.977-3.525 0L12.07 35.332a2.51 2.51 0 0 1 0-3.538l21.542-21.617c.974-.977 2.552-.977 3.525 0l12.677 12.721a2.51 2.51 0 0 1 0 3.538z" fill="#8cbafa"/><path d="M49.814 22.898l-1.582-1.588c.867.87.78 2.367-.193 3.344L26.496 46.272c-.973.977-2.465 1.064-3.332.194l1.582 1.588c.973.977 2.552.977 3.525 0l21.542-21.617a2.51 2.51 0 0 0 0-3.538z" fill="#5692d8"/><g fill="#252d4c"><path d="M16.212 34.442c-.174 0-.347-.067-.479-.199a.68.68 0 0 1 0-.961l10.552-10.588c.264-.265.693-.265.957 0a.68.68 0 0 1 0 .96L16.69 34.244c-.132.132-.305.199-.478.199zm3.353 3.365a.67.67 0 0 1-.479-.199.68.68 0 0 1 0-.96L29.638 26.06c.264-.265.693-.265.957 0a.68.68 0 0 1 0 .96L20.043 37.608a.67.67 0 0 1-.478.199z"/></g><g fill="#ffcd34"><path d="M33.26 15.104l-2.111 2.118a2.14 2.14 0 0 0 0 3.015 2.12 2.12 0 0 0 3.005 0l2.111-2.118a2.14 2.14 0 0 0 0-3.016 2.12 2.12 0 0 0-3.005 0zM51.848 32.82H21.382c-1.377 0-2.493 1.12-2.493 2.502v17.99a2.5 2.5 0 0 0 2.493 2.502h30.466c1.377 0 2.493-1.12 2.493-2.501v-17.99c0-1.381-1.116-2.501-2.493-2.501z"/></g><path d="M51.848 32.82h-2.231c1.377 0 2.493 1.12 2.493 2.502v17.99c0 1.381-1.116 2.502-2.493 2.502h2.231c1.377 0 2.493-1.12 2.493-2.501v-17.99c0-1.381-1.116-2.501-2.493-2.501z" fill="#e69012"/><path d="M18.89 38.471h35.452v4.322H18.89v-4.322z" fill="#575b7a"/><path d="M52.11 38.471h2.231v4.322H52.11v-4.322z" fill="#252d4c"/><g fill="#e9e9ea"><path d="M45.628 49.699v2.666c0 .206.166.373.372.373h4.225c.206 0 .372-.167.372-.373v-2.666c0-.206-.166-.373-.372-.373H46c-.206 0-.372.167-.372.373zm-12.739 0v2.666c0 .206.167.373.372.373h8.937c.206 0 .372-.167.372-.373v-2.666c0-.206-.166-.373-.372-.373H33.26c-.205 0-.372.167-.372.373z"/></g><path d="M29.246 53.417h-4.452a.68.68 0 0 1-.677-.679.68.68 0 0 1 .677-.679h4.452a.68.68 0 0 1 .677.679.68.68 0 0 1-.677.679z" fill="#252d4c"/></g><defs><clipPath id="A"><path fill="#fff" transform="translate(11.294 9.444)" d="M0 0h46.118v46.278H0z"/></clipPath></defs></svg>