<svg width="16" height="16" viewBox="0 0 16 16" fill="none" xmlns="http://www.w3.org/2000/svg">
<path d="M15.3743 0H0.625001C0.279786 0 0 0.279786 0 0.625001C0 2.36548 0.746096 4.02711 2.047 5.18348L4.78419 7.61635C5.2588 8.03823 5.53102 8.64443 5.53102 9.27956V15.3743C5.53102 15.8724 6.08766 16.1709 6.50258 15.8942L10.19 13.4361C10.3638 13.3201 10.4683 13.125 10.4683 12.916V9.27956C10.4683 8.64443 10.7405 8.03823 11.2151 7.61635L13.9522 5.18348C15.2531 4.02711 15.9992 2.36548 15.9992 0.625001C15.9992 0.279786 15.7194 0 15.3743 0ZM13.1217 4.24916L10.3847 6.68214C9.64346 7.34108 9.21828 8.28774 9.21828 9.27944V12.5816L6.7809 14.2065V9.27956C6.7809 8.28774 6.35573 7.34108 5.61452 6.68214L2.87745 4.24928C2.00025 3.46937 1.44031 2.40076 1.29041 1.24988H14.7088C14.5589 2.40076 13.9991 3.46937 13.1217 4.24916Z" fill="#363636"/>
</svg>
