<svg xmlns="http://www.w3.org/2000/svg" width="34" height="34" fill="none"  xmlns:v="https://vecta.io/nano"><rect x=".5" y=".5" width="33" height="33" rx="3.5" fill="#fff" stroke="#ddd"/><g fill-rule="evenodd"><path d="M18.971 13.918c.554-.128 1.133-.149 1.698-.079.364.046.722.134 1.067.253l-.318 1.395c-.435-.188-.91-.297-1.388-.31-.241-.005-.487.009-.714.089-.137.048-.268.124-.357.235-.074.093-.112.215-.083.33a.52.52 0 0 0 .18.26c.146.122.318.212.489.301.383.193.779.372 1.123.626.293.213.543.494.655.831.092.266.096.552.053.827-.051.328-.189.644-.403.907-.252.313-.601.547-.98.706-.438.184-.916.273-1.393.302-.538.031-1.079-.016-1.606-.118-.258-.053-.515-.118-.756-.221l.328-1.44.679.262c.268.08.547.127.828.145.257.014.518.018.77-.04.198-.045.398-.124.535-.271.132-.14.169-.353.085-.524-.068-.133-.192-.23-.318-.314-.191-.124-.399-.222-.606-.318-.41-.191-.814-.418-1.123-.741a1.48 1.48 0 0 1-.423-.862c-.033-.342.034-.692.194-1.001a2.02 2.02 0 0 1 .497-.613c.362-.307.817-.504 1.287-.615z" fill="#243881"/><path d="M5.442 13.921h3.049a.98.98 0 0 1 .26.03.82.82 0 0 1 .449.294.86.86 0 0 1 .159.357l.498 2.489.263 1.306 1.883-4.475h1.901l-2.933 6.579c-.637 0-1.274-.002-1.91.001l-1.425-5.177c-.043-.148-.076-.304-.168-.433s-.254-.208-.403-.277c-.366-.164-.754-.28-1.145-.382l-.52-.12.042-.19z" fill="#192164"/><path d="M14.591 14.318l.092-.399 1.808.001-1.497 6.578h-1.81l1.407-6.181z" fill="#28327b"/><path d="M24.025 14.397a.83.83 0 0 1 .738-.476l1.575-.001 1.461 6.58c-.558 0-1.116 0-1.674 0l-.22-.982c-.773 0-1.547 0-2.32 0l-.378.982h-1.901l2.718-6.102zm.081 3.77h1.5l-.548-2.467-.953 2.467z" fill="#344490"/></g></svg>