<svg width="20" height="20" viewBox="0 0 20 20" fill="none" xmlns="http://www.w3.org/2000/svg">
<path d="M10 0C4.486 0 0 4.486 0 10C0 12.415 0.860667 14.6327 2.29133 16.3627C2.295 16.3677 2.29533 16.374 2.29933 16.3787C3.33233 17.6243 4.62967 18.5793 6.07533 19.1963C6.092 19.2033 6.10833 19.211 6.125 19.218C6.242 19.2673 6.36033 19.313 6.479 19.3577C6.52567 19.3753 6.57233 19.3933 6.61967 19.4103C6.722 19.447 6.825 19.4817 6.92867 19.515C6.995 19.5363 7.06133 19.5573 7.12833 19.5773C7.22 19.6047 7.312 19.631 7.40467 19.656C7.486 19.678 7.568 19.6983 7.65 19.718C7.733 19.738 7.81633 19.758 7.9 19.7757C7.99333 19.7957 8.08767 19.8133 8.18233 19.8307C8.25833 19.8447 8.334 19.8593 8.41067 19.8717C8.51567 19.8887 8.62133 19.902 8.72733 19.9157C8.79567 19.9243 8.86367 19.9343 8.93233 19.9417C9.05233 19.9543 9.17333 19.9633 9.29467 19.9717C9.351 19.9757 9.407 19.9817 9.46367 19.9847C9.64067 19.9947 9.81967 20 10 20C10.1803 20 10.3593 19.9947 10.537 19.9853C10.5937 19.9823 10.6497 19.9763 10.706 19.9723C10.8273 19.9637 10.9483 19.955 11.0683 19.9423C11.137 19.935 11.205 19.925 11.2733 19.9163C11.3793 19.9027 11.485 19.8893 11.59 19.8723C11.6663 19.86 11.7423 19.8453 11.8183 19.8313C11.9127 19.814 12.007 19.7963 12.1007 19.7763C12.1843 19.7583 12.2673 19.7387 12.3507 19.7187C12.4327 19.6987 12.5147 19.6783 12.596 19.6567C12.6887 19.632 12.7807 19.6053 12.8723 19.578C12.9393 19.558 13.0057 19.537 13.072 19.5157C13.1757 19.4823 13.2787 19.4477 13.381 19.411C13.428 19.394 13.4747 19.376 13.5217 19.3583C13.6407 19.3137 13.7587 19.2677 13.8757 19.2187C13.8923 19.2117 13.9087 19.204 13.9253 19.197C15.3707 18.58 16.6683 17.625 17.7013 16.3793C17.7053 16.3747 17.7057 16.368 17.7093 16.3633C19.1393 14.6327 20 12.415 20 10C20 4.486 15.514 0 10 0ZM14.0523 18.4067C14.0473 18.409 14.0427 18.4117 14.0377 18.414C13.9187 18.4713 13.7977 18.5253 13.6757 18.578C13.648 18.5897 13.6207 18.6017 13.593 18.6133C13.4863 18.658 13.3783 18.7003 13.2697 18.741C13.2243 18.758 13.179 18.7747 13.1333 18.7907C13.037 18.825 12.9403 18.858 12.8427 18.8893C12.782 18.9087 12.721 18.927 12.66 18.945C12.5733 18.971 12.4863 18.996 12.3983 19.0193C12.3243 19.039 12.2497 19.057 12.175 19.0747C12.0967 19.0933 12.0187 19.1123 11.9397 19.129C11.8533 19.1473 11.7663 19.163 11.6797 19.1787C11.6093 19.1917 11.5393 19.2053 11.4683 19.2167C11.3707 19.232 11.272 19.2443 11.1737 19.2567C11.1113 19.2647 11.0493 19.274 10.9863 19.2807C10.874 19.2927 10.7607 19.3003 10.6477 19.3083C10.5973 19.3117 10.5473 19.3173 10.4963 19.32C10.3313 19.3287 10.166 19.3333 10 19.3333C9.834 19.3333 9.66867 19.3287 9.504 19.32C9.45333 19.3173 9.40333 19.312 9.35267 19.3083C9.23933 19.3007 9.12633 19.2927 9.014 19.2807C8.951 19.274 8.889 19.2647 8.82667 19.2567C8.72833 19.2443 8.62967 19.232 8.532 19.2167C8.461 19.2053 8.391 19.1917 8.32067 19.1787C8.23367 19.163 8.14667 19.147 8.06067 19.129C7.98167 19.1123 7.90333 19.0933 7.82533 19.0747C7.75067 19.0567 7.676 19.039 7.602 19.0193C7.51433 18.996 7.427 18.9707 7.34033 18.945C7.27933 18.927 7.21833 18.9087 7.15767 18.8893C7.06 18.858 6.963 18.825 6.867 18.7907C6.82133 18.7743 6.776 18.7577 6.73067 18.741C6.622 18.7003 6.514 18.658 6.40733 18.6133C6.37967 18.602 6.35267 18.59 6.325 18.5783C6.203 18.526 6.082 18.4717 5.96267 18.4143C5.95767 18.412 5.953 18.4097 5.948 18.407C4.785 17.8443 3.75767 17.0457 2.924 16.0757C3.56833 13.703 5.39233 11.7903 7.739 11.0293C7.78533 11.0577 7.83367 11.083 7.88133 11.1097C7.90933 11.1253 7.937 11.142 7.96533 11.157C8.06467 11.2097 8.16533 11.259 8.26833 11.3033C8.34733 11.338 8.429 11.3673 8.51033 11.3973C8.52633 11.403 8.54233 11.4093 8.55833 11.415C9.01033 11.575 9.494 11.6667 10 11.6667C10.506 11.6667 10.9897 11.575 11.4413 11.415C11.4573 11.4093 11.4733 11.403 11.4893 11.3973C11.5707 11.3673 11.6523 11.338 11.7313 11.3033C11.8343 11.259 11.935 11.2097 12.0343 11.157C12.0627 11.1417 12.0903 11.1253 12.1183 11.1097C12.166 11.083 12.2147 11.0577 12.2613 11.029C14.608 11.7903 16.4317 13.703 17.0763 16.0753C16.2427 17.045 15.2153 17.8437 14.0523 18.4067ZM6.33333 7.33333C6.33333 5.31167 7.97833 3.66667 10 3.66667C12.0217 3.66667 13.6667 5.31167 13.6667 7.33333C13.6667 8.61933 12.9997 9.751 11.9947 10.4057C11.8633 10.491 11.7267 10.5673 11.5863 10.634C11.5697 10.642 11.5533 10.6503 11.5367 10.658C10.5713 11.097 9.42867 11.097 8.46333 10.658C8.44667 10.6503 8.43 10.642 8.41367 10.634C8.273 10.5673 8.13667 10.491 8.00533 10.4057C7.00033 9.751 6.33333 8.61933 6.33333 7.33333ZM17.5763 15.441C16.8207 13.2097 15.0967 11.4063 12.894 10.5497C13.775 9.756 14.3333 8.61 14.3333 7.33333C14.3333 4.944 12.3893 3 10 3C7.61067 3 5.66667 4.944 5.66667 7.33333C5.66667 8.61 6.225 9.756 7.10633 10.5497C4.90367 11.4067 3.17967 13.2097 2.424 15.441C1.31967 13.908 0.666667 12.0293 0.666667 10C0.666667 4.85367 4.85367 0.666667 10 0.666667C15.1463 0.666667 19.3333 4.85367 19.3333 10C19.3333 12.0293 18.6803 13.908 17.5763 15.441Z" fill="#767676"/>
</svg>
