<svg width="22" height="22" viewBox="0 0 22 22" fill="none" xmlns="http://www.w3.org/2000/svg">
<path d="M19.9228 1.71919C18.8391 0.61059 17.4541 4.36114e-05 16.0231 4.36114e-05C13.9628 4.36114e-05 12.0819 1.26813 11 3.27815C9.91803 1.26817 8.03715 0 5.97684 0C4.36029 0 2.84816 0.758295 1.71907 2.13525C0.621307 3.47403 0.0108354 5.25051 0.000109585 7.13744C-0.00911463 8.75832 0.564031 10.501 1.70363 12.3173C2.58967 13.7295 3.82215 15.1953 5.3668 16.674C7.97588 19.1718 10.5487 20.8299 10.657 20.8992C10.7618 20.9664 10.8809 21 11 21C11.1198 21 11.2396 20.9661 11.3448 20.8981C11.4523 20.8287 14.0066 19.1707 16.6061 16.6732C18.1447 15.195 19.3756 13.7297 20.2644 12.3182C21.4068 10.504 21.9907 8.76351 21.9999 7.14503C22.0117 5.0593 21.2547 3.08166 19.9228 1.71919ZM2.70757 2.97371C3.58777 1.90023 4.74882 1.30906 5.97684 1.30906C7.94087 1.30906 9.71153 2.85842 10.3829 5.16442C10.4638 5.44238 10.715 5.63311 11 5.63311C11.2851 5.63311 11.5362 5.44238 11.6171 5.16442C12.2884 2.85838 14.0591 1.30906 16.0231 1.30906C17.109 1.30906 18.1698 1.7825 19.0101 2.64216C20.1021 3.75923 20.7227 5.39765 20.7128 7.13744C20.7116 7.3389 20.6993 7.54076 20.677 7.74279H17.2077C17.1318 6.73857 16.3041 5.94506 15.2976 5.94506C14.2413 5.94506 13.3818 6.81916 13.3818 7.89355V10.5791C13.3818 10.9317 13.0998 11.2185 12.7532 11.2185C12.4065 11.2185 12.1245 10.9317 12.1245 10.5791V8.76787C12.1245 7.69348 11.2651 6.81942 10.2087 6.81942C9.15233 6.81942 8.29289 7.69348 8.29289 8.76787V12.6316C8.29289 12.9842 8.01085 13.271 7.66419 13.271C7.31753 13.271 7.03553 12.9842 7.03553 12.6316V10.1979C7.03553 9.83646 6.74739 9.5434 6.39198 9.5434H1.74949C1.45423 8.7499 1.28262 7.94391 1.28717 7.14499C1.29618 5.56111 1.80059 4.07973 2.70757 2.97371ZM15.7371 15.7073C13.7691 17.6005 11.779 19.0262 10.9988 19.5617C10.2144 19.0271 8.2103 17.6008 6.23405 15.7065C4.86492 14.3941 3.33859 12.689 2.34829 10.8525H5.74843V12.6316C5.74843 13.706 6.60782 14.5801 7.66419 14.5801C8.72055 14.5801 9.57999 13.706 9.57999 12.6316V8.76783C9.57999 8.41526 9.86204 8.12844 10.2087 8.12844C10.5554 8.12844 10.8374 8.41526 10.8374 8.76783V10.579C10.8374 11.6534 11.6968 12.5275 12.7532 12.5275C13.8095 12.5275 14.6689 11.6534 14.6689 10.579V7.89351C14.6689 7.54093 14.951 7.25408 15.2976 7.25408C15.6443 7.25408 15.9263 7.54093 15.9263 7.89351V8.39728C15.9263 8.75875 16.2144 9.05181 16.5698 9.05181H20.3978C19.6196 11.5549 17.5392 13.9737 15.7371 15.7073Z" fill="#767676"/>
</svg>
