<svg xmlns="http://www.w3.org/2000/svg" width="20" height="21" fill="none"  xmlns:v="https://vecta.io/nano"><path d="M19.875 9.334l-1.005-.705c-.064-2.31-1.027-4.505-2.683-6.116S12.309 0 9.998 0 5.467.902 3.81 2.514 1.192 6.32 1.128 8.63l-1.003.704c-.039.027-.07.063-.092.105S0 9.528 0 9.575v3.131c0 .047.011.093.033.135s.053.078.091.105l1.125.804c.05.036.109.055.171.055h1.12c.078 0 .153-.031.208-.086s.086-.13.086-.208V8.804a7.18 7.18 0 0 1 2.151-4.983c1.339-1.312 3.139-2.047 5.014-2.047s3.675.735 5.014 2.047 2.111 3.096 2.149 4.971c0 .011.003.022.004.032v4.686c0 .078.031.153.086.208s.13.086.208.086h.266v.339c-.001.447-.162.88-.453 1.219s-.695.563-1.137.632c.375-.85.569-1.768.568-2.697V8.983c0-1.778-.706-3.484-1.964-4.741s-2.963-1.964-4.741-1.964-3.484.706-4.741 1.964-1.964 2.963-1.964 4.741v4.315c0 1.48.489 2.919 1.392 4.092s2.169 2.014 3.6 2.392 2.947.271 4.311-.303 2.5-1.583 3.231-2.871h.024c.653-.001 1.28-.261 1.742-.723s.722-1.088.723-1.742v-.339h.266c.061 0 .121-.019.171-.055l1.125-.804c.038-.027.069-.063.091-.105s.033-.088.033-.135V9.575c0-.047-.011-.094-.033-.136s-.053-.078-.092-.105zM9.999 2.867c1.622.002 3.176.647 4.323 1.794s1.792 2.701 1.794 4.323v1.586l-.614.035c-1.063-.003-2.107-.284-3.027-.815s-1.686-1.295-2.22-2.214c-.026-.045-.063-.082-.108-.107s-.095-.039-.147-.039-.102.014-.147.039-.082.063-.108.107c-.534.919-1.299 1.682-2.22 2.214s-1.964.812-3.027.815l-.614-.035V8.983c.002-1.622.647-3.176 1.794-4.323s2.701-1.792 4.323-1.794h0zm0 16.548c-1.622-.002-3.176-.647-4.323-1.794s-1.792-2.701-1.794-4.323v-2.138l.614.032c1.085-.003 2.153-.27 3.112-.778a6.68 6.68 0 0 0 2.39-2.139 6.68 6.68 0 0 0 2.391 2.139c.959.508 2.027.775 3.113.777.205 0 .41-.013.614-.032v2.138a6.08 6.08 0 0 1-.641 2.721h-2.762a.96.96 0 0 0-.913-.665h-1.166a.96.96 0 0 0-.959.959.96.96 0 0 0 .959.959H11.8a.96.96 0 0 0 .913-.665h2.426c-.554.86-1.314 1.568-2.212 2.059s-1.905.748-2.928.748h0zm2.17-3.083a.37.37 0 0 1-.369.352h-1.166a.37.37 0 0 1-.37-.37.37.37 0 0 1 .37-.37H11.8a.37.37 0 0 1 .369.352c-.002.024 0 .029 0 .035zm-9.924-3.116h-.731l-.925-.661V9.729l.923-.648h.733v4.135zm7.754-12.03a7.8 7.8 0 0 0-7.741 7.305H1.72A8.29 8.29 0 0 1 9.999.59a8.29 8.29 0 0 1 8.279 7.902h-.538a7.8 7.8 0 0 0-7.74-7.306v.001zm9.412 11.37l-.925.661h-.731V9.08h.733l.923.648v2.828z" fill="#767676"/><defs /></svg>