<svg width="24" height="24" viewBox="0 0 24 24" fill="none" xmlns="http://www.w3.org/2000/svg">
<path d="M20.9882 7.40625H16.8622V4.92188C16.8622 2.20795 14.681 0 12.0001 0C9.31907 0 7.13792 2.20795 7.13792 4.92188V7.40625H3.01191L2.00003 24H22L20.9882 7.40625ZM8.5271 4.92188C8.5271 2.98336 10.0851 1.40625 12.0001 1.40625C13.915 1.40625 15.473 2.98336 15.473 4.92188V7.40625H8.5271V4.92188ZM3.47766 22.5938L4.31802 8.8125H7.13792V10.3397C6.32946 10.6299 5.74874 11.4115 5.74874 12.3281C5.74874 13.4912 6.68352 14.4375 7.83251 14.4375C8.9815 14.4375 9.91628 13.4912 9.91628 12.3281C9.91628 11.4115 9.33556 10.6299 8.5271 10.3397V8.8125H15.473V10.3397C14.6646 10.6299 14.0838 11.4115 14.0838 12.3281C14.0838 13.4912 15.0186 14.4375 16.1676 14.4375C17.3166 14.4375 18.2514 13.4912 18.2514 12.3281C18.2514 11.4115 17.6706 10.6299 16.8622 10.3397V8.8125H19.6821L20.5225 22.5938H3.47766ZM8.5271 12.3281C8.5271 12.7158 8.21551 13.0312 7.83251 13.0312C7.44951 13.0312 7.13792 12.7158 7.13792 12.3281C7.13792 11.9404 7.44951 11.625 7.83251 11.625C8.21551 11.625 8.5271 11.9404 8.5271 12.3281ZM16.8622 12.3281C16.8622 12.7158 16.5506 13.0312 16.1676 13.0312C15.7846 13.0312 15.473 12.7158 15.473 12.3281C15.473 11.9404 15.7846 11.625 16.1676 11.625C16.5506 11.625 16.8622 11.9404 16.8622 12.3281Z" fill="#767676"/>
</svg>
