<svg width="70" height="62" viewBox="0 0 70 62" fill="none" xmlns="http://www.w3.org/2000/svg">
<path d="M50.0014 34.8131C50.1654 34.6492 50.1654 34.4032 50.0014 34.2392C49.9467 34.1845 49.8647 34.1299 49.7827 34.1299L40.0528 32.7086C39.9162 32.6813 39.8069 32.5993 39.7522 32.49L35.3792 23.662C35.2699 23.4707 35.0512 23.3887 34.8326 23.4707C34.7506 23.498 34.6959 23.58 34.6413 23.662L30.2956 32.49C30.2409 32.5993 30.1316 32.6813 29.9949 32.7086L20.265 34.1299C20.0464 34.1572 19.9097 34.3758 19.9371 34.5945C19.9371 34.6765 19.9917 34.7585 20.0464 34.8131L27.0978 41.6733C27.1798 41.7553 27.2345 41.8919 27.2072 42.0286L25.54 51.7312C25.5126 51.9498 25.6493 52.1411 25.8679 52.1958C25.9499 52.2231 26.0319 52.1958 26.1139 52.1685L34.8326 47.5768C34.9419 47.5222 35.0786 47.5222 35.2152 47.5768L43.9339 52.1685C44.1252 52.2778 44.3712 52.1958 44.4805 52.0045C44.5078 51.9225 44.5352 51.8405 44.5078 51.7585L42.8406 42.0559C42.8133 41.9193 42.868 41.7826 42.9499 41.7006L50.0014 34.8131Z" fill="#FFCD29"/>
<path d="M64.5415 33.2826C64.6781 33.1459 64.6781 32.9546 64.5415 32.818C64.4868 32.7633 64.4322 32.736 64.3502 32.736L56.5334 31.5881C56.4241 31.5607 56.3421 31.5061 56.2875 31.4241L52.7891 24.3453C52.7071 24.1813 52.5158 24.1266 52.3518 24.2086C52.2971 24.236 52.2424 24.2906 52.2151 24.3453L48.7167 31.4241C48.6621 31.5061 48.5801 31.5881 48.4707 31.5881L40.654 32.736C40.6267 32.736 40.572 32.7633 40.5447 32.7633L49.7553 34.1025C49.9739 34.1299 50.1106 34.3485 50.0833 34.5672C50.0833 34.6492 50.0286 34.7311 49.9739 34.7858L46.0109 38.6668L46.1476 38.8035C46.2296 38.8855 46.2569 38.9948 46.2296 39.0768L44.8903 46.8662C44.863 47.0302 44.9723 47.1942 45.1637 47.2488C45.2457 47.2488 45.3003 47.2488 45.355 47.2215L52.3518 43.5318C52.4338 43.4771 52.5431 43.4771 52.6524 43.5318L59.6492 47.2215C59.8132 47.3035 60.0045 47.2488 60.0865 47.0849C60.1138 47.0302 60.1412 46.9482 60.1138 46.8935L58.7746 39.1041C58.7473 38.9948 58.8019 38.8855 58.8566 38.8308L64.5415 33.2826Z" fill="#FFAE2C"/>
<path d="M23.7907 39.0768C23.7634 38.9675 23.8181 38.8582 23.8727 38.8035L24.0094 38.6668L20.0463 34.7858C19.8824 34.6218 19.8824 34.3758 20.0463 34.2119C20.101 34.1572 20.183 34.1025 20.265 34.1025L29.4756 32.7633C29.4483 32.736 29.421 32.736 29.3663 32.736L21.5496 31.5881C21.4402 31.5607 21.3582 31.5061 21.3036 31.4241L17.8052 24.3453C17.7232 24.1813 17.5319 24.1266 17.3679 24.2086C17.3132 24.236 17.2586 24.2906 17.2312 24.3453L13.7328 31.4241C13.6782 31.5061 13.5962 31.5881 13.4869 31.5881L5.67012 32.736C5.50614 32.7633 5.36948 32.9273 5.39681 33.0913C5.39681 33.1733 5.45147 33.2279 5.4788 33.2826L11.1364 38.8035C11.2184 38.8855 11.2457 38.9948 11.2184 39.0768L9.87913 46.8662C9.8518 47.0302 9.96112 47.1942 10.1524 47.2488C10.2344 47.2488 10.2891 47.2488 10.3438 47.2215L17.3406 43.5318C17.4225 43.4771 17.5319 43.4771 17.6412 43.5318L24.638 47.2215C24.802 47.3035 24.9933 47.2488 25.0753 47.0849C25.1026 47.0302 25.1299 46.9482 25.1026 46.8935L23.7907 39.0768Z" fill="#FFAE2C"/>
<path d="M69.2698 29.2922C69.3518 29.2102 69.3518 29.0736 69.2698 28.9916C69.2425 28.9643 69.1878 28.9369 69.1605 28.9369L64.1316 28.199C64.0769 28.199 63.9949 28.1443 63.9676 28.0897L61.7264 23.5527C61.6717 23.4434 61.5624 23.416 61.4531 23.4707C61.4258 23.498 61.3711 23.5254 61.3711 23.5527L59.1299 28.0897C59.1026 28.1443 59.0479 28.199 58.966 28.199L55.0029 28.7729L56.3148 31.4241C56.3695 31.5061 56.4515 31.5881 56.5608 31.5881L64.3775 32.736C64.5415 32.7633 64.6782 32.9273 64.6508 33.0913C64.6508 33.1733 64.5962 33.2279 64.5689 33.2826L61.8357 35.9611L66.1541 38.2296C66.2634 38.2842 66.3727 38.2569 66.4274 38.1476C66.4547 38.1202 66.4547 38.0656 66.4547 38.0109L65.6074 33.0093C65.6074 32.9546 65.6074 32.8726 65.6621 32.818L69.2698 29.2922Z" fill="#FC9322"/>
<path d="M11.0816 28.2263C11.0269 28.2263 10.9449 28.1716 10.9176 28.117L8.67646 23.58C8.62179 23.4707 8.51247 23.4433 8.40314 23.498C8.37581 23.5253 8.32115 23.5527 8.32115 23.58L6.07999 28.117C6.05266 28.1716 5.998 28.2263 5.916 28.2263L0.887058 28.9642C0.777733 28.9916 0.695739 29.0736 0.723071 29.2102C0.723071 29.2649 0.750402 29.2922 0.777733 29.3196L4.41279 32.8726C4.46745 32.9273 4.49478 32.9819 4.46745 33.0639L3.62018 38.0655C3.59285 38.1749 3.67484 38.2842 3.78417 38.3115C3.83883 38.3115 3.86616 38.3115 3.92082 38.2842L8.23916 35.961L5.50603 33.2826C5.36938 33.1459 5.36938 32.9546 5.50603 32.8179C5.5607 32.7633 5.61536 32.736 5.69735 32.736L13.5141 31.588C13.6234 31.5607 13.7054 31.506 13.7601 31.4241L15.072 28.7729L11.0816 28.2263Z" fill="#FC9322"/>
<path d="M16.5206 51.3485H16.0286V50.8566C16.0286 50.4739 15.728 50.1733 15.3453 50.1733C14.9627 50.1733 14.6621 50.4739 14.6621 50.8566V51.3485H14.1701C13.7875 51.3485 13.4868 51.6492 13.4868 52.0318C13.4868 52.4144 13.7875 52.7151 14.1701 52.7151H14.6621V53.207C14.6621 53.5897 14.9627 53.8903 15.3453 53.8903C15.728 53.8903 16.0286 53.5897 16.0286 53.207V52.7151H16.5206C16.9032 52.7151 17.2039 52.4144 17.2039 52.0318C17.2039 51.6492 16.9032 51.3485 16.5206 51.3485Z" fill="#55ACD5"/>
<path d="M32.1813 55.0929C32.1539 55.0109 32.1266 54.9289 32.0719 54.8469C32.0446 54.8196 32.0173 54.7649 31.99 54.7376C31.7166 54.4916 31.3067 54.4916 31.0334 54.7376C31.006 54.7649 30.9787 54.7923 30.9514 54.8469C30.924 54.8742 30.8967 54.9289 30.8967 54.9562C30.8694 55.0109 30.8694 55.0382 30.8694 55.0929C30.842 55.1749 30.842 55.2842 30.8694 55.3662C30.8694 55.4209 30.8967 55.4482 30.8967 55.5029C30.924 55.5302 30.924 55.5849 30.9514 55.6122C30.9787 55.6395 31.006 55.6942 31.0334 55.7215C31.3067 55.9948 31.7166 55.9948 31.99 55.7215C32.0173 55.6942 32.0446 55.6668 32.0719 55.6122C32.0993 55.5849 32.1266 55.5302 32.1266 55.5029C32.1539 55.4755 32.1539 55.4209 32.1539 55.3662C32.2086 55.2842 32.2086 55.1749 32.1813 55.0929Z" fill="#EA4647"/>
<path d="M43.6605 0.539791C43.6332 0.457798 43.6059 0.375804 43.5512 0.29381C43.5239 0.266479 43.4965 0.211817 43.4692 0.184486C43.1959 -0.0614952 42.7859 -0.0614952 42.5126 0.184486C42.4853 0.211817 42.4579 0.239148 42.4306 0.29381C42.4033 0.321142 42.376 0.375804 42.376 0.403135C42.3486 0.457798 42.3486 0.485129 42.3486 0.539791C42.3213 0.621785 42.3213 0.73111 42.3486 0.813103C42.3486 0.867766 42.376 0.895097 42.376 0.94976C42.4033 0.977091 42.4033 1.03175 42.4306 1.05908C42.4579 1.08642 42.4853 1.14108 42.5126 1.16841C42.7859 1.44172 43.1959 1.44172 43.4692 1.16841C43.4965 1.14108 43.5239 1.11375 43.5512 1.05908C43.5785 1.03175 43.6059 0.977091 43.6059 0.94976C43.6332 0.922428 43.6332 0.867766 43.6332 0.813103C43.6879 0.703779 43.6879 0.621785 43.6605 0.539791Z" fill="#FFCD29"/>
<path d="M52.5978 5.32276C51.4772 5.10411 50.6299 4.22951 50.4113 3.13627C50.4113 3.10893 50.3839 3.0816 50.3566 3.0816C50.3293 3.0816 50.3293 3.10893 50.3019 3.13627C50.0833 4.25685 49.2087 5.10411 48.1155 5.32276C48.0881 5.32276 48.0608 5.35009 48.0608 5.37743C48.0608 5.40476 48.0881 5.40476 48.1155 5.43209C49.236 5.65074 50.0833 6.52534 50.3019 7.61859C50.3019 7.64592 50.3293 7.67325 50.3566 7.67325C50.3839 7.67325 50.3839 7.64592 50.4113 7.61859C50.6299 6.49801 51.5045 5.65074 52.5978 5.43209C52.6251 5.43209 52.6524 5.40476 52.6524 5.37743C52.6524 5.35009 52.6251 5.32276 52.5978 5.32276Z" fill="#6DCC6D"/>
<path d="M26.6332 59.2199C25.5126 59.0013 24.6653 58.1267 24.4467 57.0334C24.4467 57.0061 24.4193 56.9788 24.392 56.9788C24.3647 56.9788 24.3647 57.0061 24.3374 57.0334C24.1187 58.154 23.2441 59.0013 22.1509 59.2199C22.1235 59.2199 22.0962 59.2473 22.0962 59.2746C22.0962 59.3019 22.1235 59.3019 22.1509 59.3292C23.2714 59.5479 24.1187 60.4225 24.3374 61.5157C24.3374 61.5431 24.3647 61.5704 24.392 61.5704C24.4193 61.5704 24.4193 61.5431 24.4467 61.5157C24.6653 60.3952 25.5399 59.5479 26.6332 59.3292C26.6605 59.3292 26.6878 59.3019 26.6878 59.2746C26.6605 59.2473 26.6605 59.2199 26.6332 59.2199Z" fill="#FFCD29"/>
<path d="M50.7393 34.1845C50.6027 33.8019 50.2747 33.5012 49.8647 33.4466L40.2715 32.0527L35.9805 23.3614C35.7891 22.9787 35.4338 22.7601 35.0239 22.7601C34.6139 22.7601 34.2313 23.0061 34.0673 23.3614L29.7763 32.0527L20.183 33.4466C19.5817 33.5286 19.1718 34.0752 19.2811 34.6765C19.3084 34.9225 19.4177 35.1411 19.6091 35.3051L26.5512 42.0559L24.9113 51.5945C24.802 52.1958 25.212 52.7424 25.7859 52.8517C26.0319 52.8791 26.2506 52.8517 26.4692 52.7424L35.0512 48.2328L43.6332 52.7424C44.1525 53.0157 44.8085 52.8244 45.0818 52.2778C45.1911 52.0591 45.2184 51.8132 45.1911 51.5945L43.5512 42.0559L50.4933 35.3051C50.7667 35.0045 50.876 34.5672 50.7393 34.1845ZM42.458 41.1813C42.212 41.4273 42.0753 41.7826 42.1573 42.1379L43.7152 51.2665L35.5158 46.9482C35.1879 46.7842 34.8326 46.7842 34.5046 46.9482L26.3052 51.2665L27.8631 42.1379C27.9178 41.7826 27.8084 41.4273 27.5625 41.1813L20.921 34.7038L30.0769 33.3646C30.4322 33.3099 30.7329 33.0913 30.8969 32.7633L34.9965 24.4546L39.0962 32.7633C39.2602 33.0913 39.5609 33.3099 39.9162 33.3646L49.0721 34.7038L42.458 41.1813Z" fill="#1F69B2"/>
<path d="M65.2795 32.7633C65.1701 32.408 64.8422 32.1347 64.4595 32.08L56.8341 30.9594L53.4177 24.0446C53.2537 23.6893 52.8984 23.498 52.5158 23.498C52.1331 23.498 51.7778 23.7167 51.6138 24.0446L48.1974 30.9594L40.572 32.08C40.4627 32.1074 40.3534 32.1347 40.2441 32.1893C39.9161 32.3807 39.7794 32.7906 39.9707 33.1186C40.0801 33.3099 40.2714 33.4466 40.4627 33.4739L49.0994 34.7311L45.5463 38.2022C45.273 38.4755 45.273 38.8855 45.5463 39.1588L44.2344 46.7569C44.1524 47.3035 44.5077 47.8228 45.0544 47.9048C45.273 47.9321 45.4917 47.9048 45.683 47.7955L52.5158 44.2151L59.3486 47.7955C59.8405 48.0415 60.4418 47.8775 60.7151 47.3855C60.8245 47.1942 60.8518 46.9755 60.8245 46.7569L59.5126 39.1588L65.0335 33.7746C65.2795 33.5012 65.3888 33.1186 65.2795 32.7633ZM58.392 38.3115C58.146 38.5302 58.0367 38.8855 58.0913 39.1861L59.2939 46.2376L52.9531 42.9032C52.6524 42.7392 52.3245 42.7392 52.0238 42.9032L45.683 46.2376L46.8855 39.1861C46.9129 39.0495 46.9129 38.8855 46.8582 38.7488L50.4386 35.2778C50.8759 34.8678 50.8759 34.1845 50.4659 33.7472C50.3019 33.5832 50.0833 33.4739 49.8373 33.4192L45.2183 32.736L48.5527 32.244C48.8807 32.1893 49.154 31.998 49.318 31.6974L52.5158 25.3019L55.6862 31.7247C55.8229 32.0254 56.1235 32.2167 56.4515 32.2713L63.5303 33.3099L58.392 38.3115Z" fill="#1F69B2"/>
<path d="M29.8035 32.1893C29.6942 32.1347 29.5849 32.1073 29.4756 32.08L21.8501 30.9594L18.4337 24.0446C18.1878 23.5527 17.5865 23.334 17.0945 23.58C16.9032 23.6893 16.7392 23.826 16.6299 24.0446L13.2135 30.9594L5.58807 32.08C5.04145 32.162 4.65881 32.6813 4.7408 33.2279C4.76814 33.4466 4.87746 33.6379 5.04145 33.8019L10.5624 39.1861L9.25046 46.7842C9.16846 47.3308 9.52377 47.8501 10.0704 47.9321C10.289 47.9594 10.5077 47.9321 10.699 47.8228L17.5318 44.2424L24.3646 47.8228C24.8566 48.0688 25.4579 47.9048 25.7312 47.4128C25.8405 47.2215 25.8678 47.0029 25.8405 46.7842L24.5286 39.1861C24.8019 38.9128 24.8019 38.4755 24.5286 38.2295L20.9755 34.7585L29.6122 33.5012C29.9948 33.4466 30.2408 33.0913 30.1862 32.736C30.1315 32.4626 29.9949 32.2713 29.8035 32.1893ZM20.1829 33.4466C19.5817 33.5286 19.1717 34.0752 19.281 34.6765C19.3083 34.9225 19.4177 35.1411 19.609 35.3051L23.1894 38.7762C23.162 38.9128 23.1347 39.0768 23.162 39.2135L24.3646 46.2649L18.0238 42.9305C17.7231 42.7665 17.3952 42.7665 17.0945 42.9305L10.7537 46.2649L11.9562 39.2135C12.0109 38.8855 11.9016 38.5575 11.6556 38.3389L6.51733 33.3372L13.5961 32.2987C13.9241 32.244 14.1974 32.0527 14.3614 31.752L17.5318 25.3019L20.7022 31.7247C20.8389 32.0253 21.1395 32.2167 21.4675 32.2713L24.8019 32.7633L20.1829 33.4466Z" fill="#1F69B2"/>
<path d="M69.953 28.8823C69.8437 28.5543 69.5704 28.3357 69.2424 28.281L64.4595 27.5977L62.3276 23.2794C62.191 22.9787 61.863 22.7874 61.535 22.7874C61.2071 22.7874 60.8791 22.9787 60.7424 23.2794L58.6106 27.5977L54.8935 28.1443C54.5109 28.199 54.2649 28.5543 54.3196 28.9096C54.3196 28.9916 54.3469 29.0463 54.3743 29.1009L55.6862 31.7521C55.8228 32.0527 56.1235 32.244 56.4514 32.2987L63.5302 33.3373L61.3164 35.4964C61.0431 35.7697 61.0431 36.1797 61.3164 36.453C61.371 36.5077 61.4257 36.535 61.4804 36.5897L65.7987 38.8582C66.236 39.0768 66.7826 38.9128 67.0013 38.4755C67.0833 38.3115 67.1106 38.0929 67.0833 37.9016L66.2633 33.1459L69.7071 29.7842C69.9804 29.5382 70.0624 29.2103 69.953 28.8823ZM62.9563 35.7971L65.0061 33.8019L65.5801 37.191L62.9563 35.7971ZM65.1428 32.3533C65.1154 32.3807 65.0881 32.408 65.0881 32.4353C64.9241 32.244 64.7055 32.1347 64.4595 32.08L56.8341 30.9594L56.0415 29.3196L59.0752 28.8823C59.3759 28.8276 59.6218 28.6636 59.7312 28.3903L61.535 24.7006L63.3662 28.3903C63.5029 28.6636 63.7489 28.8276 64.0222 28.8823L68.0945 29.4836L65.1428 32.3533Z" fill="#1F69B2"/>
<path d="M15.646 28.4723C15.5367 28.281 15.3454 28.1443 15.1267 28.117L11.4097 27.5704L9.27784 23.252C9.05919 22.8147 8.5399 22.6234 8.07527 22.8421C7.91128 22.9241 7.74729 23.0607 7.6653 23.252L5.53346 27.5704L0.7505 28.2537C0.258538 28.3356 -0.0694368 28.7729 0.0125568 29.2649C0.039888 29.4562 0.121882 29.6475 0.258538 29.7842L3.70227 33.1459L2.88233 37.9016C2.80034 38.3935 3.12832 38.8308 3.59295 38.9402C3.78426 38.9675 3.97558 38.9402 4.1669 38.8582L8.48523 36.5897C8.81321 36.4257 8.94987 35.9884 8.75855 35.6604C8.73122 35.6057 8.67655 35.5511 8.62189 35.4964L6.40806 33.3373L13.4868 32.2987C13.8148 32.244 14.0881 32.0527 14.2521 31.752L15.564 29.1009C15.7553 28.9096 15.7553 28.6636 15.646 28.4723ZM7.09134 35.7971L4.44021 37.191L5.01417 33.8019L7.09134 35.7971ZM13.2135 30.9594L5.58812 32.08C5.34214 32.1074 5.12349 32.244 4.95951 32.4353C4.93218 32.408 4.93218 32.3807 4.90484 32.3533L1.95307 29.4836L6.02542 28.8823C6.32607 28.8276 6.57205 28.6636 6.68137 28.3903L8.48523 24.7006L10.2891 28.3903C10.4258 28.6636 10.6717 28.8276 10.945 28.8823L13.9788 29.3196L13.2135 30.9594Z" fill="#1F69B2"/>
<path d="M35.0239 9.2858C34.6412 9.2858 34.3406 9.58644 34.3406 9.96908V14.0414C34.3406 14.4241 34.6412 14.7247 35.0239 14.7247C35.4065 14.7247 35.7071 14.4241 35.7071 14.0414V9.96908C35.7071 9.58644 35.4065 9.2858 35.0239 9.2858Z" fill="#1F69B2"/>
<path d="M43.1412 10.1604C42.7859 10.0784 42.4032 10.297 42.3212 10.6797L41.392 14.6427C41.31 14.998 41.5286 15.3806 41.8839 15.4626C42.2392 15.5446 42.6219 15.326 42.7039 14.9707L43.6331 11.0077C43.7425 10.5977 43.5238 10.2424 43.1412 10.1604Z" fill="#1F69B2"/>
<path d="M50.6572 12.6748C50.3292 12.4835 49.9192 12.6202 49.7279 12.9482L47.7874 16.5286C47.5961 16.8565 47.7327 17.2665 48.0607 17.4578C48.3887 17.6491 48.7987 17.5125 48.99 17.1845L50.9305 13.6041C51.0945 13.2488 50.9851 12.8388 50.6572 12.6748Z" fill="#1F69B2"/>
<path d="M56.9982 18.0591C56.7796 17.7311 56.3696 17.6491 56.0416 17.8678L52.6526 20.1089C52.3246 20.3003 52.2426 20.7376 52.4339 21.0655C52.6252 21.3935 53.0625 21.4755 53.3905 21.2842C53.3905 21.2842 53.3905 21.2842 53.4178 21.2842L56.8069 19.043C57.1076 18.7971 57.1896 18.3871 56.9982 18.0591Z" fill="#1F69B2"/>
<path d="M28.6556 14.6154L27.7263 10.6524C27.6443 10.297 27.2617 10.0511 26.9064 10.1604C26.5511 10.2424 26.3324 10.625 26.4144 10.9803L27.3164 14.916C27.3984 15.2713 27.7537 15.5173 28.1363 15.4353C28.5189 15.3533 28.7376 14.998 28.6556 14.6154Z" fill="#1F69B2"/>
<path d="M22.2601 16.5012L20.3196 12.9208C20.1282 12.5929 19.7183 12.4562 19.3903 12.6475C19.0623 12.8389 18.9257 13.2488 19.117 13.5768L21.0575 17.1572C21.2488 17.4852 21.6588 17.6218 21.9868 17.4305C22.3147 17.2665 22.4241 16.8565 22.2601 16.5012Z" fill="#1F69B2"/>
<path d="M17.3952 20.1089L14.0062 17.8678C13.6782 17.6491 13.2682 17.7585 13.0496 18.0591C12.8309 18.3871 12.9402 18.797 13.2409 19.0157L16.63 21.2568C16.9306 21.4755 17.3679 21.3935 17.5866 21.0655C17.8052 20.7649 17.7232 20.3276 17.3952 20.1089Z" fill="#1F69B2"/>
</svg>
