<svg xmlns="http://www.w3.org/2000/svg" width="20" height="20" fill="none"  xmlns:v="https://vecta.io/nano"><g clip-path="url(#A)" stroke="#767676" stroke-miterlimit="10" stroke-linejoin="round"><path d="M1.667 2.583h16.667" stroke-linecap="round"/><path d="M13.536 2.583H6.465V2a2.04 2.04 0 0 1 2.02-2h2.946a2.04 2.04 0 0 1 2.02 2v.583h.084z"/><g stroke-linecap="round"><path d="M10 6.083V16.5M6.465 6.083V16.5m7.071-10.417V16.5"/></g><path d="M13.62 20H6.381c-1.431 0-2.525-1.083-2.609-2.5L3.014 2.583h14.057L16.313 17.5c-.084 1.417-1.263 2.5-2.694 2.5z"/></g><defs><clipPath id="A"><path fill="#fff" d="M0 0h20v20H0z"/></clipPath></defs></svg>