<svg width="45" height="18" viewBox="0 0 45 18" fill="none" xmlns="http://www.w3.org/2000/svg">
<path d="M10.7021 10.3447H7.94824L7.37207 12H6.08789L8.77344 4.89062H9.88184L12.5723 12H11.2832L10.7021 10.3447ZM8.29492 9.34863H10.3555L9.3252 6.39941L8.29492 9.34863ZM13.0459 9.31934C13.0459 8.50553 13.2347 7.85286 13.6123 7.36133C13.9899 6.86654 14.4961 6.61914 15.1309 6.61914C15.6908 6.61914 16.1432 6.81445 16.4883 7.20508V4.5H17.6748V12H16.6006L16.542 11.4531C16.1872 11.8828 15.7135 12.0977 15.1211 12.0977C14.5026 12.0977 14.0013 11.8486 13.6172 11.3506C13.2363 10.8525 13.0459 10.1755 13.0459 9.31934ZM14.2324 9.42188C14.2324 9.95898 14.335 10.3789 14.54 10.6816C14.7484 10.9811 15.043 11.1309 15.4238 11.1309C15.9089 11.1309 16.2637 10.9144 16.4883 10.4814V8.22559C16.2702 7.80241 15.9186 7.59082 15.4336 7.59082C15.0495 7.59082 14.7533 7.74382 14.5449 8.0498C14.3366 8.35254 14.2324 8.8099 14.2324 9.42188ZM18.6904 9.31934C18.6904 8.50553 18.8792 7.85286 19.2568 7.36133C19.6344 6.86654 20.1406 6.61914 20.7754 6.61914C21.3353 6.61914 21.7878 6.81445 22.1328 7.20508V4.5H23.3193V12H22.2451L22.1865 11.4531C21.8317 11.8828 21.3581 12.0977 20.7656 12.0977C20.1471 12.0977 19.6458 11.8486 19.2617 11.3506C18.8809 10.8525 18.6904 10.1755 18.6904 9.31934ZM19.877 9.42188C19.877 9.95898 19.9795 10.3789 20.1846 10.6816C20.3929 10.9811 20.6875 11.1309 21.0684 11.1309C21.5534 11.1309 21.9082 10.9144 22.1328 10.4814V8.22559C21.9147 7.80241 21.5632 7.59082 21.0781 7.59082C20.694 7.59082 20.3978 7.74382 20.1895 8.0498C19.9811 8.35254 19.877 8.8099 19.877 9.42188ZM26.8594 9.45605H24.2959V8.49902H26.8594V9.45605ZM27.6162 9.30957C27.6162 8.79199 27.7188 8.3265 27.9238 7.91309C28.1289 7.49642 28.417 7.17741 28.7881 6.95605C29.1592 6.73145 29.5856 6.61914 30.0674 6.61914C30.7803 6.61914 31.3581 6.84863 31.8008 7.30762C32.2467 7.7666 32.4876 8.37533 32.5234 9.13379L32.5283 9.41211C32.5283 9.93294 32.4274 10.3984 32.2256 10.8086C32.027 11.2188 31.7406 11.5361 31.3662 11.7607C30.9951 11.9854 30.5654 12.0977 30.0771 12.0977C29.3317 12.0977 28.7344 11.8503 28.2852 11.3555C27.8392 10.8574 27.6162 10.195 27.6162 9.36816V9.30957ZM28.8027 9.41211C28.8027 9.95573 28.915 10.3822 29.1396 10.6914C29.3643 10.9974 29.6768 11.1504 30.0771 11.1504C30.4775 11.1504 30.7884 10.9941 31.0098 10.6816C31.2344 10.3691 31.3467 9.91178 31.3467 9.30957C31.3467 8.77572 31.2311 8.35254 31 8.04004C30.7721 7.72754 30.4613 7.57129 30.0674 7.57129C29.68 7.57129 29.3724 7.72591 29.1445 8.03516C28.9167 8.34115 28.8027 8.80013 28.8027 9.41211ZM34.6328 6.7168L34.667 7.32715C35.0576 6.85514 35.5703 6.61914 36.2051 6.61914C37.3053 6.61914 37.8652 7.24902 37.8848 8.50879V12H36.6982V8.57715C36.6982 8.24186 36.625 7.99447 36.4785 7.83496C36.3353 7.6722 36.0993 7.59082 35.7705 7.59082C35.292 7.59082 34.9355 7.80729 34.7012 8.24023V12H33.5146V6.7168H34.6328Z" fill="#CF2626"/>
<rect x="0.5" y="0.5" width="44" height="17" stroke="#CF2626"/>
</svg>
