<svg width="9" height="16" viewBox="0 0 9 16" fill="none" xmlns="http://www.w3.org/2000/svg">
<path d="M8.75564 7.37568L1.93832 0.255608C1.78065 0.090796 1.57016 0 1.34573 0C1.12129 0 0.910811 0.090796 0.753134 0.255608L0.251086 0.779831C-0.0755998 1.12142 -0.0755998 1.6766 0.251086 2.01767L5.97575 7.99668L0.244734 13.9823C0.0870582 14.1471 0 14.3668 0 14.6011C0 14.8357 0.0870582 15.0554 0.244734 15.2203L0.746782 15.7444C0.904583 15.9092 1.11494 16 1.33938 16C1.56381 16 1.77429 15.9092 1.93197 15.7444L8.75564 8.61782C8.91369 8.45248 9.0005 8.23174 9 7.99707C9.0005 7.7615 8.91369 7.54088 8.75564 7.37568Z" fill="#969696"/>
</svg>
