<svg width="26" height="24" viewBox="0 0 26 24" fill="none" xmlns="http://www.w3.org/2000/svg">
<path d="M19.0999 5.94916L8.3999 16.8305" stroke="#CF2626" stroke-miterlimit="10" stroke-linecap="round" stroke-linejoin="round"/>
<path d="M11.4002 8.28812C11.4002 9.50846 10.5002 10.4237 9.3002 10.4237C8.1002 10.4237 7.2002 9.50846 7.2002 8.28812C7.2002 7.06778 8.1002 6.15253 9.3002 6.15253C10.5002 6.15253 11.4002 7.16948 11.4002 8.28812Z" stroke="#CF2626" stroke-miterlimit="10" stroke-linecap="round" stroke-linejoin="round"/>
<path d="M1 15.7118C2.7 15.7118 4.1 14.2881 4.1 12.5593C4.1 10.8305 2.7 9.40674 1 9.40674" stroke="#CF2626" stroke-miterlimit="10" stroke-linecap="round" stroke-linejoin="round"/>
<path d="M24.9999 15.7118C23.2999 15.7118 21.8999 14.2881 21.8999 12.5593C21.8999 10.8305 23.2999 9.40674 24.9999 9.40674" stroke="#CF2626" stroke-miterlimit="10" stroke-linecap="round" stroke-linejoin="round"/>
<path d="M19.8001 15.7119C19.8001 16.9322 18.9001 17.8475 17.7001 17.8475C16.5001 17.8475 15.6001 16.9322 15.6001 15.7119C15.6001 14.4915 16.5001 13.5763 17.7001 13.5763C18.8001 13.5763 19.8001 14.5932 19.8001 15.7119Z" stroke="#CF2626" stroke-miterlimit="10" stroke-linecap="round" stroke-linejoin="round"/>
<path d="M1 9.40678V4.01695C1 3.40678 1.5 3 2 3H23.9C24.5 3 24.9 3.50847 24.9 4.01695V9.30508" stroke="#CF2626" stroke-miterlimit="10" stroke-linecap="round" stroke-linejoin="round"/>
<path d="M25 15.7119V19.983C25 20.5932 24.5 21 24 21H2C1.4 21 1 20.4915 1 19.983V15.7119" stroke="#CF2626" stroke-miterlimit="10" stroke-linecap="round" stroke-linejoin="round"/>
</svg>
