<svg xmlns="http://www.w3.org/2000/svg" width="28" height="28" fill="none"  xmlns:v="https://vecta.io/nano"><style><![CDATA[.B{stroke-linejoin:round}.C{stroke-linecap:round}]]></style><rect x=".5" y=".5" width="27" height="27" rx="3.5" fill="#fff" stroke="#ddd"/><g stroke="#767676" stroke-miterlimit="10" class="B"><path d="M19.065 12.415V7.814c0-.406-.345-.677-.689-.677H6.454c-.413 0-.689.338-.689.677v5.075 2.03c0 .406.345.677.689.677h1.792m10.819-6.7h-13.3m13.3 2.098h-13.3" class="C"/><path d="M9.693 13.159c-.413 0-.689.338-.689.677v7.037c0 .406.345.677.689.677h11.853c.414 0 .689-.338.689-.677v-7.037c0-.406-.345-.677-.689-.677H9.693z"/><path d="M10.45 19.113h1.792m1.103 0h1.792m1.034 0h1.792m1.102 0h1.792" class="C"/><path d="M20.512 16.136c0 .677-.551 1.218-1.24 1.218h-.345c-.689 0-1.241-.541-1.241-1.218s.551-1.218 1.241-1.218h.345c.689 0 1.24.541 1.24 1.218z"/></g></svg>