<svg width="26" height="17" viewBox="0 0 26 17" fill="none" xmlns="http://www.w3.org/2000/svg">
<path d="M2.8999 10.5919V12.7347C2.8999 13.2449 3.2999 13.6531 3.7999 13.6531H6.5999" stroke="#767676" stroke-miterlimit="10" stroke-linecap="round" stroke-linejoin="round"/>
<path d="M2.8999 3.14286V1.91837C2.8999 1.40816 3.2999 1 3.7999 1H15.7999C16.2999 1 16.6999 1.40816 16.6999 1.91837V4.06122V12.6327C16.6999 13.1429 16.2999 13.551 15.7999 13.551H11.0999" stroke="#767676" stroke-miterlimit="10" stroke-linecap="round" stroke-linejoin="round"/>
<path d="M8.9001 16C10.1704 16 11.2001 14.9492 11.2001 13.653C11.2001 12.3569 10.1704 11.3061 8.9001 11.3061C7.62984 11.3061 6.6001 12.3569 6.6001 13.653C6.6001 14.9492 7.62984 16 8.9001 16Z" stroke="#767676" stroke-miterlimit="10" stroke-linecap="round" stroke-linejoin="round"/>
<path d="M20.9001 16C22.1704 16 23.2001 14.9492 23.2001 13.653C23.2001 12.3569 22.1704 11.3061 20.9001 11.3061C19.6298 11.3061 18.6001 12.3569 18.6001 13.653C18.6001 14.9492 19.6298 16 20.9001 16Z" stroke="#767676" stroke-miterlimit="10" stroke-linecap="round" stroke-linejoin="round"/>
<path d="M14.6997 13.6531H18.5997" stroke="#767676" stroke-miterlimit="10" stroke-linecap="round" stroke-linejoin="round"/>
<path d="M23.0997 13.653H23.9997C24.4997 13.653 24.8997 13.2449 24.8997 12.7347V9.0612C24.8997 8.85712 24.7997 8.55099 24.6997 8.44895L21.0997 4.46936C20.8997 4.26528 20.6997 4.16324 20.3997 4.16324H16.6997" stroke="#767676" stroke-miterlimit="10" stroke-linecap="round" stroke-linejoin="round"/>
<path d="M24.9999 8.65304H20.2999C19.7999 8.65304 19.3999 8.24488 19.3999 7.73468V5.18365" stroke="#767676" stroke-miterlimit="10" stroke-linecap="round" stroke-linejoin="round"/>
<path d="M4.7998 5.28568V9.46935" stroke="#767676" stroke-miterlimit="10" stroke-linecap="round" stroke-linejoin="round"/>
<path d="M5.50005 7.53059H4.80005V5.18365H5.50005C6.10005 5.18365 6.60005 5.69386 6.60005 6.3061C6.60005 7.02039 6.10005 7.53059 5.50005 7.53059Z" stroke="#767676" stroke-miterlimit="10" stroke-linecap="round" stroke-linejoin="round"/>
<path d="M1 5.18365V9.46937" stroke="#767676" stroke-miterlimit="10" stroke-linecap="round" stroke-linejoin="round"/>
<path d="M1 7.12244H3.3" stroke="#767676" stroke-miterlimit="10" stroke-linecap="round" stroke-linejoin="round"/>
<path d="M1 5.18365H3.3" stroke="#767676" stroke-miterlimit="10" stroke-linecap="round" stroke-linejoin="round"/>
<path d="M8.5 5.18365V8.95917" stroke="#767676" stroke-miterlimit="10" stroke-linecap="round" stroke-linejoin="round"/>
<path d="M8.5 7.12244H10.8" stroke="#767676" stroke-miterlimit="10" stroke-linecap="round" stroke-linejoin="round"/>
<path d="M8.5 9.06119H10.8" stroke="#767676" stroke-miterlimit="10" stroke-linecap="round" stroke-linejoin="round"/>
<path d="M8.5 5.18365H10.8" stroke="#767676" stroke-miterlimit="10" stroke-linecap="round" stroke-linejoin="round"/>
<path d="M12.2998 5.28568V8.95914" stroke="#767676" stroke-miterlimit="10" stroke-linecap="round" stroke-linejoin="round"/>
<path d="M12.2998 7.12244H14.4998" stroke="#767676" stroke-miterlimit="10" stroke-linecap="round" stroke-linejoin="round"/>
<path d="M12.2998 9.06119H14.4998" stroke="#767676" stroke-miterlimit="10" stroke-linecap="round" stroke-linejoin="round"/>
<path d="M12.3 5.18365H14.5" stroke="#767676" stroke-miterlimit="10" stroke-linecap="round" stroke-linejoin="round"/>
<path d="M4.7998 7.53058H5.6998C6.1998 7.53058 6.5998 7.93874 6.5998 8.44895V9.36731" stroke="#767676" stroke-miterlimit="10" stroke-linecap="round" stroke-linejoin="round"/>
</svg>
