<svg width="12" height="20" viewBox="0 0 12 20" fill="none" xmlns="http://www.w3.org/2000/svg">
<path d="M0.325817 10.7804L9.41557 19.6805C9.62581 19.8865 9.90645 20 10.2057 20C10.5049 20 10.7856 19.8865 10.9958 19.6805L11.6652 19.0252C12.1008 18.5982 12.1008 17.9042 11.6652 17.4779L4.03233 10.0041L11.6737 2.52209C11.8839 2.31608 12 2.04145 12 1.7486C12 1.45543 11.8839 1.1808 11.6737 0.974625L11.0043 0.319508C10.7939 0.113495 10.5134 0 10.2142 0C9.91492 0 9.63428 0.113495 9.42404 0.319508L0.325817 9.22773C0.115084 9.43439 -0.000660896 9.71033 2.86102e-06 10.0037C-0.000660896 10.2981 0.115084 10.5739 0.325817 10.7804Z" fill="#FFFFFF"/>
</svg>
