<svg width="8" height="14" viewBox="0 0 8 14" fill="#DDDDDD" xmlns="http://www.w3.org/2000/svg">
<path d="M0.217211 7.54628L6.27705 13.7763C6.4172 13.9206 6.6043 14 6.8038 14C7.00329 14 7.19039 13.9206 7.33055 13.7763L7.77681 13.3176C8.0672 13.0188 8.0672 12.533 7.77681 12.2345L2.68822 7.0029L7.78246 1.76547C7.92261 1.62126 8 1.42901 8 1.22402C8 1.0188 7.92261 0.826562 7.78246 0.682239L7.33619 0.223657C7.19593 0.0794468 7.00894 0 6.80944 0C6.60995 0 6.42285 0.0794468 6.28269 0.223657L0.217211 6.45941C0.0767226 6.60408 -0.000440598 6.79723 1.90735e-06 7.00256C-0.000440598 7.20869 0.0767226 7.40173 0.217211 7.54628Z" fill="#DDDDDD"/>
</svg>
