<svg width="24" height="22" viewBox="0 0 24 22" fill="none" xmlns="http://www.w3.org/2000/svg">
<path d="M18.2922 9.54373H5.91222C3.60897 9.54373 1.59362 11.0966 1.11378 13.3288C0.441998 16.4345 2.84122 19.2491 5.81625 19.2491C7.63966 19.2491 9.27113 18.1815 10.0389 16.6286C10.4228 15.8522 11.1905 15.3669 11.9583 15.3669C12.822 15.3669 13.4938 15.8522 13.8776 16.6286C14.8373 18.5697 17.1406 19.7344 19.5398 19.055C20.9793 18.6668 22.2269 17.4051 22.7068 15.9493C23.8584 12.6494 21.4592 9.54373 18.2922 9.54373Z" stroke="#FFFFFF" stroke-miterlimit="10" stroke-linecap="round" stroke-linejoin="round"/>
<path d="M5.81615 12.4554V16.3375" stroke="#FFFFFF" stroke-miterlimit="10" stroke-linecap="round" stroke-linejoin="round"/>
<path d="M3.89687 14.3964H7.73562" stroke="#FFFFFF" stroke-miterlimit="10" stroke-linecap="round" stroke-linejoin="round"/>
<path d="M18.2923 12.9406C18.5573 12.9406 18.7722 12.7234 18.7722 12.4554C18.7722 12.1874 18.5573 11.9701 18.2923 11.9701C18.0273 11.9701 17.8125 12.1874 17.8125 12.4554C17.8125 12.7234 18.0273 12.9406 18.2923 12.9406Z" stroke="#FFFFFF" stroke-miterlimit="10" stroke-linecap="round" stroke-linejoin="round"/>
<path d="M18.2923 16.8228C18.5573 16.8228 18.7722 16.6055 18.7722 16.3375C18.7722 16.0695 18.5573 15.8522 18.2923 15.8522C18.0273 15.8522 17.8125 16.0695 17.8125 16.3375C17.8125 16.6055 18.0273 16.8228 18.2923 16.8228Z" stroke="#FFFFFF" stroke-miterlimit="10" stroke-linecap="round" stroke-linejoin="round"/>
<path d="M20.2116 14.8817C20.4766 14.8817 20.6914 14.6644 20.6914 14.3964C20.6914 14.1284 20.4766 13.9112 20.2116 13.9112C19.9466 13.9112 19.7318 14.1284 19.7318 14.3964C19.7318 14.6644 19.9466 14.8817 20.2116 14.8817Z" stroke="#FFFFFF" stroke-miterlimit="10" stroke-linecap="round" stroke-linejoin="round"/>
<path d="M16.373 14.8817C16.6381 14.8817 16.8529 14.6644 16.8529 14.3964C16.8529 14.1284 16.6381 13.9112 16.373 13.9112C16.108 13.9112 15.8932 14.1284 15.8932 14.3964C15.8932 14.6644 16.108 14.8817 16.373 14.8817Z" stroke="#FFFFFF" stroke-miterlimit="10" stroke-linecap="round" stroke-linejoin="round"/>
<path d="M20.2116 2.75C20.2116 4.39991 18.964 5.66161 17.3326 5.66161H13.4938C11.8623 5.66161 10.6147 6.9233 10.6147 8.57321V9.05848" stroke="#FFFFFF" stroke-miterlimit="10" stroke-linecap="round" stroke-linejoin="round"/>
</svg>
