<svg xmlns="http://www.w3.org/2000/svg" width="30" height="30" fill="none"  xmlns:v="https://vecta.io/nano"><path d="M19.261 24.871a.44.44 0 0 0-.419-.306h-2.616l-.808-2.505c-.058-.181-.23-.306-.419-.306s-.361.126-.419.306l-.808 2.505h-2.615a.44.44 0 0 0-.419.306c-.059.183.006.383.16.496l2.116 1.548-.808 2.505a.45.45 0 0 0 .146.485.44.44 0 0 0 .531.01L15 28.367l2.116 1.548a.44.44 0 0 0 .551-.027.45.45 0 0 0 .127-.468l-.808-2.505 2.116-1.548c.155-.113.219-.313.16-.496zm-3.052 1.515c-.154.113-.219.313-.16.496l.488 1.513-1.278-.935a.44.44 0 0 0-.518 0l-1.279.935.488-1.513c.059-.183-.006-.383-.16-.496l-1.278-.935h1.58a.44.44 0 0 0 .419-.306L15 23.632l.488 1.513a.44.44 0 0 0 .419.306h1.58l-1.278.935zm13.769-1.515a.44.44 0 0 0-.419-.306h-2.616l-.808-2.505c-.058-.181-.23-.306-.419-.306s-.36.126-.419.306l-.808 2.505h-2.616a.44.44 0 0 0-.419.306c-.059.183.006.383.16.496l2.116 1.548-.808 2.505a.45.45 0 0 0 .146.485.44.44 0 0 0 .531.011l2.116-1.548 2.116 1.548a.44.44 0 0 0 .551-.027.45.45 0 0 0 .127-.469l-.808-2.505 2.116-1.548c.155-.113.219-.313.16-.496zm-3.052 1.516c-.154.113-.219.313-.16.496l.488 1.513-1.278-.935a.44.44 0 0 0-.518 0l-1.279.935.488-1.513c.059-.183-.006-.383-.16-.496l-1.278-.935h1.58a.44.44 0 0 0 .419-.306l.488-1.513.488 1.513a.44.44 0 0 0 .419.306h1.58l-1.279.935zM8.544 24.871a.44.44 0 0 0-.419-.306H5.51l-.808-2.505a.44.44 0 0 0-.838 0l-.808 2.505H.44a.44.44 0 0 0-.419.306c-.059.183.006.383.16.496l2.116 1.548-.808 2.505c-.059.183.006.383.16.496a.44.44 0 0 0 .518 0l2.116-1.548 2.116 1.548a.44.44 0 0 0 .551-.027.45.45 0 0 0 .127-.468l-.808-2.505 2.116-1.548c.155-.113.219-.313.16-.496zm-3.052 1.515c-.154.113-.219.313-.16.496l.488 1.513-1.279-.935a.44.44 0 0 0-.518 0l-1.278.935.488-1.513c.059-.183-.006-.383-.16-.496l-1.278-.935h1.58a.44.44 0 0 0 .419-.306l.488-1.513.488 1.513a.44.44 0 0 0 .419.306h1.58l-1.278.935zm1.689-10.064a1.34 1.34 0 1 0 0 2.688 1.34 1.34 0 1 0 0-2.688zm0 1.802c-.251 0-.455-.205-.455-.458s.204-.458.455-.458.455.205.455.458-.204.458-.455.458zm19.255-7.071a2.01 2.01 0 0 0 .746-1.566c0-1.108-.895-2.009-1.995-2.009h-7.083c.22-.483.474-1.22.62-2.243.337-2.378-.172-3.641-.66-4.281-.412-.542-.966-.87-1.602-.948-.536-.066-1.026.363-1.04.905-.082.853-.384 3.192-.816 4.062-1.11 2.235-3.755 3.567-4.573 3.936a1.62 1.62 0 0 0-1.063-.397H5.39a1.64 1.64 0 0 0-1.633 1.645v9.011a1.64 1.64 0 0 0 1.633 1.645h3.58c.482 0 .916-.211 1.215-.547.465.295 1.215.624 2.251.624h11.507c1.1 0 1.995-.901 1.995-2.009a2.01 2.01 0 0 0-.498-1.326c.663-.327 1.12-1.014 1.12-1.805a2.01 2.01 0 0 0-.498-1.326 2.01 2.01 0 0 0 .374-3.371zM8.97 19.926H5.39c-.415 0-.753-.34-.753-.758v-9.011c0-.418.338-.758.753-.758h3.58c.21 0 .4.087.537.228v9.887c0 .053.01.105.028.154a.75.75 0 0 1-.565.258zm14.366-8.43h1.85a1.123 1.123 0 1 1 0 2.245h-1.85a.444.444 0 1 0 0 .887h1.228a1.123 1.123 0 1 1 0 2.245h-1.566a.44.44 0 1 0 0 .886h.944a1.123 1.123 0 1 1 0 2.245H12.436c-.909 0-1.525-.306-1.859-.537a1.64 1.64 0 0 0 .028-.299v-9.011a1.65 1.65 0 0 0-.077-.497c1.032-.477 3.673-1.886 4.866-4.289.597-1.202.894-4.262.907-4.392l.002-.042a.05.05 0 0 1 .017-.038c.011-.01.031-.012.036-.012.276.034.675.167 1.009.607.384.505.781 1.543.487 3.616-.249 1.757-.841 2.526-.844 2.531a.45.45 0 0 0 .341.724h7.838a1.122 1.122 0 1 1 0 2.245h-1.85a.44.44 0 1 0 0 .886z" fill="#767676"/><defs /></svg>