<svg width="26" height="26" viewBox="0 0 26 26" fill="none" xmlns="http://www.w3.org/2000/svg">
<path d="M6.2 6.2H25L21.1 17C21 17.4 20.6 17.7 20.1 17.7H8.2C7.7 17.7 7.2 17.3 7.2 16.8L5.2 1H1" stroke="white" stroke-miterlimit="10" stroke-linecap="round" stroke-linejoin="round"/>
<path d="M21.9 22.9C21.9 24.1 20.9999 25 19.7999 25C18.5999 25 17.7 24.1 17.7 22.9C17.7 21.7 18.5999 20.8 19.7999 20.8C20.8999 20.8 21.9 21.8 21.9 22.9Z" stroke="white" stroke-miterlimit="10" stroke-linecap="round" stroke-linejoin="round"/>
<path d="M10.4 22.9C10.4 24.1 9.49995 25 8.29995 25C7.09995 25 6.19995 24.1 6.19995 22.9C6.19995 21.7 7.09995 20.8 8.29995 20.8C9.49995 20.8 10.4 21.8 10.4 22.9Z" stroke="white" stroke-miterlimit="10" stroke-linecap="round" stroke-linejoin="round"/>
</svg>
