<svg width="24" height="22" viewBox="0 0 24 22" fill="none" xmlns="http://www.w3.org/2000/svg">
<path d="M18.2174 4.58331H19.1739C19.7478 4.58331 20.1304 4.97617 20.1304 5.56546V17.3512C20.1304 17.9405 19.7478 18.3333 19.1739 18.3333H18.2174C17.6435 18.3333 17.2609 17.9405 17.2609 17.3512V5.56546C17.2609 4.97617 17.6435 4.58331 18.2174 4.58331Z" stroke="#676767" stroke-miterlimit="10"/>
<path d="M21.087 7.52972H22.0435C22.5218 7.52972 23.0001 7.92258 23.0001 8.51187V14.4047C23.0001 14.8958 22.6174 15.3869 22.0435 15.3869H21.087C20.6088 15.3869 20.1305 14.994 20.1305 14.4047V8.51187C20.1305 7.92258 20.5131 7.52972 21.087 7.52972Z" stroke="#676767" stroke-miterlimit="10"/>
<path d="M5.78261 18.3333H4.82609C4.25218 18.3333 3.86957 17.9405 3.86957 17.3512V5.56546C3.86957 4.97617 4.25218 4.58331 4.82609 4.58331H5.78261C6.35652 4.58331 6.73913 4.97617 6.73913 5.56546V17.3512C6.73913 17.9405 6.35652 18.3333 5.78261 18.3333Z" stroke="#676767" stroke-miterlimit="10"/>
<path d="M2.91304 15.3869H1.95652C1.47826 15.3869 1 14.994 1 14.4047V8.51187C1 8.0208 1.38261 7.52972 1.95652 7.52972H2.91304C3.3913 7.52972 3.86957 7.92258 3.86957 8.51187V14.4047C3.86957 14.994 3.48696 15.3869 2.91304 15.3869Z" stroke="#676767" stroke-miterlimit="10"/>
<path d="M17.2608 9.49402H6.73901V12.4404H17.2608V9.49402Z" stroke="#676767" stroke-miterlimit="10"/>
</svg>
