<svg width="40" height="40" viewBox="0 0 40 40" fill="none" xmlns="http://www.w3.org/2000/svg">
<rect x="0.5" y="0.5" width="39" height="39" rx="5.5" fill="white" stroke="#DDDDDD"/>
<path d="M13.7072 14.292H8.98694C8.45779 14.292 8.02734 14.7224 8.02734 15.2516V33.0406C8.02734 33.5695 8.45779 34 8.98694 34H13.7072C14.2361 34 14.6665 33.5695 14.6665 33.0406V15.2516C14.6665 14.7224 14.2361 14.292 13.7072 14.292ZM13.0236 32.357H9.67032V15.935H13.0236V32.357Z" fill="#0A66C2"/>
<path d="M11.347 6C9.50134 6 8 7.50134 8 9.34683C8 11.1925 9.50134 12.6939 11.347 12.6939C13.1923 12.6939 14.6939 11.1925 14.6939 9.34683C14.6939 7.50134 13.1925 6 11.347 6ZM11.347 11.0509C10.4073 11.0509 9.64297 10.2866 9.64297 9.34683C9.64297 8.40732 10.4073 7.64297 11.347 7.64297C12.2866 7.64297 13.0509 8.40732 13.0509 9.34683C13.0509 10.2863 12.2866 11.0509 11.347 11.0509Z" fill="#0A66C2"/>
<path d="M29.9323 16.3774C28.8039 15.4355 27.3694 14.9318 25.8946 14.9591C24.9785 14.976 24.0835 15.1969 23.2723 15.5968V15.2084C23.2723 14.7024 22.862 14.292 22.3559 14.292H17.5498C17.0437 14.292 16.6334 14.7024 16.6334 15.2084V33.0833C16.6334 33.5896 17.0437 33.9998 17.5498 33.9998H22.4507C22.9045 33.9998 23.2723 33.6319 23.2723 33.1784V22.521C23.2723 21.6086 23.9863 20.8365 24.898 20.8094C25.8456 20.7814 26.6254 21.5439 26.6254 22.4853V33.1955C26.6254 33.6396 26.9855 33.9998 27.4297 33.9998H32.1398C32.584 33.9998 32.9441 33.6396 32.9441 33.1955V22.8111C32.9441 20.3202 31.8463 17.9751 29.9323 16.3774ZM31.3011 32.3568H28.2686V22.4853C28.2686 20.655 26.7794 19.1658 24.9489 19.1658C23.1185 19.1658 21.6294 20.655 21.6294 22.4853V32.3568H18.2763V15.9348H21.6294V17.1287H21.6304C21.6302 17.3222 21.6975 17.5166 21.8359 17.6732C22.1365 18.0129 22.6558 18.0445 22.9955 17.7437C23.8049 17.0272 24.8452 16.6218 25.9249 16.6017C27.0056 16.5812 28.0545 16.9499 28.8795 17.6386C30.4187 18.9233 31.3011 20.8086 31.3011 22.8111V32.3568Z" fill="#0A66C2"/>
</svg>
