<svg width="40" height="40" viewBox="0 0 40 40" fill="none" xmlns="http://www.w3.org/2000/svg">
<rect width="40" height="40" rx="6" fill="#4267B2"/>
<path d="M21.8164 34H17.3325C16.5835 34 15.9742 33.3907 15.9742 32.6418V22.528H13.3582C12.6093 22.528 12 21.9185 12 21.1698V16.836C12 16.0871 12.6093 15.4778 13.3582 15.4778H15.9742V13.3076C15.9742 11.1558 16.6499 9.32504 17.928 8.01361C19.2119 6.6962 21.0061 6 23.1167 6L26.5364 6.00555C27.2841 6.00684 27.8923 6.61609 27.8923 7.36377V11.3876C27.8923 12.1365 27.2832 12.7458 26.5345 12.7458L24.2321 12.7466C23.5299 12.7466 23.3511 12.8874 23.3128 12.9306C23.2498 13.0021 23.1748 13.2044 23.1748 13.7631V15.4776H26.3615C26.6013 15.4776 26.8338 15.5368 27.0335 15.6483C27.4644 15.889 27.7323 16.3443 27.7323 16.8362L27.7306 21.17C27.7306 21.9185 27.1213 22.5278 26.3723 22.5278H23.1748V32.6418C23.1748 33.3907 22.5654 34 21.8164 34ZM17.6157 32.3585H21.5331V21.7932C21.5331 21.2931 21.9401 20.8863 22.44 20.8863H26.0891L26.0906 17.1193H22.4398C21.9399 17.1193 21.5331 16.7126 21.5331 16.2125V13.7631C21.5331 13.1218 21.5983 12.3925 22.0824 11.8443C22.6673 11.1816 23.5891 11.1052 24.2316 11.1052L26.2508 11.1043V7.64661L23.1154 7.64148C19.7235 7.64148 17.6157 9.81274 17.6157 13.3076V16.2125C17.6157 16.7123 17.209 17.1193 16.7091 17.1193H13.6415V20.8863H16.7091C17.209 20.8863 17.6157 21.2931 17.6157 21.7932V32.3585ZM26.5332 7.64703H26.5334H26.5332Z" fill="white"/>
</svg>
