<svg width="32" height="32" viewBox="0 0 32 32" fill="none" xmlns="http://www.w3.org/2000/svg">
<circle cx="16" cy="16" r="16" fill="#1F69B2"/>
<path d="M20.2094 17.1968H17.4918C16.7481 17.1968 16.1432 17.803 16.1432 18.5483V20.637C16.1432 21.3824 16.7481 21.9886 17.4918 21.9886H20.2094C20.9532 21.9886 21.558 21.3824 21.558 20.637V18.5483C21.558 17.803 20.9532 17.1968 20.2094 17.1968ZM20.5772 20.637C20.5772 20.8418 20.4097 21.0056 20.2094 21.0056H17.4918C17.2875 21.0056 17.124 20.8377 17.124 20.637V18.5483C17.124 18.3436 17.2916 18.1798 17.4918 18.1798H20.2094C20.4138 18.1798 20.5772 18.3477 20.5772 18.5483V20.637Z" fill="white"/>
<path d="M26 13.4003C26 13.3143 25.9796 13.2324 25.9346 13.1587L22.9595 7.91648C22.8737 7.76495 22.7103 7.66666 22.5345 7.66666H9.46138C9.28566 7.66666 9.12219 7.76085 9.03637 7.91648L6.06539 13.1587C6.02452 13.2324 6 13.3143 6 13.4003C6 14.5757 6.70699 15.5832 7.71639 16.0296V24.6752C7.71639 24.9455 7.93707 25.1667 8.20678 25.1667H10.9162C10.9203 25.1667 10.9244 25.1667 10.9285 25.1667H14.7291C14.7331 25.1667 14.7372 25.1667 14.7413 25.1667H23.7891C24.0588 25.1667 24.2795 24.9455 24.2795 24.6752V16.0911C24.2795 16.0706 24.2795 16.0542 24.2754 16.0378C25.2889 15.5914 26 14.5798 26 13.4003ZM9.74745 8.65367H22.2485L24.5738 12.7532H7.42624L9.74745 8.65367ZM20.2338 13.7321C20.0785 14.6167 19.3061 15.2884 18.3784 15.2884C17.4508 15.2884 16.6784 14.6167 16.5231 13.7321H20.2338ZM15.481 13.7321C15.3257 14.6167 14.5533 15.2884 13.6257 15.2884C12.698 15.2884 11.9256 14.6167 11.7662 13.7321H15.481ZM7.01349 13.7321H10.7282C10.5729 14.6167 9.79649 15.2884 8.86882 15.2884C7.94115 15.2924 7.16878 14.6167 7.01349 13.7321ZM14.2387 24.1837H11.4189V18.8801C11.4189 18.4951 11.7295 18.1798 12.1177 18.1798H13.5439C13.9281 18.1798 14.2427 18.491 14.2427 18.8801V24.1837H14.2387ZM23.2987 24.1837H15.2195V18.8801C15.2195 17.9545 14.4675 17.1968 13.5398 17.1968H12.1136C11.19 17.1968 10.434 17.9504 10.434 18.8801V24.1878H8.69718V16.2713C8.75439 16.2754 8.81161 16.2754 8.86882 16.2754C9.85778 16.2754 10.7323 15.7716 11.2472 15.0058C11.7622 15.7716 12.6367 16.2754 13.6257 16.2754C14.6146 16.2754 15.4851 15.7716 16.0041 15.0058C16.519 15.7716 17.3935 16.2754 18.3784 16.2754C19.3674 16.2754 20.2378 15.7716 20.7528 15.0058C21.2677 15.7716 22.1422 16.2754 23.1312 16.2754C23.1884 16.2754 23.2415 16.2713 23.2987 16.2713V24.1837ZM23.1312 15.2924C22.2035 15.2924 21.4311 14.6208 21.2758 13.7362H24.9906C24.8312 14.6167 24.0588 15.2924 23.1312 15.2924Z" fill="white"/>
</svg>
