<svg width="70" height="70" viewBox="0 0 70 70" fill="none" xmlns="http://www.w3.org/2000/svg">
<path d="M43.6534 16.1306C43.5273 15.74 43.2804 15.3995 42.9483 15.1582C42.6162 14.917 42.216 14.7874 41.8055 14.7882H38.0184L36.8481 11.1863C36.7213 10.7961 36.4742 10.4561 36.1422 10.2149C35.8103 9.97375 35.4105 9.84387 35.0002 9.84387C34.5899 9.84387 34.1902 9.97375 33.8582 10.2149C33.5263 10.4561 33.2792 10.7961 33.1523 11.1863L31.982 14.7882H28.1949C27.7846 14.7882 27.3848 14.9181 27.0529 15.1593C26.7209 15.4004 26.4739 15.7405 26.3471 16.1307C26.2203 16.521 26.2202 16.9413 26.347 17.3315C26.4738 17.7218 26.7208 18.0619 27.0528 18.3031L30.1166 20.529L28.9463 24.1308C28.819 24.5211 28.8186 24.9418 28.9453 25.3323C29.0719 25.7228 29.3191 26.0632 29.6513 26.3045C29.9834 26.5458 30.3835 26.6756 30.794 26.6754C31.2046 26.6751 31.6045 26.5448 31.9364 26.303L35.0002 24.0771L38.0641 26.3032C38.3961 26.5443 38.7958 26.6742 39.2062 26.6742C39.6165 26.6742 40.0163 26.5443 40.3482 26.3031C40.6802 26.062 40.9273 25.7219 41.0541 25.3317C41.1809 24.9414 41.1809 24.5211 41.0541 24.1308L39.8838 20.529L42.9477 18.3029C43.2802 18.0622 43.5278 17.7222 43.6546 17.3318C43.7814 16.9414 43.781 16.5208 43.6534 16.1306V16.1306ZM37.9551 19.2263C37.7682 19.3621 37.6292 19.5536 37.5578 19.7732C37.4864 19.9929 37.4864 20.2296 37.5578 20.4493L38.7411 24.0912L35.6428 21.8404C35.456 21.7048 35.2311 21.6317 35.0002 21.6317C34.7694 21.6317 34.5445 21.7048 34.3576 21.8404L31.2596 24.0912L32.4429 20.4493C32.5143 20.2296 32.5143 19.9929 32.4429 19.7732C32.3716 19.5536 32.2325 19.3621 32.0456 19.2263L28.9478 16.9757H32.7769C33.0079 16.9757 33.233 16.9026 33.4198 16.7668C33.6067 16.631 33.7458 16.4396 33.8172 16.2199L35.0002 12.5781L36.1835 16.22C36.2549 16.4397 36.394 16.6312 36.5809 16.7669C36.7678 16.9027 36.9928 16.9758 37.2238 16.9758H41.0529L37.9551 19.2263Z" fill="#1F69B2"/>
<path d="M21.4287 31.7167C21.7075 31.7164 21.9823 31.6501 22.2306 31.5234C22.4789 31.3967 22.6937 31.213 22.8575 30.9875C23.0213 30.7619 23.1295 30.5008 23.1731 30.2254C23.2168 29.9501 23.1947 29.6683 23.1087 29.4031L22.2326 26.707L24.5262 25.0407C24.828 24.8214 25.0527 24.5122 25.1679 24.1574C25.2832 23.8026 25.2832 23.4205 25.1679 23.0657C25.0526 22.7109 24.828 22.4017 24.5262 22.1824C24.2244 21.9632 23.8609 21.8451 23.4879 21.845H20.653L19.7769 19.149C19.6616 18.7942 19.437 18.485 19.1352 18.2657C18.8334 18.0464 18.4699 17.9283 18.0968 17.9283C17.7238 17.9283 17.3603 18.0464 17.0585 18.2657C16.7567 18.485 16.5321 18.7942 16.4168 19.149L15.5407 21.8452H12.7057C12.3326 21.845 11.969 21.963 11.6671 22.1823C11.3652 22.4015 11.1404 22.7107 11.0251 23.0655C10.9097 23.4203 10.9096 23.8025 11.0249 24.1574C11.1401 24.5123 11.3648 24.8215 11.6666 25.0408L13.9602 26.7072L13.0844 29.4033C12.9691 29.758 12.9691 30.1402 13.0844 30.495C13.1996 30.8498 13.4243 31.159 13.726 31.3782C14.0278 31.5975 14.3913 31.7156 14.7643 31.7157C15.1373 31.7157 15.5008 31.5977 15.8026 31.3784L18.0962 29.712L20.3898 31.3784C20.6916 31.5982 21.0554 31.7167 21.4287 31.7167V31.7167ZM17.4538 27.4751L15.5657 28.8476L16.287 26.6279C16.3584 26.4082 16.3585 26.1715 16.2871 25.9518C16.2157 25.732 16.0765 25.5406 15.8896 25.4048L14.0015 24.0331H16.3354C16.5664 24.0331 16.7914 23.96 16.9782 23.8242C17.1651 23.6885 17.3042 23.4971 17.3756 23.2774L18.0968 21.0577L18.8181 23.2774C18.8895 23.4971 19.0286 23.6885 19.2154 23.8242C19.4023 23.96 19.6273 24.0331 19.8583 24.0331H22.192L20.304 25.4049C20.1171 25.5407 19.978 25.7322 19.9066 25.9519C19.8352 26.1715 19.8353 26.4082 19.9067 26.6279L20.6278 28.8476L18.7396 27.4757C18.5528 27.3398 18.3278 27.2666 18.0969 27.2665C17.8659 27.2664 17.6408 27.3395 17.4539 27.4751H17.4538Z" fill="#1F69B2"/>
<path d="M14.6385 36.0638H11.8035L10.9275 33.3677C10.8122 33.0129 10.5876 32.7037 10.2858 32.4844C9.98399 32.2651 9.62051 32.147 9.24745 32.147C8.8744 32.147 8.51092 32.2651 8.20912 32.4844C7.90733 32.7037 7.6827 33.0129 7.56745 33.3677L6.69122 36.0639H3.85636C3.48331 36.0639 3.11984 36.182 2.81804 36.4013C2.51623 36.6206 2.29159 36.9297 2.17631 37.2845C2.06103 37.6393 2.06102 38.0215 2.17629 38.3763C2.29156 38.7311 2.51619 39.0403 2.81798 39.2596L5.11157 40.9259L4.23548 43.6221C4.12017 43.9769 4.12015 44.3591 4.23542 44.7139C4.35068 45.0688 4.57532 45.378 4.87713 45.5973C5.17893 45.8166 5.54242 45.9347 5.91548 45.9347C6.28855 45.9347 6.65204 45.8166 6.95386 45.5973L9.24745 43.9308L11.541 45.5973C11.8429 45.8168 12.2065 45.9351 12.5797 45.9352C12.9529 45.9352 13.3165 45.8171 13.6184 45.5977C13.9203 45.3784 14.145 45.069 14.2603 44.714C14.3755 44.3591 14.3753 43.9767 14.2598 43.6219L13.3839 40.9258L15.6775 39.2594C15.9793 39.0401 16.204 38.7309 16.3192 38.376C16.4345 38.0211 16.4344 37.6389 16.319 37.2841C16.2037 36.9293 15.9789 36.6201 15.677 36.4009C15.3751 36.1816 15.0115 36.0636 14.6384 36.0638H14.6385ZM11.4546 39.623C11.2677 39.7587 11.1286 39.9502 11.0572 40.1699C10.9858 40.3897 10.9858 40.6263 11.0572 40.8461L11.7785 43.0664L9.8903 41.6939C9.7035 41.5582 9.47857 41.4852 9.24773 41.4852C9.01688 41.4852 8.79195 41.5582 8.60515 41.6939L6.71638 43.0664L7.43757 40.8461C7.50897 40.6264 7.50899 40.3897 7.43762 40.17C7.36624 39.9503 7.22715 39.7589 7.04027 39.6231L5.15218 38.2513H7.48597C7.71692 38.2513 7.94194 38.1782 8.1288 38.0424C8.31565 37.9067 8.45473 37.7153 8.52613 37.4956L9.24745 35.2759L9.96865 37.4956C10.04 37.7153 10.1791 37.9067 10.366 38.0424C10.5528 38.1782 10.7778 38.2513 11.0088 38.2513H13.3427L11.4546 39.623Z" fill="#1F69B2"/>
<path d="M66.0445 36.0638H63.2095L62.3334 33.3677C62.2182 33.0129 61.9935 32.7037 61.6917 32.4844C61.3899 32.2651 61.0265 32.147 60.6534 32.147C60.2803 32.147 59.9169 32.2651 59.6151 32.4844C59.3133 32.7037 59.0887 33.0129 58.9734 33.3677L58.0972 36.0639H55.2623C54.8892 36.0638 54.5256 36.1818 54.2237 36.401C53.9218 36.6202 53.6971 36.9294 53.5817 37.2842C53.4663 37.639 53.4663 38.0213 53.5815 38.3761C53.6968 38.731 53.9214 39.0403 54.2233 39.2596L56.5168 40.9259L55.6408 43.6221C55.5254 43.9769 55.5254 44.3591 55.6407 44.7139C55.756 45.0687 55.9806 45.378 56.2824 45.5973C56.5842 45.8165 56.9477 45.9347 57.3208 45.9347C57.6938 45.9347 58.0573 45.8166 58.3591 45.5973L60.6527 43.9308L62.9463 45.5973C63.2481 45.8171 63.6118 45.9356 63.9852 45.9358C64.3585 45.936 64.7223 45.8179 65.0244 45.5985C65.3265 45.3791 65.5513 45.0696 65.6665 44.7145C65.7817 44.3593 65.7815 43.9768 65.6658 43.6219L64.7898 40.9258L67.0834 39.2594C67.3853 39.0401 67.6099 38.7309 67.7252 38.376C67.8404 38.0211 67.8403 37.6389 67.725 37.2841C67.6096 36.9293 67.3849 36.6201 67.0829 36.4009C66.781 36.1816 66.4175 36.0636 66.0444 36.0638H66.0445ZM62.8606 39.623C62.6737 39.7587 62.5345 39.9502 62.4631 40.1699C62.3917 40.3897 62.3917 40.6263 62.4631 40.8461L63.1845 43.0664L61.2963 41.6938C61.1094 41.5582 60.8845 41.4852 60.6537 41.4852C60.4228 41.4852 60.1979 41.5582 60.0111 41.6938L58.1223 43.0664L58.8435 40.8461C58.9149 40.6264 58.9149 40.3897 58.8436 40.17C58.7722 39.9503 58.6331 39.7589 58.4462 39.6231L56.5581 38.2513H58.8919C59.1229 38.2513 59.3479 38.1782 59.5347 38.0424C59.7216 37.9067 59.8607 37.7153 59.9321 37.4956L60.6534 35.2759L61.3746 37.4956C61.446 37.7153 61.5851 37.9067 61.7719 38.0424C61.9588 38.1782 62.1838 38.2513 62.4147 38.2513H64.7487L62.8606 39.623Z" fill="#1F69B2"/>
<path d="M55.2352 31.7167C55.5141 31.7165 55.7889 31.6504 56.0373 31.5237C56.2857 31.397 56.5006 31.2133 56.6645 30.9877C56.8284 30.7621 56.9365 30.501 56.9802 30.2256C57.0239 29.9502 57.0018 29.6684 56.9158 29.4031L56.0398 26.707L58.3334 25.0407C58.6353 24.8214 58.8599 24.5121 58.9752 24.1573C59.0904 23.8024 59.0904 23.4202 58.975 23.0654C58.8596 22.7105 58.6349 22.4014 58.333 22.1821C58.031 21.9629 57.6675 21.8449 57.2944 21.8451H54.4595L53.5834 19.149C53.4682 18.7942 53.2435 18.4849 52.9417 18.2657C52.6399 18.0464 52.2765 17.9283 51.9034 17.9283C51.5304 17.9283 51.1669 18.0464 50.8651 18.2657C50.5633 18.4849 50.3387 18.7942 50.2234 19.149L49.3472 21.8452H46.5123C46.1392 21.845 45.7756 21.963 45.4737 22.1823C45.1718 22.4015 44.9471 22.7107 44.8317 23.0655C44.7163 23.4203 44.7163 23.8026 44.8315 24.1574C44.9468 24.5123 45.1714 24.8215 45.4733 25.0409L47.7668 26.7072L46.8908 29.4034C46.7754 29.7582 46.7754 30.1404 46.8907 30.4952C47.006 30.85 47.2306 31.1592 47.5324 31.3785C47.8342 31.5978 48.1977 31.7159 48.5708 31.716C48.9438 31.716 49.3073 31.5979 49.6091 31.3786L51.9027 29.7121L54.1963 31.3786C54.4981 31.5984 54.8619 31.7167 55.2352 31.7167V31.7167ZM51.2604 27.4751L49.3723 28.8477L50.0935 26.6273C50.1649 26.4077 50.1649 26.171 50.0936 25.9513C50.0222 25.7316 49.8831 25.5402 49.6962 25.4044L47.8081 24.0326H50.1419C50.3729 24.0325 50.5979 23.9594 50.7847 23.8237C50.9716 23.688 51.1107 23.4965 51.1821 23.2769L51.9034 21.0571L52.6246 23.2769C52.696 23.4965 52.8351 23.688 53.0219 23.8237C53.2088 23.9594 53.4338 24.0325 53.6648 24.0326H55.9987L54.1106 25.4043C53.9237 25.54 53.7845 25.7315 53.7131 25.9512C53.6417 26.1709 53.6417 26.4076 53.7132 26.6273L54.4345 28.8477L52.5463 27.4751C52.3594 27.3394 52.1344 27.2663 51.9034 27.2663C51.6724 27.2663 51.4474 27.3394 51.2606 27.4751H51.2604Z" fill="#1F69B2"/>
<path d="M48.125 41.6582H40.4688V36.1894C40.4674 35.0295 40.006 33.9175 39.1859 33.0973C38.3657 32.2771 37.2537 31.8158 36.0938 31.8144H33.9062C33.643 31.8144 33.3886 31.9094 33.1897 32.0819C32.9908 32.2544 32.8608 32.4928 32.8236 32.7534L32.4215 35.5676C32.2383 36.8454 31.7574 38.0624 31.0177 39.1203C30.2779 40.1782 29.3 41.0475 28.1627 41.6582H19.6875C19.3974 41.6582 19.1192 41.7734 18.9141 41.9785C18.709 42.1836 18.5938 42.4618 18.5938 42.7519V58.0644C18.5938 58.3545 18.709 58.6327 18.9141 58.8378C19.1192 59.0429 19.3974 59.1582 19.6875 59.1582H28.1064L28.8224 59.6356C30.4942 60.7524 32.4601 61.3476 34.4706 61.3457H47.0312C47.6648 61.346 48.2849 61.1628 48.8166 60.8182C49.3482 60.4737 49.7687 59.9825 50.0272 59.404C50.2857 58.8256 50.3711 58.1847 50.2731 57.5587C50.1751 56.9328 49.8979 56.3487 49.475 55.8769C50.0142 55.2759 50.3125 54.4969 50.3125 53.6894C50.3125 52.8819 50.0142 52.1029 49.475 51.5019C49.9326 50.9919 50.2187 50.3512 50.2931 49.67C50.3675 48.9888 50.2265 48.3015 49.8898 47.7047C50.4878 47.3227 50.9458 46.7572 51.1953 46.0929C51.4447 45.4285 51.4721 44.7013 51.2733 44.0201C51.0745 43.3389 50.6602 42.7405 50.0926 42.3147C49.525 41.8889 48.8346 41.6585 48.125 41.6582ZM20.7812 43.8457H27.3438V56.9707H20.7812V43.8457ZM48.125 46.0332H47.0312C46.7412 46.0332 46.463 46.1484 46.2579 46.3535C46.0527 46.5586 45.9375 46.8368 45.9375 47.1269C45.9375 47.417 46.0527 47.6952 46.2579 47.9003C46.463 48.1054 46.7412 48.2207 47.0312 48.2207C47.3213 48.2207 47.5995 48.3359 47.8046 48.541C48.0098 48.7461 48.125 49.0243 48.125 49.3144C48.125 49.6045 48.0098 49.8827 47.8046 50.0878C47.5995 50.2929 47.3213 50.4082 47.0312 50.4082C46.7412 50.4082 46.463 50.5234 46.2579 50.7285C46.0527 50.9336 45.9375 51.2118 45.9375 51.5019C45.9375 51.792 46.0527 52.0702 46.2579 52.2753C46.463 52.4804 46.7412 52.5957 47.0312 52.5957C47.3213 52.5957 47.5995 52.7109 47.8046 52.916C48.0098 53.1211 48.125 53.3993 48.125 53.6894C48.125 53.9795 48.0098 54.2577 47.8046 54.4628C47.5995 54.6679 47.3213 54.7832 47.0312 54.7832C46.7412 54.7832 46.463 54.8984 46.2579 55.1035C46.0527 55.3086 45.9375 55.5868 45.9375 55.8769C45.9375 56.167 46.0527 56.4452 46.2579 56.6503C46.463 56.8554 46.7412 56.9707 47.0312 56.9707C47.3213 56.9707 47.5995 57.0859 47.8046 57.291C48.0098 57.4961 48.125 57.7743 48.125 58.0644C48.125 58.3545 48.0098 58.6327 47.8046 58.8378C47.5995 59.0429 47.3213 59.1582 47.0312 59.1582H34.4706C32.892 59.1596 31.3485 58.6923 30.0357 57.8154L29.5312 57.4791V43.4019C30.8859 42.6088 32.0441 41.5201 32.9195 40.2171C33.7949 38.9141 34.3649 37.4303 34.587 35.8763L34.8548 34.0012H36.0938C36.6737 34.0019 37.2297 34.2326 37.6398 34.6427C38.0499 35.0528 38.2806 35.6088 38.2812 36.1887V42.7512C38.2812 43.0413 38.3965 43.3195 38.6016 43.5246C38.8067 43.7297 39.0849 43.845 39.375 43.845H48.125C48.4151 43.845 48.6933 43.9602 48.8984 44.1653C49.1035 44.3705 49.2188 44.6487 49.2188 44.9387C49.2188 45.2288 49.1035 45.507 48.8984 45.7121C48.6933 45.9172 48.4151 46.0325 48.125 46.0325V46.0332Z" fill="#1F69B2"/>
</svg>
