<svg xmlns="http://www.w3.org/2000/svg" width="34" height="34" fill="none"  xmlns:v="https://vecta.io/nano"><rect x=".5" y=".5" width="33" height="33" rx="3.5" fill="#fff" stroke="#ddd"/><path d="M7.418 15.065l-.429-1.073-.429 1.073h.858zm9.496-.423c-.087.057-.191.057-.31.057h-.763v-.602h.779c.111 0 .222.008.302.049s.135.122.135.236c-.016.122-.064.211-.143.26zm5.459.423l-.437-1.073-.437 1.073h.874zm-10.171 1.171h-.644v-2.114l-.914 2.114h-.556l-.914-2.114v2.114H7.887l-.238-.602H6.338l-.246.602h-.683l1.128-2.7h.938l1.065 2.553v-2.553h1.025l.826 1.83.755-1.83h1.049l.008 2.7zm2.567 0h-2.098v-2.7h2.106v.561h-1.478v.488h1.438v.553h-1.438v.537h1.47v.561zm2.972-1.976c0 .431-.278.65-.445.716.135.057.254.146.31.228.087.13.103.252.103.496v.529h-.636v-.342c0-.163.016-.398-.103-.528-.095-.098-.23-.114-.461-.114h-.675v.984h-.628v-2.7h1.446c.318 0 .556.008.763.13a.64.64 0 0 1 .326.602zm1.009 1.976h-.644v-2.7h.644v2.7zm7.453 0h-.89l-1.192-2.025v2.025h-1.279l-.246-.602h-1.311l-.238.602h-.739c-.31 0-.691-.073-.914-.301s-.334-.537-.334-1.033c0-.398.072-.764.342-1.057.207-.211.524-.317.953-.317h.612v.577h-.596c-.23 0-.358.033-.485.163-.111.114-.183.325-.183.61 0 .293.056.496.175.634.095.106.27.138.437.138h.286l.89-2.122h.946l1.065 2.553v-2.553h.961l1.105 1.878v-1.878h.644v2.708h-.008zM5.4 16.765h1.073l.246-.602h.54l.238.602h2.114v-.455l.191.463h1.097l.191-.463v.463h5.26v-.984h.103c.072 0 .095.008.095.13v.854h2.718v-.228c.223.122.564.228 1.009.228h1.144l.246-.602h.54l.238.602h2.209v-.569l.334.569h1.764V13h-1.748v.447L24.757 13h-1.796v.447L22.738 13h-2.424c-.405 0-.763.057-1.049.22V13h-1.677v.22c-.183-.163-.437-.22-.715-.22H10.77l-.405.976-.42-.976H8.014v.447L7.808 13H6.163L5.4 14.789v1.976zm22.4 1.984h-1.144c-.111 0-.191.008-.254.049s-.095.106-.095.195c0 .106.056.171.135.203a.67.67 0 0 0 .246.033l.342.008c.342.008.572.073.715.22.024.024.04.041.056.065v-.773zm0 1.781c-.151.228-.453.341-.858.341h-1.216v-.577h1.208c.119 0 .207-.016.254-.065a.23.23 0 0 0 .072-.179c0-.081-.032-.138-.079-.179s-.111-.057-.223-.057c-.588-.024-1.327.016-1.327-.837 0-.39.246-.805.906-.805h1.255v-.537h-1.168c-.35 0-.604.089-.787.22v-.22h-1.724c-.278 0-.596.073-.755.22v-.22h-3.075v.22c-.246-.179-.66-.22-.85-.22h-2.034v.22c-.191-.195-.628-.22-.89-.22h-2.273l-.516.577-.485-.577H9.858V21.4h3.329l.532-.585.508.585h2.05v-.886h.199c.27.008.596-.008.874-.13V21.4h1.692v-.984h.08c.103 0 .111.008.111.114v.87h5.157c.326 0 .668-.089.858-.244v.244h1.629c.342 0 .668-.049.922-.171v-.699zm-2.511-1.082c.119.13.191.293.191.569 0 .577-.358.854-.985.854h-1.224v-.577h1.224c.119 0 .207-.016.254-.065a.26.26 0 0 0 .072-.179c0-.081-.032-.138-.079-.179s-.111-.057-.222-.057c-.588-.024-1.327.016-1.327-.837 0-.39.238-.805.898-.805h1.263v.577H24.2c-.111 0-.191.008-.254.049-.072.041-.095.106-.095.195 0 .106.056.171.135.203a.67.67 0 0 0 .246.033l.342.008c.342.008.572.065.715.211zm-5.681-.163c-.087.049-.191.057-.31.057h-.763v-.602h.779c.111 0 .223 0 .302.049.079.041.127.13.127.244 0 .106-.048.203-.135.252zm.381.333c.143.057.254.146.31.228.087.13.103.252.103.496v.537h-.636v-.333c0-.163.016-.398-.103-.529-.095-.098-.23-.122-.461-.122h-.675v.984h-.636v-2.7h1.454c.318 0 .548.016.755.13.199.122.326.293.326.602.008.423-.27.642-.437.707zm.795-1.439h2.098v.561h-1.478v.488h1.438v.553h-1.438v.537h1.478v.561h-2.098v-2.7zm-4.243 1.244h-.81v-.683h.819c.23 0 .381.098.381.333 0 .228-.151.35-.389.35zm-1.446 1.204l-.969-1.098.969-1.065v2.163zM12.6 20.31h-1.55v-.537h1.383v-.553H11.05v-.488h1.581l.691.789-.723.789zm5.006-1.244c0 .748-.548.903-1.097.903h-.787v.903h-1.224l-.779-.894-.803.894h-2.495v-2.7h2.535l.779.886.803-.886h2.01c.493.008 1.057.146 1.057.894z" fill="#179bd7"/></svg>