<?xml version="1.0" encoding="utf-8"?>
<!-- Generator: Adobe Illustrator 16.0.0, SVG Export Plug-In . SVG Version: 6.00 Build 0)  -->
<!DOCTYPE svg PUBLIC "-//W3C//DTD SVG 1.1//EN" "http://www.w3.org/Graphics/SVG/1.1/DTD/svg11.dtd">
<svg version="1.1" id="Layer_1" xmlns="http://www.w3.org/2000/svg" xmlns:xlink="http://www.w3.org/1999/xlink" x="0px" y="0px"
	 width="70px" height="70px" viewBox="0 0 70 70" enable-background="new 0 0 70 70" xml:space="preserve">
<path fill="#969696" d="M64.656,30.625h-3.405c-0.194-0.702-0.611-1.322-1.188-1.766c-0.578-0.444-1.285-0.688-2.014-0.695h-3.635
	v-8.89c0.004-0.166-0.036-0.331-0.116-0.476c-0.081-0.146-0.198-0.268-0.341-0.353L28.312,3.633
	c-0.145-0.084-0.309-0.128-0.476-0.128c-0.167,0-0.332,0.044-0.476,0.128L1.706,18.445c-0.145,0.084-0.265,0.205-0.349,0.351
	c-0.083,0.146-0.127,0.311-0.126,0.478v29.625c0,0.168,0.044,0.334,0.128,0.479c0.084,0.146,0.205,0.267,0.35,0.351L27.365,64.54
	c0.146,0.084,0.311,0.128,0.479,0.128c0.172,0,0.342-0.043,0.492-0.128l13.5-7.787v5.63c-0.002,0.535,0.104,1.066,0.309,1.562
	s0.507,0.944,0.887,1.322s0.832,0.677,1.328,0.879s1.027,0.304,1.563,0.3h18.733c0.537,0.005,1.07-0.096,1.568-0.298
	s0.951-0.501,1.334-0.878c0.382-0.377,0.686-0.827,0.894-1.322c0.208-0.496,0.315-1.027,0.317-1.564V34.751
	c0-1.092-0.434-2.139-1.205-2.913C66.794,31.066,65.748,30.629,64.656,30.625z M58.084,30.078c0.368,0,0.721,0.146,0.982,0.407
	c0.26,0.261,0.406,0.614,0.406,0.982v0.093c0,0.369-0.146,0.722-0.406,0.982c-0.262,0.26-0.614,0.407-0.982,0.407h-5.563
	c-0.367,0-0.721-0.146-0.982-0.407c-0.26-0.261-0.406-0.614-0.406-0.982v-0.093c0-0.368,0.146-0.722,0.406-0.982
	c0.262-0.26,0.615-0.407,0.982-0.407H58.084z M27.843,5.567l10.661,6.155l-23.74,13.706l-10.66-6.155L27.843,5.567z M26.934,62.054
	L3.145,48.346V20.93l23.789,13.707V62.054z M27.843,32.979l-11.166-6.447l23.74-13.706l11.166,6.446L27.843,32.979z M41.836,34.751
	v19.792l-12.988,7.511V34.637L52.5,20.93v7.234h0.029c-0.729,0.007-1.435,0.251-2.012,0.695c-0.578,0.444-0.996,1.064-1.189,1.766
	h-3.405c-1.089,0.005-2.132,0.443-2.897,1.217C42.258,32.616,41.83,33.662,41.836,34.751z M66.855,62.383
	c-0.002,0.285-0.06,0.568-0.171,0.832c-0.112,0.264-0.274,0.502-0.479,0.701c-0.204,0.201-0.447,0.357-0.713,0.463
	s-0.55,0.158-0.836,0.152H45.923c-0.284,0.005-0.567-0.047-0.832-0.153s-0.505-0.264-0.706-0.464
	c-0.203-0.2-0.363-0.439-0.473-0.701c-0.108-0.264-0.164-0.546-0.162-0.83V34.751c-0.003-0.288,0.051-0.574,0.158-0.841
	c0.108-0.267,0.268-0.51,0.469-0.716c0.202-0.206,0.443-0.369,0.708-0.482c0.265-0.112,0.55-0.171,0.838-0.174h3.442
	c0.205,0.677,0.625,1.27,1.195,1.689c0.57,0.419,1.262,0.642,1.969,0.635h5.52c0.709,0.007,1.399-0.216,1.97-0.635
	c0.57-0.419,0.989-1.012,1.194-1.689h3.443c0.584,0.004,1.145,0.238,1.556,0.653c0.412,0.415,0.644,0.975,0.644,1.56V62.383z"/>
<path fill="#969696" d="M47.024,44.434h1.001c0.254,0,0.498-0.101,0.678-0.28s0.279-0.423,0.279-0.677s-0.1-0.497-0.279-0.677
	c-0.18-0.179-0.424-0.28-0.678-0.28h-0.037v-2.598h2.64c0.06,0.192,0.182,0.359,0.347,0.477c0.164,0.117,0.361,0.176,0.563,0.17
	c0.255,0,0.499-0.1,0.68-0.279c0.18-0.178,0.282-0.422,0.283-0.676v-0.645c-0.002-0.255-0.105-0.499-0.286-0.679
	c-0.181-0.181-0.426-0.282-0.681-0.282h-4.509c-0.126,0-0.25,0.025-0.366,0.074c-0.115,0.049-0.221,0.12-0.309,0.209
	c-0.088,0.09-0.158,0.195-0.205,0.313c-0.047,0.115-0.071,0.24-0.07,0.365v4.509c0,0.126,0.023,0.249,0.07,0.365
	c0.048,0.116,0.117,0.222,0.206,0.311s0.193,0.159,0.309,0.208C46.775,44.408,46.898,44.434,47.024,44.434z"/>
<path fill="#969696" d="M47.031,53.184h4.512c0.254,0,0.497-0.101,0.677-0.28s0.28-0.423,0.28-0.677v-4.512
	c0-0.254-0.101-0.497-0.28-0.677s-0.423-0.28-0.677-0.28h-4.512c-0.254,0-0.497,0.101-0.677,0.28s-0.28,0.423-0.28,0.677v4.512
	c0,0.254,0.101,0.497,0.28,0.677S46.777,53.184,47.031,53.184z M47.988,48.672h2.598v2.598h-2.598V48.672z"/>
<path fill="#969696" d="M48.026,60.02h-0.038v-2.598h2.588c0.005,0.252,0.108,0.491,0.288,0.668c0.18,0.176,0.421,0.275,0.673,0.275
	s0.494-0.098,0.674-0.274c0.18-0.176,0.283-0.415,0.289-0.667v-0.922c-0.001-0.26-0.103-0.508-0.283-0.693
	c-0.18-0.185-0.426-0.293-0.684-0.301h-4.509c-0.257,0.009-0.5,0.117-0.678,0.303s-0.275,0.434-0.272,0.691v4.508
	c0,0.123,0.024,0.246,0.072,0.359c0.049,0.114,0.119,0.217,0.207,0.304c0.089,0.086,0.193,0.153,0.309,0.198
	s0.238,0.066,0.362,0.063h1.002c0.253,0,0.497-0.101,0.677-0.28s0.28-0.423,0.28-0.677s-0.101-0.497-0.28-0.677
	C48.523,60.121,48.279,60.02,48.026,60.02z"/>
<path fill="#969696" d="M53.736,39.183l-2.803,2.803l-0.853-0.853c-0.089-0.089-0.194-0.16-0.311-0.207
	c-0.116-0.049-0.241-0.074-0.366-0.074s-0.25,0.025-0.366,0.074c-0.116,0.047-0.222,0.118-0.311,0.207
	c-0.089,0.088-0.159,0.194-0.208,0.311c-0.047,0.115-0.072,0.24-0.072,0.365c0,0.127,0.025,0.251,0.072,0.367
	c0.049,0.115,0.119,0.222,0.208,0.311l1.53,1.529c0.088,0.089,0.193,0.159,0.31,0.207c0.116,0.049,0.241,0.073,0.366,0.073
	c0.126,0,0.25-0.024,0.367-0.073c0.115-0.048,0.221-0.118,0.31-0.207l3.479-3.48c0.18-0.18,0.281-0.422,0.281-0.676
	s-0.102-0.498-0.281-0.678c-0.179-0.18-0.422-0.279-0.676-0.279S53.916,39.002,53.736,39.183L53.736,39.183z"/>
<path fill="#969696" d="M53.736,56.854l-2.803,2.803l-0.853-0.854c-0.089-0.088-0.194-0.158-0.311-0.207
	c-0.116-0.048-0.241-0.072-0.366-0.072s-0.25,0.024-0.366,0.072c-0.116,0.049-0.222,0.119-0.311,0.207
	c-0.089,0.09-0.159,0.195-0.208,0.311c-0.047,0.117-0.072,0.241-0.072,0.367c0,0.125,0.025,0.25,0.072,0.365
	c0.049,0.117,0.119,0.223,0.208,0.311l1.53,1.529c0.088,0.09,0.193,0.16,0.31,0.208s0.241,0.073,0.366,0.073
	c0.126,0,0.25-0.025,0.367-0.073c0.115-0.048,0.221-0.118,0.31-0.208l3.479-3.479c0.18-0.18,0.281-0.424,0.281-0.678
	s-0.102-0.497-0.281-0.677c-0.179-0.179-0.422-0.28-0.676-0.28S53.916,56.674,53.736,56.854L53.736,56.854z"/>
<path fill="#969696" d="M63.555,40.332h-6.011c-0.254,0-0.497,0.102-0.677,0.28c-0.18,0.18-0.28,0.423-0.28,0.677
	s0.101,0.497,0.28,0.677s0.423,0.28,0.677,0.28h6.011c0.254,0,0.498-0.101,0.677-0.28c0.18-0.18,0.28-0.423,0.28-0.677
	s-0.101-0.497-0.28-0.677C64.053,40.434,63.809,40.332,63.555,40.332z"/>
<path fill="#969696" d="M63.555,49.082h-6.011c-0.254,0-0.497,0.102-0.677,0.28c-0.18,0.18-0.28,0.423-0.28,0.677
	s0.101,0.497,0.28,0.677s0.423,0.28,0.677,0.28h6.011c0.254,0,0.498-0.101,0.677-0.28c0.18-0.18,0.28-0.423,0.28-0.677
	s-0.101-0.497-0.28-0.677C64.053,49.184,63.809,49.082,63.555,49.082z"/>
<path fill="#969696" d="M63.555,57.832h-6.011c-0.254,0-0.497,0.102-0.677,0.28c-0.18,0.18-0.28,0.423-0.28,0.677
	s0.101,0.497,0.28,0.677s0.423,0.28,0.677,0.28h6.011c0.254,0,0.498-0.101,0.677-0.28c0.18-0.18,0.28-0.423,0.28-0.677
	s-0.101-0.497-0.28-0.677C64.053,57.934,63.809,57.832,63.555,57.832z"/>
</svg>
