<svg width="24" height="17" viewBox="0 0 24 17" fill="none" xmlns="http://www.w3.org/2000/svg">
<path d="M5.6002 12.2558C4.27659 12.2558 3.2002 13.3197 3.2002 14.6279C3.2002 15.9361 4.27659 17 5.6002 17C6.92381 17 8.00021 15.9361 8.00021 14.6279C8.00021 13.3197 6.92377 12.2558 5.6002 12.2558ZM5.6002 16.2093C4.71778 16.2093 4.00021 15.5 4.00021 14.6279C4.00021 13.7557 4.71782 13.0465 5.6002 13.0465C6.48258 13.0465 7.20019 13.7558 7.20019 14.6279C7.20019 15.5 6.48258 16.2093 5.6002 16.2093Z" fill="#1F69B2"/>
<path d="M19.1998 12.2558C17.8762 12.2558 16.7998 13.3197 16.7998 14.6279C16.7998 15.9361 17.8762 17 19.1998 17C20.5234 17 21.5998 15.9361 21.5998 14.6279C21.5998 13.3197 20.5234 12.2558 19.1998 12.2558ZM19.1998 16.2093C18.3174 16.2093 17.5998 15.5 17.5998 14.6279C17.5998 13.7557 18.3174 13.0465 19.1998 13.0465C20.0822 13.0465 20.7998 13.7558 20.7998 14.6279C20.7998 15.5 20.0822 16.2093 19.1998 16.2093Z" fill="#1F69B2"/>
<path d="M23.9366 10.0652L20.3366 4.53029C20.263 4.4172 20.1362 4.34882 20.0002 4.34882H15.6002C15.379 4.34882 15.2002 4.52594 15.2002 4.74415V14.6278C15.2002 14.8465 15.379 15.0232 15.6002 15.0232H17.2002V14.2325H16.0002V5.13953H19.7818L23.2002 10.3953V14.2325H21.2002V15.0232H23.6002C23.8214 15.0232 24.0001 14.8465 24.0001 14.6279V10.279C24.0002 10.2035 23.9782 10.1288 23.9366 10.0652Z" fill="#1F69B2"/>
<path d="M17.6003 9.48837V6.72095H20.8003V5.93024H17.2003C16.9791 5.93024 16.8003 6.10736 16.8003 6.32557V9.8837C16.8003 10.1023 16.9791 10.279 17.2003 10.279H23.2003V9.48832H17.6003V9.48837Z" fill="#1F69B2"/>
<path d="M15.6 1.58142H0.399985C0.179203 1.58142 0 1.75854 0 1.97675V14.6279C0 14.8465 0.179203 15.0232 0.399985 15.0232H3.60001V14.2325H0.800017V2.37209H15.2V14.2325H7.6V15.0232H15.6C15.8212 15.0232 16 14.8465 16 14.6279V1.97675C16 1.75854 15.8212 1.58142 15.6 1.58142Z" fill="#1F69B2"/>
<path d="M2.79991 12.6511H0.399902V13.4418H2.79991V12.6511Z" fill="#1F69B2"/>
<path d="M15.1999 12.6511H8.3999V13.4418H15.1999V12.6511Z" fill="#1F69B2"/>
<path d="M23.6 12.6511H22V13.4418H23.6V12.6511Z" fill="#1F69B2"/>
<path d="M15.6001 3.16278H1.6001V3.95349H15.6001V3.16278Z" fill="#1F69B2"/>
<path d="M6.00021 14.2325H5.2002V15.0233H6.00021V14.2325Z" fill="#1F69B2"/>
<path d="M19.5998 14.2325H18.7998V15.0233H19.5998V14.2325Z" fill="#1F69B2"/>
<path d="M7.2 0H1.59998V0.790712H7.2V0Z" fill="#1F69B2"/>
<path d="M0.800017 0H0V0.790712H0.800017V0Z" fill="#1F69B2"/>
</svg>
