<svg width="8" height="12" viewBox="0 0 8 12" fill="none" xmlns="http://www.w3.org/2000/svg">
<path d="M7.30994 5.53176L2.00758 0.191706C1.88495 0.068097 1.72124 0 1.54668 0C1.37212 0 1.20841 0.068097 1.08577 0.191706L0.695289 0.584873C0.4412 0.841066 0.4412 1.25745 0.695289 1.51326L5.14781 5.99751L0.690349 10.4867C0.567712 10.6104 0.5 10.7751 0.5 10.9508C0.5 11.1267 0.567712 11.2915 0.690349 11.4152L1.08083 11.8083C1.20356 11.9319 1.36718 12 1.54174 12C1.7163 12 1.88001 11.9319 2.00264 11.8083L7.30994 6.46336C7.43287 6.33936 7.50039 6.1738 7.5 5.9978C7.50039 5.82112 7.43287 5.65566 7.30994 5.53176Z" fill="#767676"/>
</svg>
