<svg width="61" height="62" viewBox="0 0 61 62" fill="none" xmlns="http://www.w3.org/2000/svg">
<path d="M54.75 42.75V61H2.5V25.75H46.75" stroke="#1F69B2" stroke-miterlimit="10" stroke-linecap="round" stroke-linejoin="round"/>
<path d="M34.9997 25.75H23.2497V32.25H34.9997V25.75Z" stroke="#1F69B2" stroke-miterlimit="10" stroke-linecap="round" stroke-linejoin="round"/>
<path d="M7.75015 55.75H10.2502" stroke="#1F69B2" stroke-miterlimit="10" stroke-linecap="round" stroke-linejoin="round"/>
<path d="M13.0003 55.75H15.5003" stroke="#1F69B2" stroke-miterlimit="10" stroke-linecap="round" stroke-linejoin="round"/>
<path d="M18.2497 55.75H20.7497" stroke="#1F69B2" stroke-miterlimit="10" stroke-linecap="round" stroke-linejoin="round"/>
<path d="M41.7497 6.25C51.7497 6.25 59.9997 14.5 59.9997 24.5C59.9997 34.5 51.7497 42.75 41.7497 42.75H39.2497V41.5H40.4997C46.9997 41.5 52.2497 35 52.2497 28.5C52.2497 22 46.9997 16.75 40.4997 16.75H36.4997V20.75L35.2497 22L21.9997 11.5L34.9997 1L36.4997 2.25V6.25H41.7497Z" stroke="#1F69B2" stroke-miterlimit="10" stroke-linecap="round" stroke-linejoin="round"/>
</svg>
