<svg width="100" height="101" viewBox="0 0 100 101" fill="none" xmlns="http://www.w3.org/2000/svg">
<path d="M22.6439 61.251L2.19235 76.5983C3.79537 79.5211 7.46467 80.5912 10.3875 78.9882L27.2881 69.7191L22.6439 61.251Z" fill="#1B74D6"/>
<path d="M24.9657 65.485L8.06519 74.754C5.14235 76.357 2.51264 77.1825 2.19212 76.5981C0.589107 73.6753 1.65915 70.006 4.58199 68.403L21.4825 59.1339L24.9657 65.485Z" fill="#1E8AFF"/>
<path d="M22.6381 61.2457L33.2215 55.4413L36.7041 61.7914L26.1207 67.5958L22.6381 61.2457Z" fill="#FFEAC3"/>
<path d="M31.9542 50.6374L28.3522 55.02C28.039 55.4012 27.9891 55.9346 28.2263 56.3671L33.2462 65.5199C33.4834 65.9524 33.96 66.1972 34.4498 66.1378L40.0816 65.4563L31.9542 50.6374Z" fill="#FFD17E"/>
<path d="M29.4051 68.5583L27.083 64.3243L22.849 66.6464L25.1711 70.8804C25.8123 72.0496 27.2799 72.4776 28.4491 71.8364C29.6183 71.1951 30.0463 69.7275 29.4051 68.5583Z" fill="#FFB739"/>
<path d="M26.1272 67.6023C27.2964 66.9611 27.7244 65.4935 27.0831 64.3243L23.5999 57.9732C22.9587 56.804 21.4911 56.376 20.3219 57.0173C19.1527 57.6585 18.7247 59.1261 19.3659 60.2953L22.8491 66.6464C23.4904 67.8156 24.958 68.2436 26.1272 67.6023Z" fill="#FFD17E"/>
<path d="M53.0796 73.1597C69.167 77.8511 86.0115 68.6128 90.7029 52.5254C95.3943 36.438 86.156 19.5935 70.0686 14.9021C53.9812 10.2107 37.1367 19.449 32.4453 35.5364C27.7539 51.6238 36.9922 68.4683 53.0796 73.1597Z" fill="#FFB739"/>
<path d="M68.717 19.538L54.4318 68.5238C67.9589 72.4685 82.1226 64.7005 86.0674 51.1735C90.0121 37.6464 82.2441 23.4827 68.717 19.538Z" fill="#DBEBFF"/>
<path d="M81.4314 49.8216C85.3761 36.2945 79.6837 22.7361 68.7169 19.538C55.1899 15.5932 41.0261 23.3613 37.0814 36.8883C33.1367 50.4153 40.9047 64.5791 54.4317 68.5238C65.3985 71.7219 77.4866 63.3486 81.4314 49.8216Z" fill="white"/>
<g clip-path="url(#clip0)">
<path d="M57.3168 49.5209L54.777 49.3394L53.0985 46.5432L52.2593 45.1431V44.7553C52.2596 44.3345 51.9186 43.9931 51.4977 43.9928C51.4034 43.9927 51.3099 44.0102 51.2221 44.0442L48.8086 44.9752L48.991 44.3631C49.135 43.8486 48.9014 43.3032 48.4297 43.0524L46.5359 42.035C46.3982 41.9611 46.2266 42.0083 46.146 42.1423L43.3683 46.5904L43.3096 46.5565C43.1693 46.4758 42.9902 46.5243 42.9096 46.6646C42.9078 46.6676 42.9063 46.6706 42.9046 46.6737L42.0349 48.3109C41.96 48.4523 42.0123 48.6275 42.1522 48.7049L52.7286 54.567C52.772 54.591 52.8208 54.6036 52.8705 54.6036H57.2421C58.2129 54.6026 58.9998 53.8159 59.0007 52.845V51.329C58.9976 50.3791 58.2641 49.5916 57.3168 49.5209ZM54.1645 49.4581L53.8297 49.5698L51.2071 46.1598L51.8812 45.6536L54.1645 49.4581ZM46.5048 42.6836L48.1524 43.5679C48.3808 43.6887 48.4949 43.9514 48.4273 44.2007L48.1852 45.0168L46.5027 44.0079L45.9201 43.6582L46.5048 42.6836ZM44.7694 45.481L44.9195 45.2465L45.8838 45.9637C46.3746 46.3322 46.6252 46.9391 46.5373 47.5466L46.5008 48.3937L43.8812 46.8838L44.7694 45.481ZM57.2421 54.0174H52.9458L42.6872 48.3311L43.2795 47.2174L52.9921 52.8059C53.0367 52.8316 53.0872 52.8451 53.1387 52.845H58.4145C58.4145 53.4924 57.8896 54.0174 57.2421 54.0174ZM58.4145 52.2587H53.2169L51.2065 51.1013L51.8824 50.4122C51.9941 50.2951 51.9897 50.1095 51.8724 49.9978C51.7576 49.8883 51.5766 49.8901 51.4639 50.0018L50.6819 50.7991L49.568 50.1572L50.6851 49.2636C50.8115 49.1624 50.832 48.9778 50.7308 48.8514C50.6296 48.725 50.4451 48.7046 50.3187 48.8057L49.0223 49.8431L48.0679 49.2943L49.5159 48.0876C49.6404 47.9839 49.6573 47.7991 49.5538 47.6746C49.4501 47.5501 49.2652 47.5332 49.1407 47.6367L47.5263 48.9824L47.0731 48.7215L47.1206 47.5964C47.2292 46.7858 46.8895 45.9801 46.2335 45.4919L45.2348 44.7494L45.6121 44.157L48.2066 45.7137C48.2415 45.7338 48.2801 45.7462 48.3201 45.7504C48.3271 45.7504 48.3332 45.7527 48.3403 45.7532C48.3473 45.7539 48.3517 45.7553 48.3573 45.7553C48.3935 45.7554 48.4295 45.7488 48.4634 45.7357L51.4325 44.5906C51.4868 44.5699 51.5476 44.577 51.5958 44.6097C51.644 44.6427 51.6727 44.6976 51.6723 44.7562V45.0787L50.617 45.87C50.4876 45.9672 50.4615 46.151 50.5588 46.2803C50.5595 46.2812 50.5601 46.2822 50.5608 46.2829L53.4918 50.0934C53.5676 50.1926 53.6982 50.2325 53.8166 50.1927L54.6405 49.918L57.2744 50.1062C57.9154 50.1537 58.412 50.6862 58.4145 51.329V52.2587Z" fill="#1F69B2"/>
<path d="M43.7586 50.5H42.2931C42.1313 50.5 42 50.6313 42 50.7931C42 50.955 42.1313 51.0862 42.2931 51.0862H43.7586C43.9205 51.0862 44.0517 50.955 44.0517 50.7931C44.0517 50.6313 43.9205 50.5 43.7586 50.5Z" fill="#1F69B2"/>
<path d="M42 52.5517C42 52.7135 42.1313 52.8448 42.2931 52.8448H46.1034C46.2653 52.8448 46.3966 52.7135 46.3966 52.5517C46.3966 52.3898 46.2653 52.2585 46.1034 52.2585H42.2931C42.1313 52.2585 42 52.3898 42 52.5517Z" fill="#1F69B2"/>
<path d="M49.3276 54.0173H42.2931C42.1313 54.0173 42 54.1485 42 54.3103C42 54.4722 42.1313 54.6034 42.2931 54.6034H49.3276C49.4895 54.6034 49.6206 54.4722 49.6206 54.3103C49.6206 54.1485 49.4895 54.0173 49.3276 54.0173Z" fill="#1F69B2"/>
</g>
<path d="M96.9612 36.9017C96.9288 36.8412 96.8478 36.811 96.783 36.7958C96.4105 36.7958 93.2033 36.6749 93.2033 33.1966C93.2033 33.0907 93.1061 33 92.9928 33C92.8794 33 92.7822 33.0907 92.7822 33.1966C92.7822 36.6749 89.575 36.7958 89.2187 36.7958C89.1701 36.7958 89.1215 36.811 89.0891 36.8412C89.0567 36.8563 89.0405 36.8866 89.0243 36.9017C88.9919 36.9622 88.9919 37.0378 89.0243 37.0983C89.0567 37.1588 89.1377 37.2042 89.2187 37.2042C89.2187 37.2042 89.2187 37.2042 89.2349 37.2042C89.6074 37.2042 92.7984 37.3251 92.7984 40.8034C92.7984 40.9093 92.8956 41 93.009 41C93.1223 41 93.2195 40.9093 93.2195 40.8034C93.2195 37.3403 96.4105 37.2042 96.783 37.2042C96.864 37.2042 96.9288 37.1588 96.9774 37.0983C97.0098 37.0378 97.0098 36.9622 96.9612 36.9017ZM92.9928 39.3214C92.523 37.8847 91.373 37.2647 90.4659 36.9924C91.373 36.7202 92.523 36.1002 92.9928 34.6635C93.4625 36.1002 94.6125 36.7202 95.5196 36.9924C94.6125 37.2647 93.4625 37.8847 92.9928 39.3214Z" fill="#1F69B2"/>
<path d="M63.9612 3.9017C63.9288 3.84121 63.8478 3.81096 63.783 3.79584C63.4105 3.79584 60.2033 3.67486 60.2033 0.196597C60.2033 0.0907371 60.1061 0 59.9928 0C59.8794 0 59.7822 0.0907371 59.7822 0.196597C59.7822 3.67486 56.575 3.79584 56.2187 3.79584C56.1701 3.79584 56.1215 3.81096 56.0891 3.84121C56.0567 3.85633 56.0405 3.88658 56.0243 3.9017C55.9919 3.96219 55.9919 4.03781 56.0243 4.0983C56.0567 4.15879 56.1377 4.20416 56.2187 4.20416C56.2187 4.20416 56.2187 4.20416 56.2349 4.20416C56.6074 4.20416 59.7984 4.32514 59.7984 7.8034C59.7984 7.90926 59.8956 8 60.009 8C60.1223 8 60.2195 7.90926 60.2195 7.8034C60.2195 4.34026 63.4105 4.20416 63.783 4.20416C63.864 4.20416 63.9288 4.15879 63.9774 4.0983C64.0098 4.03781 64.0098 3.96219 63.9612 3.9017ZM59.9928 6.32136C59.523 4.88469 58.373 4.26465 57.4659 3.99244C58.373 3.72023 59.523 3.10019 59.9928 1.66352C60.4625 3.10019 61.6125 3.72023 62.5196 3.99244C61.6125 4.26465 60.4625 4.88469 59.9928 6.32136Z" fill="#1F69B2"/>
<path d="M99.9612 43.9017C99.9288 43.8412 99.8478 43.811 99.783 43.7958C99.4105 43.7958 96.2033 43.6749 96.2033 40.1966C96.2033 40.0907 96.1061 40 95.9928 40C95.8794 40 95.7822 40.0907 95.7822 40.1966C95.7822 43.6749 92.575 43.7958 92.2187 43.7958C92.1701 43.7958 92.1215 43.811 92.0891 43.8412C92.0567 43.8563 92.0405 43.8866 92.0243 43.9017C91.9919 43.9622 91.9919 44.0378 92.0243 44.0983C92.0567 44.1588 92.1377 44.2042 92.2187 44.2042C92.2187 44.2042 92.2187 44.2042 92.2349 44.2042C92.6074 44.2042 95.7984 44.3251 95.7984 47.8034C95.7984 47.9093 95.8956 48 96.009 48C96.1223 48 96.2195 47.9093 96.2195 47.8034C96.2195 44.3403 99.4105 44.2042 99.783 44.2042C99.864 44.2042 99.9288 44.1588 99.9774 44.0983C100.01 44.0378 100.01 43.9622 99.9612 43.9017ZM95.9928 46.3214C95.523 44.8847 94.373 44.2647 93.4659 43.9924C94.373 43.7202 95.523 43.1002 95.9928 41.6635C96.4625 43.1002 97.6125 43.7202 98.5196 43.9924C97.6125 44.2647 96.4625 44.8847 95.9928 46.3214Z" fill="#1F69B2"/>
<path d="M59.9612 11.9017C59.9288 11.8412 59.8478 11.811 59.783 11.7958C59.4105 11.7958 56.2033 11.6749 56.2033 8.1966C56.2033 8.09074 56.1061 8 55.9928 8C55.8794 8 55.7822 8.09074 55.7822 8.1966C55.7822 11.6749 52.575 11.7958 52.2187 11.7958C52.1701 11.7958 52.1215 11.811 52.0891 11.8412C52.0567 11.8563 52.0405 11.8866 52.0243 11.9017C51.9919 11.9622 51.9919 12.0378 52.0243 12.0983C52.0567 12.1588 52.1377 12.2042 52.2187 12.2042C52.2187 12.2042 52.2187 12.2042 52.2349 12.2042C52.6074 12.2042 55.7984 12.3251 55.7984 15.8034C55.7984 15.9093 55.8956 16 56.009 16C56.1223 16 56.2195 15.9093 56.2195 15.8034C56.2195 12.3403 59.4105 12.2042 59.783 12.2042C59.864 12.2042 59.9288 12.1588 59.9774 12.0983C60.0098 12.0378 60.0098 11.9622 59.9612 11.9017ZM55.9928 14.3214C55.523 12.8847 54.373 12.2647 53.4659 11.9924C54.373 11.7202 55.523 11.1002 55.9928 9.66352C56.4625 11.1002 57.6125 11.7202 58.5196 11.9924C57.6125 12.2647 56.4625 12.8847 55.9928 14.3214Z" fill="#1F69B2"/>
<path d="M90.9612 63.8771C90.9288 63.8015 90.8478 63.7637 90.783 63.7448C90.4105 63.7448 87.2033 63.5936 87.2033 59.2457C87.2033 59.1134 87.1061 59 86.9928 59C86.8794 59 86.7822 59.1134 86.7822 59.2457C86.7822 63.5936 83.575 63.7448 83.2187 63.7448C83.1701 63.7448 83.1215 63.7637 83.0891 63.8015C83.0567 63.8204 83.0405 63.8582 83.0243 63.8771C82.9919 63.9527 82.9919 64.0473 83.0243 64.1229C83.0567 64.1985 83.1377 64.2552 83.2187 64.2552C83.2187 64.2552 83.2187 64.2552 83.2349 64.2552C83.6074 64.2552 86.7984 64.4064 86.7984 68.7543C86.7984 68.8866 86.8956 69 87.009 69C87.1223 69 87.2195 68.8866 87.2195 68.7543C87.2195 64.4253 90.4105 64.2552 90.783 64.2552C90.864 64.2552 90.9288 64.1985 90.9774 64.1229C91.0098 64.0473 91.0098 63.9527 90.9612 63.8771ZM86.9928 66.9017C86.523 65.1059 85.373 64.3308 84.4659 63.9905C85.373 63.6503 86.523 62.8752 86.9928 61.0794C87.4625 62.8752 88.6125 63.6503 89.5196 63.9905C88.6125 64.3308 87.4625 65.1059 86.9928 66.9017Z" fill="#1F69B2"/>
<path d="M65.6843 34.5004V31.0005H66.4737V30.5005H65.6843V30.0006H66.4737V29.5006H65.6843V29.0006H66.4737V28.5006H65.6843V28.0006H66.4737V27.5007H65.6843V27.0007H66.2106V26.5007H65.6843V26.0007H65.158V26.5007H64.6316V27.0007H65.158V27.5007H64.3685V28.0006H65.158V28.5006H64.3685V29.0006H65.158V29.5006H64.3685V30.0006H65.158V30.5005H64.3685V31.0005H65.158V34.5004H63.8422V41.0001H67.0001V34.5004H65.6843ZM66.4737 40.5001H64.3685V35.0004H66.4737V40.5001Z" fill="#1F69B2"/>
<path d="M62.2632 34.5003V32.0004H61.7368V28.7505H61.7266C61.7426 28.2255 61.4026 27.5418 60.7742 26.9298C60.1842 26.3569 59.4776 26.0006 58.9282 26.0006C58.688 25.9918 58.4546 26.0769 58.2824 26.2361C58.0848 26.4481 58.0002 26.7343 58.0526 27.0131V32.0004H57.5263V34.5003H57V41H62.7895V34.5003H62.2632ZM58.6579 26.5853C58.732 26.5233 58.8295 26.4927 58.9279 26.5006C59.3347 26.5006 59.9113 26.8063 60.3974 27.2793C61.1042 27.9668 61.3568 28.7485 61.1105 28.988C61.0367 29.0498 60.9396 29.0805 60.8416 29.073C60.435 29.073 59.8579 28.7673 59.3721 28.2943C58.6653 27.6066 58.4126 26.8256 58.6579 26.5853ZM61.21 29.5097V32.0004H58.5789V28.173C58.7051 28.3395 58.8443 28.4968 58.9953 28.6435C59.5845 29.2167 60.2918 29.573 60.8416 29.573C60.9675 29.574 61.0925 29.5526 61.21 29.5097ZM58.0526 32.5004H61.7368V34.5003H58.0526V32.5004ZM62.2632 40.5H57.5263V35.0002H62.2632V40.5Z" fill="#1F69B2"/>
<path d="M67.9235 59.3992L72.4392 60.4617C72.4792 60.4711 72.5208 60.4711 72.5608 60.4617L77.0764 59.3992C77.1347 59.3855 77.1867 59.3525 77.2238 59.3056C77.261 59.2586 77.2812 59.2005 77.2812 59.1406V57.8125H78.6094C78.6719 57.8125 78.7325 57.7904 78.7803 57.7502C78.8282 57.7099 78.8603 57.654 78.8711 57.5924L79.9336 51.483C79.9414 51.4382 79.9375 51.3921 79.9223 51.3491L78.3286 46.8335C78.314 46.7921 78.2894 46.755 78.2569 46.7254C78.2244 46.6959 78.1851 46.6748 78.1425 46.6642L75.0421 45.8891L74.0355 44.6309C74.0109 44.6002 73.9798 44.5753 73.9444 44.558C73.909 44.5408 73.8702 44.5317 73.8308 44.5312H71.1692C71.1298 44.5317 71.091 44.5408 71.0556 44.558C71.0202 44.5753 70.9891 44.6002 70.9644 44.6309L69.9579 45.8891L66.8574 46.6642C66.8149 46.6748 66.7756 46.6959 66.7431 46.7254C66.7106 46.755 66.686 46.7921 66.6714 46.8335L65.0776 51.3491C65.0625 51.3921 65.0586 51.4382 65.0664 51.483L66.1289 57.5924C66.1396 57.654 66.1718 57.7099 66.2196 57.7502C66.2675 57.7904 66.3281 57.8125 66.3906 57.8125H67.7187V59.1406C67.7187 59.2005 67.739 59.2586 67.7761 59.3056C67.8133 59.3525 67.8653 59.3855 67.9235 59.3992ZM72.5 45.9757L71.739 45.0625H73.261L72.5 45.9757ZM77.2812 57.2812V56.4844H78.5245L78.386 57.2812H77.2812ZM79.3983 51.4604L78.6169 55.9531H77.2812V49.8438H76.75V58.9303L72.7656 59.8677V47.0319L73.6403 47.9066C73.6901 47.9564 73.7576 47.9844 73.8281 47.9844C73.8368 47.9844 73.8456 47.984 73.8543 47.9831C73.8934 47.9792 73.9312 47.9667 73.9648 47.9465C73.9985 47.9262 74.0273 47.8988 74.0491 47.8661L75.0078 46.4281L77.8752 47.1449L79.3983 51.4604ZM74.5619 46.1393L73.7868 47.3018L72.8594 46.3743L73.8239 45.2168L74.5619 46.1393ZM71.1761 45.2168L72.1406 46.3743L71.2131 47.3018L70.4381 46.1393L71.1761 45.2168ZM67.1248 47.1449L69.9922 46.4281L70.9509 47.8661C70.9727 47.8988 71.0014 47.9262 71.0351 47.9465C71.0688 47.9667 71.1066 47.9792 71.1457 47.9831C71.1545 47.984 71.1632 47.9844 71.1719 47.9844C71.2423 47.9844 71.3099 47.9564 71.3597 47.9066L72.2344 47.0319V59.8677L68.25 58.9303V49.8438H67.7187V55.9531H66.383L65.6017 51.4604L67.1248 47.1449ZM66.4754 56.4844H67.7187V57.2812H66.614L66.4754 56.4844Z" fill="#1F69B2"/>
<path d="M73.5625 49.5781C73.4921 49.5781 73.4245 49.6061 73.3747 49.6559C73.3249 49.7057 73.2969 49.7733 73.2969 49.8438V51.9688C73.2969 52.0392 73.3249 52.1068 73.3747 52.1566C73.4245 52.2064 73.4921 52.2344 73.5625 52.2344H75.6875C75.7579 52.2344 75.8255 52.2064 75.8753 52.1566C75.9251 52.1068 75.9531 52.0392 75.9531 51.9688V49.8438C75.9531 49.7733 75.9251 49.7057 75.8753 49.6559C75.8255 49.6061 75.7579 49.5781 75.6875 49.5781H73.5625ZM75.4219 51.7031H73.8281V50.1094H75.4219V51.7031Z" fill="#1F69B2"/>
<defs>
<clipPath id="clip0">
<rect width="17" height="17" fill="white" transform="translate(42 42)"/>
</clipPath>
</defs>
</svg>
