<svg width="70" height="70" viewBox="0 0 70 70" fill="none" xmlns="http://www.w3.org/2000/svg">
<path d="M64.6565 30.625H61.251C61.057 29.9228 60.6396 29.3028 60.062 28.8588C59.4844 28.4148 58.7779 28.1709 58.0494 28.1641H54.4141V19.2741C54.4182 19.1078 54.378 18.9434 54.2976 18.7977C54.2172 18.6521 54.0995 18.5305 53.9566 18.4453L28.3113 3.63291C28.1668 3.54889 28.0026 3.50464 27.8354 3.50464C27.6682 3.50464 27.504 3.54889 27.3595 3.63291L1.70625 18.4453C1.5611 18.5294 1.44069 18.6503 1.35716 18.7958C1.27364 18.9414 1.22994 19.1063 1.23047 19.2741V48.899C1.23048 49.067 1.2747 49.232 1.3587 49.3775C1.44269 49.523 1.56351 49.6438 1.70899 49.7278L27.3648 64.5402C27.5103 64.6242 27.6753 64.6684 27.8433 64.6684C28.0157 64.6685 28.1851 64.6243 28.3355 64.5402L41.8359 56.7531V62.3823C41.8345 62.9183 41.9395 63.4492 42.1447 63.9443C42.3498 64.4394 42.6512 64.8889 43.0312 65.2668C43.4113 65.6447 43.8626 65.9434 44.3589 66.1457C44.8552 66.348 45.3867 66.4498 45.9226 66.4453H64.6565C65.1938 66.4503 65.7268 66.349 66.2248 66.1472C66.7228 65.9454 67.176 65.6471 67.5583 65.2695C67.9405 64.8919 68.2444 64.4424 68.4522 63.9469C68.6601 63.4514 68.768 62.9197 68.7695 62.3823V34.7515C68.7689 33.6596 68.3358 32.6124 67.5649 31.8391C66.7941 31.0657 65.7484 30.6292 64.6565 30.625ZM58.0835 30.0781C58.4519 30.0781 58.8052 30.2245 59.0658 30.485C59.3263 30.7456 59.4727 31.0989 59.4727 31.4673V31.56C59.4727 31.9285 59.3263 32.2818 59.0658 32.5423C58.8052 32.8029 58.4519 32.9492 58.0835 32.9492H52.522C52.1536 32.9492 51.8002 32.8029 51.5397 32.5423C51.2792 32.2818 51.1328 31.9285 51.1328 31.56V31.4673C51.1328 31.0989 51.2792 30.7456 51.5397 30.485C51.8002 30.2245 52.1536 30.0781 52.522 30.0781H58.0835ZM27.8433 5.56679L38.5038 11.7216L14.7637 25.4279L4.10334 19.2731L27.8433 5.56679ZM26.9336 62.0536L3.14454 48.3464V20.9296L26.9336 34.6369V62.0536ZM27.8433 32.9793L16.6778 26.5329L40.4179 12.8267L51.584 19.2731L27.8433 32.9793ZM41.8359 34.7515V54.543L28.8477 62.0536V34.6369L52.5 20.9296V28.1641H52.5297C51.8012 28.1709 51.0947 28.4148 50.5171 28.8588C49.9395 29.3028 49.5221 29.9228 49.3281 30.625H45.9226C44.8335 30.6303 43.7911 31.068 43.0247 31.8419C42.2583 32.6157 41.8307 33.6623 41.8359 34.7515ZM66.8555 62.3823C66.8542 62.6684 66.796 62.9513 66.6844 63.2147C66.5728 63.4781 66.41 63.7167 66.2054 63.9167C66.0008 64.1166 65.7585 64.2739 65.4926 64.3794C65.2267 64.4849 64.9425 64.5365 64.6565 64.5313H45.9226C45.638 64.5361 45.3552 64.4839 45.091 64.3779C44.8268 64.2719 44.5865 64.1142 44.3841 63.914C44.1817 63.7138 44.0213 63.4752 43.9124 63.2122C43.8035 62.9491 43.7483 62.667 43.75 62.3823V34.7515C43.7471 34.4635 43.8011 34.1777 43.9087 33.9106C44.0164 33.6435 44.1757 33.4002 44.3775 33.1947C44.5793 32.9892 44.8196 32.8255 45.0848 32.713C45.3499 32.6005 45.6346 32.5414 45.9226 32.5391H49.3655C49.5707 33.2165 49.99 33.8092 50.5605 34.2282C51.1309 34.6472 51.8219 34.8701 52.5297 34.8633H58.0494C58.7572 34.8701 59.4481 34.6472 60.0186 34.2282C60.589 33.8092 61.0083 33.2165 61.2135 32.5391H64.6565C65.2409 32.5428 65.8001 32.7775 66.2121 33.1919C66.624 33.6064 66.8553 34.1671 66.8555 34.7515V62.3823Z" fill="#1F69B2"/>
<path d="M47.0243 44.4336H48.026C48.2799 44.4336 48.5233 44.3328 48.7028 44.1533C48.8822 43.9738 48.9831 43.7304 48.9831 43.4766C48.9831 43.2227 48.8822 42.9793 48.7028 42.7998C48.5233 42.6204 48.2799 42.5195 48.026 42.5195H47.9883V39.9219H50.6279C50.688 40.1143 50.8095 40.2817 50.9739 40.3984C51.1382 40.5152 51.3363 40.5748 51.5378 40.5681C51.7919 40.5688 52.036 40.4687 52.2164 40.2897C52.3968 40.1107 52.4988 39.8674 52.5 39.6133V38.9694C52.4979 38.714 52.3951 38.4698 52.2139 38.2898C52.0328 38.1097 51.788 38.0084 51.5326 38.0078H47.0243C46.8988 38.0085 46.7746 38.0339 46.6588 38.0825C46.5431 38.1312 46.4381 38.2023 46.3499 38.2916C46.2616 38.3809 46.1919 38.4867 46.1446 38.603C46.0973 38.7193 46.0734 38.8438 46.0742 38.9694V43.4777C46.0735 43.6029 46.0975 43.7271 46.1449 43.843C46.1923 43.959 46.2622 44.0644 46.3505 44.1532C46.4388 44.2421 46.5437 44.3126 46.6594 44.3607C46.775 44.4088 46.899 44.4336 47.0243 44.4336Z" fill="#1F69B2"/>
<path d="M47.0312 53.1836H51.543C51.7968 53.1836 52.0402 53.0828 52.2197 52.9033C52.3992 52.7238 52.5 52.4804 52.5 52.2266V47.7148C52.5 47.461 52.3992 47.2176 52.2197 47.0381C52.0402 46.8586 51.7968 46.7578 51.543 46.7578H47.0312C46.7774 46.7578 46.534 46.8586 46.3545 47.0381C46.175 47.2176 46.0742 47.461 46.0742 47.7148V52.2266C46.0742 52.4804 46.175 52.7238 46.3545 52.9033C46.534 53.0828 46.7774 53.1836 47.0312 53.1836ZM47.9883 48.6719H50.5859V51.2695H47.9883V48.6719Z" fill="#1F69B2"/>
<path d="M48.0262 60.0195H47.9884V57.4219H50.5763C50.5812 57.6736 50.6846 57.9133 50.8643 58.0896C51.0439 58.2659 51.2855 58.3648 51.5373 58.3651C51.789 58.3653 52.0308 58.2669 52.2108 58.0909C52.3908 57.915 52.4946 57.6755 52.5001 57.4238V56.5016C52.4991 56.2429 52.3977 55.9946 52.2172 55.8092C52.0367 55.6238 51.7913 55.5158 51.5327 55.5078H47.0243C46.7675 55.5164 46.5243 55.6253 46.3467 55.811C46.1691 55.9968 46.0714 56.2447 46.0743 56.5016V61.0099C46.0742 61.1335 46.0988 61.2558 46.1469 61.3697C46.1949 61.4836 46.2653 61.5866 46.3539 61.6727C46.4425 61.7589 46.5475 61.8264 46.6627 61.8712C46.7778 61.916 46.9008 61.9372 47.0243 61.9336H48.0262C48.28 61.9336 48.5235 61.8328 48.7029 61.6533C48.8824 61.4738 48.9833 61.2304 48.9833 60.9766C48.9833 60.7227 48.8824 60.4793 48.7029 60.2998C48.5235 60.1204 48.28 60.0195 48.0262 60.0195Z" fill="#1F69B2"/>
<path d="M53.7364 39.1825L50.9337 41.9853L50.0811 41.1325C49.9922 41.0437 49.8867 40.9732 49.7706 40.9251C49.6545 40.877 49.53 40.8522 49.4043 40.8522C49.2787 40.8522 49.1542 40.877 49.0381 40.9251C48.922 40.9732 48.8165 41.0437 48.7276 41.1325C48.6387 41.2214 48.5682 41.3269 48.5201 41.443C48.472 41.5592 48.4473 41.6836 48.4473 41.8093C48.4473 41.935 48.472 42.0594 48.5201 42.1756C48.5682 42.2917 48.6387 42.3972 48.7276 42.4861L50.2571 44.0154C50.3459 44.1043 50.4514 44.1748 50.5676 44.2229C50.6837 44.271 50.8081 44.2957 50.9338 44.2957C51.0595 44.2957 51.184 44.271 51.3001 44.2229C51.4162 44.1748 51.5217 44.1043 51.6106 44.0154L55.0903 40.5356C55.2698 40.3561 55.3707 40.1127 55.3707 39.8589C55.3707 39.605 55.2698 39.3616 55.0903 39.1821C54.9109 39.0026 54.6674 38.9018 54.4136 38.9018C54.1598 38.9018 53.9163 39.0026 53.7368 39.1821L53.7364 39.1825Z" fill="#1F69B2"/>
<path d="M53.7364 56.8532L50.9337 59.656L50.0811 58.8033C49.9922 58.7144 49.8867 58.6439 49.7706 58.5958C49.6545 58.5477 49.53 58.5229 49.4043 58.5229C49.2787 58.5229 49.1542 58.5477 49.0381 58.5958C48.922 58.6439 48.8165 58.7144 48.7276 58.8033C48.6387 58.8921 48.5682 58.9976 48.5201 59.1138C48.472 59.2299 48.4473 59.3543 48.4473 59.48C48.4473 59.6057 48.472 59.7302 48.5201 59.8463C48.5682 59.9624 48.6387 60.0679 48.7276 60.1568L50.2571 61.6861C50.3459 61.775 50.4514 61.8455 50.5676 61.8936C50.6837 61.9417 50.8081 61.9665 50.9338 61.9665C51.0595 61.9665 51.184 61.9417 51.3001 61.8936C51.4162 61.8455 51.5217 61.775 51.6106 61.6861L55.0903 58.2064C55.2698 58.0269 55.3707 57.7834 55.3707 57.5296C55.3707 57.2758 55.2698 57.0323 55.0903 56.8528C54.9109 56.6733 54.6674 56.5725 54.4136 56.5725C54.1598 56.5725 53.9163 56.6733 53.7368 56.8528L53.7364 56.8532Z" fill="#1F69B2"/>
<path d="M63.5549 40.332H57.5439C57.2901 40.332 57.0467 40.4329 56.8672 40.6123C56.6877 40.7918 56.5869 41.0352 56.5869 41.2891C56.5869 41.5429 56.6877 41.7863 56.8672 41.9658C57.0467 42.1453 57.2901 42.2461 57.5439 42.2461H63.5549C63.8087 42.2461 64.0522 42.1453 64.2316 41.9658C64.4111 41.7863 64.512 41.5429 64.512 41.2891C64.512 41.0352 64.4111 40.7918 64.2316 40.6123C64.0522 40.4329 63.8087 40.332 63.5549 40.332Z" fill="#1F69B2"/>
<path d="M63.5549 49.082H57.5439C57.2901 49.082 57.0467 49.1829 56.8672 49.3623C56.6877 49.5418 56.5869 49.7852 56.5869 50.0391C56.5869 50.2929 56.6877 50.5363 56.8672 50.7158C57.0467 50.8953 57.2901 50.9961 57.5439 50.9961H63.5549C63.8087 50.9961 64.0522 50.8953 64.2316 50.7158C64.4111 50.5363 64.512 50.2929 64.512 50.0391C64.512 49.7852 64.4111 49.5418 64.2316 49.3623C64.0522 49.1829 63.8087 49.082 63.5549 49.082Z" fill="#1F69B2"/>
<path d="M63.5549 57.832H57.5439C57.2901 57.832 57.0467 57.9329 56.8672 58.1123C56.6877 58.2918 56.5869 58.5352 56.5869 58.7891C56.5869 59.0429 56.6877 59.2863 56.8672 59.4658C57.0467 59.6453 57.2901 59.7461 57.5439 59.7461H63.5549C63.8087 59.7461 64.0522 59.6453 64.2316 59.4658C64.4111 59.2863 64.512 59.0429 64.512 58.7891C64.512 58.5352 64.4111 58.2918 64.2316 58.1123C64.0522 57.9329 63.8087 57.832 63.5549 57.832Z" fill="#1F69B2"/>
</svg>
