<svg xmlns="http://www.w3.org/2000/svg" width="22" height="22" fill="none"  xmlns:v="https://vecta.io/nano"><g clip-path="url(#A)" stroke="#767676" stroke-miterlimit="10"><path d="M9.338 1.65A1.65 1.65 0 0 1 11 0a1.65 1.65 0 0 1 1.662 1.65m1.015 18.242c0 1.192-1.2 2.108-2.677 2.108s-2.677-.917-2.677-2.108M11 2.658c3.6 0 6 3.117 6.277 6.692s1.938 4.308 2.585 5.133c.554 1.008.185 2.383.185 3.025-2.215 1.192-5.077 1.833-9.046 1.833s-6.831-.55-9.046-1.833c0-.642-.369-2.017.185-3.025.646-.825 2.308-1.558 2.585-5.133C4.908 5.775 7.308 2.658 11 2.658z"/></g><defs><clipPath id="A"><path fill="#fff" d="M0 0h22v22H0z"/></clipPath></defs></svg>