<svg width="10" height="16" viewBox="0 0 10 16" fill="none" xmlns="http://www.w3.org/2000/svg">
<path d="M5.3902 15.8371L9.84025 11.2922C9.94325 11.1871 10 11.0468 10 10.8972C10 10.7475 9.94325 10.6072 9.84025 10.5021L9.51261 10.1674C9.29911 9.9496 8.95212 9.9496 8.73895 10.1674L5.00207 13.9838L1.26105 10.1632C1.15804 10.058 1.02072 10 0.874302 10C0.727717 10 0.590402 10.058 0.487312 10.1632L0.159755 10.4979C0.0567474 10.6031 0 10.7433 0 10.8929C0 11.0425 0.0567474 11.1829 0.159755 11.288L4.61386 15.8371C4.7172 15.9425 4.85516 16.0003 5.00183 16C5.14906 16.0003 5.28695 15.9425 5.3902 15.8371Z" fill="#464646"/>
<path d="M4.6098 0.162908L0.159755 4.70779C0.0567475 4.8129 0 4.95323 0 5.10285C0 5.25247 0.0567475 5.39279 0.159755 5.49791L0.487394 5.83261C0.700889 6.0504 1.04788 6.0504 1.26105 5.83261L4.99793 2.01616L8.73895 5.83684C8.84196 5.94196 8.97928 6 9.1257 6C9.27228 6 9.4096 5.94196 9.51269 5.83684L9.84025 5.50215C9.94325 5.39694 10 5.2567 10 5.10708C10 4.95746 9.94325 4.81714 9.84025 4.71202L5.38614 0.162908C5.2828 0.0575418 5.14484 -0.000330925 4.99817 9.53674e-07C4.85094 -0.000330925 4.71305 0.0575418 4.6098 0.162908Z" fill="#464646"/>
</svg>
