<?xml version="1.0" encoding="utf-8"?>
<!-- Generator: Adobe Illustrator 16.0.0, SVG Export Plug-In . SVG Version: 6.00 Build 0)  -->
<!DOCTYPE svg PUBLIC "-//W3C//DTD SVG 1.1//EN" "http://www.w3.org/Graphics/SVG/1.1/DTD/svg11.dtd">
<svg version="1.1" id="Layer_1" xmlns="http://www.w3.org/2000/svg" xmlns:xlink="http://www.w3.org/1999/xlink" x="0px" y="0px"
	 width="32px" height="32px" viewBox="0 0 32 32" enable-background="new 0 0 32 32" xml:space="preserve">
<circle fill="#F1F1F1" cx="16" cy="16" r="16"/>
<g>
	<path fill="#464646" d="M16,21.762c0.539,0,0.977-0.438,0.977-0.977S16.539,19.809,16,19.809c-0.54,0-0.977,0.438-0.977,0.977
		S15.46,21.762,16,21.762z"/>
	<path fill="#464646" d="M16,6C10.473,6,6,10.473,6,16s4.473,10,10,10s10-4.473,10-10C26,10.473,21.527,6,16,6z M16,24.438
		c-4.663,0-8.438-3.773-8.438-8.438c0-4.663,3.774-8.438,8.438-8.438c4.663,0,8.438,3.773,8.438,8.438
		C24.438,20.663,20.664,24.438,16,24.438z"/>
	<path fill="#464646" d="M16,11.02c-1.723,0-3.125,1.402-3.125,3.125c0,0.432,0.35,0.781,0.781,0.781s0.781-0.35,0.781-0.781
		c0-0.861,0.701-1.563,1.563-1.563s1.563,0.701,1.563,1.563S16.861,15.707,16,15.707c-0.432,0-0.781,0.35-0.781,0.781v1.953
		c0,0.432,0.35,0.781,0.781,0.781s0.781-0.35,0.781-0.781v-1.271c1.346-0.349,2.344-1.573,2.344-3.026
		C19.125,12.421,17.723,11.02,16,11.02z"/>
</g>
</svg>
