<svg width="94" height="94" viewBox="0 0 94 94" fill="none" xmlns="http://www.w3.org/2000/svg">
<g filter="url(#filter0_d)">
<rect x="7" y="4" width="80" height="80" rx="40" fill="url(#paint0_linear)"/>
</g>
<path d="M49.7096 25.7097H51.0644V27.0646H49.7096V25.7097Z" fill="white"/>
<path d="M42.9354 25.7097H48.3548V27.0646H42.9354V25.7097Z" fill="white"/>
<path d="M44.2904 60.9355H49.7098V62.2903H44.2904V60.9355Z" fill="white"/>
<path d="M53.7742 60.9355H55.129V62.2903H53.7742V60.9355Z" fill="white"/>
<path d="M38.871 60.9355H40.2258V62.2903H38.871V60.9355Z" fill="white"/>
<path d="M65.9677 33.8387H59.1936V26.3871C59.1936 24.5195 57.6741 23 55.8065 23H38.1935C36.3259 23 34.8065 24.5195 34.8065 26.3871V33.9959C34.3702 33.8963 33.9177 33.8387 33.4516 33.8387C30.0903 33.8387 27.3548 36.5735 27.3548 39.9355V44.8021C26.5684 45.0825 26 45.8277 26 46.7097V57.5484C26 58.6688 26.9118 59.5806 28.0323 59.5806H34.8065V61.6129C34.8065 63.4805 36.3259 65 38.1935 65H55.8065C57.6741 65 59.1936 63.4805 59.1936 61.6129V51.4516H65.9677C67.0882 51.4516 68 50.5398 68 49.4194V35.871C68 34.7505 67.0882 33.8387 65.9677 33.8387ZM36.1613 26.3871C36.1613 25.2666 37.0731 24.3548 38.1935 24.3548H55.8065C56.9269 24.3548 57.8387 25.2666 57.8387 26.3871V28.4194H36.1613V26.3871ZM36.1613 29.7742H57.8387V33.8387H56.4839V31.129H37.5161V35.4042C37.1097 35.0391 36.6551 34.7282 36.1613 34.4823V29.7742ZM44.2903 51.4516H55.129V55.5161H40.9032V46.7097C40.9032 45.8277 40.3349 45.0825 39.5484 44.8021V39.9355C39.5484 38.9336 39.3011 37.9899 38.871 37.1554V32.4839H55.129V33.8387H44.2903C43.1699 33.8387 42.2581 34.7505 42.2581 35.871V49.4194C42.2581 50.5398 43.1699 51.4516 44.2903 51.4516ZM28.7097 39.9355C28.7097 37.3213 30.8368 35.1935 33.4516 35.1935C36.0665 35.1935 38.1935 37.3213 38.1935 39.9355V44.6774H36.8387V39.9355C36.8387 38.0678 35.3193 36.5484 33.4516 36.5484C31.584 36.5484 30.0645 38.0678 30.0645 39.9355V44.6774H28.7097V39.9355ZM35.4839 39.9355V44.6774H31.4194V39.9355C31.4194 38.815 32.3312 37.9032 33.4516 37.9032C34.5721 37.9032 35.4839 38.815 35.4839 39.9355ZM28.0323 58.2258C27.659 58.2258 27.3548 57.9223 27.3548 57.5484V46.7097C27.3548 46.3357 27.659 46.0323 28.0323 46.0323H38.871C39.2442 46.0323 39.5484 46.3357 39.5484 46.7097V57.5484C39.5484 57.9223 39.2442 58.2258 38.871 58.2258H38.1935H28.0323ZM57.8387 61.6129C57.8387 62.7334 56.9269 63.6452 55.8065 63.6452H38.1935C37.0731 63.6452 36.1613 62.7334 36.1613 61.6129V59.5806H38.1935H38.871H57.8387V61.6129ZM57.8387 58.2258H40.7786C40.8545 58.0131 40.9032 57.7868 40.9032 57.5484V56.871H56.4839V51.4516H57.8387V58.2258ZM66.6452 49.4194C66.6452 49.7933 66.341 50.0968 65.9677 50.0968H44.2903C43.9171 50.0968 43.6129 49.7933 43.6129 49.4194V35.871C43.6129 35.497 43.9171 35.1935 44.2903 35.1935H65.9677C66.341 35.1935 66.6452 35.497 66.6452 35.871V49.4194Z" fill="white"/>
<path d="M62.5805 43.3226C62.0854 43.3226 61.6274 43.4656 61.2277 43.6986C60.8152 43.4561 60.3498 43.3226 59.8709 43.3226C58.3765 43.3226 57.1612 44.5379 57.1612 46.0323C57.1612 47.5267 58.3765 48.742 59.8709 48.742C60.3498 48.742 60.8152 48.6085 61.2277 48.366C61.6274 48.5991 62.0854 48.742 62.5805 48.742C64.0749 48.742 65.2902 47.5267 65.2902 46.0323C65.2902 44.5379 64.0749 43.3226 62.5805 43.3226ZM60.2197 47.3357C60.1134 47.3655 59.9996 47.3871 59.8709 47.3871C59.1237 47.3871 58.516 46.7795 58.516 46.0323C58.516 45.2851 59.1237 44.6775 59.8709 44.6775C59.9996 44.6775 60.1134 44.6991 60.2197 44.729C60.0043 45.1171 59.8709 45.5574 59.8709 46.0323C59.8709 46.5072 60.0043 46.9475 60.2197 47.3357ZM62.5805 47.3871C61.8334 47.3871 61.2257 46.7795 61.2257 46.0323C61.2257 45.2851 61.8334 44.6775 62.5805 44.6775C63.3277 44.6775 63.9354 45.2851 63.9354 46.0323C63.9354 46.7795 63.3277 47.3871 62.5805 47.3871Z" fill="white"/>
<path d="M53.0968 36.5484H46.3226C45.5754 36.5484 44.9678 37.156 44.9678 37.9032V41.9678C44.9678 42.7149 45.5754 43.3226 46.3226 43.3226H53.0968C53.844 43.3226 54.4516 42.7149 54.4516 41.9678V37.9032C54.4516 37.156 53.844 36.5484 53.0968 36.5484ZM51.742 37.9032H53.0968V39.2581H51.742V37.9032ZM47.6775 41.9678H46.3226V40.6129H47.6775V41.9678ZM49.0323 41.9678V39.2581H46.3226V37.9032H50.3871V40.6129H53.0975V41.9678H49.0323Z" fill="white"/>
<path d="M53.0968 44.6774H46.3226C45.5754 44.6774 44.9678 45.285 44.9678 46.0322V47.387C44.9678 48.1342 45.5754 48.7419 46.3226 48.7419H53.0968C53.844 48.7419 54.4516 48.1342 54.4516 47.387V46.0322C54.4516 45.285 53.844 44.6774 53.0968 44.6774ZM47.6775 47.387H46.3226V46.0322H47.6775V47.387ZM50.3871 47.387H49.0323V46.0322H50.3871V47.387ZM51.742 47.387V46.0322H53.0968L53.0975 47.387H51.742Z" fill="white"/>
<path d="M36.8388 50.7742C36.8388 48.9065 35.3193 47.3871 33.4517 47.3871C31.584 47.3871 30.0646 48.9065 30.0646 50.7742C30.0646 51.7991 30.5422 52.7678 31.3374 53.4066L30.5774 56.871H36.326L35.5652 53.4066C36.3612 52.7678 36.8388 51.7991 36.8388 50.7742ZM34.4658 52.5226L34.0397 52.7712L34.6419 55.5161H32.2614L32.8643 52.7712L32.4383 52.5226C31.8001 52.1514 31.4194 51.4977 31.4194 50.7742C31.4194 49.6537 32.3312 48.7419 33.4517 48.7419C34.5721 48.7419 35.4839 49.6537 35.4839 50.7742C35.4839 51.4977 35.1032 52.1514 34.4658 52.5226Z" fill="white"/>
<path d="M63.9354 36.5484H65.2903V37.9032H63.9354V36.5484Z" fill="white"/>
<path d="M61.2258 36.5484H62.5807V37.9032H61.2258V36.5484Z" fill="white"/>
<path d="M58.5162 36.5484H59.8711V37.9032H58.5162V36.5484Z" fill="white"/>
<defs>
<filter id="filter0_d" x="0" y="0" width="94" height="94" filterUnits="userSpaceOnUse" color-interpolation-filters="sRGB">
<feFlood flood-opacity="0" result="BackgroundImageFix"/>
<feColorMatrix in="SourceAlpha" type="matrix" values="0 0 0 0 0 0 0 0 0 0 0 0 0 0 0 0 0 0 127 0"/>
<feOffset dy="3"/>
<feGaussianBlur stdDeviation="3.5"/>
<feColorMatrix type="matrix" values="0 0 0 0 0 0 0 0 0 0 0 0 0 0 0 0 0 0 0.3 0"/>
<feBlend mode="normal" in2="BackgroundImageFix" result="effect1_dropShadow"/>
<feBlend mode="normal" in="SourceGraphic" in2="effect1_dropShadow" result="shape"/>
</filter>
<linearGradient id="paint0_linear" x1="47" y1="4" x2="47" y2="84" gradientUnits="userSpaceOnUse">
<stop stop-color="#1FA9B2"/>
<stop offset="1" stop-color="#1F69B2"/>
</linearGradient>
</defs>
</svg>
