<svg width="50" height="50" viewBox="0 0 50 50" fill="none" xmlns="http://www.w3.org/2000/svg">
<path d="M33.0683 45.8H12.2343C10.396 45.8 8.96617 44.8 8.3534 43.2L3.04276 23.4H46.7534L44.5066 31.8" stroke="#767676" stroke-miterlimit="10" stroke-linecap="round" stroke-linejoin="round"/>
<path d="M32.251 5H36.1318C37.7659 5 39.3999 6 40.0127 7.6L44.7106 17.2H5.08504L9.78291 7.6C10.3957 6 12.0297 5 13.6638 5H17.5446" stroke="#767676" stroke-miterlimit="10" stroke-linecap="round" stroke-linejoin="round"/>
<path d="M29.1875 7.2H20.813C18.9747 7.2 17.7492 5.8 17.7492 4C17.7492 2.4 19.179 1 20.813 1H29.1875C30.8215 1 32.2513 2.4 32.2513 4C32.2513 5.8 30.8215 7.2 29.1875 7.2Z" stroke="#767676" stroke-miterlimit="10" stroke-linecap="round" stroke-linejoin="round"/>
<path d="M46.7532 23.4H3.04255C1.81702 23.4 1 22.4 1 21.4V19.4C1 18.2 2.02128 17.4 3.04255 17.4H46.7532C47.9787 17.4 48.7957 18.4 48.7957 19.4V21.4C49 22.6 47.9787 23.4 46.7532 23.4Z" stroke="#767676" stroke-miterlimit="10" stroke-linecap="round" stroke-linejoin="round"/>
<path d="M15.5021 29.6V39.8" stroke="#767676" stroke-miterlimit="10" stroke-linecap="round" stroke-linejoin="round"/>
<path d="M25.9197 29.6V39.8" stroke="#767676" stroke-miterlimit="10" stroke-linecap="round" stroke-linejoin="round"/>
<path d="M36.3358 29.6V31.6" stroke="#767676" stroke-miterlimit="10" stroke-linecap="round" stroke-linejoin="round"/>
<path fill-rule="evenodd" clip-rule="evenodd" d="M49.0006 40.2C49.0006 45 44.9155 49 40.0134 49C35.1113 49 31.0262 45 31.0262 40.2C31.0262 35.4 35.1113 31.4 40.0134 31.4C44.9155 31.4 49.0006 35.2 49.0006 40.2Z" stroke="#767676" stroke-miterlimit="10" stroke-linecap="round" stroke-linejoin="round"/>
<path d="M40.0126 34.8V45.6" stroke="#767676" stroke-miterlimit="10" stroke-linecap="round" stroke-linejoin="round"/>
<path d="M34.2939 40.2001H45.5279" stroke="#767676" stroke-miterlimit="10" stroke-linecap="round" stroke-linejoin="round"/>
</svg>
