<svg width="94" height="94" viewBox="0 0 94 94" fill="none" xmlns="http://www.w3.org/2000/svg">
<g filter="url(#filter0_d)">
<rect x="7" y="4" width="80" height="80" rx="40" fill="url(#paint0_linear)"/>
</g>
<path d="M63.9354 50.0967H65.2902V55.5161H63.9354V50.0967Z" fill="white"/>
<path d="M63.9354 56.871H65.2902V58.2258H63.9354V56.871Z" fill="white"/>
<path d="M63.9354 47.3871H65.2902V48.7419H63.9354V47.3871Z" fill="white"/>
<path d="M28.7096 50.7742H30.0644V54.8387H28.7096V50.7742Z" fill="white"/>
<path d="M64.6129 40.6129H57.7236L59.2478 32.4839H63.9355C65.0558 32.4839 65.9677 31.5719 65.9677 30.4516C65.9677 29.3313 65.0558 28.4194 63.9355 28.4194H60.3182C59.3404 28.4194 58.5006 29.1163 58.321 30.0768L57.107 36.5484H51.2712C53.191 35.1988 54.4516 32.9718 54.4516 30.4516C54.4516 26.3431 51.1085 23 47 23C42.8915 23 39.5484 26.3431 39.5484 30.4516C39.5484 32.9718 40.809 35.1988 42.7288 36.5484H38.4714C36.8238 36.5484 35.4839 37.8883 35.4839 39.5353C35.4839 39.8786 35.5421 40.2166 35.6579 40.5398L35.6837 40.6129H29.3871C27.5196 40.6129 26 42.1325 26 44V61.6129C26 63.4804 27.5196 65 29.3871 65H64.6129C66.4804 65 68 63.4804 68 61.6129V44C68 42.1325 66.4804 40.6129 64.6129 40.6129ZM59.652 30.3269C59.7125 30.0064 59.9924 29.7742 60.3182 29.7742H63.9355C64.3086 29.7742 64.6129 30.0778 64.6129 30.4516C64.6129 30.8254 64.3086 31.129 63.9355 31.129H59.5018L59.652 30.3269ZM38.5892 48.7479C38.8769 49.555 39.6466 50.0968 40.5037 50.0968H53.7742C54.1473 50.0968 54.4516 50.4004 54.4516 50.7742C54.4516 51.148 54.1473 51.4516 53.7742 51.4516H39.5484C38.054 51.4516 36.8387 52.6669 36.8387 54.1613C36.8387 55.6557 38.054 56.871 39.5484 56.871C41.0428 56.871 42.2581 55.6557 42.2581 54.1613C42.2581 53.6655 42.1145 53.2067 41.8813 52.8065H49.4097C49.1758 53.2067 49.0323 53.6655 49.0323 54.1613C49.0323 55.6557 50.2475 56.871 51.7419 56.871C53.2364 56.871 54.4516 55.6557 54.4516 54.1613C54.4516 53.6539 54.3024 53.1839 54.0593 52.778C55.003 52.6437 55.734 51.8647 55.7942 50.8996H55.7955L56.9615 44.6774H58.5161V60.9355H35.4839V44.6774H37.1354L38.5892 48.7479ZM53.0968 54.1613C53.0968 54.9085 52.4891 55.5161 51.7419 55.5161C50.9947 55.5161 50.3871 54.9085 50.3871 54.1613C50.3871 53.4141 50.9947 52.8065 51.7419 52.8065C52.4891 52.8065 53.0968 53.4141 53.0968 54.1613ZM40.9032 54.1613C40.9032 54.9085 40.2956 55.5161 39.5484 55.5161C38.8012 55.5161 38.1935 54.9085 38.1935 54.1613C38.1935 53.4141 38.8012 52.8065 39.5484 52.8065C40.2956 52.8065 40.9032 53.4141 40.9032 54.1613ZM40.9032 30.4516C40.9032 27.0897 43.6387 24.3548 47 24.3548C50.3613 24.3548 53.0968 27.0897 53.0968 30.4516C53.0968 33.8136 50.3613 36.5484 47 36.5484C43.6387 36.5484 40.9032 33.8136 40.9032 30.4516ZM38.4714 37.9032H56.853L54.7701 49.0135C54.4748 48.8455 54.138 48.7419 53.7742 48.7419H40.5037C40.2175 48.7419 39.9615 48.561 39.8653 48.2927L37.1225 40.6129H51.7419V39.2581H36.8665C36.9991 38.4907 37.666 37.9032 38.4714 37.9032ZM36.6518 43.3226H34.129V62.2903H59.871V43.3226H57.2155L57.4696 41.9677H61.2258V63.6452H32.7742V41.9677H36.1672L36.6518 43.3226ZM27.3548 61.6129V44C27.3548 42.8797 28.2668 41.9677 29.3871 41.9677H31.4194V63.6452H29.3871C28.2668 63.6452 27.3548 62.7332 27.3548 61.6129ZM66.6452 61.6129C66.6452 62.7332 65.7332 63.6452 64.6129 63.6452H62.5806V41.9677H64.6129C65.7332 41.9677 66.6452 42.8797 66.6452 44V61.6129Z" fill="white"/>
<path d="M47.0001 28.4194C47.3732 28.4194 47.6775 28.723 47.6775 29.0968H49.0323C49.0323 28.215 48.4641 27.4698 47.6775 27.1893V25.7097H46.3226V27.1893C45.5361 27.4698 44.9678 28.215 44.9678 29.0968C44.9678 30.2171 45.8797 31.1291 47.0001 31.1291C47.3732 31.1291 47.6775 31.4327 47.6775 31.8065C47.6775 32.1803 47.3732 32.4839 47.0001 32.4839C46.627 32.4839 46.3226 32.1803 46.3226 31.8065H44.9678C44.9678 32.6883 45.5361 33.4336 46.3226 33.714V35.1936H47.6775V33.714C48.4641 33.4336 49.0323 32.6883 49.0323 31.8065C49.0323 30.6862 48.1204 29.7742 47.0001 29.7742C46.627 29.7742 46.3226 29.4706 46.3226 29.0968C46.3226 28.723 46.627 28.4194 47.0001 28.4194Z" fill="white"/>
<path d="M50.387 29.7742H51.7418V31.129H50.387V29.7742Z" fill="white"/>
<path d="M42.258 29.7742H43.6128V31.129H42.258V29.7742Z" fill="white"/>
<path d="M53.0968 39.2581H54.4516V40.6129H53.0968V39.2581Z" fill="white"/>
<defs>
<filter id="filter0_d" x="0" y="0" width="94" height="94" filterUnits="userSpaceOnUse" color-interpolation-filters="sRGB">
<feFlood flood-opacity="0" result="BackgroundImageFix"/>
<feColorMatrix in="SourceAlpha" type="matrix" values="0 0 0 0 0 0 0 0 0 0 0 0 0 0 0 0 0 0 127 0"/>
<feOffset dy="3"/>
<feGaussianBlur stdDeviation="3.5"/>
<feColorMatrix type="matrix" values="0 0 0 0 0 0 0 0 0 0 0 0 0 0 0 0 0 0 0.3 0"/>
<feBlend mode="normal" in2="BackgroundImageFix" result="effect1_dropShadow"/>
<feBlend mode="normal" in="SourceGraphic" in2="effect1_dropShadow" result="shape"/>
</filter>
<linearGradient id="paint0_linear" x1="47" y1="4" x2="47" y2="84" gradientUnits="userSpaceOnUse">
<stop stop-color="#1FA9B2"/>
<stop offset="1" stop-color="#1F69B2"/>
</linearGradient>
</defs>
</svg>
