<svg xmlns="http://www.w3.org/2000/svg" width="24" height="24" fill="none"  xmlns:v="https://vecta.io/nano"><g stroke="#F37721" stroke-miterlimit="10" stroke-linejoin="round"><path d="M12 23c6.075 0 11-4.925 11-11S18.075 1 12 1 1 5.925 1 12s4.925 11 11 11z"/><path d="M12.275 14.2a4.31 4.31 0 0 0 4.308-4.308 4.31 4.31 0 0 0-4.308-4.308 4.31 4.31 0 0 0-4.308 4.308 4.31 4.31 0 0 0 4.308 4.308zm-7.058 6.417C7.05 22.083 9.433 23 12 23c2.75 0 5.225-1.008 7.15-2.658-1.283-2.567-3.85-4.308-6.875-4.308-3.208 0-5.867 1.925-7.058 4.583z"/></g><defs /></svg>