<svg width="22" height="22" viewBox="0 0 22 22" fill="none" xmlns="http://www.w3.org/2000/svg">
<path d="M1.16641 2.09044C0.916797 2.33962 1 2.83799 1.0832 3.2533C1.91524 7.73863 4.07852 11.8087 7.15705 14.8819C10.2356 17.9552 14.3957 20.2809 18.8055 20.9454C19.2215 21.0285 19.7207 21.0285 19.9704 20.8624C20.0536 20.7793 20.22 20.6963 20.22 20.5301L20.9688 17.2907C21.052 17.0415 20.9688 16.7093 20.7192 16.4601C20.636 16.377 18.1399 15.4634 16.975 14.8819C16.4758 14.6328 15.9766 14.7989 15.727 15.1311L15.311 15.8787C15.1446 16.1279 14.895 16.294 14.6453 16.377C13.4805 16.6262 9.98596 13.4699 9.23713 12.7223C8.4883 11.9748 5.16017 8.32006 5.40978 7.24026C5.40978 6.99108 5.57618 6.74189 5.909 6.57577C6.57462 6.24352 6.40822 6.32658 6.65783 6.16046C7.07384 5.91128 7.15705 5.32984 6.99064 4.91454C6.40822 3.9178 6.15861 2.92106 5.82579 1.84125C5.65939 1.34288 5.16017 0.927575 4.74415 1.01064C4.74415 1.01064 4.66095 1.01064 1.49922 1.75819C1.33281 1.84125 1.16641 1.92432 1.16641 2.09044Z" stroke="white" stroke-miterlimit="10" stroke-linecap="round" stroke-linejoin="round"/>
<path d="M10.9844 3.66858C14.479 3.66858 17.3911 6.49268 17.3911 10.0643" stroke="white" stroke-miterlimit="10" stroke-linecap="round" stroke-linejoin="round"/>
<path d="M10.9844 1.01062C15.9766 1.01062 20.0536 5.08064 20.0536 10.0643" stroke="white" stroke-miterlimit="10" stroke-linecap="round" stroke-linejoin="round"/>
</svg>
