<?xml version="1.0" encoding="utf-8"?>
<!-- Generator: Adobe Illustrator 16.0.0, SVG Export Plug-In . SVG Version: 6.00 Build 0)  -->
<!DOCTYPE svg PUBLIC "-//W3C//DTD SVG 1.1//EN" "http://www.w3.org/Graphics/SVG/1.1/DTD/svg11.dtd">
<svg version="1.1" id="Layer_1" xmlns="http://www.w3.org/2000/svg" xmlns:xlink="http://www.w3.org/1999/xlink" x="0px" y="0px"
	 width="30px" height="30px" viewBox="0 0 30 30" enable-background="new 0 0 30 30" xml:space="preserve">
<path fill="#FFFFFF" stroke="#DEDEDD" d="M4.59,0.5h20.82c2.259,0,4.09,1.831,4.09,4.09v20.82c0,2.259-1.831,4.09-4.09,4.09H4.59
	c-2.259,0-4.09-1.831-4.09-4.09V4.59C0.5,2.331,2.331,0.5,4.59,0.5z"/>
<path fill="#2867B2" d="M11.321,11.755h-3.51c-0.393,0-0.713,0.32-0.713,0.714v13.228c0,0.393,0.32,0.713,0.713,0.713h3.51
	c0.394,0,0.713-0.32,0.713-0.713V12.469C12.034,12.076,11.714,11.755,11.321,11.755z M10.813,25.188H8.319V12.978h2.494V25.188z"/>
<path fill="#2867B2" d="M9.566,5.59c-1.373,0-2.489,1.116-2.489,2.488c0,1.373,1.116,2.489,2.489,2.489
	c1.372,0,2.488-1.117,2.488-2.489C12.054,6.706,10.938,5.59,9.566,5.59z M9.566,9.345c-0.699,0-1.267-0.568-1.267-1.267
	c0-0.698,0.568-1.267,1.267-1.267c0.699,0,1.267,0.568,1.267,1.267C10.833,8.777,10.265,9.345,9.566,9.345z"/>
<path fill="#2867B2" d="M23.385,13.306c-0.839-0.7-1.905-1.075-3.002-1.055c-0.681,0.013-1.346,0.177-1.949,0.474v-0.289
	c0-0.376-0.306-0.682-0.682-0.682h-3.574c-0.376,0-0.682,0.305-0.682,0.682v13.292c0,0.376,0.305,0.681,0.682,0.681h3.644
	c0.337,0,0.611-0.273,0.611-0.611v-7.924c0-0.679,0.53-1.253,1.209-1.273c0.704-0.021,1.284,0.547,1.284,1.246v7.964
	c0,0.331,0.268,0.599,0.598,0.599h3.503c0.33,0,0.598-0.268,0.598-0.599V18.09C25.625,16.238,24.809,14.494,23.385,13.306z
	 M24.403,25.188h-2.255v-7.341c0-1.361-1.107-2.468-2.468-2.468c-1.361,0-2.47,1.106-2.47,2.468v7.341h-2.493V12.977h2.493v0.888
	h0.002c0,0.144,0.049,0.288,0.152,0.405c0.224,0.252,0.61,0.276,0.862,0.052c0.602-0.533,1.376-0.834,2.178-0.849
	c0.805-0.016,1.584,0.259,2.197,0.771c1.145,0.955,1.801,2.357,1.801,3.846V25.188z"/>
</svg>
