<svg width="24" height="24" viewBox="0 0 24 24" fill="none" xmlns="http://www.w3.org/2000/svg">
<path d="M10.8301 22.9068H1.84285V12.3729L4.27689 9.11017H13.2641L10.8301 12.3729V22.9068Z" stroke="#676767" stroke-width="1.0217" stroke-miterlimit="10" stroke-linecap="round" stroke-linejoin="round"/>
<path d="M13.2636 9.11017L15.6977 12.3729V13.9576" stroke="#676767" stroke-width="1.0217" stroke-miterlimit="10" stroke-linecap="round" stroke-linejoin="round"/>
<path d="M1.00005 22.9068H23" stroke="#676767" stroke-width="1.0217" stroke-miterlimit="10" stroke-linecap="round" stroke-linejoin="round"/>
<path d="M13.2641 9.11016H4.27687V7.52541C4.27687 7.05931 4.65134 6.68643 5.11942 6.68643H12.4216C12.8896 6.68643 13.2641 7.05931 13.2641 7.52541V9.11016Z" stroke="#676767" stroke-width="1.0217" stroke-miterlimit="10" stroke-linecap="round" stroke-linejoin="round"/>
<path d="M1.84285 12.3729H7.55349" stroke="#676767" stroke-width="1.0217" stroke-miterlimit="10" stroke-linecap="round" stroke-linejoin="round"/>
<path d="M22.1578 18.8983C22.1578 21.1356 20.379 23 18.0386 23C15.7918 23 13.9195 21.2288 13.9195 18.8983C13.9195 16.5678 15.6982 14.7966 18.0386 14.7966C20.379 14.7966 22.1578 16.661 22.1578 18.8983Z" stroke="#676767" stroke-width="1.0217" stroke-miterlimit="10" stroke-linecap="round" stroke-linejoin="round"/>
<path d="M21.4085 16.4746V1L18.9745 1.83898L16.4468 1L13.6383 1.83898L10.8298 1L8.30213 1.83898L5.86809 1V6.68644" stroke="#676767" stroke-width="1.0217" stroke-miterlimit="10" stroke-linecap="round" stroke-linejoin="round"/>
</svg>
