<svg width="32" height="32" viewBox="0 0 32 32" fill="none" xmlns="http://www.w3.org/2000/svg">
<rect width="32" height="32" rx="6" fill="#F1F1F1"/>
<path d="M13.1 6C8.1 6 4 10.1 4 15.1C4 17.4 4.9 19.5 6.3 21.1C6.2 23.4 4.5 25.2 4.5 25.2C7.3 25.6 9.5 23.8 9.9 23.5C10.9 23.9 12 24.1 13.1 24.1C18.1 24.1 22.2 20 22.2 15C22.1 10.1 18.1 6 13.1 6Z" stroke="#F37721" stroke-miterlimit="10" stroke-linecap="round" stroke-linejoin="round"/>
<path d="M9.90001 14.9C9.90001 15.7 9.30001 16.3 8.50001 16.3C7.70001 16.3 7.10001 15.7 7.10001 14.9C7.20001 14.1 7.80001 13.5 8.50001 13.5C9.30001 13.5 9.90001 14.1 9.90001 14.9Z" fill="#F37721"/>
<path d="M14.4 14.9C14.4 15.7 13.8 16.3 13 16.3C12.2 16.3 11.6 15.7 11.6 14.9C11.7 14.1 12.3 13.5 13.1 13.5C13.8 13.5 14.4 14.1 14.4 14.9Z" fill="#F37721"/>
<path d="M18.9 14.9C18.9 15.7 18.3 16.3 17.5 16.3C16.7 16.3 16.1 15.7 16.1 14.9C16.1 14.1 16.7 13.5 17.5 13.5C18.3 13.5 18.9 14.1 18.9 14.9Z" fill="#F37721"/>
<path d="M20 6.79995C20.3 6.69995 20.7 6.69995 21 6.69995C24.8 6.69995 27.9 9.79995 27.9 13.6C27.9 15.4 27.2 17 26.2 18.2C26.3 20 27.6 21.4 27.6 21.4C25.4 21.7 23.8 20.3 23.5 20.1C23.1 20.3 22.7 20.4 22.2 20.5" stroke="#F37721" stroke-miterlimit="10" stroke-linecap="round" stroke-linejoin="round"/>
</svg>
