<svg width="19" height="18" viewBox="0 0 19 18" fill="none" xmlns="http://www.w3.org/2000/svg">
<g clip-path="url(#clip0)">
<path d="M17.5577 8.1H10.3578V0.899945C10.3578 0.403253 9.95457 0 9.45771 0C8.96102 0 8.55776 0.403253 8.55776 0.899945V8.1H1.35771C0.861017 8.1 0.457764 8.50325 0.457764 8.99995C0.457764 9.4968 0.861017 9.90006 1.35771 9.90006H8.55776V17.0999C8.55776 17.5968 8.96102 18.0001 9.45771 18.0001C9.95457 18.0001 10.3578 17.5968 10.3578 17.0999V9.90006H17.5577C18.0546 9.90006 18.4578 9.4968 18.4578 8.99995C18.4578 8.50325 18.0546 8.1 17.5577 8.1V8.1Z" fill="#464646"/>
</g>
<defs>
<clipPath id="clip0">
<rect width="18" height="18" fill="white" transform="translate(0.457764)"/>
</clipPath>
</defs>
</svg>
