<?xml version="1.0" encoding="utf-8"?>
<!-- Generator: Adobe Illustrator 16.0.0, SVG Export Plug-In . SVG Version: 6.00 Build 0)  -->
<!DOCTYPE svg PUBLIC "-//W3C//DTD SVG 1.1//EN" "http://www.w3.org/Graphics/SVG/1.1/DTD/svg11.dtd">
<svg version="1.1" id="Layer_1" xmlns="http://www.w3.org/2000/svg" xmlns:xlink="http://www.w3.org/1999/xlink" x="0px" y="0px"
	 width="24px" height="24px" viewBox="0 0 24 24" enable-background="new 0 0 24 24" xml:space="preserve">
<g>
	<defs>
		<rect id="SVGID_1_" width="24" height="24"/>
	</defs>
	<clipPath id="SVGID_2_">
		<use xlink:href="#SVGID_1_"  overflow="visible"/>
	</clipPath>
	<g clip-path="url(#SVGID_2_)">
		<path fill="#F37721" d="M15.402,8.695c-0.318,0-0.576,0.251-0.576,0.562v10.624c0,0.31,0.258,0.562,0.576,0.562
			s0.577-0.252,0.577-0.562V9.257C15.979,8.947,15.721,8.695,15.402,8.695z"/>
		<path fill="#F37721" d="M8.598,8.695c-0.319,0-0.577,0.251-0.577,0.562v10.624c0,0.31,0.258,0.562,0.577,0.562
			c0.318,0,0.577-0.252,0.577-0.562V9.257C9.174,8.947,8.916,8.695,8.598,8.695z"/>
		<path fill="#F37721" d="M3.638,7.145v13.848c0,0.818,0.308,1.587,0.846,2.139C5.02,23.685,5.765,23.999,6.544,24h10.911
			c0.781-0.001,1.525-0.315,2.061-0.868c0.539-0.552,0.847-1.32,0.847-2.139V7.145c1.069-0.277,1.763-1.284,1.619-2.353
			s-1.078-1.869-2.185-1.869h-2.953V2.22c0.004-0.591-0.236-1.158-0.665-1.576C15.75,0.228,15.167-0.005,14.561,0H9.439
			C8.833-0.005,8.25,0.228,7.821,0.645C7.392,1.062,7.152,1.629,7.156,2.22v0.703H4.203c-1.106,0-2.041,0.8-2.185,1.869
			C1.875,5.861,2.569,6.868,3.638,7.145z M17.455,22.876H6.544c-0.986,0-1.753-0.825-1.753-1.883V7.194h14.417v13.799
			C19.209,22.051,18.441,22.876,17.455,22.876z M8.309,2.22C8.306,1.928,8.423,1.646,8.637,1.439
			c0.213-0.207,0.502-0.32,0.803-0.315h5.121c0.301-0.005,0.59,0.108,0.803,0.315c0.213,0.206,0.332,0.488,0.328,0.781v0.703H8.309
			V2.22z M4.203,4.047h15.594c0.573,0,1.038,0.453,1.038,1.012S20.37,6.07,19.797,6.07H4.203c-0.573,0-1.038-0.453-1.038-1.012
			S3.63,4.047,4.203,4.047z"/>
		<path fill="#F37721" d="M12,8.695c-0.318,0-0.577,0.251-0.577,0.562v10.624c0,0.31,0.258,0.562,0.577,0.562
			c0.319,0,0.576-0.252,0.576-0.562V9.257C12.576,8.947,12.319,8.695,12,8.695z"/>
	</g>
</g>
</svg>
