<?xml version="1.0" encoding="utf-8"?>
<!-- Generator: Adobe Illustrator 16.0.0, SVG Export Plug-In . SVG Version: 6.00 Build 0)  -->
<!DOCTYPE svg PUBLIC "-//W3C//DTD SVG 1.1//EN" "http://www.w3.org/Graphics/SVG/1.1/DTD/svg11.dtd">
<svg version="1.1" id="Layer_1" xmlns="http://www.w3.org/2000/svg" xmlns:xlink="http://www.w3.org/1999/xlink" x="0px" y="0px"
	 width="32px" height="32px" viewBox="0 0 32 32" enable-background="new 0 0 32 32" xml:space="preserve">
<circle fill="#F1F1F1" cx="16" cy="16" r="16"/>
<path fill="#464646" d="M25.214,21.053c-1.798-1.563-3.462-3.768-3.462-9.271C21.752,8.593,19.172,6,16,6s-5.752,2.593-5.752,5.781
	c0,5.51-1.663,7.712-3.462,9.273C6.286,21.491,6,22.12,6,22.779c0,0.363,0.293,0.658,0.654,0.658h6.21
	C13.167,24.898,14.458,26,16,26s2.833-1.102,3.137-2.563h6.209c0.361,0,0.654-0.295,0.654-0.658
	C26,22.115,25.713,21.484,25.214,21.053z M16,24.685c-0.815,0-1.511-0.52-1.778-1.247h3.557C17.512,24.165,16.814,24.685,16,24.685z
	 M7.566,22.122c0.024-0.026,0.049-0.051,0.076-0.074c2.743-2.38,3.914-5.45,3.914-10.267c0-2.462,1.994-4.466,4.444-4.466
	s4.443,2.003,4.443,4.466c0,4.812,1.171,7.882,3.916,10.268c0.026,0.023,0.052,0.047,0.076,0.073H7.566z"/>
</svg>
