<svg width="8" height="14" viewBox="0 0 8 14" fill="none" xmlns="http://www.w3.org/2000/svg">
<path d="M7.78279 6.45372L1.72295 0.223657C1.5828 0.0794465 1.3957 0 1.1962 0C0.996706 0 0.809609 0.0794465 0.669453 0.223657L0.223188 0.682352C-0.0671998 0.981244 -0.0671998 1.46703 0.223188 1.76547L5.31178 6.9971L0.217542 12.2345C0.0773851 12.3787 0 12.571 0 12.776C0 12.9812 0.0773851 13.1734 0.217542 13.3178L0.663807 13.7763C0.804074 13.9206 0.99106 14 1.19056 14C1.39005 14 1.57715 13.9206 1.71731 13.7763L7.78279 7.54059C7.92328 7.39592 8.00044 7.20277 8 6.99744C8.00044 6.79131 7.92328 6.59827 7.78279 6.45372Z" fill="#969696"/>
</svg>
