<svg width="20" height="18" viewBox="0 0 20 18" fill="none" xmlns="http://www.w3.org/2000/svg">
<path d="M7.78301 1.5C4.03301 1.5 0.958008 4.575 0.958008 8.325C0.958008 10.05 1.63301 11.625 2.68301 12.825C2.60801 14.55 1.33301 15.9 1.33301 15.9C3.43301 16.2 5.08301 14.85 5.38301 14.625C6.13301 14.925 6.95801 15.075 7.78301 15.075C11.533 15.075 14.608 12 14.608 8.25C14.533 4.575 11.533 1.5 7.78301 1.5Z" stroke="#767676" stroke-miterlimit="10" stroke-linecap="round" stroke-linejoin="round"/>
<path d="M5.3832 8.175C5.3832 8.775 4.9332 9.225 4.3332 9.225C3.7332 9.225 3.2832 8.775 3.2832 8.175C3.3582 7.575 3.8082 7.125 4.3332 7.125C4.9332 7.125 5.3832 7.575 5.3832 8.175Z" fill="#767676"/>
<path d="M8.7582 8.175C8.7582 8.775 8.3082 9.225 7.7082 9.225C7.1082 9.225 6.6582 8.775 6.6582 8.175C6.7332 7.575 7.1832 7.125 7.7832 7.125C8.3082 7.125 8.7582 7.575 8.7582 8.175Z" fill="#767676"/>
<path d="M12.1332 8.175C12.1332 8.775 11.6832 9.225 11.0832 9.225C10.4832 9.225 10.0332 8.775 10.0332 8.175C10.0332 7.575 10.4832 7.125 11.0832 7.125C11.6832 7.125 12.1332 7.575 12.1332 8.175Z" fill="#767676"/>
<path d="M12.958 2.09999C13.183 2.02499 13.483 2.02499 13.708 2.02499C16.558 2.02499 18.883 4.34999 18.883 7.19999C18.883 8.54999 18.358 9.74999 17.608 10.65C17.683 12 18.658 13.05 18.658 13.05C17.008 13.275 15.808 12.225 15.583 12.075C15.283 12.225 14.983 12.3 14.608 12.375" stroke="#767676" stroke-miterlimit="10" stroke-linecap="round" stroke-linejoin="round"/>
</svg>
