<svg width="24" height="22" viewBox="0 0 24 22" fill="none" xmlns="http://www.w3.org/2000/svg">
<path d="M11.9167 20.1667C11.9167 18.9123 12.8732 17.9474 14.1167 17.9474H22.9167V4.63159H20.1428V15.7281H14.1167C12.8732 15.7281 11.9167 16.693 11.9167 17.9474V19.0088V4.05264C11.9167 2.79826 12.8732 1.83334 14.1167 1.83334H20.1428V4.63159" stroke="#FFFFFF" stroke-miterlimit="10" stroke-linecap="round" stroke-linejoin="round"/>
<path d="M11.9167 20.1667C11.9167 18.9123 10.9601 17.9474 9.71667 17.9474H0.916672V4.63159H3.69058V15.7281H9.71667C10.9601 15.7281 11.9167 16.693 11.9167 17.9474V19.0088V4.05264C11.9167 2.79826 10.9601 1.83334 9.71667 1.83334H3.69058V4.63159" stroke="#FFFFFF" stroke-miterlimit="10" stroke-linecap="round" stroke-linejoin="round"/>
</svg>
