<svg width="24" height="24" viewBox="0 0 24 24" fill="none" xmlns="http://www.w3.org/2000/svg">
<path d="M8.28713 0H2.77537C1.24505 0 0 1.24505 0 2.77537V8.28713C0 9.81745 1.24505 11.0625 2.77537 11.0625H8.28713C9.81745 11.0625 11.0625 9.81745 11.0625 8.28713V2.77537C11.0625 1.24505 9.81745 0 8.28713 0ZM9.1875 8.28713C9.1875 8.78358 8.78358 9.1875 8.28713 9.1875H2.77537C2.27892 9.1875 1.875 8.78358 1.875 8.28713V2.77537C1.875 2.27892 2.27892 1.875 2.77537 1.875H8.28713C8.78358 1.875 9.1875 2.27892 9.1875 2.77537V8.28713Z" fill="#767676"/>
<path d="M21.1875 0H15.75C14.1992 0 12.9375 1.26169 12.9375 2.8125V8.25C12.9375 9.80081 14.1992 11.0625 15.75 11.0625H21.1875C22.7383 11.0625 24 9.80081 24 8.25V2.8125C24 1.26169 22.7383 0 21.1875 0ZM22.125 8.25C22.125 8.76694 21.7044 9.1875 21.1875 9.1875H15.75C15.2331 9.1875 14.8125 8.76694 14.8125 8.25V2.8125C14.8125 2.29556 15.2331 1.875 15.75 1.875H21.1875C21.7044 1.875 22.125 2.29556 22.125 2.8125V8.25Z" fill="#767676"/>
<path d="M8.28713 12.9375H2.77537C1.24505 12.9375 0 14.1825 0 15.7129V21.2246C0 22.755 1.24505 24 2.77537 24H8.28713C9.81745 24 11.0625 22.755 11.0625 21.2246V15.7129C11.0625 14.1825 9.81745 12.9375 8.28713 12.9375ZM9.1875 21.2246C9.1875 21.7211 8.78358 22.125 8.28713 22.125H2.77537C2.27892 22.125 1.875 21.7211 1.875 21.2246V15.7129C1.875 15.2164 2.27892 14.8125 2.77537 14.8125H8.28713C8.78358 14.8125 9.1875 15.2164 9.1875 15.7129V21.2246Z" fill="#767676"/>
<path d="M21.1875 12.9375H15.75C14.1992 12.9375 12.9375 14.1992 12.9375 15.75V21.1875C12.9375 22.7383 14.1992 24 15.75 24H21.1875C22.7383 24 24 22.7383 24 21.1875V15.75C24 14.1992 22.7383 12.9375 21.1875 12.9375ZM22.125 21.1875C22.125 21.7044 21.7044 22.125 21.1875 22.125H15.75C15.2331 22.125 14.8125 21.7044 14.8125 21.1875V15.75C14.8125 15.2331 15.2331 14.8125 15.75 14.8125H21.1875C21.7044 14.8125 22.125 15.2331 22.125 15.75V21.1875Z" fill="#767676"/>
</svg>
