<svg width="22" height="22" viewBox="0 0 22 22" fill="none" xmlns="http://www.w3.org/2000/svg">
<path d="M21.4919 9.52626L20.3025 9.41333C20.1629 8.92772 19.9731 8.46471 19.7218 8.02428L20.4756 7.1039C20.6599 6.87803 20.6431 6.55618 20.4421 6.34726L18.9569 4.82835C18.7558 4.61942 18.4264 4.60248 18.203 4.78882L17.2929 5.5511C16.8629 5.30265 16.3995 5.10503 15.9249 4.96386L15.8132 3.7668C15.7853 3.47883 15.5452 3.25861 15.2548 3.25861H13.401V1.56465C13.401 1.25409 13.1497 1 12.8426 1C12.5355 1 12.2843 1.25409 12.2843 1.56465V4.38792H10.1736C9.27462 4.38792 8.4203 4.81705 7.8731 5.53981L5.57259 8.60587L1.70305 9.67307C0.69797 9.94975 0.00558376 10.8701 0 11.926V13.4224C0.00558376 14.7098 1.04416 15.7487 2.31726 15.7487H2.61878C3.03756 17.3241 4.6401 18.2501 6.19797 17.8267C7.19746 17.55 7.98477 16.7595 8.25279 15.7487H12.2843V20.4353C12.2843 20.7459 12.5355 21 12.8426 21C13.1497 21 13.401 20.7459 13.401 20.4353V19.0802H15.2548C15.5452 19.0802 15.7853 18.86 15.8132 18.5663L15.9249 17.3636C16.4051 17.2225 16.8629 17.0305 17.2985 16.782L18.2086 17.5443C18.432 17.7307 18.7558 17.7137 18.9569 17.5104L20.4589 15.9915C20.6599 15.7883 20.6766 15.4551 20.4924 15.2292L19.7386 14.3089C19.9843 13.8684 20.1797 13.4054 20.3193 12.9255L21.4919 12.8125C21.7766 12.7843 22 12.5415 22 12.2479V10.0853C22 9.79729 21.7766 9.55449 21.4919 9.52626ZM5.433 16.8046C4.43909 16.8046 3.62944 15.9859 3.62944 14.9808C3.62944 13.9757 4.43909 13.157 5.433 13.157C6.4269 13.157 7.23655 13.9757 7.23655 14.9808C7.23655 15.9859 6.43249 16.8046 5.433 16.8046ZM12.2843 14.6138H8.33096C8.13553 12.9932 6.67817 11.847 5.08122 12.039C3.75228 12.2027 2.70254 13.2643 2.53503 14.6138H2.31168C1.65279 14.6194 1.11675 14.083 1.11117 13.4167V11.926C1.11675 11.384 1.47411 10.9097 1.9934 10.7628L6.04721 9.64483C6.16447 9.61095 6.27056 9.5432 6.34315 9.44156L8.7665 6.22868C9.10152 5.78261 9.6264 5.52287 10.1792 5.52287H12.2843V14.6138ZM13.401 8.76962C14.7076 8.32919 16.1203 9.0463 16.5558 10.3732C16.9914 11.7002 16.2822 13.1231 14.9701 13.5635C14.4619 13.7329 13.9091 13.7329 13.401 13.5635V8.76962ZM20.8832 11.7284L19.8223 11.83C19.5822 11.8526 19.3812 12.0333 19.331 12.2705C19.1914 12.9029 18.9401 13.5014 18.5883 14.0435C18.4543 14.2524 18.4711 14.5178 18.6274 14.7098L19.3086 15.5455L18.5269 16.336L17.7005 15.6527C17.5107 15.4946 17.2426 15.4777 17.036 15.6189C16.5056 15.9746 15.9137 16.2287 15.2883 16.3642C15.0482 16.415 14.8751 16.6183 14.8528 16.8611L14.7523 17.9452H13.401V14.7324C15.3497 15.1728 17.2817 13.9305 17.7117 11.9599C18.1472 9.98927 16.9188 8.03557 14.9701 7.59514C14.4508 7.47657 13.9147 7.47657 13.401 7.59514V4.39356H14.7467L14.8528 5.47205C14.8751 5.71485 15.0538 5.91813 15.2883 5.96894C15.9137 6.11011 16.5056 6.3642 17.0416 6.71429C17.2482 6.8498 17.5107 6.83286 17.7005 6.67476L18.5213 5.98588L19.2919 6.77075L18.6051 7.61208C18.4487 7.80407 18.432 8.0751 18.5716 8.28402C18.9234 8.82044 19.1746 9.41897 19.3086 10.0514C19.3645 10.2942 19.5599 10.4692 19.8056 10.4918L20.8832 10.5991V11.7284Z" fill="#FFFFFF"/>
</svg>
