<?xml version="1.0" encoding="utf-8"?>
<!-- Generator: Adobe Illustrator 16.0.0, SVG Export Plug-In . SVG Version: 6.00 Build 0)  -->
<!DOCTYPE svg PUBLIC "-//W3C//DTD SVG 1.1//EN" "http://www.w3.org/Graphics/SVG/1.1/DTD/svg11.dtd">
<svg version="1.1" id="Layer_1" xmlns="http://www.w3.org/2000/svg" xmlns:xlink="http://www.w3.org/1999/xlink" x="0px" y="0px"
	 width="30px" height="30px" viewBox="0 0 30 30" enable-background="new 0 0 30 30" xml:space="preserve">
<path fill="#FFFFFF" stroke="#DEDEDD" d="M4.59,0.5h20.82c2.259,0,4.09,1.831,4.09,4.09v20.82c0,2.259-1.831,4.09-4.09,4.09H4.59
	c-2.259,0-4.09-1.831-4.09-4.09V4.59C0.5,2.331,2.331,0.5,4.59,0.5z"/>
<path fill="#ED2224" d="M17.706,14.28l-4.6-2.517c-0.265-0.145-0.578-0.14-0.837,0.014s-0.414,0.425-0.414,0.727v4.99
	c0,0.3,0.154,0.571,0.412,0.725c0.134,0.08,0.284,0.121,0.433,0.121c0.137,0,0.274-0.034,0.4-0.103l4.6-2.472
	c0.272-0.147,0.442-0.431,0.444-0.741C18.146,14.714,17.978,14.429,17.706,14.28z M13.076,16.867v-3.729l3.438,1.881L13.076,16.867z
	"/>
<path fill="#ED2224" d="M25.257,10.837v-0.01c-0.019-0.167-0.193-1.657-0.919-2.416c-0.837-0.892-1.788-1-2.244-1.052
	c-0.037-0.005-0.072-0.009-0.104-0.013l-0.036-0.004c-2.752-0.2-6.909-0.227-6.95-0.228H15h-0.004
	c-0.042,0.001-4.198,0.027-6.976,0.228L7.983,7.347C7.955,7.351,7.922,7.354,7.886,7.358c-0.451,0.053-1.39,0.161-2.23,1.085
	c-0.69,0.75-0.889,2.209-0.91,2.372l-0.002,0.021c-0.006,0.07-0.153,1.73-0.153,3.396v1.558c0,1.668,0.147,3.328,0.153,3.398
	l0.001,0.009c0.017,0.165,0.193,1.629,0.914,2.388c0.788,0.861,1.784,0.976,2.319,1.037c0.084,0.009,0.157,0.019,0.207,0.026
	l0.048,0.007c1.589,0.151,6.572,0.226,6.783,0.229h0.007h0.007c0.041,0,4.198-0.027,6.951-0.229l0.035-0.003
	c0.035-0.005,0.075-0.009,0.116-0.012c0.449-0.049,1.385-0.147,2.212-1.06c0.69-0.75,0.892-2.209,0.911-2.372l0.002-0.021
	c0.007-0.07,0.153-1.73,0.153-3.398v-1.558C25.41,12.567,25.264,10.907,25.257,10.837z M24.189,15.791
	c0,1.543-0.135,3.132-0.147,3.278c-0.05,0.401-0.261,1.324-0.598,1.689c-0.52,0.57-1.051,0.627-1.439,0.667
	c-0.049,0.007-0.091,0.011-0.131,0.016c-2.662,0.192-6.661,0.222-6.847,0.224c-0.206-0.003-5.117-0.078-6.657-0.221
	c-0.079-0.014-0.164-0.023-0.254-0.034c-0.456-0.052-1.08-0.123-1.56-0.651l-0.011-0.013c-0.331-0.343-0.535-1.206-0.586-1.672
	c-0.01-0.111-0.148-1.719-0.148-3.283v-1.558c0-1.54,0.135-3.128,0.148-3.276c0.062-0.473,0.276-1.34,0.598-1.69
	C7.09,8.679,7.653,8.613,8.026,8.57c0.036-0.004,0.069-0.008,0.099-0.012c2.701-0.193,6.73-0.223,6.875-0.224
	c0.145,0.001,4.172,0.03,6.849,0.224c0.032,0.004,0.069,0.008,0.107,0.013c0.384,0.044,0.962,0.109,1.495,0.677l0.004,0.006
	c0.331,0.344,0.535,1.222,0.587,1.697c0.009,0.104,0.147,1.715,0.147,3.282V15.791z"/>
</svg>
