<?xml version="1.0" encoding="utf-8"?>
<!-- Generator: Adobe Illustrator 16.0.0, SVG Export Plug-In . SVG Version: 6.00 Build 0)  -->
<!DOCTYPE svg PUBLIC "-//W3C//DTD SVG 1.1//EN" "http://www.w3.org/Graphics/SVG/1.1/DTD/svg11.dtd">
<svg version="1.1" id="Layer_1" xmlns="http://www.w3.org/2000/svg" xmlns:xlink="http://www.w3.org/1999/xlink" x="0px" y="0px"
	 width="24px" height="24px" viewBox="0 0 24 24" enable-background="new 0 0 24 24" xml:space="preserve">
<g>
	<path fill="#777777" d="M10.569,0C4.742,0,0,4.741,0,10.569c0,5.827,4.742,10.569,10.569,10.569
		c5.827,0,10.568-4.742,10.568-10.569C21.138,4.741,16.396,0,10.569,0z M10.569,19.188c-4.752,0-8.618-3.866-8.618-8.618
		s3.866-8.618,8.618-8.618s8.617,3.866,8.617,8.618S15.321,19.188,10.569,19.188z"/>
	<path fill="#777777" d="M23.714,22.335l-5.594-5.594c-0.381-0.382-0.998-0.382-1.379,0c-0.382,0.381-0.382,0.999,0,1.38
		l5.593,5.593c0.191,0.19,0.439,0.286,0.69,0.286c0.249,0,0.499-0.096,0.689-0.286C24.096,23.333,24.096,22.716,23.714,22.335z"/>
</g>
</svg>
