<svg width="20" height="20" viewBox="0 0 20 20" fill="none" xmlns="http://www.w3.org/2000/svg">
<path d="M18.1399 6.17188H14.6328V4.10156C14.6328 1.83996 12.7789 0 10.5 0C8.22119 0 6.3672 1.83996 6.3672 4.10156V6.17188H2.8601L2 20H19L18.1399 6.17188ZM7.54801 4.10156C7.54801 2.48613 8.87228 1.17188 10.5 1.17188C12.1278 1.17188 13.452 2.48613 13.452 4.10156V6.17188H7.54801V4.10156ZM3.25598 18.8281L3.97029 7.34375H6.3672V8.61641C5.68002 8.85828 5.1864 9.50957 5.1864 10.2734C5.1864 11.2427 5.98096 12.0312 6.95761 12.0312C7.93425 12.0312 8.72881 11.2427 8.72881 10.2734C8.72881 9.50957 8.2352 8.85828 7.54801 8.61641V7.34375H13.452V8.61641C12.7648 8.85828 12.2712 9.50957 12.2712 10.2734C12.2712 11.2427 13.0658 12.0312 14.0424 12.0312C15.0191 12.0312 15.8136 11.2427 15.8136 10.2734C15.8136 9.50957 15.32 8.85828 14.6328 8.61641V7.34375H17.0297L17.7441 18.8281H3.25598ZM7.54801 10.2734C7.54801 10.5965 7.28315 10.8594 6.95761 10.8594C6.63206 10.8594 6.3672 10.5965 6.3672 10.2734C6.3672 9.95035 6.63206 9.6875 6.95761 9.6875C7.28315 9.6875 7.54801 9.95035 7.54801 10.2734ZM14.6328 10.2734C14.6328 10.5965 14.368 10.8594 14.0424 10.8594C13.7169 10.8594 13.452 10.5965 13.452 10.2734C13.452 9.95035 13.7169 9.6875 14.0424 9.6875C14.368 9.6875 14.6328 9.95035 14.6328 10.2734Z" fill="#FFFFFF"/>
</svg>
