<svg width="61" height="62" viewBox="0 0 61 62" fill="none" xmlns="http://www.w3.org/2000/svg">
<path d="M60 21.9129C60 24.9005 57.5 27.1411 54.25 27.1411C51 27.1411 48.5 24.9005 48.5 21.9129C48.5 24.9005 46 27.1411 42.75 27.1411C39.5 27.1411 37 24.9005 37 21.9129C37 24.9005 34.5 27.1411 31.25 27.1411C28 27.1411 25.5 24.9005 25.5 21.9129C25.5 24.9005 23 27.1411 19.75 27.1411C16.5 27.1411 14 24.9005 14 21.9129C14 24.9005 11.5 27.1411 8.25 27.1411C5 27.1411 2.5 24.9005 2.5 21.9129" stroke="#1F69B2" stroke-miterlimit="10" stroke-linecap="round" stroke-linejoin="round"/>
<path d="M2.5 21.9128L8.5 2.99167C8.75 1.99582 9.75 0.999969 11 0.999969H51.5C52.75 0.999969 53.75 1.74686 54 2.99167L60 21.9128" stroke="#1F69B2" stroke-miterlimit="10" stroke-linecap="round" stroke-linejoin="round"/>
<path d="M56.0001 27.141V58.2613C56.0001 59.7551 54.7501 60.751 53.5001 60.751H9.00006C7.50006 60.751 6.50006 59.5062 6.50006 58.2613V27.141" stroke="#1F69B2" stroke-miterlimit="10" stroke-linecap="round" stroke-linejoin="round"/>
<path d="M24.7496 24.6514V60.9999" stroke="#1F69B2" stroke-miterlimit="10" stroke-linecap="round" stroke-linejoin="round"/>
<path d="M19.4994 40.3361V42.8257" stroke="#1F69B2" stroke-miterlimit="10" stroke-linecap="round" stroke-linejoin="round"/>
<path d="M40.25 35.1079L32.5 42.8258" stroke="#1F69B2" stroke-miterlimit="10" stroke-linecap="round" stroke-linejoin="round"/>
<path d="M45.5002 40.3361L35.0002 50.5435" stroke="#1F69B2" stroke-miterlimit="10" stroke-linecap="round" stroke-linejoin="round"/>
<path d="M48.5004 21.9127L45.2504 1.24884" stroke="#1F69B2" stroke-miterlimit="10" stroke-linecap="round" stroke-linejoin="round"/>
<path d="M37.0002 21.9127L35.0002 1.24884" stroke="#1F69B2" stroke-miterlimit="10" stroke-linecap="round" stroke-linejoin="round"/>
<path d="M25.5006 21.9127L27.2506 1.24884" stroke="#1F69B2" stroke-miterlimit="10" stroke-linecap="round" stroke-linejoin="round"/>
<path d="M14.0003 21.9127L17.2503 1.24884" stroke="#1F69B2" stroke-miterlimit="10" stroke-linecap="round" stroke-linejoin="round"/>
</svg>
