<svg xmlns="http://www.w3.org/2000/svg" width="34" height="34" fill="none"  xmlns:v="https://vecta.io/nano"><style><![CDATA[.B{stroke-linejoin:round}.C{stroke-linecap:round}]]></style><rect x=".5" y=".5" width="33" height="33" rx="3.5" fill="#fff" stroke="#ddd"/><g stroke="#767676" stroke-miterlimit="10" class="B"><path d="M23.151 15.075V9.488c0-.493-.418-.822-.837-.822H7.837A.83.83 0 0 0 7 9.488v6.162 2.465c0 .493.418.822.837.822h2.176m13.138-8.134H7m16.151 2.547H7" class="C"/><path d="M11.77 15.979a.83.83 0 0 0-.837.822v8.545c0 .493.418.822.837.822h14.393a.83.83 0 0 0 .837-.822v-8.545c0-.493-.418-.822-.837-.822H11.77z"/><path d="M12.69 23.209h2.176m1.339 0h2.176m1.255 0h2.176m1.338 0h2.176" class="C"/><path d="M24.908 19.594c0 .822-.67 1.479-1.506 1.479h-.418c-.837 0-1.506-.657-1.506-1.479s.669-1.479 1.506-1.479h.418c.837 0 1.506.657 1.506 1.479z"/></g></svg>