<svg xmlns="http://www.w3.org/2000/svg" width="35" height="35" fill="none"  xmlns:v="https://vecta.io/nano"><circle cx="17.5" cy="17.5" r="17.5" fill="#fff"/><g stroke="#767676" stroke-miterlimit="10" stroke-linejoin="round"><path d="M23.5 13.285l-.583-2.945c-.083-.421-.417-.673-.833-.673h-8.167c-.417 0-.75.337-.833.673l-.583 2.945c-.083.421-.417.673-.833.673H9.75c-1 0-1.75.757-1.75 1.767V25.4c0 1.01.75 1.767 1.75 1.767h16.5c1 0 1.75-.757 1.75-1.767v-9.675c0-1.01-.75-1.767-1.75-1.767h-1.917c-.417 0-.75-.252-.833-.673z"/><path d="M22.75 19.679c0 2.692-2.167 4.796-4.75 4.796-2.667 0-4.75-2.187-4.75-4.796 0-2.692 2.167-4.796 4.75-4.796 2.667 0 4.75 2.103 4.75 4.796z"/></g><defs /></svg>