<?xml version="1.0" encoding="utf-8"?>
<!-- Generator: Adobe Illustrator 16.0.0, SVG Export Plug-In . SVG Version: 6.00 Build 0)  -->
<!DOCTYPE svg PUBLIC "-//W3C//DTD SVG 1.1//EN" "http://www.w3.org/Graphics/SVG/1.1/DTD/svg11.dtd">
<svg version="1.1" id="Layer_1" xmlns="http://www.w3.org/2000/svg" xmlns:xlink="http://www.w3.org/1999/xlink" x="0px" y="0px"
	 width="30px" height="30px" viewBox="0 0 30 30" enable-background="new 0 0 30 30" xml:space="preserve">
<path fill="#2867B2" d="M4.5,0h21C27.985,0,30,2.015,30,4.5v21c0,2.485-2.015,4.5-4.5,4.5h-21C2.015,30,0,27.985,0,25.5v-21
	C0,2.015,2.015,0,4.5,0z"/>
<path fill="#FFFFFF" d="M11.28,11.719H7.74c-0.396,0-0.72,0.323-0.72,0.72v13.343c0,0.396,0.323,0.719,0.72,0.719h3.54
	c0.397,0,0.72-0.323,0.72-0.719V12.438C12,12.042,11.677,11.719,11.28,11.719z M10.768,25.268H8.253V12.951h2.515V25.268z"/>
<path fill="#FFFFFF" d="M9.51,5.5C8.126,5.5,7,6.626,7,8.01c0,1.385,1.126,2.511,2.51,2.511s2.51-1.126,2.51-2.511
	C12.021,6.626,10.895,5.5,9.51,5.5z M9.51,9.288c-0.705,0-1.278-0.573-1.278-1.278c0-0.704,0.573-1.277,1.278-1.277
	s1.278,0.573,1.278,1.277C10.788,8.715,10.215,9.288,9.51,9.288z"/>
<path fill="#FFFFFF" d="M23.449,13.283c-0.847-0.707-1.922-1.084-3.028-1.063c-0.687,0.012-1.358,0.178-1.967,0.478v-0.292
	c0-0.379-0.308-0.688-0.688-0.688h-3.604c-0.379,0-0.687,0.308-0.687,0.688v13.406c0,0.38,0.308,0.688,0.687,0.688h3.676
	c0.34,0,0.616-0.275,0.616-0.616v-7.993c0-0.684,0.536-1.263,1.22-1.283c0.711-0.021,1.295,0.551,1.295,1.257v8.032
	c0,0.333,0.271,0.604,0.604,0.604h3.532c0.333,0,0.604-0.271,0.604-0.604v-7.788C25.708,16.24,24.885,14.481,23.449,13.283z
	 M24.476,25.268h-2.274v-7.403c0-1.373-1.117-2.49-2.489-2.49s-2.49,1.117-2.49,2.49v7.403h-2.515V12.951h2.515v0.896h0.001
	c0,0.145,0.051,0.291,0.154,0.408c0.226,0.255,0.615,0.279,0.87,0.053c0.606-0.538,1.388-0.841,2.196-0.856
	c0.811-0.016,1.598,0.261,2.216,0.777c1.154,0.964,1.816,2.377,1.816,3.879V25.268z"/>
</svg>
