<svg xmlns="http://www.w3.org/2000/svg" width="22" height="22" fill="none"  xmlns:v="https://vecta.io/nano"><g stroke="#fff" stroke-miterlimit="10" stroke-linejoin="round"><path d="M5.333 5.333H21l-3.25 9c-.083.333-.417.583-.833.583H7c-.417 0-.833-.333-.833-.75L4.5 1H1" stroke-linecap="round"/><path d="M18.417 19.25c0 1-.75 1.75-1.75 1.75s-1.75-.75-1.75-1.75.75-1.75 1.75-1.75c.917 0 1.75.833 1.75 1.75zm-9.584 0c0 1-.75 1.75-1.75 1.75s-1.75-.75-1.75-1.75.75-1.75 1.75-1.75 1.75.833 1.75 1.75z"/></g><defs /></svg>