<svg xmlns="http://www.w3.org/2000/svg" xmlns:xlink="http://www.w3.org/1999/xlink" width="50" height="50" fill="none" xmlns:v="https://vecta.io/nano"><path d="M38.638 44.141H18.13a4.4 4.4 0 0 1-4.394-4.395 4.4 4.4 0 0 1 4.394-4.395v2.93c-.807 0-1.465.657-1.465 1.465s.658 1.465 1.465 1.465h20.508v2.93z" fill="#f9f4f3"/><path d="M29.849 41.211h8.789v2.93h-8.789v-2.93z" fill="#f0e6e1"/><path d="M31.314 0l-1.465 5.859L28.384 0h-8.789v20.703h20.508V0h-8.789z" fill="#ffd899"/><path d="M40.103 20.703V0h-8.789l-1.465 5.859v14.844h10.254z" fill="#e6b973"/><path d="M28.384 0h2.93v8.789h-2.93V0z" fill="#e4a046"/><path d="M29.849 0h1.465v8.789h-1.465V0z" fill="#d79148"/><g fill="#f9f4f3"><path d="M12.563 17.773l-1.569 2.93-1.565-2.93-1.113-2.93H.552v-2.93h9.814l2.197 5.859z"/><path d="M18.13 36.816l-6.592-17.578h35.889l-5.859 17.578H18.13z"/></g><path d="M21.06 50a4.4 4.4 0 0 1-4.395-4.395 4.4 4.4 0 0 1 4.395-4.395 4.4 4.4 0 0 1 4.395 4.395A4.4 4.4 0 0 1 21.06 50z" fill="#80564d"/><use xlink:href="#B" fill="#f9f4f3"/><path d="M38.638 50a4.4 4.4 0 0 1-4.395-4.395 4.4 4.4 0 0 1 4.395-4.395 4.4 4.4 0 0 1 4.395 4.395A4.4 4.4 0 0 1 38.638 50z" fill="#66443d"/><g fill="#f0e6e1"><use xlink:href="#B" x="17.578"/><path d="M29.849 36.816h11.719l5.859-17.578H29.849v17.578z"/></g><path d="M9.429 17.773l7.324 19.57.352.937h25.518l6.826-20.508H9.429zm4.219 2.93h6.182l.469 2.93h-5.537l-1.113-2.93zm2.197 5.859h4.951l.498 2.93h-4.336l-1.113-2.93zm3.311 8.789l-1.113-2.93h3.721l.498 2.93h-3.105zm9.229 0H25.22l-.469-2.93h3.633v2.93zm0-5.859h-4.131l-.498-2.93h4.629v2.93h0zm0-5.859h-5.098l-.498-2.93h5.596v2.93zm6.094 11.719h-3.164v-2.93h3.633l-.469 2.93zm.967-5.859h-4.131v-2.93h4.629l-.498 2.93zm.967-5.859h-5.098v-2.93h5.596l-.498 2.93zm4.102 11.719h-3.076l.498-2.93h3.545l-.967 2.93zm1.963-5.859h-4.072l.498-2.93h4.541l-.967 2.93zm-3.076-5.859l.469-2.93h5.537l-.996 2.93h-5.01z" fill="#f36a3d"/><path d="M29.849 38.281h12.774l6.826-20.508h-19.6v20.508h0zm10.019-17.578h5.537l-.996 2.93h-5.01l.469-2.93zm-.967 5.859h4.541l-.967 2.93h-4.072l.498-2.93zm-.967 5.859h3.545l-.967 2.93h-3.076l.498-2.93zm-6.621-11.719h5.596l-.498 2.93h-5.098v-2.93zm0 5.859h4.629l-.498 2.93h-4.131v-2.93zm3.633 5.859l-.469 2.93h-3.164v-2.93h3.633z" fill="#ec4c36"/><defs ><path id="B" d="M21.06 47.07c.809 0 1.465-.656 1.465-1.465s-.656-1.465-1.465-1.465-1.465.656-1.465 1.465.656 1.465 1.465 1.465z"/></defs></svg>