<svg width="22" height="22" viewBox="0 0 22 22" fill="none" xmlns="http://www.w3.org/2000/svg">
<path d="M15.0948 0.0199493C15.0946 0.0199493 15.0944 0.019802 15.0942 0.019802C15.0933 0.0195076 15.0925 0.0192131 15.0917 0.0189187C15.0875 0.0175936 15.0835 0.0167839 15.0793 0.0156061C15.079 0.0156061 15.0787 0.0154588 15.0785 0.0154588C15.0728 0.0138393 15.0671 0.011999 15.0613 0.010674C15.0592 0.0100851 15.0571 0.00964338 15.0549 0.00912808C15.0497 0.00795026 15.0444 0.00728774 15.0392 0.00640438C15.0335 0.00537379 15.028 0.00426959 15.0225 0.00353345C15.0206 0.003239 15.0185 0.00309177 15.0166 0.00279731C15.0108 0.00206118 15.005 0.00176673 14.9993 0.00139866C14.9941 0.0011042 14.9889 0.000515295 14.9838 0.000368068C14.9819 0.000220841 14.9797 0.000220841 14.9777 0.000220841C14.9715 0.000220841 14.9655 0.000368068 14.9594 0.000662522C14.9548 0.000809749 14.9501 0.000662522 14.9455 0.000956976C14.9432 0.0011042 14.9409 0.00139866 14.9386 0.00154588C14.9324 0.00213479 14.9263 0.00301816 14.9202 0.0038279C14.9159 0.00441681 14.9115 0.00471127 14.9071 0.0054474C14.9047 0.00588908 14.9024 0.00633077 14.8999 0.00684606C14.8938 0.00787665 14.888 0.00942254 14.882 0.0107476C14.8777 0.0117782 14.8734 0.0125879 14.8691 0.0137657C14.8667 0.0145019 14.8643 0.0150172 14.8619 0.0157533C14.8562 0.0174464 14.8507 0.0195076 14.845 0.0213479C14.8406 0.0229674 14.836 0.0242189 14.8315 0.0259856C14.8293 0.0268689 14.8272 0.0276051 14.8249 0.0285621C14.8197 0.0305496 14.8146 0.0330525 14.8095 0.0353345C14.8046 0.0376165 14.7996 0.0398249 14.7948 0.0422542C14.7933 0.0429903 14.7915 0.0435792 14.79 0.044389C14.7896 0.0445362 14.7893 0.0448307 14.789 0.0449779C14.7844 0.0474071 14.7801 0.0501308 14.7756 0.0527809C14.7706 0.0556518 14.7654 0.0585228 14.7605 0.0616882C14.7596 0.0621298 14.7587 0.0627187 14.7578 0.063234C14.7566 0.0639702 14.7556 0.0645591 14.7544 0.0652216C14.7505 0.0676509 14.7471 0.0705218 14.7434 0.0730983C14.7386 0.0765581 14.7336 0.0800179 14.7289 0.0837722C14.7268 0.0853181 14.7246 0.0867904 14.7227 0.0884099C14.7191 0.0911336 14.716 0.094299 14.7127 0.0971699C14.7082 0.101071 14.7037 0.104899 14.6994 0.109095C14.6974 0.110788 14.6953 0.112555 14.6933 0.114543C14.6902 0.117561 14.6873 0.121021 14.6842 0.124186C14.6802 0.128529 14.6762 0.132652 14.6723 0.137142C14.6705 0.139277 14.6685 0.141338 14.6667 0.143473C14.6638 0.146785 14.6614 0.150393 14.6588 0.153852C14.6551 0.15849 14.6515 0.163201 14.6481 0.16806C14.6464 0.170342 14.6446 0.172697 14.6429 0.175127C14.6405 0.178586 14.6385 0.182488 14.6361 0.186021C14.6329 0.191027 14.6297 0.196254 14.6266 0.201554C14.6252 0.203983 14.6236 0.206339 14.6223 0.208768C14.6201 0.212817 14.6183 0.216939 14.6163 0.221135C14.6136 0.226435 14.6109 0.231883 14.6083 0.237551C14.6073 0.239686 14.6062 0.241747 14.6053 0.243882C14.604 0.2469 14.6031 0.249918 14.6019 0.252936C14.6011 0.254777 14.6005 0.256838 14.5998 0.258678C14.5983 0.26258 14.5966 0.266187 14.5952 0.270015L13.0395 4.73151L12.7106 2.42608C12.785 2.40407 12.8525 2.36093 12.9037 2.29969C12.9796 2.209 13.0122 2.08908 12.993 1.97174L12.7269 0.33899C12.6951 0.143473 12.5285 0.000147227 12.3332 0.000147227H10.6671C10.4718 0.000147227 10.3051 0.143473 10.2732 0.33899L10.0071 1.97174C9.98791 2.08908 10.0207 2.209 10.0965 2.29969C10.1476 2.36093 10.2152 2.40407 10.2896 2.42608L9.95416 4.78024L8.44443 0.274726C8.4429 0.270383 8.44102 0.266555 8.43949 0.262359C8.43898 0.260739 8.43848 0.259341 8.43797 0.257942C8.43615 0.253451 8.43478 0.248887 8.43289 0.244397C8.43231 0.242925 8.43144 0.241526 8.43086 0.239907C8.42839 0.234312 8.42556 0.229012 8.42288 0.223491C8.42273 0.223196 8.42259 0.222755 8.42244 0.22246C8.41939 0.216277 8.41649 0.21024 8.41308 0.204351C8.4101 0.198904 8.40677 0.193824 8.4035 0.188524C8.40336 0.188377 8.40321 0.188083 8.40307 0.187935C8.40045 0.183739 8.3982 0.179323 8.39545 0.175274C8.39436 0.173728 8.39312 0.172256 8.39196 0.170636C8.38841 0.165483 8.38442 0.160551 8.38064 0.155545C8.37767 0.151644 8.37484 0.147522 8.37165 0.14362C8.37041 0.142295 8.36918 0.141044 8.36802 0.139571C8.36388 0.134934 8.35967 0.130517 8.35539 0.125879C8.35075 0.121021 8.34618 0.115941 8.34124 0.11123C8.33667 0.106887 8.33188 0.102765 8.32724 0.0985686C8.32216 0.0940781 8.31701 0.0896613 8.31171 0.0854653C8.30648 0.0812694 8.30104 0.0775887 8.2956 0.0736872C8.29553 0.0736872 8.29546 0.0736872 8.29546 0.0736872C8.29175 0.0711107 8.28834 0.0682398 8.28457 0.0656633C8.28305 0.0646327 8.28145 0.0638229 8.27993 0.0627924C8.27441 0.0593325 8.26883 0.0561671 8.26324 0.0530018C8.25881 0.0504253 8.25468 0.0478488 8.25018 0.045346C8.24945 0.0450515 8.24873 0.0446098 8.24807 0.0441681C8.2472 0.0437264 8.2464 0.043432 8.24561 0.0429903C8.24031 0.0402666 8.23479 0.0379846 8.22921 0.0354817C8.22427 0.0331997 8.21941 0.0306969 8.21433 0.0287093C8.21259 0.0279732 8.21092 0.0273106 8.20911 0.0265745C8.20417 0.0245869 8.19887 0.0231147 8.1938 0.0214215C8.18835 0.0195812 8.18306 0.01752 8.17747 0.0159741C8.17551 0.0153852 8.17362 0.0146491 8.17166 0.0141338C8.16724 0.012956 8.16288 0.0122935 8.15846 0.0111156C8.15788 0.0111156 8.15737 0.0109684 8.15693 0.0108212C8.15113 0.00934892 8.14532 0.00795026 8.13952 0.00677245C8.13255 0.0054474 8.1258 0.00463765 8.11898 0.00375429C8.11289 0.00287093 8.10679 0.00206118 8.1007 0.00147227C8.10012 0.00147227 8.09968 0.00132504 8.09917 0.00132504C8.09308 0.000883363 8.08698 0.000736136 8.08089 0.000588908C8.08074 0.000588908 8.0806 0.000441681 8.08045 0.000441681C8.07421 0.000294454 8.06797 0 8.06173 0C8.06159 0 8.06151 0 8.06144 0C8.05491 0.000147227 8.04853 0.000588908 8.04214 0.00103059C8.0417 0.00117782 8.04134 0.00117782 8.04098 0.00117782C8.03474 0.0016195 8.02864 0.00191395 8.0224 0.00257647C8.02095 0.0027237 8.01957 0.0027237 8.01812 0.00287093C8.01261 0.00360706 8.00695 0.00485849 8.00143 0.00574186C7.99563 0.00677245 7.98968 0.0075822 7.98387 0.00890724C7.98235 0.00920169 7.9809 0.00949615 7.9793 0.0097906C7.97393 0.0109684 7.96871 0.0128088 7.96341 0.0142074C7.96254 0.0143546 7.96189 0.0146491 7.96116 0.0147963C7.95659 0.0161214 7.95223 0.0167839 7.94766 0.0182562C7.94636 0.0186978 7.94498 0.0191395 7.94367 0.0195812C7.94353 0.0197284 7.94353 0.0197284 7.94338 0.0197284C6.22104 0.565941 4.74983 1.49053 3.68882 2.69367C2.58398 3.94657 2 5.4195 2 6.95346V18.1181C2 18.3418 2.17865 18.523 2.39909 18.523H4.82776L4.51545 21.5528C4.5037 21.667 4.5402 21.7807 4.61588 21.866C4.69156 21.9512 4.79925 21.9998 4.91237 21.9998H10.0801C10.0809 21.9998 10.0816 21.9999 10.0823 21.9999C10.0949 21.9999 10.1074 21.999 10.1199 21.9979C10.1229 21.9976 10.1257 21.9972 10.1287 21.9969C10.1379 21.9957 10.147 21.9943 10.1559 21.9926C10.1595 21.992 10.1631 21.9912 10.1666 21.9906C10.1775 21.9881 10.1883 21.9854 10.1988 21.9823C10.2028 21.9809 10.2065 21.9795 10.2105 21.9781C10.2176 21.9756 10.2247 21.9731 10.2318 21.9702C10.2364 21.9683 10.2411 21.9661 10.2458 21.964C10.252 21.9613 10.2581 21.9583 10.2642 21.9551C10.2684 21.953 10.2726 21.9508 10.2766 21.9485C10.2864 21.943 10.296 21.9371 10.3053 21.9308C10.3059 21.9304 10.3065 21.9299 10.3071 21.9296C10.3163 21.9231 10.3251 21.9163 10.3337 21.9093C10.3358 21.9075 10.338 21.9057 10.3401 21.9039C10.3474 21.8975 10.3544 21.8911 10.3612 21.8843C10.3631 21.8826 10.3649 21.8807 10.3666 21.879C10.3745 21.871 10.3821 21.8624 10.3892 21.8538C10.3896 21.8532 10.3902 21.8528 10.3906 21.8522C10.3984 21.8425 10.4056 21.8326 10.4125 21.8224C10.4138 21.8206 10.4149 21.8185 10.4162 21.8166C10.4212 21.8088 10.426 21.8009 10.4305 21.7929C10.4327 21.7887 10.4349 21.7845 10.437 21.7803C10.4401 21.7742 10.4431 21.768 10.4459 21.7616C10.448 21.7566 10.4503 21.7516 10.4525 21.7464C10.453 21.7449 10.4538 21.7434 10.4543 21.7418L11.5197 18.9639L12.5874 21.7421C12.588 21.7435 12.5887 21.7449 12.5893 21.7464C12.5913 21.7516 12.5936 21.7566 12.5959 21.7618C12.5987 21.768 12.6015 21.7743 12.6047 21.7805C12.6068 21.7847 12.609 21.7888 12.6112 21.7929C12.6158 21.801 12.6205 21.809 12.6255 21.8167C12.6268 21.8185 12.6279 21.8206 12.6291 21.8224C12.636 21.8328 12.6433 21.8427 12.6512 21.8523C12.6515 21.8526 12.6516 21.8529 12.6519 21.8532C12.6593 21.8621 12.6671 21.8707 12.6751 21.8791C12.6767 21.8808 12.6784 21.8824 12.68 21.8841C12.687 21.8911 12.6943 21.8977 12.7017 21.9042C12.7037 21.9058 12.7057 21.9076 12.7077 21.9092C12.7165 21.9165 12.7256 21.9234 12.7351 21.93C12.7355 21.9303 12.7359 21.9306 12.7364 21.9309C12.7457 21.9372 12.7554 21.9431 12.7652 21.9487C12.7692 21.9508 12.7731 21.9529 12.777 21.9549C12.7834 21.9582 12.7897 21.9614 12.7961 21.9642C12.8007 21.9664 12.8052 21.9684 12.8098 21.9703C12.817 21.9731 12.8242 21.9759 12.8316 21.9783C12.8353 21.9795 12.8388 21.981 12.8424 21.9822C12.853 21.9855 12.864 21.9882 12.875 21.9907C12.8786 21.9914 12.8821 21.9921 12.8856 21.9926C12.8947 21.9943 12.9038 21.9958 12.9131 21.997C12.9159 21.9973 12.9188 21.9977 12.9218 21.998C12.9342 21.9992 12.9467 22 12.9593 22C12.9601 22 12.9608 21.9999 12.9616 21.9999H18.164C18.2771 21.9999 18.3848 21.9513 18.4605 21.866C18.5362 21.7808 18.5727 21.667 18.561 21.5529L18.2487 18.5231H20.6009C20.8213 18.5231 21 18.3419 21 18.1182V6.95376C21 5.42444 20.4207 3.95386 19.3245 2.70125C18.27 1.49627 16.8076 0.569254 15.0948 0.0199493ZM14.4996 3.92714C14.4957 3.93104 14.4924 3.93531 14.4888 3.93936C14.4833 3.94539 14.4775 3.95143 14.4722 3.95791C14.4707 3.9596 14.4697 3.96166 14.4682 3.96335C14.3615 4.10079 14.3547 4.29219 14.4485 4.43625C14.4514 4.44074 14.4548 4.44471 14.4579 4.44906C14.4625 4.45583 14.4671 4.4626 14.4723 4.46901C14.4763 4.47386 14.4808 4.47865 14.4853 4.48351C14.49 4.48881 14.4945 4.4944 14.4997 4.49963L15.6593 5.67612L11.5192 11.8244L11.4492 11.7205L13.2503 6.5547C13.2507 6.55381 13.251 6.553 13.2513 6.55212L15.038 1.4281L15.6883 2.7209L14.4996 3.92714ZM8.53869 4.49978C8.53869 4.49978 8.53869 4.49978 8.53883 4.49978C8.56205 4.47622 8.5815 4.45031 8.59782 4.423C8.62932 4.37022 8.64811 4.31199 8.65377 4.25266C8.65377 4.25251 8.65384 4.25236 8.65391 4.25221C8.65522 4.23771 8.6558 4.22314 8.65566 4.20863C8.6545 4.10653 8.61553 4.00502 8.5389 3.92714L7.34989 2.72083L7.99272 1.44268L11.028 10.5003L10.8914 10.8921L7.37877 5.67612L8.53869 4.49978ZM11.0055 0.809896H11.9947L12.1289 1.6329H10.8714L11.0055 0.809896ZM11.0938 2.44264H11.9065L12.4673 6.37295L11.4579 9.26743L10.5201 6.46879L11.0938 2.44264ZM5.6676 18.1604C5.6676 18.1601 5.6676 18.1597 5.6676 18.1594L6.1074 13.8935C6.11038 13.8638 6.11023 13.8338 6.10682 13.8042L5.30864 6.90657C5.28295 6.6844 5.08442 6.52555 4.86571 6.55161C4.64679 6.57774 4.49013 6.77892 4.51582 7.00094L5.30893 13.8541L4.91106 17.7136H2.79804V6.95376C2.79804 4.51457 4.51524 2.30963 7.24947 1.13888L6.50991 2.60953L6.50824 2.61284L6.50708 2.61497C6.50606 2.61711 6.50534 2.61932 6.50425 2.6213C6.4996 2.6311 6.49518 2.64089 6.49133 2.65075C6.48966 2.65524 6.48821 2.65966 6.48669 2.6643C6.484 2.6721 6.48125 2.67983 6.47907 2.6877C6.47726 2.69418 6.4758 2.70081 6.47428 2.70729C6.47297 2.71332 6.47145 2.71936 6.47029 2.72539C6.46891 2.73305 6.46804 2.74078 6.46702 2.74851C6.46644 2.75351 6.46557 2.75874 6.46521 2.76375C6.46448 2.77162 6.46434 2.77972 6.46405 2.78775C6.4639 2.79275 6.46369 2.79783 6.46376 2.80284C6.46376 2.81049 6.46434 2.81793 6.46477 2.82544C6.46521 2.83103 6.4655 2.83677 6.46608 2.84237C6.46681 2.84899 6.4679 2.85562 6.46891 2.86209C6.46993 2.86872 6.47087 2.8752 6.47218 2.88168C6.47334 2.88727 6.47486 2.89287 6.47624 2.89839C6.47798 2.90575 6.47987 2.91289 6.48204 2.9201C6.48357 2.92496 6.48538 2.92975 6.48705 2.93446C6.48959 2.94211 6.49228 2.94955 6.49532 2.95691C6.49721 2.96162 6.49953 2.96626 6.50178 2.97082C6.50505 2.97789 6.50824 2.98488 6.51187 2.9918C6.51484 2.99725 6.51796 3.00248 6.52116 3.00763C6.52464 3.01352 6.5279 3.01926 6.53168 3.02485C6.5361 3.03163 6.54111 3.0381 6.5459 3.04451C6.54887 3.04841 6.55156 3.05246 6.55468 3.05614C6.56121 3.06431 6.56832 3.07211 6.57565 3.0797C6.57732 3.08154 6.57877 3.08345 6.58044 3.08514L6.58225 3.08698L6.58465 3.08941L7.69224 4.2132L6.58037 5.34103C6.57979 5.34162 6.57928 5.34236 6.57877 5.34287C6.57202 5.34979 6.56585 5.35693 6.55961 5.36429C6.55707 5.36731 6.55439 5.37018 6.55199 5.3732C6.54633 5.38027 6.5414 5.38756 6.53625 5.39477C6.53371 5.39867 6.53081 5.40228 6.52834 5.40611C6.52435 5.41229 6.52094 5.41862 6.51731 5.42495C6.51433 5.43025 6.51107 5.43548 6.50838 5.44093C6.50585 5.44578 6.50381 5.45086 6.50156 5.45572C6.4983 5.46279 6.49489 5.46978 6.49206 5.477C6.49053 5.48075 6.48952 5.4845 6.48807 5.48833C6.48509 5.4968 6.48197 5.50526 6.47943 5.51395C6.47842 5.5177 6.47776 5.52146 6.47675 5.52514C6.4745 5.5339 6.47218 5.54266 6.47058 5.55157C6.46949 5.55687 6.46906 5.56224 6.46826 5.56769C6.46724 5.57505 6.46601 5.58219 6.46528 5.58955C6.46456 5.59757 6.46441 5.60567 6.46412 5.61355C6.46398 5.61841 6.46354 5.62319 6.46354 5.62805C6.46354 5.63769 6.46419 5.64719 6.46485 5.65683C6.46514 5.66015 6.46514 5.66346 6.46543 5.66662C6.4663 5.67612 6.46782 5.68547 6.46942 5.69482C6.47 5.69828 6.47036 5.70188 6.47094 5.70534C6.47247 5.71337 6.47472 5.72132 6.47675 5.7292C6.47805 5.73405 6.47892 5.73899 6.48045 5.74384C6.48219 5.75003 6.48458 5.75606 6.48669 5.7621C6.48894 5.76873 6.49112 5.77535 6.4938 5.78183C6.49561 5.78647 6.49794 5.79088 6.4999 5.79537C6.50345 5.8031 6.50686 5.81105 6.51092 5.81864C6.51288 5.82239 6.51535 5.826 6.51738 5.82968C6.52195 5.8377 6.52653 5.84565 6.53175 5.85353C6.53219 5.85427 6.53262 5.855 6.53306 5.85566L11.1202 12.6672V17.7724L9.80947 21.1903H5.35522L5.6676 18.1604ZM20.2018 17.7136H18.1652L17.7674 13.854L18.5604 7.00087C18.5861 6.77885 18.4294 6.57774 18.2106 6.55153C17.9918 6.52547 17.7934 6.68441 17.7676 6.9065L16.9695 13.8042C16.9661 13.8338 16.9658 13.8637 16.9689 13.8935L17.4086 18.159C17.4086 18.1596 17.4087 18.16 17.4087 18.1605L17.721 21.1902H13.2319L11.9184 17.7722V12.6671L16.5051 5.85552C16.5057 5.85478 16.506 5.85404 16.5064 5.85353C16.5118 5.84536 16.5167 5.83697 16.5213 5.82879C16.5233 5.82534 16.5254 5.82202 16.5272 5.81856C16.5315 5.81054 16.5352 5.80229 16.5389 5.79412C16.5407 5.78993 16.5428 5.78595 16.5444 5.78176C16.5473 5.77484 16.5494 5.76784 16.5519 5.76078C16.5539 5.75518 16.5562 5.74959 16.5579 5.74384C16.5594 5.73854 16.5605 5.7331 16.5619 5.72758C16.5637 5.72021 16.5658 5.71293 16.5672 5.70542C16.5681 5.70122 16.5685 5.6971 16.569 5.6929C16.5705 5.68414 16.572 5.67538 16.5729 5.66662C16.5732 5.66258 16.5732 5.6586 16.5735 5.65455C16.574 5.64579 16.5748 5.63688 16.5748 5.62812C16.5748 5.62238 16.5742 5.61664 16.574 5.6109C16.5738 5.60383 16.5736 5.59684 16.573 5.58977C16.5722 5.58145 16.5709 5.57321 16.5696 5.56489C16.5689 5.5604 16.5685 5.55598 16.5677 5.55164C16.5659 5.54185 16.5634 5.53235 16.561 5.52271C16.5601 5.51984 16.5596 5.51682 16.5589 5.51395C16.5562 5.5046 16.5529 5.49555 16.5495 5.48649C16.5484 5.48333 16.5476 5.48016 16.5463 5.477C16.5433 5.46927 16.5396 5.46176 16.5362 5.45425C16.5341 5.44976 16.5322 5.44519 16.53 5.44085C16.5271 5.43511 16.5236 5.42951 16.5204 5.42392C16.5169 5.41803 16.5137 5.41185 16.5099 5.40611C16.5074 5.40191 16.5042 5.39808 16.5016 5.39418C16.4966 5.38697 16.4918 5.37997 16.4863 5.3732C16.4837 5.36989 16.4809 5.36687 16.4782 5.3637C16.4722 5.35664 16.4661 5.3495 16.4595 5.34272C16.4589 5.34214 16.4584 5.3414 16.4578 5.34088L15.3463 4.21327L16.4538 3.08949L16.4561 3.08735L16.458 3.08536C16.4598 3.08352 16.4614 3.08146 16.4631 3.07948C16.4704 3.07197 16.4772 3.06438 16.4838 3.05629C16.4869 3.05253 16.4897 3.04841 16.4926 3.04451C16.4975 3.03803 16.5024 3.0317 16.5067 3.02493C16.5105 3.01933 16.5138 3.01344 16.5173 3.00756C16.5204 3.0024 16.5235 2.99718 16.5264 2.99188C16.5301 2.98496 16.5333 2.97796 16.5366 2.9709C16.5387 2.96626 16.541 2.96155 16.543 2.95698C16.5461 2.94962 16.5487 2.94204 16.5513 2.93453C16.553 2.92982 16.5549 2.92489 16.5563 2.92018C16.5585 2.91296 16.5603 2.90567 16.5621 2.89846C16.5635 2.89287 16.5649 2.88742 16.5661 2.88175C16.5675 2.87527 16.5684 2.86879 16.5695 2.86232C16.5705 2.85569 16.5716 2.84907 16.5723 2.84244C16.5729 2.83685 16.5732 2.83125 16.5735 2.82558C16.574 2.81793 16.5745 2.81049 16.5746 2.80284C16.5746 2.79783 16.5743 2.79275 16.5742 2.78775C16.574 2.77972 16.5738 2.77162 16.573 2.76375C16.5726 2.75859 16.5719 2.75351 16.5714 2.74851C16.5703 2.74078 16.5694 2.73298 16.568 2.72525C16.5669 2.71936 16.5654 2.71332 16.564 2.70743C16.5626 2.70081 16.5611 2.69418 16.5593 2.68756C16.5571 2.67983 16.5544 2.67202 16.5517 2.6643C16.5502 2.65988 16.5487 2.65524 16.5471 2.65068C16.5432 2.64089 16.5389 2.63124 16.5341 2.6216C16.533 2.61932 16.5323 2.61711 16.5312 2.61497L16.53 2.61269L16.5285 2.60953L15.7914 1.14418C18.5007 2.31942 20.2018 4.52164 20.2018 6.95376V17.7136Z" fill="#FFFFFF"/>
</svg>
