<svg width="52" height="51" viewBox="0 0 52 51" fill="none" xmlns="http://www.w3.org/2000/svg">
<path d="M23.7081 19.2413C23.7081 20.4968 24.7498 21.543 25.9998 21.543H28.2915C29.5415 21.543 30.5831 20.4968 30.5831 19.2413V17.9859C30.5831 16.9396 29.9581 16.1027 29.1248 15.6842L25.3748 14.4287C24.5415 14.2195 23.9165 13.1733 23.9165 12.3363V11.2901C23.9165 10.0346 24.9581 8.9884 26.2081 8.9884H28.4998C29.7498 8.9884 30.7915 10.0346 30.7915 11.2901" stroke="white" stroke-miterlimit="10" stroke-linecap="round" stroke-linejoin="round"/>
<path d="M27.0417 8.98829V5.43115" stroke="white" stroke-miterlimit="10" stroke-linecap="round" stroke-linejoin="round"/>
<path d="M27.0417 21.543V24.8909" stroke="white" stroke-miterlimit="10" stroke-linecap="round" stroke-linejoin="round"/>
<path d="M22.4583 46.2338C20.1667 48.5355 17.0417 50.0002 13.5 50.0002C6.625 50.0002 1 44.3506 1 37.4456C1 30.5406 6.625 24.891 13.5 24.891C17.4583 24.891 21 26.7742 23.2917 29.7036" stroke="white" stroke-miterlimit="10" stroke-linecap="round" stroke-linejoin="round"/>
<path d="M15.5833 19.2413C14.9583 17.7766 14.5417 16.3119 14.5417 14.638C14.5417 7.73294 20.1667 2.08337 27.0417 2.08337C33.9167 2.08337 39.5417 7.73294 39.5417 14.638C39.5417 20.9153 34.9583 26.1463 28.9167 26.9833" stroke="white" stroke-miterlimit="10" stroke-linecap="round" stroke-linejoin="round"/>
<path d="M41.4167 25.3093C47.0417 26.5648 51 31.5866 51 37.4454C51 44.3504 45.375 50 38.5 50C31.625 50 26 44.3504 26 37.4454C26 35.9807 26.2083 34.516 26.8333 33.0513" stroke="white" stroke-miterlimit="10" stroke-linecap="round" stroke-linejoin="round"/>
<path d="M16.8329 32.8421C16.8329 31.5866 15.7913 30.5404 14.5413 30.5404H12.4579C11.2079 30.5404 10.1663 31.5866 10.1663 32.8421V33.8883C10.1663 37.2362 12.4579 37.2362 12.4579 39.5379C12.4579 41.8395 7.87459 44.1412 7.87459 44.1412C7.87459 44.1412 11.6246 41.8395 13.4996 43.095C14.9579 43.932 15.7913 44.9782 18.0829 43.095" stroke="white" stroke-miterlimit="10" stroke-linecap="round" stroke-linejoin="round"/>
<path d="M7.87459 37.4456H15.7913" stroke="white" stroke-miterlimit="10" stroke-linecap="round" stroke-linejoin="round"/>
<path d="M33.9163 40.7933H43.0829" stroke="white" stroke-miterlimit="10" stroke-linecap="round" stroke-linejoin="round"/>
<path d="M33.9163 37.4456H43.0829" stroke="white" stroke-miterlimit="10" stroke-linecap="round" stroke-linejoin="round"/>
<path d="M38.5 45.3968V37.4456" stroke="white" stroke-miterlimit="10" stroke-linecap="round" stroke-linejoin="round"/>
<path d="M32.8746 30.5404L38.4996 37.4454" stroke="white" stroke-miterlimit="10" stroke-linecap="round" stroke-linejoin="round"/>
<path d="M44.125 30.5404L38.5 37.4454" stroke="white" stroke-miterlimit="10" stroke-linecap="round" stroke-linejoin="round"/>
</svg>
