<svg width="14" height="8" viewBox="0 0 14 8" fill="none" xmlns="http://www.w3.org/2000/svg">
<path d="M7.54628 7.78279L13.7763 1.72295C13.9206 1.5828 14 1.3957 14 1.1962C14 0.996706 13.9206 0.809609 13.7763 0.669453L13.3176 0.223188C13.0188 -0.0671998 12.533 -0.0671998 12.2345 0.223188L7.0029 5.31178L1.76547 0.217542C1.62126 0.0773851 1.42901 0 1.22402 0C1.0188 0 0.826562 0.0773851 0.682238 0.217542L0.223657 0.663807C0.0794468 0.804074 0 0.99106 0 1.19056C0 1.39005 0.0794468 1.57715 0.223657 1.71731L6.45941 7.78279C6.60408 7.92328 6.79723 8.00044 7.00256 8C7.20869 8.00044 7.40173 7.92328 7.54628 7.78279Z" fill="#969696"/>
</svg>
