<svg width="24" height="22" viewBox="0 0 24 22" fill="none" xmlns="http://www.w3.org/2000/svg">
<path d="M20.7167 21.0834H3.11667C1.87319 21.0834 0.916672 20.1091 0.916672 18.8426V6.56728C0.916672 5.30077 1.87319 4.32654 3.11667 4.32654H20.7167C21.9602 4.32654 22.9167 5.30077 22.9167 6.56728V18.8426C22.9167 20.1091 21.9602 21.0834 20.7167 21.0834Z" stroke="#676767" stroke-miterlimit="10" stroke-linecap="round" stroke-linejoin="round"/>
<path d="M14.6906 0.916687H9.14275C8.56884 0.916687 8.09058 1.4038 8.09058 1.98835V4.32651H15.7428V1.98835C15.7428 1.4038 15.2645 0.916687 14.6906 0.916687Z" stroke="#676767" stroke-miterlimit="10" stroke-linecap="round" stroke-linejoin="round"/>
<path d="M0.916672 8.80798H22.9167" stroke="#676767" stroke-miterlimit="10" stroke-linecap="round" stroke-linejoin="round"/>
<path d="M15.7428 13.7766H12.9689V11.0487H10.7689V13.7766H8.09067V16.0173H10.7689V18.8426H12.9689V16.0173H15.7428V13.7766Z" stroke="#676767" stroke-miterlimit="10" stroke-linecap="round" stroke-linejoin="round"/>
<path d="M4.16887 8.808V6.56726" stroke="#676767" stroke-miterlimit="10" stroke-linecap="round" stroke-linejoin="round"/>
<path d="M19.5687 8.808V6.56726" stroke="#676767" stroke-miterlimit="10" stroke-linecap="round" stroke-linejoin="round"/>
</svg>
