<svg xmlns="http://www.w3.org/2000/svg" width="30" height="30" fill="none"  xmlns:v="https://vecta.io/nano"><path d="M3.213 18.023h3.741a.58.58 0 0 0 .586-.574v-3.693a.58.58 0 0 0-.586-.574h-2.09c-.233 0-.443.135-.537.344l-1.65 3.693c-.079.178-.062.382.046.545a.59.59 0 0 0 .49.26zm2.033-3.693h1.121v2.544H4.109l1.137-2.544zM29.414 3.75H22.15a.58.58 0 0 0-.586.574.58.58 0 0 0 .586.574h6.678v17.824h-3.159l.006-.212c0-2.062-1.71-3.739-3.812-3.739s-3.811 1.677-3.811 3.739l.006.212h-7.891V4.898h6.678a.58.58 0 0 0 .586-.574.58.58 0 0 0-.586-.574H9.58a.58.58 0 0 0-.586.574v6.281H3.147c-.233 0-.443.135-.537.344l-2.561 5.73c-.032.073-.049.151-.049.23v6.388a.58.58 0 0 0 .586.574h1.732c.254 1.351 1.464 2.379 2.915 2.379s2.661-1.027 2.915-2.379h10.166c.556 1.391 1.938 2.379 3.55 2.379s2.995-.988 3.55-2.379h4.001a.58.58 0 0 0 .586-.574V4.324a.58.58 0 0 0-.586-.574zM1.172 17.029l2.358-5.276h5.465v10.969h-.866c-.29-1.306-1.479-2.287-2.896-2.287s-2.606.981-2.896 2.287H1.172v-5.694zm4.061 8.072c-.988 0-1.792-.789-1.792-1.759s.804-1.759 1.792-1.759 1.792.789 1.792 1.759-.804 1.759-1.792 1.759zm16.631 0c-1.456 0-2.64-1.162-2.64-2.59s1.184-2.59 2.64-2.59 2.64 1.162 2.64 2.59-1.184 2.59-2.64 2.59zM18.967 4.544a.59.59 0 0 0 1.101-.053.57.57 0 0 0-.214-.63c-.191-.136-.454-.146-.655-.024-.241.146-.341.451-.232.707zm-4.692 7.302a.58.58 0 0 0 .586-.574.58.58 0 0 0-.586-.574h-2.128a.58.58 0 0 0-.586.574v5.146a.58.58 0 0 0 .586.574.58.58 0 0 0 .586-.574V14.37h1.373a.58.58 0 0 0 .586-.574.58.58 0 0 0-.586-.574h-1.373v-1.376h1.542zm8.316.009a.58.58 0 0 0 .586-.574.58.58 0 0 0-.586-.574h-2.208a.58.58 0 0 0-.586.574v5.136a.58.58 0 0 0 .586.574h2.208a.58.58 0 0 0 .586-.574.58.58 0 0 0-.586-.574h-1.623v-1.42h1.46a.58.58 0 0 0 .586-.574.58.58 0 0 0-.586-.574h-1.46v-1.42h1.623zm4.256 0a.58.58 0 0 0 .586-.574.58.58 0 0 0-.586-.574h-2.208a.58.58 0 0 0-.586.574v5.136a.58.58 0 0 0 .586.574h2.208a.58.58 0 0 0 .586-.574.58.58 0 0 0-.586-.574h-1.622v-1.42h1.46a.58.58 0 0 0 .586-.574.58.58 0 0 0-.586-.574h-1.46v-1.42h1.622zM15.813 10.63a.58.58 0 0 0-.588.574v5.184a.58.58 0 0 0 .586.574.58.58 0 0 0 .586-.574v-1.663l1.834 2.042a.59.59 0 0 0 .827.052c.243-.21.267-.572.053-.81l-1.425-1.587c.899-.2 1.571-.963 1.571-1.87 0-1.059-.914-1.921-2.038-1.921h-1.406zm2.272 1.921c0 .419-.397.773-.867.773l-.813.003-.003-.776-.002-.773h.818c.47 0 .867.354.867.773z" fill="#767676"/><defs /></svg>