<svg width="19" height="17" viewBox="0 0 19 17" fill="none" xmlns="http://www.w3.org/2000/svg">
<path d="M13.6534 0.507363C12.3071 0.507363 11.0386 1.03015 10.0853 1.97633L9.69218 2.36658L9.2916 1.96897C8.33838 1.02279 7.06988 0.5 5.7235 0.5C4.38083 0.5 3.11604 1.01911 2.16282 1.96529C1.20959 2.91147 0.686615 4.1669 0.686615 5.50333C0.686615 6.83976 1.2133 8.0952 2.16652 9.04137L9.23226 16.0549L9.24709 16.0696C9.36949 16.1911 9.53269 16.25 9.69218 16.25C9.85538 16.25 10.0186 16.1874 10.141 16.0659L17.2067 9.05242C18.1599 8.10624 18.6866 6.85081 18.6866 5.51438C18.6866 4.17795 18.1636 2.91883 17.2104 1.97633C16.2609 1.02647 14.9961 0.507363 13.6534 0.507363ZM16.3091 8.15778L9.69589 14.7258L3.06782 8.14674C2.35569 7.43987 1.96253 6.50105 1.95882 5.49965C1.95882 4.50193 2.34827 3.56311 3.0604 2.85624C3.77254 2.15305 4.71835 1.7628 5.71979 1.7628C6.72865 1.7628 7.67446 2.15305 8.3903 2.8636L9.23968 3.7067C9.47705 3.94232 9.89989 3.94232 10.141 3.7067L10.9866 2.86729C11.6988 2.16041 12.6483 1.77016 13.6534 1.77016C14.6586 1.77016 15.6044 2.16041 16.3165 2.86729C17.0287 3.57416 17.4218 4.51297 17.4181 5.51438C17.4181 6.5121 17.025 7.45091 16.3091 8.15778Z" fill="#F37721"/>
</svg>
