<svg width="52" height="50" viewBox="0 0 52 50" fill="none" xmlns="http://www.w3.org/2000/svg">
<path d="M41.3766 20.1877V6.22061C41.3766 4.98822 40.3305 4.16663 39.2845 4.16663H3.09205C1.83682 4.16663 1 5.19362 1 6.22061V21.6255V27.7875C1 29.0199 2.04603 29.8415 3.09205 29.8415H8.53138" stroke="white" stroke-miterlimit="10" stroke-linecap="round" stroke-linejoin="round"/>
<path d="M41.3766 9.50696H1" stroke="white" stroke-miterlimit="10" stroke-linecap="round" stroke-linejoin="round"/>
<path d="M41.3766 15.8744H1" stroke="white" stroke-miterlimit="10" stroke-linecap="round" stroke-linejoin="round"/>
<path d="M12.9248 22.4471C11.6696 22.4471 10.8328 23.4741 10.8328 24.5011V45.8626C10.8328 47.095 11.8788 47.9166 12.9248 47.9166H48.9081C50.1633 47.9166 51.0001 46.8896 51.0001 45.8626V24.5011C51.0001 23.2687 49.9541 22.4471 48.9081 22.4471H12.9248Z" stroke="white" stroke-miterlimit="10" stroke-linecap="round" stroke-linejoin="round"/>
<path d="M15.2253 40.5222H20.6646" stroke="white" stroke-miterlimit="10" stroke-linecap="round" stroke-linejoin="round"/>
<path d="M24.0123 40.5222H29.4516" stroke="white" stroke-miterlimit="10" stroke-linecap="round" stroke-linejoin="round"/>
<path d="M32.5898 40.5222H38.0291" stroke="white" stroke-miterlimit="10" stroke-linecap="round" stroke-linejoin="round"/>
<path d="M41.3758 40.5222H46.8151" stroke="white" stroke-miterlimit="10" stroke-linecap="round" stroke-linejoin="round"/>
<path d="M45.7692 31.4847C45.7692 33.5386 44.0956 35.1818 42.0035 35.1818H40.9575C38.8655 35.1818 37.1918 33.5386 37.1918 31.4847C37.1918 29.4307 38.8655 27.7875 40.9575 27.7875H42.0035C44.0956 27.7875 45.7692 29.4307 45.7692 31.4847Z" stroke="white" stroke-miterlimit="10" stroke-linecap="round" stroke-linejoin="round"/>
</svg>
