<svg width="19" height="18" viewBox="0 0 19 18" fill="none" xmlns="http://www.w3.org/2000/svg">
<path d="M18.5977 12.1816C18.5977 9.55797 16.8298 7.26567 14.3369 6.57491C14.1802 2.92291 11.1606 0 7.4707 0C3.68083 0 0.597656 3.08318 0.597656 6.87305C0.597656 8.10818 0.926422 9.31078 1.55072 10.3666L0.622925 13.7207L3.97719 12.793C4.94769 13.3669 6.04248 13.6902 7.17242 13.739C7.86305 16.232 10.1555 18 12.7793 18C13.8266 18 14.845 17.7211 15.7398 17.1911L18.5723 17.9746L17.7888 15.1422C18.3187 14.2473 18.5977 13.2289 18.5977 12.1816V12.1816ZM4.14363 11.6526L2.1356 12.2081L2.6911 10.2001L2.56448 10.0021C1.96779 9.06853 1.65234 7.98651 1.65234 6.87305C1.65234 3.66476 4.26242 1.05469 7.4707 1.05469C10.679 1.05469 13.2891 3.66476 13.2891 6.87305C13.2891 10.0813 10.679 12.6914 7.4707 12.6914C6.35724 12.6914 5.27536 12.376 4.34166 11.7793L4.14363 11.6526ZM17.0597 16.4621L15.5697 16.0498L15.3707 16.1793C14.5993 16.6804 13.7031 16.9453 12.7793 16.9453C10.7172 16.9453 8.90511 15.612 8.26309 13.7001C11.4208 13.336 13.9337 10.8232 14.2979 7.6653C16.2096 8.30745 17.543 10.1195 17.543 12.1816C17.543 13.1055 17.2781 14.0017 16.7769 14.773L16.6474 14.972L17.0597 16.4621Z" fill="#1F69B2"/>
<path d="M3.59766 6H5.09766V7.5H3.59766V6Z" fill="#1F69B2"/>
<path d="M6.59766 6H8.09766V7.5H6.59766V6Z" fill="#1F69B2"/>
<path d="M9.59766 6H11.0977V7.5H9.59766V6Z" fill="#1F69B2"/>
</svg>
