<svg width="26" height="24" viewBox="0 0 26 24" fill="none" xmlns="http://www.w3.org/2000/svg">
<path d="M10.1381 3C5.11716 3 1 7.04513 1 11.9782C1 14.2474 1.90377 16.3193 3.30962 17.8979C3.20921 20.1672 1.50209 21.9431 1.50209 21.9431C4.31381 22.3377 6.52301 20.5618 6.92469 20.2658C7.92887 20.6605 9.03347 20.8578 10.1381 20.8578C15.159 20.8578 19.2762 16.8127 19.2762 11.8796C19.1757 7.04513 15.159 3 10.1381 3Z" stroke="#767676" stroke-miterlimit="10" stroke-linecap="round" stroke-linejoin="round"/>
<path d="M6.92475 11.7809C6.92475 12.5702 6.32224 13.1622 5.5189 13.1622C4.71555 13.1622 4.11304 12.5702 4.11304 11.7809C4.21346 10.9916 4.81597 10.3997 5.5189 10.3997C6.32224 10.3997 6.92475 10.9916 6.92475 11.7809Z" fill="#767676"/>
<path d="M11.4436 11.7809C11.4436 12.5702 10.8411 13.1622 10.0378 13.1622C9.23441 13.1622 8.6319 12.5702 8.6319 11.7809C8.73232 10.9916 9.33483 10.3997 10.1382 10.3997C10.8411 10.3997 11.4436 10.9916 11.4436 11.7809Z" fill="#767676"/>
<path d="M15.9625 11.7809C15.9625 12.5702 15.36 13.1622 14.5566 13.1622C13.7533 13.1622 13.1508 12.5702 13.1508 11.7809C13.1508 10.9916 13.7533 10.3997 14.5566 10.3997C15.36 10.3997 15.9625 10.9916 15.9625 11.7809Z" fill="#767676"/>
<path d="M17.0669 3.78934C17.3681 3.69067 17.7698 3.69067 18.0711 3.69067C21.887 3.69067 24.9999 6.74919 24.9999 10.4983C24.9999 12.2743 24.297 13.8528 23.2928 15.0368C23.3933 16.8127 24.6987 18.194 24.6987 18.194C22.4895 18.4899 20.8828 17.1087 20.5815 16.9114C20.1799 17.1087 19.7782 17.2073 19.2761 17.306" stroke="#767676" stroke-miterlimit="10" stroke-linecap="round" stroke-linejoin="round"/>
</svg>
