<svg width="24" height="26" viewBox="0 0 24 26" fill="none" xmlns="http://www.w3.org/2000/svg">
<path d="M21 9.97196C21 15.2555 14.9337 22.2336 12.7459 24.6262C12.3481 25.1246 11.6519 25.1246 11.2541 24.6262C9.0663 22.3333 3 15.2555 3 9.97196C3 4.98754 6.9779 1 11.9503 1C16.9227 1 21 4.98754 21 9.97196Z" stroke="#CF2626" stroke-miterlimit="10" stroke-linecap="round" stroke-linejoin="round"/>
<path d="M16.2261 10.0716C16.2261 12.4642 14.3366 14.3582 11.9499 14.3582C9.56316 14.3582 7.7731 12.4642 7.7731 10.0716C7.7731 7.67912 9.6626 5.78503 12.0493 5.78503C14.4361 5.78503 16.2261 7.7788 16.2261 10.0716Z" stroke="#CF2626" stroke-miterlimit="10" stroke-linecap="round" stroke-linejoin="round"/>
</svg>
