<svg width="24" height="24" viewBox="0 0 24 24" fill="none" xmlns="http://www.w3.org/2000/svg">
<path d="M23.0615 0H0.937502C0.419679 0 0 0.419679 0 0.937502C0 3.54823 1.11914 6.04066 3.0705 7.77523L7.17629 11.4245C7.8882 12.0573 8.29653 12.9666 8.29653 13.9193V23.0615C8.29653 23.8085 9.13149 24.2564 9.75387 23.8413L15.2849 20.1541C15.5457 19.9801 15.7024 19.6875 15.7024 19.3741V13.9193C15.7024 12.9666 16.1108 12.0573 16.8227 11.4245L20.9283 7.77523C22.8796 6.04066 23.9988 3.54823 23.9988 0.937502C23.9988 0.419679 23.5791 0 23.0615 0ZM19.6826 6.37373L15.577 10.0232C14.4652 11.0116 13.8274 12.4316 13.8274 13.9192V18.8724L10.1713 21.3097V13.9193C10.1713 12.4316 9.53359 11.0116 8.42177 10.0232L4.31617 6.37392C3.00037 5.20405 2.16047 3.60114 1.93561 1.87482H22.0632C21.8383 3.60114 20.9986 5.20405 19.6826 6.37373Z" fill="white"/>
</svg>
