<svg width="94" height="94" viewBox="0 0 94 94" fill="none" xmlns="http://www.w3.org/2000/svg">
<g filter="url(#filter0_d)">
<rect x="7" y="4" width="80" height="80" rx="40" fill="url(#paint0_linear)"/>
</g>
<path d="M42.3694 56.1398C40.9919 56.1398 39.871 57.2605 39.871 58.6384C39.871 60.0163 40.9919 61.1374 42.3694 61.1374C43.7473 61.1374 44.8679 60.0163 44.8679 58.6384C44.8679 57.2605 43.7473 56.1398 42.3694 56.1398ZM42.3694 59.895C41.6766 59.895 41.113 59.3314 41.113 58.6384C41.113 57.9458 41.6766 57.3819 42.3694 57.3819C43.0622 57.3819 43.6259 57.9458 43.6259 58.6384C43.6259 59.3314 43.0622 59.895 42.3694 59.895Z" fill="white"/>
<path d="M57.8716 56.1398C56.4937 56.1398 55.3732 57.2605 55.3732 58.6384C55.3732 60.0163 56.4941 61.1374 57.8716 61.1374C59.2492 61.1374 60.3701 60.0163 60.3701 58.6384C60.3701 57.2605 59.2492 56.1398 57.8716 56.1398ZM57.8716 59.895C57.1788 59.895 56.6152 59.3314 56.6152 58.6384C56.6152 57.9458 57.1788 57.3819 57.8716 57.3819C58.5644 57.3819 59.128 57.9458 59.128 58.6384C59.128 59.3314 58.5644 59.895 57.8716 59.895Z" fill="white"/>
<path d="M65.804 56.2224H64.6184V46.5412C64.6184 45.4096 63.6988 44.489 62.5686 44.489H56.9411L56.9433 40.916C56.9433 40.5727 56.6655 40.2944 56.3223 40.2944C56.3223 40.2944 56.3223 40.2944 56.322 40.2944C55.9794 40.2944 55.7013 40.5721 55.701 40.915L55.6991 44.489H50.9848C50.4288 44.489 49.9238 44.7115 49.554 45.0721C49.1846 44.7115 48.6802 44.489 48.1249 44.489H42.4971V33.4687C42.4971 33.0233 42.8604 32.6608 43.3071 32.6608H45.6335V34.5241C45.6335 35.2405 46.217 35.8233 46.9345 35.8233H51.0838C51.8016 35.8233 52.3851 35.2408 52.3851 34.5241V32.6608H54.8887C55.335 32.6608 55.6987 33.0233 55.6987 33.4687V38.0292C55.6987 38.3722 55.9769 38.6505 56.3197 38.6505C56.6626 38.6505 56.9408 38.3722 56.9408 38.0292V33.4687C56.9408 32.338 56.0201 31.4187 54.8887 31.4187H43.3071C42.1757 31.4187 41.255 32.338 41.255 33.4687V44.489H36.5411C36.2537 44.489 35.9797 44.5485 35.731 44.6558V26.0288C35.731 26.0237 35.731 26.0185 35.7307 26.0134C35.7012 24.834 34.7172 23.875 33.537 23.875H28.1831C26.7498 23.875 26 24.9794 26 26.0701C26 27.1611 26.7498 28.2655 28.1831 28.2655H31.1283C31.2433 28.2655 31.3407 28.3628 31.3407 28.4781L31.343 42.6464L31.3407 58.4165C31.3407 59.6275 32.3261 60.6129 33.537 60.6129H37.2525C38.0468 62.6651 40.0403 64.125 42.3695 64.125C44.6988 64.125 46.6922 62.6651 47.4866 60.6129H52.7542C53.5486 62.6651 55.542 64.125 57.8713 64.125C60.2002 64.125 62.1937 62.6651 62.988 60.6129H65.804C67.015 60.6129 68 59.6275 68 58.4165C68.0003 57.2067 67.015 56.2224 65.804 56.2224ZM46.8755 32.6608H51.1431V34.5241C51.1431 34.5539 51.1149 34.5808 51.0838 34.5808H46.9345C46.9037 34.5808 46.8755 34.5539 46.8755 34.5241V32.6608ZM54.5554 45.7311H58.8208V47.5948C58.8208 47.6268 58.7948 47.6537 58.764 47.6537H54.6121C54.5814 47.6537 54.5554 47.6265 54.5554 47.5948V45.7311ZM40.1117 45.7311H44.3771V47.5948C44.3771 47.6268 44.3511 47.6537 44.3203 47.6537H40.1684C40.138 47.6537 40.1117 47.6265 40.1117 47.5948V45.7311ZM36.9336 59.3704H33.537C33.0108 59.3704 32.5831 58.9426 32.5831 58.4165L32.5853 42.6464L32.5827 28.4781C32.5827 27.6757 31.9303 27.0231 31.1283 27.0231H28.1831C27.4888 27.0231 27.242 26.5097 27.242 26.0701C27.242 25.6304 27.4888 25.1171 28.1831 25.1171H33.537C34.0468 25.1171 34.4724 25.5292 34.489 26.0374V56.8436C34.489 57.1865 34.7668 57.4648 35.11 57.4648H37.0112C36.9285 57.843 36.8836 58.2356 36.8836 58.6384C36.8836 58.8869 36.9016 59.1309 36.9336 59.3704ZM42.3695 62.8825C40.0294 62.8825 38.1257 60.9785 38.1257 58.6384C38.1257 56.2982 40.0294 54.3942 42.3695 54.3942C44.7097 54.3942 46.6134 56.2982 46.6134 58.6384C46.6134 60.9785 44.7097 62.8825 42.3695 62.8825ZM47.2934 56.2224C46.3984 54.4054 44.528 53.1518 42.3695 53.1518C40.2111 53.1518 38.3407 54.4054 37.4457 56.2224H35.731V46.5412C35.731 46.0945 36.0944 45.7311 36.5411 45.7311H38.8697V47.5948C38.8697 48.3124 39.4523 48.8961 40.1684 48.8961H44.3203C45.0365 48.8961 45.6191 48.312 45.6191 47.5948V45.7311H48.1249C48.5703 45.7311 48.9324 46.0945 48.9324 46.5412V56.2224H47.2934ZM52.4357 59.3704H47.8054C47.8375 59.1309 47.8557 58.8869 47.8557 58.6384C47.8557 58.2356 47.8109 57.843 47.7279 57.4648H52.513C52.4303 57.843 52.3854 58.2356 52.3854 58.6384C52.3854 58.8869 52.4034 59.1309 52.4357 59.3704ZM57.8713 62.8825C55.5311 62.8825 53.6274 60.9785 53.6274 58.6384C53.6274 56.2982 55.5311 54.3942 57.8713 54.3942C60.2115 54.3942 62.1152 56.2982 62.1152 58.6384C62.1152 60.9785 60.2115 62.8825 57.8713 62.8825ZM62.7951 56.2224C61.9002 54.4054 60.0298 53.1518 57.8713 53.1518C55.7132 53.1518 53.8424 54.4054 52.9475 56.2224H50.1747V46.5412C50.1747 46.0945 50.5381 45.7311 50.9848 45.7311H53.3134V47.5948C53.3134 48.3124 53.896 48.8961 54.6121 48.8961H58.764C59.4802 48.8961 60.0628 48.312 60.0628 47.5948V45.7311H62.5686C63.014 45.7311 63.3764 46.0945 63.3764 46.5412V56.2224H62.7951ZM65.804 59.3704H63.3069C63.3392 59.1309 63.3572 58.8869 63.3572 58.6384C63.3572 58.2356 63.3123 57.843 63.2296 57.4648H65.804C66.3302 57.4648 66.7583 57.8916 66.7583 58.4165C66.7583 58.9426 66.3302 59.3704 65.804 59.3704Z" fill="white"/>
<defs>
<filter id="filter0_d" x="0" y="0" width="94" height="94" filterUnits="userSpaceOnUse" color-interpolation-filters="sRGB">
<feFlood flood-opacity="0" result="BackgroundImageFix"/>
<feColorMatrix in="SourceAlpha" type="matrix" values="0 0 0 0 0 0 0 0 0 0 0 0 0 0 0 0 0 0 127 0"/>
<feOffset dy="3"/>
<feGaussianBlur stdDeviation="3.5"/>
<feColorMatrix type="matrix" values="0 0 0 0 0 0 0 0 0 0 0 0 0 0 0 0 0 0 0.3 0"/>
<feBlend mode="normal" in2="BackgroundImageFix" result="effect1_dropShadow"/>
<feBlend mode="normal" in="SourceGraphic" in2="effect1_dropShadow" result="shape"/>
</filter>
<linearGradient id="paint0_linear" x1="47" y1="4" x2="47" y2="84" gradientUnits="userSpaceOnUse">
<stop stop-color="#1FA9B2"/>
<stop offset="1" stop-color="#1F69B2"/>
</linearGradient>
</defs>
</svg>
