<svg width="40" height="40" viewBox="0 0 40 40" fill="none" xmlns="http://www.w3.org/2000/svg">
<rect width="40" height="40" rx="6" fill="#0A66C2"/>
<path d="M13.7072 14.292H8.98694C8.45779 14.292 8.02734 14.7224 8.02734 15.2516V33.0406C8.02734 33.5695 8.45779 34 8.98694 34H13.7072C14.2361 34 14.6665 33.5695 14.6665 33.0406V15.2516C14.6665 14.7224 14.2361 14.292 13.7072 14.292ZM13.0236 32.357H9.67032V15.935H13.0236V32.357Z" fill="white"/>
<path d="M11.347 6C9.50134 6 8 7.50134 8 9.34683C8 11.1925 9.50134 12.6939 11.347 12.6939C13.1923 12.6939 14.6939 11.1925 14.6939 9.34683C14.6939 7.50134 13.1925 6 11.347 6ZM11.347 11.0509C10.4073 11.0509 9.64297 10.2866 9.64297 9.34683C9.64297 8.40732 10.4073 7.64297 11.347 7.64297C12.2866 7.64297 13.0509 8.40732 13.0509 9.34683C13.0509 10.2863 12.2866 11.0509 11.347 11.0509Z" fill="white"/>
<path d="M29.9322 16.3776C28.8038 15.4358 27.3694 14.932 25.8945 14.9594C24.9785 14.9763 24.0834 15.1971 23.2723 15.597V15.2087C23.2723 14.7026 22.8619 14.2922 22.3558 14.2922H17.5497C17.0437 14.2922 16.6333 14.7026 16.6333 15.2087V33.0836C16.6333 33.5899 17.0437 34 17.5497 34H22.4507C22.9044 34 23.2723 33.6322 23.2723 33.1786V22.5212C23.2723 21.6088 23.9862 20.8368 24.8979 20.8097C25.8456 20.7817 26.6253 21.5441 26.6253 22.4855V33.1957C26.6253 33.6399 26.9855 34 27.4296 34H32.1398C32.5839 34 32.9441 33.6399 32.9441 33.1957V22.8113C32.9441 20.3205 31.8463 17.9753 29.9322 16.3776ZM31.3011 32.3571H28.2685V22.4855C28.2685 20.6552 26.7793 19.166 24.9488 19.166C23.1185 19.166 21.6293 20.6552 21.6293 22.4855V32.3571H18.2763V15.935H21.6293V17.1289H21.6304C21.6302 17.3225 21.6974 17.5169 21.8359 17.6735C22.1364 18.0131 22.6558 18.0447 22.9954 17.744C23.8048 17.0275 24.8452 16.622 25.9248 16.6019C27.0056 16.5814 28.0544 16.9501 28.8795 17.6389C30.4186 18.9236 31.3011 20.8088 31.3011 22.8113V32.3571Z" fill="white"/>
</svg>
