<svg width="16" height="16" viewBox="0 0 16 16" fill="none" xmlns="http://www.w3.org/2000/svg">
<path d="M8 10.9735C7.55269 10.9735 7.17773 11.3495 7.17773 11.798C7.17773 12.2466 7.55269 12.6226 8 12.6226C8.43086 12.6226 8.82226 12.2466 8.80252 11.8178C8.82226 11.3462 8.4506 10.9735 8 10.9735Z" fill="#CF2626"/>
<path d="M15.6106 13.8953C16.127 13.0016 16.1303 11.9363 15.6172 11.0458L10.4666 2.10133C9.95678 1.20095 9.03585 0.666656 8.00309 0.666656C6.97033 0.666656 6.04939 1.20425 5.53959 2.09803L0.382367 11.0524C-0.130724 11.9528 -0.127435 13.0247 0.392234 13.9184C0.905326 14.8023 1.82297 15.3333 2.84915 15.3333H13.1373C14.1668 15.3333 15.091 14.7957 15.6106 13.8953ZM14.4924 13.2489C14.2062 13.7436 13.6997 14.0372 13.134 14.0372H2.84586C2.28673 14.0372 1.7835 13.7502 1.50393 13.2654C1.22107 12.774 1.21778 12.1869 1.50064 11.6922L6.65787 2.74116C6.93744 2.24975 7.43737 1.95951 8.00309 1.95951C8.56551 1.95951 9.06874 2.25304 9.34831 2.74446L14.5022 11.6955C14.7785 12.177 14.7752 12.7575 14.4924 13.2489Z" fill="#CF2626"/>
<path d="M7.79592 5.18527C7.40452 5.2974 7.16113 5.6536 7.16113 6.08565C7.18087 6.3462 7.19731 6.61005 7.21705 6.8706C7.27296 7.86333 7.32887 8.83627 7.38479 9.829C7.40452 10.1654 7.66436 10.4095 7.99984 10.4095C8.33532 10.4095 8.59845 10.1489 8.61489 9.80921C8.61489 9.60472 8.61489 9.41673 8.63463 9.20895C8.67081 8.57242 8.71027 7.93588 8.74645 7.29935C8.76619 6.88709 8.80237 6.47482 8.8221 6.06256C8.8221 5.91415 8.80237 5.78222 8.74645 5.6503C8.57871 5.28091 8.18732 5.09292 7.79592 5.18527Z" fill="#CF2626"/>
</svg>
