<svg width="16" height="16" viewBox="0 0 16 16" fill="none" xmlns="http://www.w3.org/2000/svg">
<path d="M14.646 5.5H10.854C10.1075 5.5 9.5 6.1075 9.5 6.854V14.646C9.5 15.3925 10.1075 16 10.854 16H14.646C15.3925 16 16 15.3925 16 14.646V6.854C16 6.1075 15.3925 5.5 14.646 5.5ZM15 14.646C15 14.8415 14.8415 15 14.646 15H10.854C10.6585 15 10.5 14.8415 10.5 14.646V6.854C10.5 6.6585 10.6585 6.5 10.854 6.5H14.646C14.8415 6.5 15 6.6585 15 6.854V14.646V14.646Z" fill="#F37721"/>
<path d="M15.5 12.5H10C9.7235 12.5 9.5 12.724 9.5 13C9.5 13.276 9.7235 13.5 10 13.5H15.5C15.7765 13.5 16 13.276 16 13C16 12.724 15.7765 12.5 15.5 12.5Z" fill="#F37721"/>
<path d="M13.105 13.645C12.92 13.46 12.5745 13.46 12.395 13.645C12.3045 13.74 12.25 13.87 12.25 14C12.25 14.13 12.3045 14.26 12.395 14.355C12.4895 14.445 12.62 14.5 12.75 14.5C12.88 14.5 13.01 14.445 13.105 14.355C13.195 14.26 13.25 14.13 13.25 14C13.25 13.87 13.195 13.74 13.105 13.645Z" fill="#F37721"/>
<path d="M14.482 0H1.5055C0.7035 0 0 0.6975 0 1.4925V10.608C0 11.3885 0.661 12 1.5055 12H10C10.2765 12 10.5 11.776 10.5 11.5C10.5 11.224 10.2765 11 10 11H1.5055C1.262 11 1 10.85 1 10.608V1.4925C1 1.244 1.2505 1 1.5055 1H14.482C14.739 1 15 1.2485 15 1.4925V6.5C15 6.776 15.2235 7 15.5 7C15.7765 7 16 6.776 16 6.5V1.4925C16 0.6975 15.2905 0 14.482 0Z" fill="#F37721"/>
<path d="M5.5 11C5.2235 11 5 11.224 5 11.5V13.5C5 13.776 5.2235 14 5.5 14C5.7765 14 6 13.776 6 13.5V11.5C6 11.224 5.7765 11 5.5 11Z" fill="#F37721"/>
<path d="M10 13H4C3.7235 13 3.5 13.224 3.5 13.5C3.5 13.776 3.7235 14 4 14H10C10.2765 14 10.5 13.776 10.5 13.5C10.5 13.224 10.2765 13 10 13Z" fill="#F37721"/>
<path d="M10 9H0.5C0.2235 9 0 9.224 0 9.5C0 9.776 0.2235 10 0.5 10H10C10.2765 10 10.5 9.776 10.5 9.5C10.5 9.224 10.2765 9 10 9Z" fill="#F37721"/>
<path d="M8 10.5C7.7235 10.5 7.5 10.724 7.5 11V11.5C7.5 11.776 7.7235 12 8 12C8.2765 12 8.5 11.776 8.5 11.5V11C8.5 10.724 8.2765 10.5 8 10.5Z" fill="#F37721"/>
</svg>
