<svg width="24" height="23" viewBox="0 0 24 23" fill="none" xmlns="http://www.w3.org/2000/svg">
<path d="M19.7397 18.6784C19.5486 16.4957 18.3064 16.1161 16.491 15.0722C16.2043 14.8824 15.9177 14.5977 15.8221 14.313C14.8666 12.6047 13.4334 11.371 12.2868 11.1812H12.1912H12.0957C12.0001 11.1812 12.0001 11.1812 11.9046 11.1812C11.809 11.1812 11.809 11.1812 11.7135 11.1812H11.6179C10.4713 11.371 8.94254 12.6047 7.98704 14.4079C7.79594 14.6926 7.60484 14.9773 7.31819 15.1671C5.50274 16.3059 4.06949 17.3498 4.06949 18.8682C4.06949 18.9631 4.06949 18.9631 4.06949 19.058C4.06949 20.6714 5.40719 22 7.03154 22C8.17814 22 11.1402 21.051 12.0001 21.051C12.8601 21.051 15.8221 22 16.9687 22C18.5931 22 19.9308 20.6714 19.9308 19.058C19.7397 18.9631 19.7397 18.7733 19.7397 18.6784Z" stroke="#676767" stroke-miterlimit="10"/>
<path d="M10.471 4.44323C10.8532 6.53106 10.0888 8.33419 8.75114 8.524C7.50899 8.7138 6.17129 7.10047 5.88464 5.01264C5.50244 2.9248 6.26684 1.12167 7.60454 0.931871C8.84669 0.742068 10.1844 2.35539 10.471 4.44323Z" stroke="#676767" stroke-miterlimit="10"/>
<path d="M5.69361 10.0424C6.07581 12.1302 5.40696 14.0283 4.16481 14.2181C2.92266 14.4079 1.58496 12.9843 1.10721 10.8965C0.725011 8.71378 1.39386 6.91065 2.63601 6.62594C3.87816 6.43614 5.21586 7.95456 5.69361 10.0424Z" stroke="#676767" stroke-miterlimit="10"/>
<path d="M13.5286 4.44374C13.1464 6.53158 13.9108 8.33471 15.2485 8.52451C16.4907 8.71431 17.8284 7.19589 18.2106 5.10805C18.5928 3.02022 17.8284 1.21709 16.4907 1.02729C15.153 0.742581 13.8153 2.35591 13.5286 4.44374Z" stroke="#676767" stroke-miterlimit="10"/>
<path d="M18.3064 10.0424C17.9242 12.1303 18.593 14.0283 19.8352 14.2181C21.0773 14.4079 22.415 12.9844 22.8927 10.8965C23.2749 8.80871 22.6061 6.91067 21.3639 6.72087C20.1218 6.43617 18.7841 7.95459 18.3064 10.0424Z" stroke="#676767" stroke-miterlimit="10"/>
</svg>
