<svg width="12" height="3" viewBox="0 0 12 3" fill="none" xmlns="http://www.w3.org/2000/svg">
<path d="M1.45312 0C1.80729 0 2.08073 0.101562 2.27344 0.304688C2.46615 0.502604 2.5625 0.752604 2.5625 1.05469C2.5625 1.35156 2.46615 1.59896 2.27344 1.79688C2.08073 1.98958 1.80729 2.08594 1.45312 2.08594C1.11458 2.08594 0.846354 1.98958 0.648438 1.79688C0.450521 1.60417 0.351562 1.35677 0.351562 1.05469C0.351562 0.752604 0.447917 0.502604 0.640625 0.304688C0.833333 0.101562 1.10417 0 1.45312 0ZM5.92188 0C6.27604 0 6.54948 0.101562 6.74219 0.304688C6.9349 0.502604 7.03125 0.752604 7.03125 1.05469C7.03125 1.35156 6.9349 1.59896 6.74219 1.79688C6.54948 1.98958 6.27604 2.08594 5.92188 2.08594C5.58333 2.08594 5.3151 1.98958 5.11719 1.79688C4.91927 1.60417 4.82031 1.35677 4.82031 1.05469C4.82031 0.752604 4.91667 0.502604 5.10938 0.304688C5.30208 0.101562 5.57292 0 5.92188 0ZM10.3906 0C10.7448 0 11.0182 0.101562 11.2109 0.304688C11.4036 0.502604 11.5 0.752604 11.5 1.05469C11.5 1.35156 11.4036 1.59896 11.2109 1.79688C11.0182 1.98958 10.7448 2.08594 10.3906 2.08594C10.0521 2.08594 9.78385 1.98958 9.58594 1.79688C9.38802 1.60417 9.28906 1.35677 9.28906 1.05469C9.28906 0.752604 9.38542 0.502604 9.57812 0.304688C9.77083 0.101562 10.0417 0 10.3906 0Z" fill="#969696"/>
</svg>
