<svg width="40" height="40" viewBox="0 0 40 40" fill="none" xmlns="http://www.w3.org/2000/svg">
<rect width="40" height="40" rx="6" fill="#FF0000"/>
<path d="M24.3098 18.3511L18.124 14.9664C17.7683 14.7718 17.3479 14.7791 16.9993 14.9857C16.6505 15.1924 16.4424 15.5577 16.4424 15.9632V22.6743C16.4424 23.0779 16.6492 23.4425 16.9957 23.6495C17.1766 23.7576 17.3772 23.8119 17.5782 23.8119C17.7623 23.8119 17.9469 23.7664 18.1167 23.6749L24.3028 20.3486C24.67 20.151 24.8992 19.7693 24.9009 19.3521C24.9024 18.9349 24.676 18.5514 24.3098 18.3511ZM18.0832 21.8301V16.8143L22.7064 19.344L18.0832 21.8301Z" fill="white"/>
<path d="M33.7939 14.0054L33.7926 13.9925C33.7689 13.7672 33.5328 11.7626 32.5583 10.7429C31.4318 9.54367 30.1548 9.39798 29.5407 9.32812C29.4898 9.32235 29.4432 9.31701 29.4016 9.31146L29.3527 9.30633C25.651 9.03717 20.0608 9.00043 20.0048 9.00021L19.9999 9L19.995 9.00021C19.939 9.00043 14.3488 9.03717 10.6138 9.30633L10.5644 9.31146C10.5247 9.3168 10.4809 9.32171 10.4333 9.32727C9.82617 9.39734 8.56282 9.54324 7.43319 10.7859C6.505 11.7946 6.23669 13.7563 6.20914 13.9767L6.20593 14.0054C6.1976 14.0991 6 16.3317 6 18.573V20.6682C6 22.9095 6.1976 25.1421 6.20593 25.2361L6.20743 25.2502C6.23114 25.4719 6.46698 27.4398 7.43703 28.4598C8.49617 29.619 9.83536 29.7723 10.5557 29.8548C10.6696 29.8678 10.7676 29.8789 10.8345 29.8907L10.8992 29.8997C13.0365 30.103 19.7376 30.2032 20.0217 30.2073L20.0302 30.2075L20.0388 30.2073C20.0947 30.2071 25.6848 30.1703 29.3864 29.9011L29.4353 29.896C29.4821 29.8898 29.5347 29.8843 29.5924 29.8783C30.196 29.8142 31.4526 29.6811 32.5666 28.4554C33.4948 27.4464 33.7633 25.4847 33.7907 25.2645L33.7939 25.2359C33.8022 25.1419 34 22.9095 34 20.6682V18.573C33.9998 16.3317 33.8022 14.0994 33.7939 14.0054ZM32.359 20.6682C32.359 22.7427 32.1778 24.8791 32.1607 25.0752C32.0911 25.6155 31.808 26.8566 31.3558 27.3482C30.6585 28.1153 29.9423 28.1913 29.4193 28.2466C29.3561 28.2533 29.2976 28.2597 29.2446 28.2663C25.6643 28.5252 20.2851 28.5649 20.0373 28.5664C19.7594 28.5624 13.1563 28.4613 11.0842 28.2689C10.978 28.2516 10.8633 28.2383 10.7424 28.2246C10.1291 28.1544 9.28956 28.0582 8.64399 27.3482L8.62883 27.3319C8.18449 26.869 7.90956 25.7084 7.83971 25.0816C7.82668 24.9334 7.64083 22.7717 7.64083 20.6682V18.573C7.64083 16.5009 7.82155 14.3668 7.83907 14.1666C7.92217 13.5303 8.21055 12.3643 8.64399 11.8931C9.36261 11.1027 10.1203 11.0151 10.6215 10.9572C10.6693 10.9516 10.714 10.9465 10.7552 10.9412C14.3876 10.681 19.8055 10.6423 19.9999 10.6408C20.1943 10.6421 25.6102 10.681 29.2104 10.9412C29.2546 10.9467 29.3029 10.9523 29.3548 10.9583C29.8703 11.017 30.6493 11.1059 31.3643 11.8685L31.371 11.8756C31.8153 12.3385 32.0902 13.5194 32.1601 14.1587C32.1725 14.2987 32.359 16.465 32.359 18.573V20.6682Z" fill="white"/>
</svg>
