<svg xmlns="http://www.w3.org/2000/svg" width="30" height="30" fill="none"  xmlns:v="https://vecta.io/nano"><path d="M16.999 27.998a11 11 0 0 0 10.999-10.999A11 11 0 0 0 16.999 6 11 11 0 0 0 6 16.999c.007 6.072 4.927 10.992 10.999 10.999zm-8.5-11.499H7.025c.261-5.12 4.353-9.213 9.474-9.474v1.474a.5.5 0 1 0 1 0V7.025c5.12.261 9.213 4.353 9.474 9.474h-1.974a.5.5 0 1 0 0 1h1.974c-.261 5.12-4.353 9.213-9.474 9.474v-1.474a.5.5 0 1 0-1 0v1.474c-5.12-.261-9.213-4.353-9.474-9.474h1.474a.5.5 0 1 0 0-1zm19.757-5.991l-.474-.759 1.235-1.234a.5.5 0 0 0 0-.707l-2.825-2.825a.5.5 0 0 0-.707 0l-1.236 1.232a12.92 12.92 0 0 0-6.75-2.203V1h3.5a.5.5 0 1 0 0-1H13a.5.5 0 1 0 0 1h3.5v3.017A12.98 12.98 0 0 0 5.751 10.5H3a.5.5 0 1 0 0 1h3c.013 0 .024-.007.037-.008.18.002.347-.093.436-.25a12 12 0 0 1 16.286-4.767A12 12 0 0 1 11.24 27.528a12 12 0 0 1-4.767-4.767c-.088-.157-.255-.254-.435-.253-.013 0-.024-.007-.038-.007H3a.5.5 0 1 0 0 1h2.75c3.588 6.215 11.535 8.344 17.749 4.757s8.344-11.535 4.757-17.749zm-3.19-3.691l.773-.773 2.118 2.118-.774.774a13.13 13.13 0 0 0-2.117-2.119zM5 16.999a.5.5 0 0 0-.5-.5h-4a.5.5 0 1 0 0 1h4a.5.5 0 0 0 .5-.5zm-3.5-2.5H5a.5.5 0 1 0 0-1H1.5a.5.5 0 1 0 0 1zm4 5.5a.5.5 0 0 0-.5-.5H1.5a.5.5 0 1 0 0 1H5a.5.5 0 0 0 .5-.5zm10.145.353a.5.5 0 0 0 .707 0l6.95-6.949a.5.5 0 0 0-.707-.707l-6.596 6.596-2.975-2.975a.5.5 0 0 0-.707.707l3.328 3.328z" fill="#767676"/><defs /></svg>