<svg width="92" height="92" viewBox="0 0 92 92" fill="none" xmlns="http://www.w3.org/2000/svg">
<circle opacity="0.1" cx="46" cy="46" r="46" fill="#1F69B2"/>
<path d="M64 39.9439C64 50.5109 51.8674 64.4673 47.4917 69.2523C46.6961 70.2492 45.3039 70.2492 44.5083 69.2523C40.1326 64.6667 28 50.5109 28 39.9439C28 29.9751 35.9558 22 45.9006 22C55.8453 22 64 29.9751 64 39.9439Z" stroke="#1F69B2" stroke-miterlimit="10" stroke-linecap="round" stroke-linejoin="round"/>
<path d="M54.4523 40.1433C54.4523 44.9283 50.6733 48.7165 45.8998 48.7165C41.1263 48.7165 37.5462 44.9283 37.5462 40.1433C37.5462 35.3582 41.3252 31.5701 46.0987 31.5701C50.8722 31.5701 54.4523 35.5576 54.4523 40.1433Z" stroke="#1F69B2" stroke-miterlimit="10" stroke-linecap="round" stroke-linejoin="round"/>
</svg>
