<svg width="24" height="22" viewBox="0 0 24 22" fill="none" xmlns="http://www.w3.org/2000/svg">
<path d="M6.74475 9.71666L7.70221 20.1667H4.82983C4.25536 20.1667 3.87238 19.7796 3.87238 19.1991L3.01066 13.2967C2.91492 12.813 2.72343 12.2324 2.2447 11.9421C1.47873 11.4583 1 10.4907 1 9.52314C1 7.87823 2.34044 6.5236 4.06387 6.62036C5.5958 6.71712 6.74475 8.07175 6.74475 9.71666Z" stroke="#FFFFFF" stroke-miterlimit="10"/>
<path d="M20.6278 6.62036C21.7767 6.81388 22.7342 7.68472 22.9257 8.84583C23.2129 10.1037 22.6384 11.2648 21.681 11.8454C21.298 12.1356 20.915 12.5227 20.8193 13.0065L20.0533 19.1023C20.0533 19.6829 19.6703 20.0699 19.0958 20.0699H16.2235L17.1809 9.42638C17.4682 7.78148 18.8086 6.33009 20.6278 6.62036Z" stroke="#FFFFFF" stroke-miterlimit="10"/>
<path d="M6.74483 20.1667H17.2769" stroke="#FFFFFF" stroke-miterlimit="10"/>
<path d="M16.3194 15.3287C13.447 14.3611 10.5746 14.3611 7.70222 15.3287" stroke="#FFFFFF" stroke-miterlimit="10"/>
<path d="M3.87239 6.62037V5.65278C3.87239 4.00787 5.11709 2.75 6.74477 2.75H17.2768C18.9045 2.75 20.1492 4.00787 20.1492 5.65278V6.62037" stroke="#FFFFFF" stroke-miterlimit="10"/>
</svg>
