<svg xmlns="http://www.w3.org/2000/svg" width="62" height="68" fill="none"  xmlns:v="https://vecta.io/nano"><path d="M43.962 41.543l2.038-12.939a2.41 2.41 0 0 0-2.007-2.76l-27.495-4.389a2.42 2.42 0 0 0-2.774 1.996l-.977 6.051v11.966l31.215.075z" fill="#146aa8"/><path d="M43.993 25.844l-7.809-1.246c-5.245 7.981-13.723 13.509-20.225 16.878l28.004.068 2.038-12.939a2.41 2.41 0 0 0-2.007-2.76z" fill="#126099"/><path d="M13.694 28.9H41.54c1.337 0 2.421 1.078 2.421 2.408v15.653c0 1.33-1.084 2.408-2.421 2.408H13.694c-1.337 0-2.421-1.078-2.421-2.408V31.309c0-1.33 1.084-2.408 2.421-2.408z" fill="#4398d1"/><path d="M41.54 28.9h-.484C35.342 38.99 24.664 45.911 18.145 49.37H41.54c1.337 0 2.421-1.078 2.421-2.408V31.309c0-1.33-1.084-2.408-2.421-2.408z" fill="#3e8cc7"/><path d="M20.353 31.911H14.3v4.816h6.054v-4.816z" fill="#fdb62f"/><path d="M16.116 33.717H14.3v1.204h1.816v-1.204zm4.237 0h-1.816v1.204h1.816v-1.204z" fill="#fd7b2f"/><path d="M37.908 46.36a3.02 3.02 0 0 0 3.027-3.01 3.02 3.02 0 1 0-6.053 0 3.02 3.02 0 0 0 3.027 3.01z" fill="#fdb62f"/><path d="M34.276 46.36a3.02 3.02 0 0 0 3.027-3.01 3.02 3.02 0 1 0-6.053 0 3.02 3.02 0 0 0 3.027 3.01z" fill="#de4c3c"/><path d="M17.326 40.941h-3.632v1.204h3.632v-1.204zm6.054 0h-3.632v1.204h3.632v-1.204zm6.053 0h-3.632v1.204h3.632v-1.204zm0 3.613H13.694v1.204h15.739v-1.204zm4.238-12.643H32.46v2.408h1.211v-2.408zm2.421 0h-1.211v2.408h1.211v-2.408zm2.422 0h-1.211v2.408h1.211v-2.408zm2.421 0h-1.211v2.408h1.211v-2.408z" fill="#87ced9"/><ellipse opacity=".2" cx="29.121" cy="35.397" rx="23.485" ry="23.288" fill="#1f69b2"/><ellipse opacity=".5" cx="54.485" cy="21.425" rx="3.758" ry="3.726" fill="#cf2626"/><ellipse cx="29.121" cy="2.795" rx="2.818" ry="2.795" fill="#1f69b2"/><ellipse cx="2.818" cy="53.096" rx="2.818" ry="2.795" fill="#ffcd34"/><g fill="#ddd"><ellipse cx="45.091" cy="65.206" rx="2.818" ry="2.795"/><ellipse rx="1.879" ry="1.863" transform="matrix(1 0 0 -1 15.9697 7.45206)"/><ellipse cx="59.182" cy="28.877" rx="2.818" ry="2.795"/></g><g fill="#f1f1f1"><ellipse cx="11.273" cy="15.836" rx="1.879" ry="1.863"/><ellipse cx="23.485" cy="10.247" rx="1.879" ry="1.863"/></g></svg>