<svg width="18" height="18" viewBox="0 0 18 18" fill="none" xmlns="http://www.w3.org/2000/svg">
<path d="M16.8125 1.5H1.18753C0.532759 1.5 0 2.03299 0 2.68805V14.562C0 15.2171 0.532759 15.75 1.18753 15.75H16.8125C17.4672 15.75 18 15.2171 18 14.562V2.68805C18 2.03299 17.4673 1.5 16.8125 1.5ZM1.18753 2.51833H16.8125C16.9044 2.51833 16.9821 2.59606 16.9821 2.68805V10.5953L14.2604 7.1008C14.0585 6.84154 13.7629 6.68614 13.4494 6.6746C13.136 6.66285 12.8297 6.79619 12.6092 7.03997L9.07787 10.9444C8.99284 11.0383 8.80419 11.0643 8.69691 10.9968L5.79337 9.16746C5.29583 8.85389 4.56764 8.8862 4.09975 9.24248L1.01788 11.589V2.68805C1.01788 2.59606 1.09558 2.51833 1.18753 2.51833ZM16.8125 14.7317H1.18753C1.09558 14.7317 1.01788 14.6539 1.01788 14.562V12.8687L4.71625 10.0528C4.84471 9.95504 5.11458 9.94309 5.25104 10.0291L8.15458 11.8584C8.6794 12.1891 9.41648 12.0877 9.83266 11.6276L13.364 7.7232C13.3851 7.69978 13.4003 7.69265 13.412 7.69218C13.4209 7.69252 13.4381 7.70175 13.4575 7.72667L16.9821 12.252V14.5619C16.9821 14.6539 16.9044 14.7317 16.8125 14.7317Z" fill="white"/>
<path d="M7.52148 8.39392C8.51555 8.39392 9.32422 7.58489 9.32422 6.59039C9.32422 5.59589 8.51548 4.78687 7.52148 4.78687C6.52742 4.78687 5.71875 5.59596 5.71875 6.59039C5.71875 7.58482 6.52742 8.39392 7.52148 8.39392ZM7.52148 5.80512C7.95429 5.80512 8.30634 6.15733 8.30634 6.59032C8.30634 7.02332 7.95429 7.37552 7.52148 7.37552C7.08868 7.37552 6.73663 7.02332 6.73663 6.59032C6.73663 6.1574 7.08868 5.80512 7.52148 5.80512Z" fill="white"/>
</svg>
