<svg width="12" height="12" viewBox="0 0 12 12" fill="none" xmlns="http://www.w3.org/2000/svg">
<path d="M7.32166 5.99961L11.8083 1.51278C11.9317 1.38927 11.9998 1.22449 12 1.04878C12 0.872976 11.9319 0.708 11.8083 0.584683L11.4151 0.19161C11.2915 0.0678049 11.1267 0 10.9508 0C10.7752 0 10.6104 0.0678049 10.4868 0.19161L6.0002 4.67815L1.51337 0.19161C1.38995 0.0678049 1.22507 0 1.04927 0C0.873659 0 0.70878 0.0678049 0.585366 0.19161L0.192 0.584683C-0.064 0.840683 -0.064 1.25707 0.192 1.51278L4.67873 5.99961L0.192 10.4862C0.0684878 10.61 0.000487805 10.7747 0.000487805 10.9504C0.000487805 11.1261 0.0684878 11.2909 0.192 11.4145L0.585268 11.8076C0.708683 11.9313 0.873658 11.9992 1.04917 11.9992C1.22498 11.9992 1.38985 11.9313 1.51327 11.8076L6.0001 7.32098L10.4867 11.8076C10.6103 11.9313 10.7751 11.9992 10.9507 11.9992H10.9509C11.1266 11.9992 11.2914 11.9313 11.415 11.8076L11.8082 11.4145C11.9316 11.291 11.9997 11.1261 11.9997 10.9504C11.9997 10.7747 11.9316 10.61 11.8082 10.4863L7.32166 5.99961Z" fill="white"/>
</svg>
