<svg width="12" height="22" viewBox="0 0 12 22" fill="none" xmlns="http://www.w3.org/2000/svg">
<path d="M7.3623 21.5H3.99934C3.43762 21.5 2.98068 21.0431 2.98068 20.4813V12.896H1.01866C0.45694 12.896 0 12.4389 0 11.8773V8.62702C0 8.0653 0.45694 7.60836 1.01866 7.60836H2.98068V5.98071C2.98068 4.36684 3.48745 2.99378 4.44603 2.01021C5.40894 1.02215 6.7546 0.5 8.33755 0.5L10.9023 0.504166C11.4631 0.505127 11.9192 0.962067 11.9192 1.52283V4.54068C11.9192 5.1024 11.4624 5.55934 10.9009 5.55934L9.17404 5.55998C8.64741 5.55998 8.51331 5.66557 8.48463 5.69793C8.43736 5.7516 8.38113 5.90333 8.38113 6.3223V7.6082H10.7711C10.951 7.6082 11.1253 7.65258 11.2751 7.73621C11.5983 7.91678 11.7992 8.2582 11.7992 8.62718L11.7979 11.8775C11.7979 12.4389 11.341 12.8959 10.7793 12.8959H8.38113V20.4813C8.38113 21.0431 7.92403 21.5 7.3623 21.5V21.5ZM4.21179 20.2689H7.14986V12.3449C7.14986 11.9698 7.45507 11.6647 7.82998 11.6647H10.5668L10.5679 8.83947H7.82982C7.45491 8.83947 7.14986 8.53442 7.14986 8.15935V6.3223C7.14986 5.84132 7.19872 5.29434 7.56178 4.88322C8.00045 4.38623 8.69179 4.32887 9.17372 4.32887L10.6881 4.32823V1.73495L8.33659 1.73111C5.79266 1.73111 4.21179 3.35956 4.21179 5.98071V8.15935C4.21179 8.53426 3.90674 8.83947 3.53183 8.83947H1.23111V11.6647H3.53183C3.90674 11.6647 4.21179 11.9698 4.21179 12.3449V20.2689ZM10.8999 1.73528H10.9001H10.8999Z" fill="#FFF"/>
</svg>
