<svg width="70" height="45" viewBox="0 0 70 45" fill="none" xmlns="http://www.w3.org/2000/svg">
<path d="M65.0999 18.7944L63.2871 11.5347C63.7827 11.4293 64.1546 10.9891 64.1546 10.4617V9.2912C64.1546 6.7498 62.0894 4.68229 59.5513 4.68229H51.2945V2.26791C51.2945 1.01733 50.2784 0 49.0294 0H6.9415C5.69243 0 4.67634 1.01733 4.67634 2.26791V22.1669C4.67634 22.7729 5.16702 23.2643 5.77241 23.2643C6.37767 23.2643 6.86849 22.773 6.86849 22.1669V2.26791C6.86849 2.22753 6.90117 2.19481 6.9415 2.19481H49.0292C49.0695 2.19481 49.1022 2.22753 49.1022 2.26791V22.1671C49.1022 22.7731 49.5929 23.2646 50.1983 23.2646C50.8036 23.2646 51.2944 22.7733 51.2944 22.1671V20.9231H64.2238C64.2249 20.9231 64.2257 20.9234 64.2266 20.9234C64.2277 20.9234 64.2287 20.9233 64.2296 20.9233C65.8206 20.9244 67.1716 21.9699 67.6356 23.4106H64.2274C63.6222 23.4106 63.1314 23.9019 63.1314 24.508V26.849C63.1314 28.745 64.6719 30.2874 66.5656 30.2874H67.8078V35.1158H64.9419C64.0005 32.3941 61.4164 30.4336 58.3819 30.4336C55.3474 30.4336 52.7631 32.3941 51.8218 35.1158H51.2941V26.8489C51.2941 26.2429 50.8034 25.7515 50.198 25.7515C49.5928 25.7515 49.102 26.2428 49.102 26.8489V35.1155H26.3618C25.4203 32.3938 22.8362 30.4334 19.8017 30.4334C16.7672 30.4334 14.183 32.3938 13.2416 35.1155H6.9415C6.90117 35.1155 6.86849 35.0828 6.86849 35.0424V32.6282H11.618C12.2232 32.6282 12.714 32.1369 12.714 31.5308C12.714 30.9246 12.2234 30.4334 11.618 30.4334H1.09608C0.490821 30.4334 0 30.9246 0 31.5308C0 32.1369 0.490685 32.6282 1.09608 32.6282H4.67647V35.0424C4.67647 36.293 5.69257 37.3103 6.94163 37.3103H12.8621C12.8618 37.3347 12.8602 37.3589 12.8602 37.3834C12.8602 41.2156 15.9743 44.3333 19.8017 44.3333C23.6291 44.3333 26.7432 41.2156 26.7432 37.3834C26.7432 37.3588 26.7416 37.3347 26.7413 37.3103H51.4423C51.442 37.3347 51.4404 37.3589 51.4404 37.3834C51.4404 41.2156 54.5544 44.3333 58.3819 44.3333C62.2093 44.3333 65.3234 41.2156 65.3234 37.3834C65.3234 37.3588 65.3217 37.3347 65.3215 37.3103H68.9039C69.5092 37.3103 70 36.819 70 36.2129V24.5077C70.0001 21.6178 67.8705 19.2167 65.0999 18.7944ZM51.2945 6.87696H59.5513C60.8808 6.87696 61.9626 7.96 61.9626 9.2912V9.3643H51.2945V6.87696ZM51.2945 18.7285V11.559H61.0337L62.8239 18.7285H51.2945ZM19.8017 42.1389C17.1828 42.1389 15.0522 40.0059 15.0522 37.3837C15.0522 34.7615 17.1828 32.6284 19.8017 32.6284C22.4206 32.6284 24.5512 34.7615 24.5512 37.3837C24.5512 40.0059 22.4206 42.1389 19.8017 42.1389ZM58.3822 42.1389C55.7633 42.1389 53.6327 40.0059 53.6327 37.3837C53.6327 34.7615 55.7633 32.6284 58.3822 32.6284C61.001 32.6284 63.1316 34.7615 63.1316 37.3837C63.1316 40.0059 61.001 42.1389 58.3822 42.1389ZM67.8081 28.0926H66.5659C65.8809 28.0926 65.3237 27.5347 65.3237 26.8489V25.6051H67.808V28.0926H67.8081Z" fill="#1F69B2"/>
<path d="M19.8013 35.1158C18.5522 35.1158 17.5361 36.1331 17.5361 37.3837C17.5361 38.6342 18.5522 39.6516 19.8013 39.6516C21.0504 39.6516 22.0665 38.6342 22.0665 37.3837C22.0665 36.1331 21.0504 35.1158 19.8013 35.1158Z" fill="#1F69B2"/>
<path d="M58.3824 35.1158C57.1333 35.1158 56.1172 36.1331 56.1172 37.3837C56.1172 38.6342 57.1333 39.6516 58.3824 39.6516C59.6314 39.6516 60.6475 38.6342 60.6475 37.3837C60.6475 36.1331 59.6314 35.1158 58.3824 35.1158Z" fill="#1F69B2"/>
<path d="M45.5221 30.4338H29.1547C28.5494 30.4338 28.0586 30.9251 28.0586 31.5312C28.0586 32.1373 28.5493 32.6286 29.1547 32.6286H45.5221C46.1274 32.6286 46.6182 32.1373 46.6182 31.5312C46.6182 30.9251 46.1275 30.4338 45.5221 30.4338Z" fill="#1F69B2"/>
<path d="M17.4633 25.7516H3.43397C2.82871 25.7516 2.33789 26.2429 2.33789 26.849C2.33789 27.4552 2.82858 27.9464 3.43397 27.9464H17.4633C18.0685 27.9464 18.5593 27.4552 18.5593 26.849C18.5593 26.2429 18.0685 25.7516 17.4633 25.7516Z" fill="#1F69B2"/>
<path d="M38.1125 10.8561C37.6846 10.4276 36.9905 10.4276 36.5625 10.8562L26.8156 20.6149L21.7451 15.5382C21.317 15.1096 20.623 15.1096 20.1951 15.5382C19.767 15.9668 19.767 16.6615 20.1951 17.0901L26.0406 22.9427C26.2546 23.1571 26.5351 23.2642 26.8156 23.2642C27.096 23.2642 27.3766 23.1571 27.5905 22.9427L38.1124 12.4081C38.5404 11.9794 38.5404 11.2847 38.1125 10.8561Z" fill="#1F69B2"/>
</svg>
