<?xml version="1.0" encoding="utf-8"?>
<!-- Generator: Adobe Illustrator 16.0.0, SVG Export Plug-In . SVG Version: 6.00 Build 0)  -->
<!DOCTYPE svg PUBLIC "-//W3C//DTD SVG 1.1//EN" "http://www.w3.org/Graphics/SVG/1.1/DTD/svg11.dtd">
<svg version="1.1" id="Layer_1" xmlns="http://www.w3.org/2000/svg" xmlns:xlink="http://www.w3.org/1999/xlink" x="0px" y="0px"
	 width="30px" height="30px" viewBox="0 0 30 30" enable-background="new 0 0 30 30" xml:space="preserve">
<path fill="#4468B1" d="M4.5,0h21C27.985,0,30,2.015,30,4.5v21c0,2.485-2.015,4.5-4.5,4.5h-21C2.015,30,0,27.985,0,25.5v-21
	C0,2.015,2.015,0,4.5,0z"/>
<path fill="#FFFFFF" d="M16.402,25.5H13.04c-0.562,0-1.019-0.457-1.019-1.019v-7.586H10.06c-0.563,0-1.019-0.457-1.019-1.018v-3.251
	c0-0.562,0.456-1.019,1.019-1.019h1.962V9.98c0-1.613,0.507-2.986,1.466-3.971c0.962-0.987,2.308-1.51,3.891-1.51l2.565,0.004
	c0.561,0.001,1.016,0.459,1.016,1.02v3.018c0,0.562-0.456,1.019-1.017,1.019l-1.728,0.001c-0.527,0-0.661,0.104-0.69,0.137
	c-0.046,0.054-0.103,0.206-0.103,0.626v1.284h2.39c0.18,0,0.354,0.045,0.503,0.129c0.324,0.181,0.525,0.522,0.525,0.891
	l-0.002,3.251c0,0.561-0.456,1.018-1.018,1.018h-2.398v7.586C17.422,25.043,16.965,25.5,16.402,25.5z M13.253,24.269h2.938v-7.924
	c0-0.375,0.305-0.68,0.68-0.68h2.736l0.002-2.826H16.87c-0.375,0-0.68-0.305-0.68-0.68v-1.836c0-0.482,0.048-1.029,0.412-1.44
	c0.439-0.497,1.129-0.554,1.611-0.554h1.515V5.735l-2.352-0.004c-2.543,0-4.124,1.628-4.124,4.249v2.179
	c0,0.375-0.306,0.68-0.681,0.68h-2.301v2.826h2.301c0.375,0,0.681,0.305,0.681,0.68V24.269z M19.94,5.735L19.94,5.735L19.94,5.735z"
	/>
</svg>
