<svg width="28" height="30" viewBox="0 0 28 30" fill="none" xmlns="http://www.w3.org/2000/svg">
<path d="M23.2308 29H4.76923C4.07692 29 3.5 28.4167 3.5 27.7167V14.0667C3.5 13.3667 4.07692 12.7833 4.76923 12.7833H23.2308C23.9231 12.7833 24.5 13.3667 24.5 14.0667V27.7167C24.3846 28.4167 23.9231 29 23.2308 29Z" stroke="white" stroke-miterlimit="10" stroke-linecap="round" stroke-linejoin="round"/>
<path d="M14.0002 1C9.61556 1 6.03864 4.61667 6.03864 9.05V12.7833H22.0771V9.05C21.9617 4.61667 18.3848 1 14.0002 1Z" stroke="white" stroke-miterlimit="10" stroke-linecap="round" stroke-linejoin="round"/>
<path d="M16.4231 19.0834C16.4231 17.6834 15.2692 16.6334 14 16.6334C12.6154 16.6334 11.5769 17.8 11.5769 19.0834C11.5769 20.0167 12.0384 20.8334 12.8461 21.1834V25.2667H15.2692V21.1834C15.9615 20.7167 16.4231 20.0167 16.4231 19.0834Z" stroke="white" stroke-miterlimit="10" stroke-linecap="round" stroke-linejoin="round"/>
</svg>
