<svg width="26" height="24" viewBox="0 0 26 24" fill="none" xmlns="http://www.w3.org/2000/svg">
<path d="M10.1381 3C5.11716 3 1 7.04513 1 11.9782C1 14.2474 1.90377 16.3193 3.30962 17.8979C3.20921 20.1672 1.50209 21.9431 1.50209 21.9431C4.31381 22.3377 6.52301 20.5618 6.92469 20.2658C7.92887 20.6605 9.03347 20.8578 10.1381 20.8578C15.159 20.8578 19.2762 16.8127 19.2762 11.8796C19.1757 7.04513 15.159 3 10.1381 3Z" stroke="white" stroke-miterlimit="10" stroke-linecap="round" stroke-linejoin="round"/>
<path d="M6.42475 11.7809C6.42475 12.2858 6.05446 12.6622 5.5189 12.6622C4.99436 12.6622 4.62835 12.3011 4.61351 11.8119C4.69972 11.2421 5.12196 10.8997 5.5189 10.8997C6.05446 10.8997 6.42475 11.2761 6.42475 11.7809Z" fill="#767676" stroke="white"/>
<path d="M10.9436 11.7809C10.9436 12.2858 10.5733 12.6622 10.0378 12.6622C9.51324 12.6622 9.14724 12.3012 9.13237 11.812C9.21568 11.2633 9.6228 10.8997 10.1382 10.8997C10.5492 10.8997 10.9436 11.2518 10.9436 11.7809Z" fill="#767676" stroke="white"/>
<path d="M15.4625 11.7809C15.4625 12.2858 15.0922 12.6622 14.5566 12.6622C14.0211 12.6622 13.6508 12.2858 13.6508 11.7809C13.6508 11.2761 14.0211 10.8997 14.5566 10.8997C15.0922 10.8997 15.4625 11.2761 15.4625 11.7809Z" fill="#767676" stroke="white"/>
<path d="M17.0669 3.78927C17.3681 3.69061 17.7698 3.69061 18.0711 3.69061C21.887 3.69061 24.9999 6.74913 24.9999 10.4983C24.9999 12.2742 24.297 13.8528 23.2928 15.0367C23.3933 16.8126 24.6987 18.1939 24.6987 18.1939C22.4895 18.4899 20.8828 17.1086 20.5815 16.9113C20.1799 17.1086 19.7782 17.2073 19.2761 17.3059" stroke="white" stroke-miterlimit="10" stroke-linecap="round" stroke-linejoin="round"/>
</svg>
