<svg xmlns="http://www.w3.org/2000/svg" width="24" height="22" fill="none"  xmlns:v="https://vecta.io/nano"><g stroke="#F37721" stroke-miterlimit="10" stroke-linejoin="round"><path d="M17.592 5.453l-9.808 9.975" stroke-linecap="round"/><path d="M10.534 7.597c0 1.119-.825 1.958-1.925 1.958s-1.925-.839-1.925-1.958.825-1.958 1.925-1.958 1.925.932 1.925 1.958z"/><path d="M1 14.403c1.558 0 2.842-1.305 2.842-2.89S2.558 8.623 1 8.623m22 5.78c-1.558 0-2.842-1.305-2.842-2.89s1.283-2.89 2.842-2.89" stroke-linecap="round"/><path d="M18.233 14.403c0 1.119-.825 1.958-1.925 1.958s-1.925-.839-1.925-1.958.825-1.958 1.925-1.958c1.008 0 1.925.932 1.925 1.958z"/><path d="M1 8.623V3.682c0-.559.458-.932.917-.932h20.075c.55 0 .917.466.917.932V8.53M23 14.403v3.915c0 .559-.458.932-.917.932H1.917c-.55 0-.917-.466-.917-.932v-3.915" stroke-linecap="round"/></g><defs /></svg>