<?xml version="1.0" encoding="utf-8"?>
<!-- Generator: Adobe Illustrator 16.0.0, SVG Export Plug-In . SVG Version: 6.00 Build 0)  -->
<!DOCTYPE svg PUBLIC "-//W3C//DTD SVG 1.1//EN" "http://www.w3.org/Graphics/SVG/1.1/DTD/svg11.dtd">
<svg version="1.1" id="Layer_1" xmlns="http://www.w3.org/2000/svg" xmlns:xlink="http://www.w3.org/1999/xlink" x="0px" y="0px"
	 width="30px" height="30px" viewBox="0 0 30 30" enable-background="new 0 0 30 30" xml:space="preserve">
<path fill="#FFFFFF" stroke="#DEDEDD" d="M4.59,0.5h20.82c2.259,0,4.09,1.831,4.09,4.09v20.82c0,2.259-1.831,4.09-4.09,4.09H4.59
	c-2.259,0-4.09-1.831-4.09-4.09V4.59C0.5,2.331,2.331,0.5,4.59,0.5z"/>
<path fill="#4468B1" d="M16.391,25.41h-3.334c-0.557,0-1.01-0.453-1.01-1.01V16.88h-1.945c-0.557,0-1.01-0.453-1.01-1.009v-3.224
	c0-0.557,0.453-1.009,1.01-1.009h1.945v-1.614c0-1.6,0.502-2.961,1.453-3.937c0.955-0.979,2.288-1.497,3.858-1.497L19.9,4.593
	c0.556,0.001,1.008,0.454,1.008,1.01v2.992c0,0.557-0.453,1.01-1.009,1.01h-1.713c-0.522,0-0.654,0.105-0.684,0.137
	c-0.047,0.053-0.103,0.204-0.103,0.62v1.274h2.37c0.178,0,0.351,0.044,0.499,0.127c0.321,0.179,0.521,0.517,0.521,0.883
	l-0.002,3.223c0,0.556-0.453,1.009-1.011,1.009H17.4V24.4C17.4,24.957,16.947,25.41,16.391,25.41z M13.267,24.189h2.913v-7.856
	c0-0.372,0.303-0.674,0.675-0.674h2.713l0.002-2.801h-2.715c-0.372,0-0.675-0.303-0.675-0.675v-1.821
	c0-0.477,0.048-1.02,0.408-1.427c0.437-0.493,1.12-0.55,1.598-0.55h1.502V5.814L17.356,5.81c-2.521,0-4.09,1.614-4.09,4.213v2.16
	c0,0.372-0.302,0.675-0.674,0.675h-2.281v2.801h2.281c0.372,0,0.674,0.302,0.674,0.674V24.189z M19.897,5.814L19.897,5.814
	L19.897,5.814z"/>
</svg>
