<svg width="7" height="10" viewBox="0 0 7 10" fill="none" xmlns="http://www.w3.org/2000/svg">
<path d="M6.33709 4.6098L1.79221 0.159755C1.6871 0.0567475 1.54677 0 1.39715 0C1.24753 0 1.10721 0.0567475 1.00209 0.159755L0.667391 0.487394C0.4496 0.700889 0.4496 1.04788 0.667391 1.26105L4.48384 4.99793L0.663156 8.73895C0.558039 8.84196 0.5 8.97928 0.5 9.1257C0.5 9.27228 0.558039 9.4096 0.663156 9.51269L0.997855 9.84025C1.10306 9.94325 1.2433 10 1.39292 10C1.54254 10 1.68286 9.94325 1.78798 9.84025L6.33709 5.38614C6.44246 5.2828 6.50033 5.14484 6.5 4.99817C6.50033 4.85094 6.44246 4.71305 6.33709 4.6098Z" fill="#F37721"/>
</svg>
