<svg width="20" height="20" viewBox="0 0 20 20" fill="none" xmlns="http://www.w3.org/2000/svg">
<path d="M9.99997 0C15.5231 0 20 4.4775 20 10C20 15.5226 15.5231 20 9.99997 20C4.47681 20 0 15.5225 0 10C0 4.47757 4.47688 0 9.99997 0Z" fill="#0E76A8"/>
<path d="M5.63502 13.74H7.50754V7.4987H5.63502V13.74ZM12.9301 7.28252C12.0213 7.28252 11.2082 7.61438 10.6313 8.34692V7.47818H8.75195V13.74H10.6313V10.3538C10.6313 9.63815 11.287 8.94001 12.1082 8.94001C12.9294 8.94001 13.132 9.63815 13.132 10.3363V13.7394H15.0045V10.1969C15.0044 7.73624 13.8394 7.28252 12.9301 7.28252ZM6.56253 6.87499C7.08004 6.87499 7.50006 6.45497 7.50006 5.93746C7.50006 5.41995 7.08004 5 6.56253 5C6.04502 5 5.625 5.42002 5.625 5.93753C5.625 6.45504 6.04502 6.87499 6.56253 6.87499Z" fill="white"/>
</svg>
