<svg width="18" height="16" viewBox="0 0 18 16" fill="none" xmlns="http://www.w3.org/2000/svg">
<path d="M5.86719 2.74805H17.0005" stroke="#363636" stroke-miterlimit="10" stroke-linecap="round" stroke-linejoin="round"/>
<path d="M3.8 2.74815C3.8 3.55666 3.2 4.16304 2.4 4.16304C1.6 4.16304 1 3.55666 1 2.74815C1 1.93963 1.6 1.33325 2.4 1.33325C3.13333 1.33325 3.8 1.93963 3.8 2.74815Z" stroke="#363636" stroke-miterlimit="10" stroke-linecap="round" stroke-linejoin="round"/>
<path d="M5.86719 7.6665H17.0005" stroke="#363636" stroke-miterlimit="10" stroke-linecap="round" stroke-linejoin="round"/>
<path d="M3.8 7.6666C3.8 8.40774 3.13333 9.0815 2.4 9.0815C1.6 9.0815 1 8.40774 1 7.6666C1 6.92547 1.6 6.25171 2.4 6.25171C3.13333 6.25171 3.8 6.85809 3.8 7.6666Z" stroke="#363636" stroke-miterlimit="10" stroke-linecap="round" stroke-linejoin="round"/>
<path d="M5.86719 12.585H17.0005" stroke="#363636" stroke-miterlimit="10" stroke-linecap="round" stroke-linejoin="round"/>
<path d="M3.8 12.5851C3.8 13.3936 3.2 14 2.4 14C1.6 14 1 13.3936 1 12.5851C1 11.7765 1.6 11.1702 2.4 11.1702C3.13333 11.1702 3.8 11.7765 3.8 12.5851Z" stroke="#363636" stroke-miterlimit="10" stroke-linecap="round" stroke-linejoin="round"/>
</svg>
