<svg width="12" height="20" viewBox="0 0 12 20" fill="none" xmlns="http://www.w3.org/2000/svg">
<path d="M11.6742 9.2196L2.58443 0.31951C2.37419 0.113495 2.09355 0 1.7943 0C1.49506 0 1.21441 0.113495 1.00418 0.31951L0.334782 0.974789C-0.1008 1.40178 -0.1008 2.09576 0.334782 2.52209L7.96767 9.99585L0.326313 17.4779C0.116078 17.6839 0 17.9586 0 18.2514C0 18.5446 0.116078 18.8192 0.326313 19.0254L0.99571 19.6805C1.20611 19.8865 1.48659 20 1.78583 20C2.08508 20 2.36572 19.8865 2.57596 19.6805L11.6742 10.7723C11.8849 10.5656 12.0007 10.2897 12 9.99634C12.0007 9.70187 11.8849 9.4261 11.6742 9.2196Z" fill="#969696"/>
</svg>
