<svg width="24" height="24" viewBox="0 0 24 24" fill="none" xmlns="http://www.w3.org/2000/svg">
<path d="M16.0385 2.96563C15.7539 1.27504 14.0175 0 11.9997 0C10.702 0 9.46962 0.53068 8.70337 1.42007C8.54685 1.60145 8.59368 1.85589 8.80771 1.98853C9.02103 2.12069 9.32196 2.08149 9.4782 1.89986C10.0647 1.21974 11.0072 0.813598 11.9996 0.813598C13.5427 0.813598 14.8704 1.7882 15.088 3.0804C15.1224 3.28335 15.3278 3.42981 15.5628 3.42981C15.5851 3.42981 15.6082 3.42838 15.6311 3.42576C15.8935 3.39394 16.0759 3.18789 16.0385 2.96563Z" fill="#F37721"/>
<path d="M22.9712 7.51938L21.5312 5.48544C21.4446 5.36281 21.2883 5.28797 21.1196 5.28797H19.7397C19.4747 5.28797 19.2597 5.47019 19.2597 5.69471C19.2597 5.91923 19.4747 6.10145 19.7397 6.10145H20.8479L21.7119 7.32179H2.28758L3.15156 6.10145H3.65991C3.92484 6.10145 4.13986 5.91923 4.13986 5.69471C4.13986 5.47019 3.92484 5.28797 3.65991 5.28797H2.87988C2.71113 5.28797 2.5549 5.36281 2.46828 5.48544L1.0283 7.51938C0.93929 7.64522 0.937181 7.8017 1.02226 7.92922C1.10733 8.05673 1.2668 8.13562 1.43991 8.13562H22.5596C22.7327 8.13562 22.892 8.05673 22.9772 7.92922C23.0624 7.8017 23.0602 7.64499 22.9712 7.51938Z" fill="#F37721"/>
<path d="M20.5785 3.7686C20.5113 3.67671 20.404 3.61153 20.28 3.58698L13.7367 2.29001C13.6128 2.26534 13.4823 2.28369 13.374 2.34042C13.266 2.39739 13.189 2.48832 13.16 2.59343L12.6666 4.38103C12.6061 4.59971 12.7664 4.81852 13.0246 4.86952C13.2826 4.92077 13.5411 4.78491 13.6013 4.56611L13.9855 3.17475L19.5939 4.28652L18.7126 7.47978C18.6522 7.69846 18.8125 7.91727 19.0707 7.96827C19.1076 7.97554 19.1443 7.979 19.1806 7.979C19.3986 7.979 19.5959 7.85243 19.6472 7.66497L20.6379 4.07571C20.6671 3.97071 20.6458 3.86012 20.5785 3.7686Z" fill="#F37721"/>
<path d="M12.2536 4.73027L11.8163 1.59541C11.8014 1.48827 11.7369 1.39043 11.6367 1.32369C11.5366 1.25695 11.4102 1.22645 11.2832 1.23908L3.25508 2.04326C2.99198 2.06972 2.80382 2.27184 2.8349 2.49505L3.56403 7.72355C3.593 7.93055 3.80013 8.08274 4.04017 8.08274C4.05888 8.08274 4.07814 8.08167 4.09727 8.07988C4.36023 8.05342 4.54838 7.8513 4.51745 7.62809L3.84457 2.80323L10.9194 2.09463L11.3002 4.82549C11.3314 5.04858 11.5688 5.20708 11.8333 5.18182C12.0964 5.1556 12.2846 4.95336 12.2536 4.73027Z" fill="#F37721"/>
<path d="M16.0497 7.57421L15.097 4.21661C15.0671 4.11186 14.9894 4.02117 14.881 3.9648C14.7725 3.90891 14.6425 3.89139 14.518 3.91642L6.78561 5.49237C6.52785 5.5448 6.36923 5.76456 6.4311 5.983L6.90725 7.66121C6.96912 7.87989 7.22843 8.01444 7.48605 7.96164C7.74381 7.90921 7.90243 7.68945 7.84056 7.471L7.47649 6.18822L14.2756 4.80271L15.1161 7.76465C15.1688 7.95115 15.3657 8.07629 15.5824 8.07629C15.6197 8.07629 15.6573 8.07259 15.6952 8.06485C15.9529 8.01229 16.1115 7.79265 16.0497 7.57421Z" fill="#F37721"/>
<path d="M23.0394 7.70803C23.0261 7.49185 22.8155 7.32214 22.5598 7.32214H1.44018C1.18453 7.32214 0.97388 7.49173 0.960662 7.70803L0.000632251 23.5724C-0.00611762 23.6837 0.0414129 23.7926 0.131974 23.8734C0.222675 23.9541 0.348391 24 0.480014 24H23.5196C23.6511 24 23.7769 23.9542 23.8681 23.8734C23.9585 23.7926 24.006 23.6838 23.9994 23.5724L23.0394 7.70803ZM0.98513 23.1864L1.89594 8.13562H22.1035L23.0143 23.1864H0.98513Z" fill="#F37721"/>
<path d="M15.5996 8.94913C14.8055 8.94913 14.1597 9.49649 14.1597 10.1695C14.1597 10.8424 14.8055 11.3898 15.5996 11.3898C16.3937 11.3898 17.0396 10.8424 17.0396 10.1695C17.0396 9.49649 16.3937 8.94913 15.5996 8.94913ZM15.5996 10.5763C15.3348 10.5763 15.1197 10.3939 15.1197 10.1696C15.1197 9.9453 15.335 9.76284 15.5996 9.76284C15.8643 9.76284 16.0796 9.9453 16.0796 10.1696C16.0796 10.3939 15.8643 10.5763 15.5996 10.5763Z" fill="#F37721"/>
<path d="M8.39994 8.94913C7.60584 8.94913 6.95996 9.49649 6.95996 10.1695C6.95996 10.8424 7.60584 11.3898 8.39994 11.3898C9.19403 11.3898 9.83991 10.8424 9.83991 10.1695C9.83991 9.49649 9.19403 8.94913 8.39994 8.94913ZM8.39994 10.5763C8.13528 10.5763 7.91999 10.3939 7.91999 10.1696C7.91999 9.9453 8.13528 9.76284 8.39994 9.76284C8.66459 9.76284 8.87988 9.9453 8.87988 10.1696C8.87988 10.3939 8.66459 10.5763 8.39994 10.5763Z" fill="#F37721"/>
<path d="M15.5997 10.1694H15.5628C15.2978 10.1694 15.0828 10.3517 15.0828 10.5762C15.0828 10.6317 15.0957 10.6847 15.1198 10.733V12.8134C15.1198 14.2713 13.7202 15.4575 11.9998 15.4575C10.2794 15.4575 8.87981 14.2714 8.87981 12.8134V10.5763C8.87981 10.3518 8.6648 10.1696 8.39987 10.1696C8.13493 10.1696 7.91992 10.3518 7.91992 10.5763V12.8135C7.91992 14.7201 9.75012 16.2711 11.9998 16.2711C14.2495 16.2711 16.0797 14.7201 16.0797 12.8135V10.5763C16.0797 10.3518 15.8647 10.1694 15.5997 10.1694Z" fill="#F37721"/>
</svg>
