<svg width="50" height="52" viewBox="0 0 50 52" fill="none" xmlns="http://www.w3.org/2000/svg">
<path d="M46.8598 10.7917C46.8598 16.2083 42.4214 20.5833 36.9262 20.5833C31.4311 20.5833 26.9927 16.2083 26.9927 10.7917C26.9927 5.375 31.4311 1 36.9262 1C42.4214 1 46.8598 5.375 46.8598 10.7917Z" stroke="white" stroke-miterlimit="10" stroke-linecap="round" stroke-linejoin="round"/>
<path d="M24.0339 26C24.0339 31.4167 19.5955 35.7917 14.1003 35.7917C8.60515 35.7917 4.16675 31.4167 4.16675 26C4.16675 20.5833 8.60515 16.2083 14.1003 16.2083C19.5955 16.2083 24.0339 20.5833 24.0339 26Z" stroke="white" stroke-miterlimit="10" stroke-linecap="round" stroke-linejoin="round"/>
<path d="M47.9162 41.2083C47.9162 46.625 43.4778 51 37.9826 51C32.4875 51 28.0491 46.625 28.0491 41.2083C28.0491 35.7916 32.4875 31.4166 37.9826 31.4166C43.4778 31.625 47.9162 35.9999 47.9162 41.2083Z" stroke="white" stroke-miterlimit="10" stroke-linecap="round" stroke-linejoin="round"/>
<path d="M39.2514 7.45838C39.2514 11.0001 34.3903 11.0001 34.179 7.45838C34.3903 4.12505 39.2514 4.12505 39.2514 7.45838Z" stroke="white" stroke-miterlimit="10" stroke-linecap="round" stroke-linejoin="round"/>
<path d="M32.488 15.375C32.488 14.125 33.5448 13.0834 35.0243 13.0834C36.9264 13.0834 41.1535 12.4584 41.1535 15.375" stroke="white" stroke-miterlimit="10" stroke-linecap="round" stroke-linejoin="round"/>
<path d="M40.0966 37.6667C40.0966 41.2084 35.2355 41.2084 35.0242 37.6667C35.2355 34.125 40.0966 34.125 40.0966 37.6667Z" stroke="white" stroke-miterlimit="10" stroke-linecap="round" stroke-linejoin="round"/>
<path d="M33.3333 46C33.3333 44.75 34.39 43.7084 35.8695 43.7084C37.7717 43.7084 41.9987 43.0834 41.9987 46" stroke="white" stroke-miterlimit="10" stroke-linecap="round" stroke-linejoin="round"/>
<path d="M16.8481 22.875C16.8481 26.4166 11.987 26.4166 11.7756 22.875C11.987 19.5416 16.8481 19.5416 16.8481 22.875Z" stroke="white" stroke-miterlimit="10" stroke-linecap="round" stroke-linejoin="round"/>
<path d="M10.0842 30.5833C10.0842 29.3333 11.141 28.2917 12.6205 28.2917C14.5226 28.2917 18.7497 27.6667 18.7497 30.5833" stroke="white" stroke-miterlimit="10" stroke-linecap="round" stroke-linejoin="round"/>
<path d="M22.7654 19.9584L28.8946 16" stroke="white" stroke-miterlimit="10" stroke-linecap="round" stroke-linejoin="round"/>
<path d="M22.5547 32.25L28.6839 36.8333" stroke="white" stroke-miterlimit="10" stroke-linecap="round" stroke-linejoin="round"/>
</svg>
