<svg width="92" height="92" viewBox="0 0 92 92" fill="none" xmlns="http://www.w3.org/2000/svg">
<circle opacity="0.1" cx="46" cy="46" r="46" fill="#1F69B2"/>
<path d="M44.232 47.5317C44.5146 47.8711 45.0095 47.9171 45.3469 47.6355L49.3768 44.2692C49.7199 43.9828 49.772 43.4646 49.4925 43.1123C49.2135 42.7601 48.7093 42.7071 48.3656 42.9935L44.9422 45.8528L43.7199 44.3827C43.432 44.0374 42.9267 43.9967 42.5904 44.2917C42.2541 44.5872 42.2144 45.1065 42.5023 45.4513L44.232 47.5317Z" fill="#1F69B2"/>
<path d="M45.9917 52.989C50.1186 52.9842 53.4627 49.551 53.4674 45.3142C53.4753 43.3286 52.7254 41.4185 51.3784 39.9934V34.6757C51.3784 31.6628 48.999 29.22 46.0642 29.22C43.1289 29.22 40.7494 31.6628 40.7494 34.6757V39.8494C38.5859 42.0336 37.9236 45.3437 39.0734 48.2266C40.2238 51.1089 42.9578 52.9912 45.9917 52.989ZM42.3514 34.6757C42.3514 32.5707 44.0138 30.8646 46.0642 30.8646C48.1146 30.8646 49.7765 32.5707 49.7765 34.6757V38.6957C47.4909 37.3172 44.6651 37.2861 42.3514 38.6143V34.6757ZM45.9917 39.284C49.2357 39.284 51.8655 41.9838 51.8655 45.3142C51.8655 48.6447 49.2357 51.3444 45.9917 51.3444C42.7477 51.3444 40.1179 48.6447 40.1179 45.3142C40.1117 43.713 40.7286 42.1755 41.8315 41.0432C42.9344 39.9109 44.432 39.2776 45.9917 39.284Z" fill="#1F69B2"/>
<path d="M71.8417 39.3825L63.1181 33.8561C63.0916 33.839 63.0634 33.8234 63.0347 33.8101L62.8204 33.7078V29.9154C62.8204 29.7125 62.7474 29.5171 62.6155 29.3661L51.1969 16.2977C51.1901 16.2902 51.1823 16.2837 51.175 16.2768C51.0238 16.1006 50.8058 16 50.5769 16C50.5425 16 50.5086 16.0027 50.4742 16.0075L50.4418 16.0043C50.4152 16.0011 50.3887 16 50.3621 16H34.2144C31.4349 16.0032 29.1827 18.3154 29.1796 21.1688V33.7694L20.1609 39.3809C19.132 40.0314 18.5042 41.1813 18.5 42.4217V69.0859C18.5037 72.9025 21.5162 75.9957 25.2342 76H66.7658C70.4833 75.9957 73.4964 72.9025 73.5 69.0859V42.4217C73.4964 41.1824 72.869 40.0335 71.8417 39.3825ZM71.0037 40.7841C71.5575 41.1342 71.896 41.7536 71.8981 42.4217V43.956L62.8204 49.6511V35.5997L71.0037 40.7841ZM51.3779 18.9675L59.0486 27.7472H54.8107C52.9157 27.7445 51.38 26.1679 51.3779 24.2225V18.9675ZM34.2144 17.6441H49.7759V24.2225C49.7791 27.0759 52.0313 29.3886 54.8107 29.3918H60.4858L61.2184 30.2302V50.6559L46 60.2039L30.7816 50.6559V21.1688C30.7836 19.2228 32.3194 17.6462 34.2144 17.6441ZM20.9936 40.7857L29.1796 35.6924V49.6511L20.1019 43.956V42.4217C20.104 41.7547 20.4409 41.1363 20.9936 40.7857ZM66.7658 74.3554H25.2342C22.4006 74.3522 20.1051 71.9945 20.1019 69.0859V45.8833L29.4169 51.7277C29.505 51.8177 29.613 51.8851 29.7313 51.9247L45.5823 61.8699C45.8389 62.0311 46.1611 62.0311 46.4177 61.8699L62.2687 51.9253C62.3871 51.8856 62.4945 51.8182 62.5831 51.7283L71.8981 45.8833V69.0859C71.8949 71.9945 69.5994 74.3522 66.7658 74.3554Z" fill="#1F69B2"/>
</svg>
