<svg width="19" height="18" viewBox="0 0 19 18" fill="none" xmlns="http://www.w3.org/2000/svg">
<path d="M13.2885 10.0771H10.8426C10.1732 10.0771 9.62891 10.6227 9.62891 11.2935V13.1733C9.62891 13.8442 10.1732 14.3897 10.8426 14.3897H13.2885C13.9579 14.3897 14.5022 13.8442 14.5022 13.1733V11.2935C14.5022 10.6227 13.9579 10.0771 13.2885 10.0771ZM13.6195 13.1733C13.6195 13.3576 13.4687 13.5051 13.2885 13.5051H10.8426C10.6587 13.5051 10.5116 13.3539 10.5116 13.1733V11.2935C10.5116 11.1092 10.6624 10.9618 10.8426 10.9618H13.2885C13.4724 10.9618 13.6195 11.1129 13.6195 11.2935V13.1733Z" fill="#464646"/>
<path d="M18.5 6.66031C18.5 6.5829 18.4816 6.50919 18.4412 6.44284L15.7636 1.72484C15.6864 1.58846 15.5392 1.5 15.3811 1.5H3.61524C3.45709 1.5 3.30997 1.58478 3.23273 1.72484L0.558848 6.44284C0.522068 6.50919 0.5 6.5829 0.5 6.66031C0.5 7.71817 1.13629 8.62491 2.04475 9.02668V16.8077C2.04475 17.051 2.24336 17.25 2.48611 17.25H4.9246C4.92828 17.25 4.93196 17.25 4.93564 17.25H8.35615C8.35983 17.25 8.36351 17.25 8.36718 17.25H16.5102C16.753 17.25 16.9516 17.051 16.9516 16.8077V9.08197C16.9516 9.06354 16.9516 9.04879 16.9479 9.03405C17.86 8.63228 18.5 7.72186 18.5 6.66031ZM3.8727 2.38831H15.1236L17.2164 6.07793H1.78361L3.8727 2.38831ZM13.3104 6.95887C13.1706 7.75503 12.4755 8.35952 11.6406 8.35952C10.8057 8.35952 10.1105 7.75503 9.97078 6.95887H13.3104ZM9.0329 6.95887C8.89313 7.75503 8.198 8.35952 7.3631 8.35952C6.5282 8.35952 5.83306 7.75503 5.68962 6.95887H9.0329ZM1.41214 6.95887H4.75541C4.61565 7.75503 3.91684 8.35952 3.08194 8.35952C2.24704 8.36321 1.5519 7.75503 1.41214 6.95887ZM7.91479 16.3654H5.37699V11.5921C5.37699 11.2456 5.65652 10.9618 6.00593 10.9618H7.28954C7.63527 10.9618 7.91847 11.2419 7.91847 11.5921V16.3654H7.91479ZM16.0689 16.3654H8.79751V11.5921C8.79751 10.7591 8.12076 10.0772 7.28586 10.0772H6.00225C5.17103 10.0772 4.4906 10.7554 4.4906 11.5921V16.3691H2.92746V9.24415C2.97895 9.24783 3.03045 9.24783 3.08194 9.24783C3.97201 9.24783 4.75909 8.79446 5.22252 8.1052C5.68594 8.79446 6.47303 9.24783 7.3631 9.24783C8.25317 9.24783 9.03658 8.79446 9.50368 8.1052C9.9671 8.79446 10.7542 9.24783 11.6406 9.24783C12.5306 9.24783 13.3141 8.79446 13.7775 8.1052C14.2409 8.79446 15.028 9.24783 15.9181 9.24783C15.9696 9.24783 16.0174 9.24415 16.0689 9.24415V16.3654ZM15.9181 8.36321C15.0832 8.36321 14.388 7.75872 14.2483 6.96256H17.5915C17.4481 7.75503 16.753 8.36321 15.9181 8.36321Z" fill="#464646"/>
</svg>
