<svg width="52" height="52" viewBox="0 0 52 52" fill="none" xmlns="http://www.w3.org/2000/svg">
<path d="M8.70833 37.875C6.83333 37.875 5.375 36.4167 5.375 34.5417V21.4167C5.375 19.5417 6.83333 18.0833 8.70833 18.0833C10.5833 18.0833 12.0417 19.5417 12.0417 21.4167V34.5417C11.8333 36.4167 10.375 37.875 8.70833 37.875Z" stroke="white" stroke-miterlimit="10" stroke-linecap="round" stroke-linejoin="round"/>
<path d="M5.375 33.5C2.875 33.0834 1 30.7917 1 28.0834C1 25.375 2.875 23.2917 5.375 22.6667" stroke="white" stroke-miterlimit="10" stroke-linecap="round" stroke-linejoin="round"/>
<path d="M43.2918 18.2917C45.1668 18.2917 46.6252 19.75 46.6252 21.625V34.75C46.6252 36.625 45.1668 38.0833 43.2918 38.0833C41.4168 38.0833 39.9585 36.625 39.9585 34.75V21.625C40.1668 19.75 41.6252 18.2917 43.2918 18.2917Z" stroke="white" stroke-miterlimit="10" stroke-linecap="round" stroke-linejoin="round"/>
<path d="M46.625 22.875C49.125 23.2917 51 25.5833 51 28.2917C51 31 49.125 33.0833 46.625 33.7083" stroke="white" stroke-miterlimit="10" stroke-linecap="round" stroke-linejoin="round"/>
<path d="M27.0417 51H20.5833C19.3333 51 18.5 49.9583 18.5 48.9167C18.5 47.6667 19.5417 46.8333 20.5833 46.8333H27.0417C28.2917 46.8333 29.125 47.875 29.125 48.9167C29.3333 49.9583 28.2917 51 27.0417 51Z" stroke="white" stroke-miterlimit="10" stroke-linecap="round" stroke-linejoin="round"/>
<path d="M44.5418 37.875C44.5418 46.625 40.1668 48.7083 29.3335 48.7083" stroke="white" stroke-miterlimit="10" stroke-linecap="round" stroke-linejoin="round"/>
<path d="M9.75024 18.2917V17.25C9.75024 8.29167 17.0419 1 26.0002 1C34.9586 1 42.2502 8.29167 42.2502 17.25V18.2917" stroke="white" stroke-miterlimit="10" stroke-linecap="round" stroke-linejoin="round"/>
</svg>
