<svg width="49" height="50" viewBox="0 0 49 50" fill="none" xmlns="http://www.w3.org/2000/svg">
<path d="M41.6 1H35.4H33.4H27H16.6H8.2C4.8 1 2 3.8 2 7.2V49L6.2 44.8L10.4 49L14.6 44.8L18.6 49L22.8 44.8L27 49L31.2 44.8L35.4 49V11.4V7.2" stroke="#767676" stroke-miterlimit="10" stroke-linecap="round" stroke-linejoin="round"/>
<path d="M48.0004 7.2V11.4H35.4004V7.2C35.4004 5.4 36.2004 3.6 37.4004 2.6C38.6004 1.6 40.0004 1 41.6004 1C45.2004 1 48.0004 3.8 48.0004 7.2Z" stroke="#767676" stroke-miterlimit="10" stroke-linecap="round" stroke-linejoin="round"/>
<path d="M9.59961 13.8H28.3996" stroke="#767676" stroke-miterlimit="10" stroke-linecap="round" stroke-linejoin="round"/>
<path d="M9.59961 23.4H28.3996" stroke="#767676" stroke-miterlimit="10" stroke-linecap="round" stroke-linejoin="round"/>
<path d="M9.59961 32.8H28.3996" stroke="#767676" stroke-miterlimit="10" stroke-linecap="round" stroke-linejoin="round"/>
</svg>
