<svg width="60" height="60" viewBox="0 0 60 60" fill="none" xmlns="http://www.w3.org/2000/svg">
<rect opacity="0.1" width="60" height="60" fill="#F37721"/>
<path d="M29.1666 30.7469L37.8333 22.1162" stroke="#F37721" stroke-miterlimit="10" stroke-linecap="round" stroke-linejoin="round"/>
<path d="M50.0002 15.1452L43.0002 22.1162H37.8335V16.971L44.8335 10V15.1452H50.0002Z" stroke="#F37721" stroke-miterlimit="10" stroke-linecap="round" stroke-linejoin="round"/>
<path d="M48.3333 30.7469C48.3333 41.2034 39.8333 49.8341 29.1667 49.8341C18.5 49.8341 10 41.3693 10 30.7469C10 20.2905 18.5 11.6598 29.1667 11.6598" stroke="#F37721" stroke-miterlimit="10" stroke-linecap="round" stroke-linejoin="round"/>
<path d="M46.8333 23.444C47.8333 25.7677 48.3333 28.2573 48.3333 30.9129C48.3333 33.5685 47.8333 36.0581 46.8333 38.3818C45.8333 40.7054 44.5 42.6971 42.6667 44.3569C41 46.0166 38.8333 47.5104 36.6667 48.5063C34.3333 49.5021 31.8333 50 29.1667 50C26.5 50 24 49.5021 21.6667 48.5063C19.3333 47.5104 17.3333 46.1826 15.6667 44.3569C14 42.6971 12.5 40.5395 11.5 38.3818C10.5 36.0581 10 33.5685 10 30.9129C10 28.2573 10.5 25.7677 11.5 23.444C12.5 21.1204 13.8333 18.9627 15.6667 17.3029C17.5 15.6432 19.3333 14.1494 21.6667 13.1536C24 12.1577 26.5 11.6598 29.1667 11.6598C31.8333 11.6598 34.3333 12.1577 36.6667 13.1536" stroke="#F37721" stroke-miterlimit="10" stroke-linecap="round" stroke-linejoin="round"/>
<path d="M37.9998 27.0955C38.4998 28.2573 38.8331 29.4191 38.8331 30.7469C38.8331 32.0747 38.4998 33.2365 37.9998 34.3984C37.4998 35.5602 36.8331 36.556 35.9998 37.3859C35.1665 38.2158 34.1665 38.8797 32.9998 39.3776C31.8331 39.8755 30.6665 40.2075 29.3331 40.2075C27.9998 40.2075 26.8331 39.8755 25.6665 39.3776C24.4998 38.8797 23.4998 38.2158 22.6665 37.3859C21.8331 36.556 21.1665 35.5602 20.6665 34.3984C20.1665 33.2365 19.8331 32.0747 19.8331 30.7469C19.8331 29.4191 20.1665 28.2573 20.6665 27.0955C20.8331 25.9336 21.4998 24.9378 22.3331 24.1079C23.1665 23.1121 24.3331 22.4482 25.3331 21.9502C26.4998 21.4523 27.6665 21.1204 28.9998 21.1204C30.3331 21.1204 31.4998 21.4523 32.6665 21.9502" stroke="#F37721" stroke-miterlimit="10" stroke-linecap="round" stroke-linejoin="round"/>
</svg>
