<svg width="36" height="21" viewBox="0 0 36 21" fill="none" xmlns="http://www.w3.org/2000/svg">
<path d="M6.86719 14.5V5.96875H9.38672C10.1406 5.96875 10.8086 6.13672 11.3906 6.47266C11.9766 6.80859 12.4297 7.28516 12.75 7.90234C13.0703 8.51953 13.2305 9.22656 13.2305 10.0234V10.4512C13.2305 11.2598 13.0684 11.9707 12.7441 12.584C12.4238 13.1973 11.9648 13.6699 11.3672 14.002C10.7734 14.334 10.0918 14.5 9.32227 14.5H6.86719ZM8.34961 7.16406V13.3164H9.31641C10.0938 13.3164 10.6895 13.0742 11.1035 12.5898C11.5215 12.1016 11.7344 11.4023 11.7422 10.4922V10.0176C11.7422 9.0918 11.541 8.38477 11.1387 7.89648C10.7363 7.4082 10.1523 7.16406 9.38672 7.16406H8.34961ZM17.3613 14.6172C16.459 14.6172 15.7266 14.334 15.1641 13.7676C14.6055 13.1973 14.3262 12.4395 14.3262 11.4941V11.3184C14.3262 10.6855 14.4473 10.1211 14.6895 9.625C14.9355 9.125 15.2793 8.73633 15.7207 8.45898C16.1621 8.18164 16.6543 8.04297 17.1973 8.04297C18.0605 8.04297 18.7266 8.31836 19.1953 8.86914C19.668 9.41992 19.9043 10.1992 19.9043 11.207V11.7812H15.7617C15.8047 12.3047 15.9785 12.7188 16.2832 13.0234C16.5918 13.3281 16.9785 13.4805 17.4434 13.4805C18.0957 13.4805 18.627 13.2168 19.0371 12.6895L19.8047 13.4219C19.5508 13.8008 19.2109 14.0957 18.7852 14.3066C18.3633 14.5137 17.8887 14.6172 17.3613 14.6172ZM17.1914 9.18555C16.8008 9.18555 16.4844 9.32227 16.2422 9.5957C16.0039 9.86914 15.8516 10.25 15.7852 10.7383H18.498V10.6328C18.4668 10.1562 18.3398 9.79688 18.1172 9.55469C17.8945 9.30859 17.5859 9.18555 17.1914 9.18555ZM24.8027 14.5C24.7402 14.3789 24.6855 14.1816 24.6387 13.9082C24.1855 14.3809 23.6309 14.6172 22.9746 14.6172C22.3379 14.6172 21.8184 14.4355 21.416 14.0723C21.0137 13.709 20.8125 13.2598 20.8125 12.7246C20.8125 12.0488 21.0625 11.5312 21.5625 11.1719C22.0664 10.8086 22.7852 10.627 23.7188 10.627H24.5918V10.2109C24.5918 9.88281 24.5 9.62109 24.3164 9.42578C24.1328 9.22656 23.8535 9.12695 23.4785 9.12695C23.1543 9.12695 22.8887 9.20898 22.6816 9.37305C22.4746 9.5332 22.3711 9.73828 22.3711 9.98828H20.9473C20.9473 9.64062 21.0625 9.31641 21.293 9.01562C21.5234 8.71094 21.8359 8.47266 22.2305 8.30078C22.6289 8.12891 23.0723 8.04297 23.5605 8.04297C24.3027 8.04297 24.8945 8.23047 25.3359 8.60547C25.7773 8.97656 26.0039 9.5 26.0156 10.1758V13.0352C26.0156 13.6055 26.0957 14.0605 26.2559 14.4004V14.5H24.8027ZM23.2383 13.4746C23.5195 13.4746 23.7832 13.4062 24.0293 13.2695C24.2793 13.1328 24.4668 12.9492 24.5918 12.7188V11.5234H23.8242C23.2969 11.5234 22.9004 11.6152 22.6348 11.7988C22.3691 11.9824 22.2363 12.2422 22.2363 12.5781C22.2363 12.8516 22.3262 13.0703 22.5059 13.2344C22.6895 13.3945 22.9336 13.4746 23.2383 13.4746ZM29.0215 14.5H27.5977V5.5H29.0215V14.5Z" fill="#CF2626"/>
<rect x="0.5" y="1" width="35" height="19" stroke="#CF2626"/>
</svg>
