<svg width="52" height="32" viewBox="0 0 52 32" fill="none" xmlns="http://www.w3.org/2000/svg">
<path fill-rule="evenodd" clip-rule="evenodd" d="M0 0H52V4C50.3431 4 49 5.34315 49 7C49 8.65685 50.3431 10 52 10V13C50.3431 13 49 14.3431 49 16C49 17.6569 50.3431 19 52 19V22C50.3431 22 49 23.3431 49 25C49 26.6569 50.3431 28 52 28V32H0V28C1.65685 28 3 26.6569 3 25C3 23.3431 1.65685 22 0 22V19C1.65685 19 3 17.6569 3 16C3 14.3431 1.65685 13 0 13V10C1.65685 10 3 8.65685 3 7C3 5.34315 1.65685 4 0 4V0Z" fill="white"/>
<path fill-rule="evenodd" clip-rule="evenodd" d="M0 0H52V4C50.3431 4 49 5.34315 49 7C49 8.65685 50.3431 10 52 10V13C50.3431 13 49 14.3431 49 16C49 17.6569 50.3431 19 52 19V22C50.3431 22 49 23.3431 49 25C49 26.6569 50.3431 28 52 28V32H0V28C1.65685 28 3 26.6569 3 25C3 23.3431 1.65685 22 0 22V19C1.65685 19 3 17.6569 3 16C3 14.3431 1.65685 13 0 13V10C1.65685 10 3 8.65685 3 7C3 5.34315 1.65685 4 0 4V0Z" fill="#CF2626" fill-opacity="0.15"/>
</svg>
