<svg width="24" height="24" viewBox="0 0 24 24" fill="none" xmlns="http://www.w3.org/2000/svg">
<path d="M18.5162 14.9437C17.1303 14.9437 15.8895 15.5821 15.0662 16.5828L9.71068 13.5126C9.87722 13.0394 9.96876 12.5306 9.96876 12.0004C9.96876 11.4702 9.87722 10.9614 9.71068 10.4882L15.0657 7.41733C15.8889 8.41835 17.1299 9.05697 18.516 9.05697C20.9884 9.05697 22.9999 7.02524 22.9999 4.5278C23.0001 2.0311 20.9886 0 18.5162 0C16.0435 0 14.0319 2.0311 14.0319 4.52769C14.0319 5.05794 14.1233 5.56685 14.2899 6.04016L8.93457 9.11116C8.11138 8.11066 6.87069 7.47246 5.48501 7.47246C3.01199 7.47246 1 9.50356 1 12.0003C1 14.4969 3.01199 16.528 5.48501 16.528C6.87069 16.528 8.11128 15.8898 8.93447 14.8894L14.2899 17.9596C14.1233 18.4329 14.0318 18.942 14.0318 19.4723C14.0318 21.9689 16.0434 24 18.5161 24C20.9885 24 23 21.9688 23 19.4723C23.0001 16.9753 20.9886 14.9437 18.5162 14.9437ZM18.5162 1.5844C20.1234 1.5844 21.4309 2.90474 21.4309 4.52769C21.4309 6.1515 20.1234 7.47246 18.5162 7.47246C16.9088 7.47246 15.601 6.1515 15.601 4.52769C15.601 2.90474 16.9088 1.5844 18.5162 1.5844ZM5.48511 14.9437C3.87734 14.9437 2.56928 13.6232 2.56928 12.0004C2.56928 10.3773 3.87734 9.05697 5.48511 9.05697C7.09226 9.05697 8.39969 10.3773 8.39969 12.0004C8.39969 13.6232 7.09215 14.9437 5.48511 14.9437ZM18.5162 22.4157C16.9088 22.4157 15.601 21.0953 15.601 19.4724C15.601 17.8489 16.9088 16.5281 18.5162 16.5281C20.1234 16.5281 21.4309 17.8489 21.4309 19.4724C21.4309 21.0953 20.1234 22.4157 18.5162 22.4157Z" fill="#767676"/>
</svg>
