<svg width="20" height="26" viewBox="0 0 20 26" fill="none" xmlns="http://www.w3.org/2000/svg">
<path d="M17.9121 25H2.08791C1.49451 25 1 24.5 1 23.9V12.2C1 11.6 1.49451 11.1 2.08791 11.1H17.9121C18.5055 11.1 19 11.6 19 12.2V23.9C18.9011 24.5 18.5055 25 17.9121 25Z" stroke="#767676" stroke-miterlimit="10" stroke-linecap="round" stroke-linejoin="round"/>
<path d="M10.0002 1C6.24196 1 3.17603 4.1 3.17603 7.9V11.1H16.9233V7.9C16.8244 4.1 13.7584 1 10.0002 1Z" stroke="#767676" stroke-miterlimit="10" stroke-linecap="round" stroke-linejoin="round"/>
<path d="M12.0769 16.5C12.0769 15.3 11.0879 14.4 10 14.4C8.81321 14.4 7.9231 15.4 7.9231 16.5C7.9231 17.3 8.3187 18 9.01101 18.3V21.8H11.0879V18.3C11.6813 17.9 12.0769 17.3 12.0769 16.5Z" stroke="#767676" stroke-miterlimit="10" stroke-linecap="round" stroke-linejoin="round"/>
</svg>
