<svg width="24" height="24" viewBox="0 0 24 24" fill="none" xmlns="http://www.w3.org/2000/svg">
<path d="M12 5.25C9.92924 5.25 8.25 6.92924 8.25 9C8.25 11.0708 9.92924 12.75 12 12.75C14.0708 12.75 15.75 11.0708 15.75 9C15.75 6.92924 14.0708 5.25 12 5.25ZM12 11.25C10.7572 11.25 9.75 10.2428 9.75 9C9.75 7.75724 10.7572 6.75 12 6.75C13.2428 6.75 14.25 7.75724 14.25 9C14.25 10.2428 13.2428 11.25 12 11.25ZM12 0C7.02976 0 3 4.02976 3 9C3 12.7628 10.5038 24.0075 12 24C13.473 24.0075 21 12.7125 21 9C21 4.02976 16.9703 0 12 0ZM12 21.75C10.7528 21.7568 4.5 12.1357 4.5 9C4.5 4.85776 7.85776 1.5 12 1.5C16.1422 1.5 19.5 4.85776 19.5 9C19.5 12.0938 13.2278 21.7568 12 21.75Z" fill="#767676"/>
</svg>
