<svg width="15" height="15" viewBox="0 0 15 15" fill="none" xmlns="http://www.w3.org/2000/svg">
<path d="M7.5 0C3.36433 0 0 3.36433 0 7.5C0 11.6357 3.36433 15 7.5 15C11.6357 15 15 11.6357 15 7.5C15 3.36433 11.6357 0 7.5 0Z" fill="#1F69B2"/>
<path d="M11.4534 5.89808L7.30455 9.91257C7.18009 10.033 7.0167 10.0936 6.85332 10.0936C6.68993 10.0936 6.52654 10.033 6.40208 9.91257L4.32773 7.90533C4.07809 7.66388 4.07809 7.27349 4.32773 7.03204C4.57725 6.79048 4.98057 6.79048 5.23021 7.03204L6.85332 8.60264L10.5509 5.0248C10.8004 4.78324 11.2037 4.78324 11.4534 5.0248C11.7029 5.26625 11.7029 5.65652 11.4534 5.89808Z" fill="#FAFAFA"/>
</svg>
