<svg width="40" height="39" viewBox="0 0 40 39" fill="none" xmlns="http://www.w3.org/2000/svg">
<path d="M30.6492 5.69655C30.6667 5.69781 30.6841 5.69908 30.7018 5.69908C30.7318 5.69908 30.7619 5.69655 30.7913 5.69245C31.5789 5.70855 32.2093 6.34952 32.2102 7.13542C32.2102 7.49253 32.5004 7.78207 32.8583 7.78207C33.2162 7.78207 33.5063 7.49253 33.5063 7.13542C33.5047 5.85001 32.608 4.73794 31.3498 4.46134V3.83995C31.3498 3.48284 31.0597 3.1933 30.7018 3.1933C30.3439 3.1933 30.0537 3.48284 30.0537 3.83995V4.49071C28.7234 4.84561 27.8627 6.12976 28.0421 7.49221C28.2216 8.85467 29.3854 9.87327 30.7625 9.87327C31.5622 9.87327 32.2102 10.5202 32.2102 11.3181C32.2102 12.1157 31.5622 12.7627 30.7625 12.7627C29.9629 12.7627 29.3148 12.1157 29.3148 11.3181C29.3148 10.961 29.0247 10.6715 28.6668 10.6715C28.3089 10.6715 28.0187 10.961 28.0187 11.3181C28.0203 12.5571 28.8544 13.6411 30.0537 13.9628V14.6714C30.0537 15.0285 30.3439 15.318 30.7018 15.318C31.0597 15.318 31.3498 15.0285 31.3498 14.6714V13.9925C32.7184 13.6935 33.6414 12.4135 33.4905 11.0235C33.3399 9.63362 32.1637 8.58028 30.7625 8.5806C29.9851 8.58091 29.3462 7.96836 29.3155 7.1932C29.2851 6.41804 29.874 5.75718 30.6492 5.69687V5.69655Z" fill="white"/>
<path d="M30.7996 0.0316772C26.8129 0.0316772 23.4105 2.62744 22.1359 6.1032H6.0512C5.69489 6.1032 5.40567 6.42369 5.40314 6.7789L5.24998 29.4635H0.665148C0.307259 29.4635 0 29.7221 0 30.0799V32.9585C0.00822729 35.6686 2.14733 37.895 4.86045 38.0175V38.0317H24.8693V38.0127C25.0313 38.0187 25.0981 38.0317 25.2006 38.0317H25.2145C28.0226 38.0273 30.2968 35.7545 30.2968 32.9525V18.3978C30.4588 18.4067 30.6303 18.4114 30.7981 18.4114C35.8715 18.4114 40 14.2839 40 9.22122C40 4.15882 35.8734 0.0316772 30.7996 0.0316772V0.0316772ZM5.10696 36.7384H5.10284C3.00646 36.7355 1.30561 35.0441 1.29612 32.9519V30.7568H20.0899V32.9428C20.0908 34.2923 20.631 35.5859 21.5904 36.5372C21.6584 36.6051 21.7429 36.6575 21.8141 36.7384H5.10696ZM29.0007 32.9519C29.001 35.0403 27.3065 36.7343 25.2139 36.7384H25.2016C23.1004 36.7346 21.3964 35.0396 21.386 32.9434V30.0799C21.3914 29.9144 21.3281 29.7543 21.2107 29.6375C21.0933 29.5207 20.9329 29.4578 20.7674 29.4635H6.5461L6.69483 7.39651H21.7762C21.6613 7.98854 21.6018 8.58972 21.5986 9.19248C21.5974 10.4672 21.8638 11.7276 22.3809 12.8931H16.2597C15.9015 12.8931 15.6117 13.1826 15.6117 13.5397C15.6117 13.8968 15.9015 14.1864 16.2597 14.1864H23.084C24.4209 16.2842 26.5581 17.7467 29.0007 18.2361V32.9519ZM30.7996 17.1184C26.4341 17.1184 22.8948 13.5871 22.8951 9.23069C22.8951 4.87431 26.4341 1.34298 30.7999 1.34298C35.1655 1.34298 38.7045 4.87463 38.7045 9.23069C38.6998 13.5849 35.1636 17.1137 30.7996 17.1184Z" fill="white"/>
<path d="M12.0996 17.1967C10.9557 17.1967 10.0254 18.0957 10.0254 19.2008C10.0254 20.3059 10.9557 21.2048 12.0996 21.2048C13.2435 21.2048 14.1742 20.3059 14.1742 19.2008C14.1742 18.0957 13.2435 17.1967 12.0996 17.1967V17.1967ZM12.0996 19.9115C11.6702 19.9115 11.3215 19.5926 11.3215 19.2008C11.3215 18.8086 11.6705 18.49 12.0996 18.49C12.5287 18.49 12.878 18.8089 12.878 19.2008C12.878 19.5926 12.5287 19.9115 12.0996 19.9115Z" fill="white"/>
<path d="M15.6113 19.198C15.6113 19.5551 15.9012 19.8446 16.2594 19.8446H24.8993C25.2572 19.8446 25.5474 19.5551 25.5474 19.198C25.5474 18.8409 25.2572 18.5513 24.8993 18.5513H16.2594C15.9012 18.5513 15.6113 18.8409 15.6113 19.198Z" fill="white"/>
<path d="M12.0996 11.5754C10.9557 11.5754 10.0254 12.4747 10.0254 13.5798C10.0254 14.6849 10.9557 15.5839 12.0996 15.5839C13.2435 15.5839 14.1742 14.6849 14.1742 13.5798C14.1742 12.4747 13.2435 11.5754 12.0996 11.5754ZM12.0996 14.2906C11.6702 14.2906 11.3215 13.9717 11.3215 13.5798C11.3215 13.188 11.6705 12.8687 12.0996 12.8687C12.5287 12.8687 12.878 13.1877 12.878 13.5798C12.878 13.9717 12.5287 14.2909 12.0996 14.2909V14.2906Z" fill="white"/>
<path d="M12.0996 22.8173C10.9557 22.8173 10.0254 23.7163 10.0254 24.8214C10.0254 25.9265 10.9557 26.8254 12.0996 26.8254C13.2435 26.8254 14.1742 25.9265 14.1742 24.8214C14.1742 23.7163 13.2435 22.8173 12.0996 22.8173ZM12.0996 25.5321C11.6702 25.5321 11.3215 25.2135 11.3215 24.8214C11.3215 24.4295 11.6705 24.1106 12.0996 24.1106C12.5287 24.1106 12.878 24.4295 12.878 24.8214C12.878 25.2132 12.5287 25.5321 12.0996 25.5321V25.5321Z" fill="white"/>
<path d="M24.8993 24.2095H16.2594C15.9012 24.2095 15.6113 24.4991 15.6113 24.8562C15.6113 25.2133 15.9012 25.5028 16.2594 25.5028H24.8993C25.2572 25.5028 25.5474 25.2133 25.5474 24.8562C25.5474 24.4991 25.2572 24.2095 24.8993 24.2095Z" fill="white"/>
</svg>
