<?xml version="1.0" encoding="utf-8"?>
<!-- Generator: Adobe Illustrator 16.0.0, SVG Export Plug-In . SVG Version: 6.00 Build 0)  -->
<!DOCTYPE svg PUBLIC "-//W3C//DTD SVG 1.1//EN" "http://www.w3.org/Graphics/SVG/1.1/DTD/svg11.dtd">
<svg version="1.1" id="Layer_1" xmlns="http://www.w3.org/2000/svg" xmlns:xlink="http://www.w3.org/1999/xlink" x="0px" y="0px"
	 width="70px" height="45px" viewBox="0 0 70 45" enable-background="new 0 0 70 45" xml:space="preserve">
<path fill="#969696" d="M65.1,18.794l-1.813-7.26c0.496-0.105,0.867-0.545,0.867-1.073V9.291c0-2.541-2.064-4.609-4.604-4.609
	h-8.256V2.268c0-1.25-1.017-2.268-2.266-2.268H6.941C5.692,0,4.676,1.018,4.676,2.268v19.899c0,0.606,0.491,1.097,1.096,1.097
	c0.605,0,1.096-0.491,1.096-1.097V2.268c0-0.041,0.033-0.073,0.073-0.073h42.088c0.04,0,0.072,0.033,0.072,0.073v19.899
	c0,0.606,0.491,1.098,1.097,1.098s1.097-0.491,1.097-1.098v-1.244h12.929c0.001,0,0.002,0,0.003,0s0.002,0,0.003,0
	c1.591,0.001,2.942,1.046,3.406,2.487h-3.408c-0.605,0-1.097,0.492-1.097,1.098v2.342c0,1.896,1.541,3.438,3.435,3.438h1.242v4.828
	h-2.866c-0.941-2.721-3.525-4.682-6.56-4.682s-5.618,1.961-6.56,4.682h-0.528V26.85c0-0.607-0.491-1.098-1.096-1.098
	c-0.605,0-1.097,0.49-1.097,1.098v8.266h-22.74c-0.941-2.722-3.525-4.682-6.56-4.682s-5.619,1.96-6.56,4.682h-6.3
	c-0.04,0-0.073-0.032-0.073-0.072v-2.414h4.75c0.605,0,1.096-0.492,1.096-1.098c0-0.606-0.49-1.098-1.096-1.098H1.096
	C0.491,30.434,0,30.925,0,31.531c0,0.605,0.491,1.098,1.096,1.098h3.58v2.414c0,1.25,1.016,2.268,2.265,2.268h5.921
	c0,0.024-0.002,0.049-0.002,0.072c0,3.833,3.114,6.951,6.941,6.951c3.827,0,6.941-3.118,6.941-6.951
	c0-0.023-0.001-0.048-0.002-0.072h24.701c-0.001,0.024-0.002,0.049-0.002,0.072c0,3.833,3.114,6.951,6.941,6.951
	s6.941-3.118,6.941-6.951c0-0.023-0.001-0.048-0.002-0.072h3.583c0.605,0,1.096-0.492,1.096-1.098V24.508
	C70,21.618,67.871,19.217,65.1,18.794z M51.295,6.877h8.256c1.33,0,2.412,1.083,2.412,2.414v0.073H51.295V6.877z M51.295,18.729
	v-7.169h9.738l1.791,7.169H51.295z M19.802,42.139c-2.619,0-4.75-2.133-4.75-4.755s2.13-4.755,4.75-4.755
	c2.619,0,4.75,2.133,4.75,4.755S22.42,42.139,19.802,42.139z M58.383,42.139c-2.619,0-4.75-2.133-4.75-4.755s2.131-4.755,4.75-4.755
	c2.618,0,4.749,2.133,4.749,4.755S61.001,42.139,58.383,42.139z M67.809,28.093h-1.242c-0.686,0-1.242-0.558-1.242-1.243v-1.244
	h2.484V28.093L67.809,28.093z"/>
<path fill="#969696" d="M19.801,35.115c-1.249,0-2.265,1.018-2.265,2.269s1.016,2.268,2.265,2.268s2.265-1.017,2.265-2.268
	S21.05,35.115,19.801,35.115z"/>
<path fill="#969696" d="M58.383,35.115c-1.25,0-2.266,1.018-2.266,2.269s1.016,2.268,2.266,2.268c1.248,0,2.265-1.017,2.265-2.268
	S59.631,35.115,58.383,35.115z"/>
<path fill="#969696" d="M45.521,30.434H29.155c-0.605,0-1.096,0.492-1.096,1.098s0.491,1.098,1.096,1.098h16.367
	c0.605,0,1.097-0.492,1.097-1.098S46.127,30.434,45.521,30.434z"/>
<path fill="#969696" d="M17.463,25.752H3.434c-0.605,0-1.096,0.49-1.096,1.098c0,0.605,0.491,1.097,1.096,1.097h14.029
	c0.605,0,1.096-0.491,1.096-1.097C18.559,26.242,18.068,25.752,17.463,25.752z"/>
<path fill="#969696" d="M38.112,10.856c-0.428-0.428-1.122-0.428-1.55,0l-9.747,9.758l-5.07-5.077c-0.428-0.429-1.122-0.429-1.55,0
	c-0.428,0.429-0.428,1.124,0,1.552l5.845,5.853c0.214,0.214,0.495,0.321,0.775,0.321c0.281,0,0.561-0.106,0.775-0.321l10.522-10.535
	C38.541,11.979,38.541,11.285,38.112,10.856z"/>
</svg>
