<svg width="28" height="28" viewBox="0 0 28 28" fill="none" xmlns="http://www.w3.org/2000/svg">
<path d="M28 18.9492C28 14.868 25.25 11.3022 21.3721 10.2276C21.1284 4.54675 16.4312 0 10.6914 0C4.79605 0 0 4.79605 0 10.6914C0 12.6127 0.511414 14.4834 1.48254 16.1258L0.0393066 21.3433L5.25705 19.9003C6.76672 20.793 8.46973 21.2959 10.2274 21.3717C11.3017 25.2498 14.8677 28 18.9492 28C20.5783 28 22.1625 27.5661 23.5545 26.7418L27.9605 27.9605L26.7418 23.5545C27.5661 22.1625 28 20.5783 28 18.9492ZM5.51596 18.1263L2.39236 18.9904L3.25647 15.8669L3.05951 15.5588C2.13132 14.1066 1.64062 12.4235 1.64062 10.6914C1.64062 5.70074 5.70074 1.64062 10.6914 1.64062C15.6821 1.64062 19.7422 5.70074 19.7422 10.6914C19.7422 15.6821 15.6821 19.7422 10.6914 19.7422C8.95935 19.7422 7.27643 19.2515 5.82401 18.3233L5.51596 18.1263ZM25.6076 25.6076L23.2898 24.9663L22.9803 25.1678C21.7804 25.9473 20.3863 26.3594 18.9492 26.3594C15.7415 26.3594 12.9227 24.2853 11.924 21.3112C16.8361 20.7449 20.7449 16.8361 21.3115 11.9238C24.2853 12.9227 26.3594 15.7415 26.3594 18.9492C26.3594 20.3863 25.9473 21.7804 25.1678 22.9803L24.9663 23.2898L25.6076 25.6076Z" fill="#F37721"/>
<path d="M4.6665 9.33331H6.99984V11.6666H4.6665V9.33331Z" fill="#F37721"/>
<path d="M9.3335 9.33331H11.6668V11.6666H9.3335V9.33331Z" fill="#F37721"/>
<path d="M14 9.33331H16.3333V11.6666H14V9.33331Z" fill="#F37721"/>
</svg>
