<svg width="20" height="15" viewBox="0 0 20 15" fill="none" xmlns="http://www.w3.org/2000/svg">
<path d="M17.7811 0.202337C17.4954 -0.0693555 17.0301 -0.0655289 16.7403 0.202337L14.1283 2.65139C10.8918 1.2738 7.43895 1.61054 4.14531 3.62719C1.69242 5.12724 0.202726 7.01378 0.141506 7.09414C-0.0543987 7.3467 -0.046236 7.6911 0.161913 7.936C1.55773 9.54319 3.01886 10.7945 4.51263 11.667L2.21483 13.8214C1.92914 14.0893 1.92914 14.5255 2.21483 14.7972C2.35768 14.9311 2.54542 15 2.73316 15C2.9209 15 3.10865 14.9311 3.25149 14.7972L17.7811 1.17813C18.0668 0.910267 18.0668 0.474029 17.7811 0.202337ZM8.18176 8.22683C8.07564 8.00105 8.02259 7.75615 8.02259 7.49976C8.02259 7.00612 8.22666 6.53927 8.60214 6.18722C9.18985 5.63618 10.0592 5.50608 10.7775 5.79308L8.18176 8.22683ZM11.8631 4.77901C10.5285 3.97542 8.72866 4.12083 7.56548 5.21142C6.91246 5.82369 6.55738 6.63494 6.55738 7.49594C6.55738 8.12351 6.74921 8.72429 7.10428 9.24089L5.5901 10.6606C4.26367 9.94117 2.95764 8.87736 1.68834 7.48828C2.23116 6.89132 3.37801 5.7395 4.94933 4.77901C7.66751 3.11825 10.3734 2.75854 13.01 3.70372L11.8631 4.77901Z" fill="#969696"/>
<path d="M19.8381 7.0636C18.83 5.90029 17.7852 4.92067 16.7241 4.14386C16.4016 3.91043 15.9405 3.96401 15.6874 4.26249C15.4384 4.56096 15.4956 4.99338 15.8139 5.23063C16.6547 5.84672 17.4954 6.61205 18.3117 7.50749C17.8301 8.03557 16.8914 8.98457 15.618 9.85322C13.1651 11.5255 10.6878 12.1301 8.25936 11.6479C7.86346 11.5676 7.47166 11.8086 7.39003 12.1798C7.30432 12.551 7.56144 12.9184 7.95734 12.9949C8.58994 13.1212 9.22663 13.1824 9.86741 13.1824C10.8306 13.1824 11.802 13.0408 12.7692 12.7577C14.0385 12.3865 15.2997 11.7742 16.52 10.94C18.577 9.52796 19.8055 7.97051 19.8585 7.90546C20.0544 7.6529 20.0463 7.3085 19.8381 7.0636Z" fill="#969696"/>
</svg>
