<?xml version="1.0" encoding="utf-8"?>
<!-- Generator: Adobe Illustrator 16.0.0, SVG Export Plug-In . SVG Version: 6.00 Build 0)  -->
<!DOCTYPE svg PUBLIC "-//W3C//DTD SVG 1.1//EN" "http://www.w3.org/Graphics/SVG/1.1/DTD/svg11.dtd">
<svg version="1.1" id="Layer_1" xmlns="http://www.w3.org/2000/svg" xmlns:xlink="http://www.w3.org/1999/xlink" x="0px" y="0px"
	 width="20px" height="15px" viewBox="0 0 20 15" enable-background="new 0 0 20 15" xml:space="preserve">
<path fill="#969696" d="M19.865,7.909c0.188-0.255,0.18-0.604-0.021-0.851C16.819,3.371,13.554,1.5,10.132,1.5
	c-5.801,0-9.83,5.36-9.998,5.587c-0.188,0.255-0.18,0.604,0.021,0.851C3.176,11.629,6.442,13.5,9.863,13.5
	C15.664,13.5,19.693,8.14,19.865,7.909z M9.863,12.111c-2.85,0-5.625-1.555-8.262-4.615c1.033-1.211,4.315-4.607,8.532-4.607
	c2.85,0,5.625,1.555,8.262,4.615C17.362,8.715,14.08,12.111,9.863,12.111z"/>
<path fill="#969696" d="M10,3.974c-1.959,0-3.556,1.583-3.556,3.526S8.041,11.026,10,11.026c1.959,0,3.556-1.583,3.556-3.526
	S11.959,3.974,10,3.974z M10,9.638c-1.188,0-2.155-0.96-2.155-2.138c0-1.178,0.967-2.138,2.155-2.138
	c1.188,0,2.155,0.959,2.155,2.138C12.155,8.678,11.188,9.638,10,9.638z"/>
</svg>
