<svg width="50" height="50" viewBox="0 0 50 50" fill="none" xmlns="http://www.w3.org/2000/svg">
<g clip-path="url(#clip0)">
<path d="M24.5693 34.5833C34.4486 34.5833 42.4573 26.8416 42.4573 17.2917C42.4573 7.74174 34.4486 0 24.5693 0C14.6901 0 6.6814 7.74174 6.6814 17.2917C6.6814 26.8416 14.6901 34.5833 24.5693 34.5833Z" stroke="white" stroke-miterlimit="10" stroke-linecap="round" stroke-linejoin="round"/>
<path d="M24.1379 34.7916L16.3793 50L13.3621 42.5L6.25 43.5416L12.931 30.4166" stroke="white" stroke-miterlimit="10" stroke-linecap="round" stroke-linejoin="round"/>
<path d="M37.0694 30.4166L43.7505 43.5416L36.6384 42.5L33.6212 50L25.8625 34.7916" stroke="white" stroke-miterlimit="10" stroke-linecap="round" stroke-linejoin="round"/>
<path d="M25.8626 8.33335L28.0178 12.5C28.2333 12.9167 28.4488 13.125 28.8799 13.125L33.6212 13.5417C34.4833 13.75 34.9144 14.7917 34.2678 15.4167L30.8195 18.5417C30.604 18.75 30.3885 19.1667 30.3885 19.5833L31.2506 24.1667C31.4661 25 30.3885 25.8333 29.5264 25.4167L25.4316 23.3333C25.0006 23.125 24.785 23.125 24.354 23.3333L20.2592 25.4167C19.3971 25.8333 18.535 25.2083 18.535 24.1667L19.3971 19.5833C19.3971 19.1667 19.3971 18.9583 18.9661 18.5417L15.7333 15.4167C15.0868 14.7917 15.3023 13.75 16.3799 13.5417L21.1212 12.9167C21.5523 12.9167 21.7678 12.7083 21.9833 12.2917L24.1385 8.12501C24.354 7.50001 25.6471 7.50001 25.8626 8.33335Z" stroke="white" stroke-miterlimit="10" stroke-linecap="round" stroke-linejoin="round"/>
</g>
<defs>
<clipPath id="clip0">
<rect width="50" height="50" fill="white"/>
</clipPath>
</defs>
</svg>
