<svg width="94" height="94" viewBox="0 0 94 94" fill="none" xmlns="http://www.w3.org/2000/svg">
<g filter="url(#filter0_d)">
<rect x="7" y="4" width="80" height="80" rx="40" fill="url(#paint0_linear)"/>
</g>
<path d="M65.2001 23H51.2001C49.6537 23 48.4001 24.2536 48.4001 25.8V34.2C48.4001 35.7464 49.6537 37 51.2001 37H51.632L51.2057 40.4132C51.1698 40.7013 51.3154 40.9816 51.5718 41.1179C51.8281 41.2542 52.142 41.218 52.3607 41.0271L56.9653 37H65.2001C66.7465 37 68.0001 35.7464 68.0001 34.2V25.8C68.0001 24.2536 66.7465 23 65.2001 23ZM66.6001 34.2C66.6001 34.9732 65.9733 35.6 65.2001 35.6H56.7021C56.5327 35.6 56.369 35.6614 56.2415 35.7729L52.8227 38.7633L53.1195 36.3868C53.1444 36.1876 53.0826 35.9873 52.9497 35.8368C52.8169 35.6863 52.6258 35.6001 52.4251 35.6H51.2001C50.4269 35.6 49.8001 34.9732 49.8001 34.2V25.8C49.8001 25.0268 50.4269 24.4 51.2001 24.4H65.2001C65.9733 24.4 66.6001 25.0268 66.6001 25.8V34.2Z" fill="white"/>
<path d="M53.3 27.9C52.1402 27.9 51.2 28.8402 51.2 30C51.2 31.1598 52.1402 32.1 53.3 32.1C54.4598 32.1 55.4 31.1598 55.4 30C55.4 28.8402 54.4598 27.9 53.3 27.9ZM53.3 30.7C52.9134 30.7 52.6 30.3866 52.6 30C52.6 29.6134 52.9134 29.3 53.3 29.3C53.6866 29.3 54 29.6134 54 30C54 30.3866 53.6866 30.7 53.3 30.7Z" fill="white"/>
<path d="M58.1999 27.9C57.0401 27.9 56.0999 28.8402 56.0999 30C56.0999 31.1598 57.0401 32.1 58.1999 32.1C59.3597 32.1 60.2999 31.1598 60.2999 30C60.2999 28.8402 59.3597 27.9 58.1999 27.9ZM58.1999 30.7C57.8133 30.7 57.4999 30.3866 57.4999 30C57.4999 29.6134 57.8133 29.3 58.1999 29.3C58.5865 29.3 58.8999 29.6134 58.8999 30C58.8999 30.3866 58.5865 30.7 58.1999 30.7Z" fill="white"/>
<path d="M63.1 27.9C61.9402 27.9 61 28.8402 61 30C61 31.1598 61.9402 32.1 63.1 32.1C64.2598 32.1 65.2 31.1598 65.2 30C65.2 28.8402 64.2598 27.9 63.1 27.9ZM63.1 30.7C62.7134 30.7 62.4 30.3866 62.4 30C62.4 29.6134 62.7134 29.3 63.1 29.3C63.4866 29.3 63.8 29.6134 63.8 30C63.8 30.3866 63.4866 30.7 63.1 30.7Z" fill="white"/>
<path d="M65.2 47.5H59.0652L54.4606 43.4729C54.2419 43.282 53.928 43.2459 53.6717 43.3821C53.4153 43.5184 53.2697 43.7987 53.3056 44.0868L53.7319 47.5H53.3C51.7536 47.5 50.5 48.7536 50.5 50.3V56.6C50.5 58.1464 51.7536 59.4 53.3 59.4H65.2C66.7464 59.4 68 58.1464 68 56.6V50.3C68 48.7536 66.7464 47.5 65.2 47.5ZM66.6 56.6C66.6 57.3732 65.9732 58 65.2 58H53.3C52.5268 58 51.9 57.3732 51.9 56.6V50.3C51.9 49.5268 52.5268 48.9 53.3 48.9H54.525C54.7257 48.9 54.9168 48.8137 55.0496 48.6632C55.1825 48.5127 55.2443 48.3124 55.2194 48.1132L54.9226 45.7367L58.34 48.7271C58.4679 48.8389 58.6321 48.9004 58.802 48.9H65.2C65.9732 48.9 66.6 49.5268 66.6 50.3V56.6Z" fill="white"/>
<path d="M28.8 47.5H30.6368C31.1057 48.3089 31.7059 49.0342 32.4127 49.6462C28.8862 51.6266 26.7022 55.3554 26.7 59.4V62.9C26.7 64.0598 27.6402 65 28.8 65H47C48.1598 65 49.1 64.0598 49.1 62.9V59.4C49.0922 55.3569 46.9116 51.6302 43.3908 49.6427C44.0959 49.0313 44.6949 48.3073 45.1632 47.5H47C48.5464 47.5 49.8 46.2464 49.8 44.7V41.9C49.7971 40.9145 49.2749 40.0036 48.4259 39.5032C46.8303 35.0621 42.619 32.1002 37.9 32.1002C33.181 32.1002 28.9697 35.0621 27.3741 39.5032C26.5251 40.0036 26.0029 40.9145 26 41.9V44.7C26 46.2464 27.2536 47.5 28.8 47.5ZM28.8 46.1C28.0268 46.1 27.4 45.4732 27.4 44.7V41.9C27.4 41.1268 28.0268 40.5 28.8 40.5H29.99C29.3367 42.3095 29.3367 44.2905 29.99 46.1H28.8ZM30.9 43.3C30.8991 40.5481 32.5106 38.0509 35.0186 36.9181C37.5266 35.7854 40.4656 36.2272 42.5297 38.0473C44.5938 39.8673 45.3999 42.728 44.5899 45.358C43.2865 45.7828 41.9289 46.0186 40.5586 46.058C40.2507 45.2428 39.4714 44.7025 38.6 44.7H37.2C36.0402 44.7 35.1 45.6402 35.1 46.8C35.1 47.9598 36.0402 48.9 37.2 48.9H38.6C39.5022 48.8972 40.3012 48.3171 40.5831 47.4601C41.6684 47.4166 42.7477 47.276 43.808 47.0401C42.1457 49.6759 38.9399 50.8938 35.9468 50.0266C32.9537 49.1593 30.8956 46.4162 30.9 43.3ZM39.3 46.8C39.3 47.1866 38.9866 47.5 38.6 47.5H37.2C36.8134 47.5 36.5 47.1866 36.5 46.8C36.5 46.4134 36.8134 46.1 37.2 46.1H38.6C38.9866 46.1 39.3 46.4134 39.3 46.8ZM44.8258 52.4756C46.6725 54.3057 47.7078 56.8001 47.7 59.4V62.9C47.7 63.2866 47.3866 63.6 47 63.6H43.5V59.4C43.5 59.0134 43.1866 58.7 42.8 58.7C42.4134 58.7 42.1 59.0134 42.1 59.4V63.6H33.7V59.4C33.7 59.0134 33.3866 58.7 33 58.7C32.6134 58.7 32.3 59.0134 32.3 59.4V63.6H28.8C28.4134 63.6 28.1 63.2866 28.1 62.9V59.4C28.1032 55.6214 30.2785 52.1812 33.6909 50.5583C36.2898 52.0794 39.5074 52.0794 42.1063 50.5583C43.1177 51.0339 44.038 51.6828 44.8258 52.4756ZM48.4 44.7C48.4 45.4732 47.7732 46.1 47 46.1H45.81C46.4633 44.2905 46.4633 42.3095 45.81 40.5H47C47.7732 40.5 48.4 41.1268 48.4 41.9V44.7ZM37.9 33.5C41.6831 33.4983 45.1277 35.6794 46.7438 39.1H45.1632C43.6676 36.5017 40.898 34.9001 37.9 34.9001C34.902 34.9001 32.1324 36.5017 30.6368 39.1H29.0562C30.6723 35.6794 34.1169 33.4983 37.9 33.5Z" fill="white"/>
<path d="M53.9999 52.4H56.0999C56.4865 52.4 56.7999 52.0866 56.7999 51.7C56.7999 51.3134 56.4865 51 56.0999 51H53.9999C53.6133 51 53.2999 51.3134 53.2999 51.7C53.2999 52.0866 53.6133 52.4 53.9999 52.4Z" fill="white"/>
<path d="M64.5 51H58.9C58.5134 51 58.2 51.3134 58.2 51.7C58.2 52.0866 58.5134 52.4 58.9 52.4H64.5C64.8866 52.4 65.2 52.0866 65.2 51.7C65.2 51.3134 64.8866 51 64.5 51Z" fill="white"/>
<path d="M64.5 54.5H62.4C62.0134 54.5 61.7 54.8134 61.7 55.2C61.7 55.5866 62.0134 55.9 62.4 55.9H64.5C64.8866 55.9 65.2 55.5866 65.2 55.2C65.2 54.8134 64.8866 54.5 64.5 54.5Z" fill="white"/>
<path d="M59.5999 54.5H53.9999C53.6133 54.5 53.2999 54.8134 53.2999 55.2C53.2999 55.5866 53.6133 55.9 53.9999 55.9H59.5999C59.9865 55.9 60.2999 55.5866 60.2999 55.2C60.2999 54.8134 59.9865 54.5 59.5999 54.5Z" fill="white"/>
<defs>
<filter id="filter0_d" x="0" y="0" width="94" height="94" filterUnits="userSpaceOnUse" color-interpolation-filters="sRGB">
<feFlood flood-opacity="0" result="BackgroundImageFix"/>
<feColorMatrix in="SourceAlpha" type="matrix" values="0 0 0 0 0 0 0 0 0 0 0 0 0 0 0 0 0 0 127 0"/>
<feOffset dy="3"/>
<feGaussianBlur stdDeviation="3.5"/>
<feColorMatrix type="matrix" values="0 0 0 0 0 0 0 0 0 0 0 0 0 0 0 0 0 0 0.3 0"/>
<feBlend mode="normal" in2="BackgroundImageFix" result="effect1_dropShadow"/>
<feBlend mode="normal" in="SourceGraphic" in2="effect1_dropShadow" result="shape"/>
</filter>
<linearGradient id="paint0_linear" x1="47" y1="4" x2="47" y2="84" gradientUnits="userSpaceOnUse">
<stop stop-color="#1FA9B2"/>
<stop offset="1" stop-color="#1F69B2"/>
</linearGradient>
</defs>
</svg>
