<svg width="24" height="23" viewBox="0 0 24 23" fill="none" xmlns="http://www.w3.org/2000/svg">
<path d="M11.9606 12.9078C15.5074 12.9078 18.3842 10.0129 18.3842 6.44397C18.3842 2.875 15.5074 0 11.9606 0C8.41377 0 5.53693 2.89483 5.53693 6.44397C5.53693 9.9931 8.41377 12.9078 11.9606 12.9078ZM11.9606 1.68534C14.5616 1.68534 16.6896 3.82672 16.6896 6.44397C16.6896 9.06121 14.5616 11.2026 11.9606 11.2026C9.35959 11.2026 7.23151 9.06121 7.23151 6.44397C7.23151 3.82672 9.35959 1.68534 11.9606 1.68534Z" fill="#767676"/>
<path d="M0.847291 23H23.1527C23.6256 23 24 22.6233 24 22.1474C24 17.6862 20.3941 14.038 15.9409 14.038H8.05911C3.62562 14.038 0 17.6664 0 22.1474C0 22.6233 0.374384 23 0.847291 23ZM8.05911 15.7431H15.9409C19.1724 15.7431 21.8325 18.1621 22.2463 21.2949H1.75369C2.16749 18.1819 4.82759 15.7431 8.05911 15.7431Z" fill="#767676"/>
</svg>
