<svg width="24" height="24" viewBox="0 0 24 24" fill="none" xmlns="http://www.w3.org/2000/svg">
<path d="M23.0567 18.0634C20.8994 16.1883 18.9029 13.5427 18.9029 6.93739C18.9029 3.11208 15.8065 0 12.0004 0C8.19382 0 5.09696 3.11208 5.09696 6.93739C5.09696 13.5487 3.10127 16.1917 0.942043 18.0652C0.343399 18.5892 0 19.3439 0 20.1359C0 20.5717 0.351565 20.9251 0.78521 20.9251H8.23685C8.60035 22.6785 10.1494 24 12 24C13.8506 24 15.3997 22.6786 15.7631 20.9251H23.2148C23.6484 20.9251 24 20.5717 24 20.1359C24 19.3375 23.6558 18.5817 23.0567 18.0634ZM12 22.4216C11.0222 22.4216 10.1866 21.7977 9.86622 20.9251H14.1338C13.8134 21.7977 12.9778 22.4216 12 22.4216ZM1.87969 19.3467C1.90827 19.3155 1.93874 19.2858 1.97088 19.2577C5.26279 16.4013 6.66727 12.7166 6.66727 6.93739C6.66727 3.98241 9.05975 1.5784 12.0003 1.5784C14.9405 1.5784 17.3324 3.98241 17.3324 6.93739C17.3324 12.7114 18.7371 16.3959 22.0307 19.2585C22.0628 19.2864 22.0933 19.3157 22.122 19.3467H1.87969Z" fill="#767676"/>
</svg>
