<svg width="20" height="20" viewBox="0 0 20 20" fill="none" xmlns="http://www.w3.org/2000/svg">
<path d="M1.25342 0.999756H4.40342L5.90342 12.8498C5.97842 13.2248 6.27842 13.5248 6.65342 13.5248H15.5784C15.8784 13.5248 16.1784 13.2998 16.3284 12.9998L17.3034 10.3748" stroke="#F37721" stroke-miterlimit="10" stroke-linecap="round" stroke-linejoin="round"/>
<path d="M11.4533 4.89975H5.15332" stroke="#F37721" stroke-miterlimit="10" stroke-linecap="round" stroke-linejoin="round"/>
<path d="M16.9283 17.4248C16.9283 18.3248 16.2533 18.9998 15.3533 18.9998C14.4533 18.9998 13.7783 18.3248 13.7783 17.4248C13.7783 16.5248 14.4533 15.8498 15.3533 15.8498C16.1783 15.8498 16.9283 16.5998 16.9283 17.4248Z" stroke="#F37721" stroke-miterlimit="10" stroke-linecap="round" stroke-linejoin="round"/>
<path d="M8.30332 17.4248C8.30332 18.3248 7.62832 18.9998 6.72832 18.9998C5.82832 18.9998 5.15332 18.3248 5.15332 17.4248C5.15332 16.5248 5.82832 15.8498 6.72832 15.8498C7.62832 15.8498 8.30332 16.5998 8.30332 17.4248Z" stroke="#F37721" stroke-miterlimit="10" stroke-linecap="round" stroke-linejoin="round"/>
<path d="M16.9282 2.57475V7.22475" stroke="#F37721" stroke-miterlimit="10" stroke-linecap="round" stroke-linejoin="round"/>
<path d="M19.2533 4.89975H14.5283" stroke="#F37721" stroke-miterlimit="10" stroke-linecap="round" stroke-linejoin="round"/>
</svg>
