<svg width="60" height="56" viewBox="0 0 60 56" fill="none" xmlns="http://www.w3.org/2000/svg">
<path d="M22 48.625H8H3C1.25 48.625 0 47.3973 0 45.6786V37.3304V3.44643C0 1.72768 1.25 0.5 3 0.5H32.75C34.5 0.5 35.75 1.72768 35.75 3.44643V30.9464" stroke="#1F69B2" stroke-miterlimit="10" stroke-linecap="round" stroke-linejoin="round"/>
<path d="M58.2495 55.5H23.7495C22.7495 55.5 21.9995 54.7634 21.9995 53.7813V32.6652C21.9995 31.6831 22.7495 30.9465 23.7495 30.9465H58.2495C59.2495 30.9465 59.9995 31.6831 59.9995 32.6652V53.7813C59.9995 54.7634 59.2495 55.5 58.2495 55.5Z" stroke="#1F69B2" stroke-miterlimit="10" stroke-linecap="round" stroke-linejoin="round"/>
<path d="M59.9998 36.1027H22.2498V41.0134H59.9998V36.1027Z" stroke="#1F69B2" stroke-miterlimit="10" stroke-linecap="round" stroke-linejoin="round"/>
<path d="M46.7493 50.5894H54.9993" stroke="#1F69B2" stroke-miterlimit="10" stroke-linecap="round" stroke-linejoin="round"/>
<path d="M6.75049 12.0402L10.0005 15.2322L15.0005 10.3215" stroke="#1F69B2" stroke-miterlimit="10" stroke-linecap="round" stroke-linejoin="round"/>
<path d="M19.7498 13.5133H30.2498" stroke="#1F69B2" stroke-miterlimit="10" stroke-linecap="round" stroke-linejoin="round"/>
<path d="M6.75049 21.6162L10.0005 24.8081L15.0005 19.8974" stroke="#1F69B2" stroke-miterlimit="10" stroke-linecap="round" stroke-linejoin="round"/>
<path d="M19.7498 23.0893H30.2498" stroke="#1F69B2" stroke-miterlimit="10" stroke-linecap="round" stroke-linejoin="round"/>
</svg>
