<svg width="68" height="12" viewBox="0 0 68 12" fill="none" xmlns="http://www.w3.org/2000/svg">
<path d="M67.7396 5.43795C67.9758 5.19768 68.0592 4.84505 67.9573 4.51725C67.8552 4.18945 67.5892 3.95545 67.2624 3.90579L64.3568 3.46512C64.2331 3.44631 64.1262 3.3653 64.0709 3.24818L62.7719 0.500362C62.6261 0.191621 62.33 -0.000244141 62.0001 -0.000244141C61.6704 -0.000244141 61.3744 0.191621 61.2286 0.500362L59.9293 3.24843C59.8741 3.36555 59.7669 3.44656 59.6432 3.46537L56.7376 3.90604C56.4111 3.95545 56.1448 4.1897 56.0427 4.5175C55.9408 4.8453 56.0242 5.19793 56.2604 5.4382L58.3627 7.57707C58.4523 7.66836 58.4934 7.79978 58.4722 7.92819L57.9763 10.9484C57.9323 11.2142 57.9991 11.4728 58.164 11.6767C58.4201 11.9945 58.8673 12.0913 59.2248 11.8952L61.8233 10.4691C61.9319 10.4097 62.0686 10.4102 62.177 10.4691L64.7757 11.8952C64.902 11.9646 65.0368 11.9998 65.176 11.9998C65.43 11.9998 65.6707 11.8819 65.8363 11.6767C66.0014 11.4728 66.0679 11.2137 66.0239 10.9484L65.5278 7.92819C65.5066 7.79953 65.5477 7.66836 65.6373 7.57707L67.7396 5.43795Z" fill="#DDDDDD"/>
<path d="M67.7396 5.43795C67.9758 5.19768 68.0592 4.84505 67.9573 4.51725C67.8552 4.18945 67.5892 3.95545 67.2624 3.90579L64.3568 3.46512C64.2331 3.44631 64.1262 3.3653 64.0709 3.24818L62.7719 0.500362C62.6261 0.191621 62.33 -0.000244141 62.0001 -0.000244141C61.6704 -0.000244141 61.3744 0.191621 61.2286 0.500362L59.9293 3.24843C59.8741 3.36555 59.7669 3.44656 59.6432 3.46537L56.7376 3.90604C56.4111 3.95545 56.1448 4.1897 56.0427 4.5175C55.9408 4.8453 56.0242 5.19793 56.2604 5.4382L58.3627 7.57707C58.4523 7.66836 58.4934 7.79978 58.4722 7.92819L57.9763 10.9484C57.9323 11.2142 57.9991 11.4728 58.164 11.6767C58.4201 11.9945 58.8673 12.0913 59.2248 11.8952L61.8233 10.4691C61.9319 10.4097 62.0686 10.4102 62.177 10.4691L64.7757 11.8952C64.902 11.9646 65.0368 11.9998 65.176 11.9998C65.43 11.9998 65.6707 11.8819 65.8363 11.6767C66.0014 11.4728 66.0679 11.2137 66.0239 10.9484L65.5278 7.92819C65.5066 7.79953 65.5477 7.66836 65.6373 7.57707L67.7396 5.43795Z" fill="#F3B821"/>
<path d="M53.7396 5.43795C53.9758 5.19768 54.0592 4.84505 53.9573 4.51725C53.8552 4.18945 53.5892 3.95545 53.2624 3.90579L50.3568 3.46512C50.2331 3.44631 50.1262 3.3653 50.0709 3.24818L48.7719 0.500362C48.6261 0.191621 48.33 -0.000244141 48.0001 -0.000244141C47.6704 -0.000244141 47.3744 0.191621 47.2286 0.500362L45.9293 3.24843C45.8741 3.36555 45.7669 3.44656 45.6432 3.46537L42.7376 3.90604C42.4111 3.95545 42.1448 4.1897 42.0427 4.5175C41.9408 4.8453 42.0242 5.19793 42.2604 5.4382L44.3627 7.57707C44.4523 7.66836 44.4934 7.79978 44.4722 7.92819L43.9763 10.9484C43.9323 11.2142 43.9991 11.4728 44.164 11.6767C44.4201 11.9945 44.8673 12.0913 45.2248 11.8952L47.8233 10.4691C47.9319 10.4097 48.0686 10.4102 48.177 10.4691L50.7757 11.8952C50.902 11.9646 51.0368 11.9998 51.176 11.9998C51.43 11.9998 51.6707 11.8819 51.8363 11.6767C52.0014 11.4728 52.0679 11.2137 52.0239 10.9484L51.5278 7.92819C51.5066 7.79953 51.5477 7.66836 51.6373 7.57707L53.7396 5.43795Z" fill="#DDDDDD"/>
<path d="M53.7396 5.43795C53.9758 5.19768 54.0592 4.84505 53.9573 4.51725C53.8552 4.18945 53.5892 3.95545 53.2624 3.90579L50.3568 3.46512C50.2331 3.44631 50.1262 3.3653 50.0709 3.24818L48.7719 0.500362C48.6261 0.191621 48.33 -0.000244141 48.0001 -0.000244141C47.6704 -0.000244141 47.3744 0.191621 47.2286 0.500362L45.9293 3.24843C45.8741 3.36555 45.7669 3.44656 45.6432 3.46537L42.7376 3.90604C42.4111 3.95545 42.1448 4.1897 42.0427 4.5175C41.9408 4.8453 42.0242 5.19793 42.2604 5.4382L44.3627 7.57707C44.4523 7.66836 44.4934 7.79978 44.4722 7.92819L43.9763 10.9484C43.9323 11.2142 43.9991 11.4728 44.164 11.6767C44.4201 11.9945 44.8673 12.0913 45.2248 11.8952L47.8233 10.4691C47.9319 10.4097 48.0686 10.4102 48.177 10.4691L50.7757 11.8952C50.902 11.9646 51.0368 11.9998 51.176 11.9998C51.43 11.9998 51.6707 11.8819 51.8363 11.6767C52.0014 11.4728 52.0679 11.2137 52.0239 10.9484L51.5278 7.92819C51.5066 7.79953 51.5477 7.66836 51.6373 7.57707L53.7396 5.43795Z" fill="#F3B821"/>
<path d="M39.7396 5.43795C39.9758 5.19768 40.0592 4.84505 39.9573 4.51725C39.8552 4.18945 39.5892 3.95545 39.2624 3.90579L36.3568 3.46512C36.2331 3.44631 36.1262 3.3653 36.0709 3.24818L34.7719 0.500362C34.6261 0.191621 34.33 -0.000244141 34.0001 -0.000244141C33.6704 -0.000244141 33.3744 0.191621 33.2286 0.500362L31.9293 3.24843C31.8741 3.36555 31.7669 3.44656 31.6432 3.46537L28.7376 3.90604C28.4111 3.95545 28.1448 4.1897 28.0427 4.5175C27.9408 4.8453 28.0242 5.19793 28.2604 5.4382L30.3627 7.57707C30.4523 7.66836 30.4934 7.79978 30.4722 7.92819L29.9763 10.9484C29.9323 11.2142 29.9991 11.4728 30.164 11.6767C30.4201 11.9945 30.8673 12.0913 31.2248 11.8952L33.8233 10.4691C33.9319 10.4097 34.0686 10.4102 34.177 10.4691L36.7757 11.8952C36.902 11.9646 37.0368 11.9998 37.176 11.9998C37.43 11.9998 37.6707 11.8819 37.8363 11.6767C38.0014 11.4728 38.0679 11.2137 38.0239 10.9484L37.5278 7.92819C37.5066 7.79953 37.5477 7.66836 37.6373 7.57707L39.7396 5.43795Z" fill="#DDDDDD"/>
<path d="M39.7396 5.43795C39.9758 5.19768 40.0592 4.84505 39.9573 4.51725C39.8552 4.18945 39.5892 3.95545 39.2624 3.90579L36.3568 3.46512C36.2331 3.44631 36.1262 3.3653 36.0709 3.24818L34.7719 0.500362C34.6261 0.191621 34.33 -0.000244141 34.0001 -0.000244141C33.6704 -0.000244141 33.3744 0.191621 33.2286 0.500362L31.9293 3.24843C31.8741 3.36555 31.7669 3.44656 31.6432 3.46537L28.7376 3.90604C28.4111 3.95545 28.1448 4.1897 28.0427 4.5175C27.9408 4.8453 28.0242 5.19793 28.2604 5.4382L30.3627 7.57707C30.4523 7.66836 30.4934 7.79978 30.4722 7.92819L29.9763 10.9484C29.9323 11.2142 29.9991 11.4728 30.164 11.6767C30.4201 11.9945 30.8673 12.0913 31.2248 11.8952L33.8233 10.4691C33.9319 10.4097 34.0686 10.4102 34.177 10.4691L36.7757 11.8952C36.902 11.9646 37.0368 11.9998 37.176 11.9998C37.43 11.9998 37.6707 11.8819 37.8363 11.6767C38.0014 11.4728 38.0679 11.2137 38.0239 10.9484L37.5278 7.92819C37.5066 7.79953 37.5477 7.66836 37.6373 7.57707L39.7396 5.43795Z" fill="#F3B821"/>
<path d="M25.7396 5.43795C25.9758 5.19768 26.0592 4.84505 25.9573 4.51725C25.8552 4.18945 25.5892 3.95545 25.2624 3.90579L22.3568 3.46512C22.2331 3.44631 22.1262 3.3653 22.0709 3.24818L20.7719 0.500362C20.6261 0.191621 20.33 -0.000244141 20.0001 -0.000244141C19.6704 -0.000244141 19.3744 0.191621 19.2286 0.500362L17.9293 3.24843C17.8741 3.36555 17.7669 3.44656 17.6432 3.46537L14.7376 3.90604C14.4111 3.95545 14.1448 4.1897 14.0427 4.5175C13.9408 4.8453 14.0242 5.19793 14.2604 5.4382L16.3627 7.57707C16.4523 7.66836 16.4934 7.79978 16.4722 7.92819L15.9763 10.9484C15.9323 11.2142 15.9991 11.4728 16.164 11.6767C16.4201 11.9945 16.8673 12.0913 17.2248 11.8952L19.8233 10.4691C19.9319 10.4097 20.0686 10.4102 20.177 10.4691L22.7757 11.8952C22.902 11.9646 23.0368 11.9998 23.176 11.9998C23.43 11.9998 23.6707 11.8819 23.8363 11.6767C24.0014 11.4728 24.0679 11.2137 24.0239 10.9484L23.5278 7.92819C23.5066 7.79953 23.5477 7.66836 23.6373 7.57707L25.7396 5.43795Z" fill="#DDDDDD"/>
<path d="M25.7396 5.43795C25.9758 5.19768 26.0592 4.84505 25.9573 4.51725C25.8552 4.18945 25.5892 3.95545 25.2624 3.90579L22.3568 3.46512C22.2331 3.44631 22.1262 3.3653 22.0709 3.24818L20.7719 0.500362C20.6261 0.191621 20.33 -0.000244141 20.0001 -0.000244141C19.6704 -0.000244141 19.3744 0.191621 19.2286 0.500362L17.9293 3.24843C17.8741 3.36555 17.7669 3.44656 17.6432 3.46537L14.7376 3.90604C14.4111 3.95545 14.1448 4.1897 14.0427 4.5175C13.9408 4.8453 14.0242 5.19793 14.2604 5.4382L16.3627 7.57707C16.4523 7.66836 16.4934 7.79978 16.4722 7.92819L15.9763 10.9484C15.9323 11.2142 15.9991 11.4728 16.164 11.6767C16.4201 11.9945 16.8673 12.0913 17.2248 11.8952L19.8233 10.4691C19.9319 10.4097 20.0686 10.4102 20.177 10.4691L22.7757 11.8952C22.902 11.9646 23.0368 11.9998 23.176 11.9998C23.43 11.9998 23.6707 11.8819 23.8363 11.6767C24.0014 11.4728 24.0679 11.2137 24.0239 10.9484L23.5278 7.92819C23.5066 7.79953 23.5477 7.66836 23.6373 7.57707L25.7396 5.43795Z" fill="#F3B821"/>
<path d="M11.7396 5.43795C11.9758 5.19768 12.0592 4.84505 11.9573 4.51725C11.8552 4.18945 11.5892 3.95545 11.2624 3.90579L8.35684 3.46512C8.23309 3.44631 8.12617 3.3653 8.0709 3.24818L6.77192 0.500362C6.62606 0.191621 6.33003 -0.000244141 6.00012 -0.000244141C5.67045 -0.000244141 5.37442 0.191621 5.22856 0.500362L3.92934 3.24843C3.87407 3.36555 3.76691 3.44656 3.64316 3.46537L0.737627 3.90604C0.411079 3.95545 0.144842 4.1897 0.042721 4.5175C-0.0591601 4.8453 0.024219 5.19793 0.26042 5.4382L2.36268 7.57707C2.4523 7.66836 2.49339 7.79978 2.47225 7.92819L1.9763 10.9484C1.93233 11.2142 1.99913 11.4728 2.16396 11.6767C2.42011 11.9945 2.86728 12.0913 3.22482 11.8952L5.82327 10.4691C5.93188 10.4097 6.0686 10.4102 6.17697 10.4691L8.77566 11.8952C8.90205 11.9646 9.03685 11.9998 9.17597 11.9998C9.42996 11.9998 9.67072 11.8819 9.83628 11.6767C10.0014 11.4728 10.0679 11.2137 10.0239 10.9484L9.52775 7.92819C9.50661 7.79953 9.5477 7.66836 9.63732 7.57707L11.7396 5.43795Z" fill="#DDDDDD"/>
<path d="M11.7396 5.43795C11.9758 5.19768 12.0592 4.84505 11.9573 4.51725C11.8552 4.18945 11.5892 3.95545 11.2624 3.90579L8.35684 3.46512C8.23309 3.44631 8.12617 3.3653 8.0709 3.24818L6.77192 0.500362C6.62606 0.191621 6.33003 -0.000244141 6.00012 -0.000244141C5.67045 -0.000244141 5.37442 0.191621 5.22856 0.500362L3.92934 3.24843C3.87407 3.36555 3.76691 3.44656 3.64316 3.46537L0.737627 3.90604C0.411079 3.95545 0.144842 4.1897 0.042721 4.5175C-0.0591601 4.8453 0.024219 5.19793 0.26042 5.4382L2.36268 7.57707C2.4523 7.66836 2.49339 7.79978 2.47225 7.92819L1.9763 10.9484C1.93233 11.2142 1.99913 11.4728 2.16396 11.6767C2.42011 11.9945 2.86728 12.0913 3.22482 11.8952L5.82327 10.4691C5.93188 10.4097 6.0686 10.4102 6.17697 10.4691L8.77566 11.8952C8.90205 11.9646 9.03685 11.9998 9.17597 11.9998C9.42996 11.9998 9.67072 11.8819 9.83628 11.6767C10.0014 11.4728 10.0679 11.2137 10.0239 10.9484L9.52775 7.92819C9.50661 7.79953 9.5477 7.66836 9.63732 7.57707L11.7396 5.43795Z" fill="#F3B821"/>
</svg>
