<svg width="70" height="70" viewBox="0 0 70 70" fill="none" xmlns="http://www.w3.org/2000/svg">
<g clip-path="url(#clip0)">
<path d="M68.957 8.58282C68.3807 8.58282 67.9134 9.05013 67.9134 9.62584V49.2609C67.9134 49.4906 67.7254 49.678 67.4963 49.678H51.1697V32.4125C51.1697 31.3374 50.2943 30.4626 49.2177 30.4626H44.6024V25.3464C44.6024 24.7701 44.1351 24.3028 43.5593 24.3028C42.982 24.3028 42.5158 24.7701 42.5158 25.3464V30.4626C41.5369 30.4626 18.7588 30.4626 17.9609 30.4626H17.8722C16.8981 30.4626 16.1056 31.2552 16.1056 32.2293V32.3179V53.7791C14.607 54.0092 12.9114 53.9948 11.0197 53.9777V51.9093C11.0197 50.6799 10.0184 49.678 8.78738 49.678H2.23236C1.00136 49.678 0 50.6799 0 51.9093V66.3054C0 67.5353 1.00136 68.5367 2.23236 68.5367H8.78738C10.0184 68.5367 11.0197 67.5353 11.0197 66.3054V64.3929C20.1906 64.3502 18.5735 64.0693 24.3402 66.692C24.8647 66.9313 25.4836 66.7006 25.7218 66.1761C25.9611 65.6517 25.7304 65.0327 25.2059 64.7935C19.0803 62.0014 20.4128 62.2631 11.0197 62.3074V56.0643C14.6033 56.0963 18.5104 56.185 20.9869 53.8458C22.0785 52.8156 23.7132 52.1897 25.4089 52.3937L32.9092 53.7192C32.5492 54.4258 31.7962 54.8904 30.9465 54.8904H29.8853C26.721 54.8904 25.0874 58.7223 27.3827 60.9306C28.045 61.5694 28.9417 61.9437 29.9478 61.9122C33.8384 61.7702 37.9197 61.4294 44.6024 59.2361C48.7749 57.8646 49.0324 57.5474 49.4682 57.5474C50.461 57.5474 50.7547 58.8611 49.9173 59.314C43.1107 62.7518 35.1373 66.7086 28.8893 65.8909C28.3163 65.8172 27.7945 66.2205 27.7208 66.7924C27.6471 67.3639 28.0503 67.8873 28.6223 67.961C33.9271 68.652 39.9 66.3588 44.8138 64.1157C46.4801 63.3558 50.6847 61.3194 51.1697 60.9915C52.9486 59.7856 52.9208 57.1607 51.1697 55.9799V51.7646H67.4963C68.8774 51.7646 70 50.6409 70 49.2609V9.62584C70 9.05013 69.5327 8.58282 68.957 8.58282ZM8.93318 66.3054C8.93318 66.3844 8.86803 66.4501 8.78738 66.4501H2.23236C2.15172 66.4501 2.08656 66.3844 2.08656 66.3054V51.9093C2.08656 51.8303 2.15172 51.7646 2.23236 51.7646H8.78738C8.86803 51.7646 8.93318 51.8303 8.93318 51.9093V66.3054ZM27.3117 32.5492H33.3962V38.6166L31.1943 36.8948C30.6987 36.5055 30.0023 36.5087 29.5136 36.8948L27.3117 38.6166V32.5492ZM42.5158 57.7076C36.9114 59.4155 33.3044 59.7023 29.8725 59.8273C29.4789 59.8411 29.1147 59.7034 28.8306 59.4283C27.8767 58.5108 28.6036 56.977 29.8853 56.977H30.9465C32.9092 56.977 34.6133 55.6766 35.0935 53.7999C35.1949 53.379 35.2238 53.2957 35.2238 53.1072C35.2238 52.4717 34.7693 51.9291 34.1418 51.8175C34.0569 51.8025 25.7752 50.3381 25.6898 50.3253C23.2769 50.0353 21.0216 50.9357 19.554 52.3312C19.1631 52.6997 18.7027 52.986 18.1921 53.2087C18.1921 50.9923 18.1921 32.9764 18.1921 32.5492H25.2251V40.0997C25.2251 41.2421 26.5475 41.869 27.4287 41.1737L30.3537 38.8853L33.2777 41.1737C34.1653 41.8701 35.4828 41.2388 35.4828 40.0997V32.5492H42.5158V57.7076ZM49.0831 55.4859C48.3418 55.5794 48.1699 55.832 44.6024 57.0357V32.5492H49.0831V55.4859Z" fill="#1F69B2"/>
<path d="M67.4962 0H45.0193C43.6382 0 42.5156 1.12419 42.5156 2.50366V21.1732C42.5156 21.7506 42.9819 22.2163 43.5592 22.2163C44.1349 22.2163 44.6022 21.7506 44.6022 21.1732V2.50366C44.6022 2.27455 44.7886 2.08656 45.0193 2.08656H67.4962C67.7253 2.08656 67.9133 2.27455 67.9133 2.50366V5.45273C67.9133 6.02898 68.3806 6.49628 68.9568 6.49628C69.5325 6.49628 69.9998 6.02898 69.9998 5.45273V2.50366C69.9998 1.12419 68.8772 0 67.4962 0Z" fill="#1F69B2"/>
<path d="M49.4352 27.7747C50.0115 27.7747 50.4788 27.3074 50.4788 26.7312V20.6568C50.4788 19.5449 49.5735 18.6402 48.4616 18.6402H47.3951C46.8189 18.6402 46.3516 19.107 46.3516 19.6832C46.3516 20.2595 46.8189 20.7268 47.3951 20.7268H48.3922V26.7312C48.3922 27.3074 48.859 27.7747 49.4352 27.7747Z" fill="#1F69B2"/>
</g>
<defs>
<clipPath id="clip0">
<rect width="70" height="70" fill="white"/>
</clipPath>
</defs>
</svg>
