<svg width="23" height="24" viewBox="0 0 23 24" fill="none" xmlns="http://www.w3.org/2000/svg">
<path d="M19.1207 23C20.179 23 21.037 22.1441 21.037 21.0882C21.037 20.0324 20.179 19.1765 19.1207 19.1765C18.0624 19.1765 17.2045 20.0324 17.2045 21.0882C17.2045 22.1441 18.0624 23 19.1207 23Z" stroke="#FFFFFF" stroke-miterlimit="10" stroke-linecap="round" stroke-linejoin="round"/>
<path d="M7.62346 23C8.68177 23 9.5397 22.1441 9.5397 21.0882C9.5397 20.0324 8.68177 19.1765 7.62346 19.1765C6.56516 19.1765 5.70723 20.0324 5.70723 21.0882C5.70723 22.1441 6.56516 23 7.62346 23Z" stroke="#FFFFFF" stroke-miterlimit="10" stroke-linecap="round" stroke-linejoin="round"/>
<path d="M16.7257 17.2647H9.15655C5.13246 17.2647 3.79109 14.0147 3.79109 10V8.6618H21.9953V10C22.0911 14.0147 20.7498 17.2647 16.7257 17.2647Z" stroke="#FFFFFF" stroke-miterlimit="10" stroke-linecap="round" stroke-linejoin="round"/>
<path d="M15.0011 1.77945L13.8514 8.66179H21.9954V7.8015C21.9954 4.36033 19.4085 1.49269 16.0551 1.01475C15.576 0.919157 15.0969 1.30151 15.0011 1.77945Z" stroke="#FFFFFF" stroke-miterlimit="10" stroke-linecap="round" stroke-linejoin="round"/>
<path d="M0.916672 5.79413H2.83291L3.79102 8.66177" stroke="#FFFFFF" stroke-miterlimit="10" stroke-linecap="round" stroke-linejoin="round"/>
</svg>
