<svg width="24" height="16" viewBox="0 0 24 16" fill="none" xmlns="http://www.w3.org/2000/svg">
<path d="M13.4531 2.90912C12.29 2.90912 11.3438 3.88788 11.3438 5.09094C11.3438 6.29399 12.29 7.27275 13.4531 7.27275C14.6162 7.27275 15.5625 6.29399 15.5625 5.09094C15.5625 3.88788 14.6162 2.90912 13.4531 2.90912ZM13.4531 5.81821C13.0654 5.81821 12.75 5.49195 12.75 5.09094C12.75 4.68992 13.0654 4.36366 13.4531 4.36366C13.8408 4.36366 14.1562 4.68992 14.1562 5.09094C14.1562 5.49195 13.8408 5.81821 13.4531 5.81821Z" fill="#F37721"/>
<path d="M19.0781 8.72723C17.915 8.72723 16.9688 9.706 16.9688 10.9091C16.9688 12.1121 17.915 13.0909 19.0781 13.0909C20.2412 13.0909 21.1875 12.1121 21.1875 10.9091C21.1875 9.706 20.2412 8.72723 19.0781 8.72723ZM19.0781 11.6363C18.6904 11.6363 18.375 11.3101 18.375 10.9091C18.375 10.508 18.6904 10.1818 19.0781 10.1818C19.4658 10.1818 19.7812 10.508 19.7812 10.9091C19.7812 11.3101 19.4658 11.6363 19.0781 11.6363Z" fill="#F37721"/>
<path d="M19.4682 3.03124C19.1452 2.8085 18.7085 2.89878 18.4931 3.23299L12.8681 11.9603C12.6528 12.2944 12.7401 12.746 13.0632 12.9688C13.3863 13.1915 13.8228 13.1013 14.0382 12.767L19.6632 4.03978C19.8786 3.70557 19.7913 3.25403 19.4682 3.03124Z" fill="#F37721"/>
<path d="M23.2969 0H0.703125C0.314812 0 0 0.325624 0 0.727273V5.09091C0 5.49256 0.314812 5.81818 0.703125 5.81818C1.86623 5.81818 2.8125 6.79695 2.8125 8C2.8125 9.20305 1.86623 10.1818 0.703125 10.1818C0.314812 10.1818 0 10.5074 0 10.9091V15.2727C0 15.6744 0.314812 16 0.703125 16H23.2969C23.6852 16 24 15.6744 24 15.2727V0.727273C24 0.325624 23.6852 0 23.2969 0ZM22.5938 14.5455H7.03125V13.8182C7.03125 13.4165 6.71644 13.0909 6.32812 13.0909C5.93981 13.0909 5.625 13.4165 5.625 13.8182V14.5455H1.40625V11.5633C3.00895 11.2255 4.21875 9.75607 4.21875 8C4.21875 6.24393 3.00895 4.77459 1.40625 4.4367V1.45455H5.68359V2.18182C5.68359 2.58347 5.99841 2.90909 6.38672 2.90909C6.77503 2.90909 7.08984 2.58347 7.08984 2.18182V1.45455H22.5938V14.5455Z" fill="#F37721"/>
<path d="M6.32812 8.72723C5.93981 8.72723 5.625 9.05286 5.625 9.45451V10.9091C5.625 11.3107 5.93981 11.6363 6.32812 11.6363C6.71644 11.6363 7.03125 11.3107 7.03125 10.9091V9.45451C7.03125 9.05286 6.71644 8.72723 6.32812 8.72723Z" fill="#F37721"/>
<path d="M6.32812 4.36365C5.93981 4.36365 5.625 4.68927 5.625 5.09092V6.54547C5.625 6.94711 5.93981 7.27274 6.32812 7.27274C6.71644 7.27274 7.03125 6.94711 7.03125 6.54547V5.09092C7.03125 4.68927 6.71644 4.36365 6.32812 4.36365Z" fill="#F37721"/>
</svg>
