<svg width="12" height="12" viewBox="0 0 12 12" fill="none" xmlns="http://www.w3.org/2000/svg">
<path d="M9.30994 5.53176L4.00758 0.191706C3.88495 0.068097 3.72124 0 3.54668 0C3.37212 0 3.20841 0.068097 3.08577 0.191706L2.69529 0.584873C2.4412 0.841066 2.4412 1.25745 2.69529 1.51326L7.14781 5.99751L2.69035 10.4867C2.56771 10.6104 2.5 10.7751 2.5 10.9508C2.5 11.1267 2.56771 11.2915 2.69035 11.4152L3.08083 11.8083C3.20356 11.9319 3.36718 12 3.54174 12C3.7163 12 3.88001 11.9319 4.00264 11.8083L9.30994 6.46336C9.43287 6.33936 9.50039 6.1738 9.5 5.99781C9.50039 5.82112 9.43287 5.65566 9.30994 5.53176Z" fill="#F37721"/>
</svg>
