<svg width="20" height="20" viewBox="0 0 20 20" fill="none" xmlns="http://www.w3.org/2000/svg">
<path d="M10 0C4.48611 0 0 4.48611 0 10C0 15.5139 4.48611 20 10 20C15.5139 20 20 15.5139 20 10C20 4.48611 15.5139 0 10 0ZM10 19.1304C4.96521 19.1304 0.869553 15.0348 0.869553 10C0.869553 4.96521 4.96521 0.869553 10 0.869553C15.0348 0.869553 19.1304 4.96521 19.1304 10C19.1304 15.0348 15.0348 19.1304 10 19.1304Z" fill="#767676"/>
<path d="M14.2209 13.6061L10.4348 9.82V3.0435C10.4348 2.8035 10.24 2.6087 9.99998 2.6087C9.75998 2.6087 9.56519 2.8035 9.56519 3.0435V10C9.56519 10.1157 9.61129 10.2261 9.69216 10.3079L13.6052 14.2209C13.6904 14.3053 13.8017 14.3479 13.913 14.3479C14.0243 14.3479 14.1356 14.3053 14.2209 14.2209C14.3904 14.0513 14.3904 13.7757 14.2209 13.6061Z" fill="#767676"/>
</svg>
