<svg xmlns="http://www.w3.org/2000/svg" width="20" height="20" fill="none"  xmlns:v="https://vecta.io/nano"><g clip-path="url(#A)" fill="#fff"><path d="M.054 1.833l1.333 2.332c.045.079.12.136.208.158l1.243.311 4.265 4.265.471-.471-4.332-4.331c-.043-.043-.096-.073-.155-.088l-1.195-.3L.758 1.722l.973-.973 1.988 1.136.3 1.195c.015.059.045.112.088.155l4.332 4.331.471-.471L4.644 2.83l-.311-1.243c-.022-.088-.079-.164-.158-.209L1.843.046c-.13-.074-.294-.052-.4.054L.111 1.433c-.107.105-.13.269-.057.401zm13.852 4.734l-7.33 7.33-.471-.471 7.33-7.33.471.471zm-8.613 7.589c-.06-.1-.169-.162-.286-.162H3.008c-.117 0-.225.061-.286.162l-1 1.666c-.063.105-.063.238 0 .343l1 1.666c.06.1.169.162.286.162h1.999c.117 0 .225-.061.286-.162l.999-1.666c.063-.106.063-.238 0-.343l-.999-1.666zm-.474 3.17H3.197l-.8-1.333.8-1.333h1.622l.8 1.333-.8 1.333zm11.184-9.329c2.201.007 3.991-1.771 3.998-3.971a4 4 0 0 0-.122-.993c-.044-.179-.225-.287-.404-.243-.059.015-.112.045-.155.088L17.246 4.95 15.6 4.402l-.549-1.645L17.125.682c.13-.13.13-.341 0-.471-.043-.043-.097-.073-.156-.088a3.99 3.99 0 0 0-4.843 2.885 3.99 3.99 0 0 0-.122.991 3.91 3.91 0 0 0 .081.781l-7.297 7.297a3.92 3.92 0 0 0-.781-.081A4 4 0 0 0 .01 15.993a4 4 0 0 0 3.998 3.998 4 4 0 0 0 3.998-3.998 3.92 3.92 0 0 0-.081-.781l1.747-1.747.764.764c.13.13.341.13.471 0l.167-.167c.146-.145.382-.145.528 0s.146.382.001.528l-.167.167c-.13.13-.13.341 0 .471l3.975 3.975a2.69 2.69 0 0 0 3.803.017 2.69 2.69 0 0 0 .017-3.803l-3.992-3.991c-.13-.13-.341-.13-.471 0l-.166.167c-.146.145-.382.145-.529 0s-.146-.382-.001-.528l.167-.167c.13-.13.13-.341 0-.471l-.764-.764 1.747-1.747a3.92 3.92 0 0 0 .781.081zm1.309 11.328a2.02 2.02 0 0 1-.709-.129l2.602-2.602a2.02 2.02 0 0 1-1.894 2.732zm-3.775-8.659a1.04 1.04 0 0 0 1.466 1.464l3.739 3.742.115.127-2.849 2.849-.127-.115-3.742-3.742a1.04 1.04 0 0 0-1.466-1.464l-.533-.533 2.864-2.859.533.532zm1.345-3.351l-7.559 7.557c-.083.083-.116.203-.088.317.457 1.795-.628 3.621-2.423 4.078s-3.621-.628-4.078-2.423.628-3.621 2.423-4.078a3.36 3.36 0 0 1 1.655 0c.114.028.234-.005.317-.088l7.557-7.557c.083-.083.116-.203.088-.316-.454-1.774.616-3.58 2.39-4.034a3.29 3.29 0 0 1 1.027-.097l-1.758 1.758c-.089.089-.12.221-.081.341l.666 1.999c.033.099.111.178.211.211l1.999.666c.119.04.252.009.341-.08l1.758-1.758.006.189c.009 1.831-1.467 3.322-3.298 3.332a3.32 3.32 0 0 1-.839-.104c-.114-.028-.234.005-.317.088h.002zm2.356 9.442l-.471.471-3.332-3.332.471-.471 3.332 3.332z"/></g><defs><clipPath id="A"><path fill="#fff" d="M0 0h20v20H0z"/></clipPath></defs></svg>