<svg width="22" height="16" viewBox="0 0 22 16" fill="none" xmlns="http://www.w3.org/2000/svg">
<path d="M19.25 15.5H2.75C1.75 15.5 1 14.7373 1 13.7203V2.27966C1 1.26271 1.75 0.5 2.75 0.5H19.25C20.25 0.5 21 1.26271 21 2.27966V13.8051C21 14.7373 20.25 15.5 19.25 15.5Z" stroke="#969696" stroke-miterlimit="10" stroke-linecap="round" stroke-linejoin="round"/>
<path d="M19.2502 3.80507C19.2502 4.82202 18.5002 5.58474 17.5002 5.58474C16.5002 5.58474 15.7502 4.82202 15.7502 3.80507C15.7502 2.78813 16.5002 2.02541 17.5002 2.02541C18.4169 2.02541 19.2502 2.87287 19.2502 3.80507Z" stroke="#969696" stroke-miterlimit="10" stroke-linecap="round" stroke-linejoin="round"/>
<path d="M1 10.0763L5.66667 3.80511" stroke="#969696" stroke-miterlimit="10" stroke-linecap="round" stroke-linejoin="round"/>
<path d="M15.7501 15.5L5.66675 3.80511" stroke="#969696" stroke-miterlimit="10" stroke-linecap="round" stroke-linejoin="round"/>
<path d="M10.4165 8.80511L12.7498 6.34748" stroke="#969696" stroke-miterlimit="10" stroke-linecap="round" stroke-linejoin="round"/>
<path d="M19.8333 15.0763L12.75 6.34748" stroke="#969696" stroke-miterlimit="10" stroke-linecap="round" stroke-linejoin="round"/>
</svg>
