<svg width="20" height="19" viewBox="0 0 20 19" fill="none" xmlns="http://www.w3.org/2000/svg">
<path d="M18.7077 7.22501V17.425C18.7077 17.875 18.3327 18.175 17.9577 18.175H3.03271C2.58271 18.175 2.28271 17.8 2.28271 17.425V7.22501" stroke="#767676" stroke-miterlimit="10" stroke-linecap="round" stroke-linejoin="round"/>
<path d="M1.45776 5.725L2.20776 1.675C2.28276 1.3 2.58276 1 2.95776 1H17.8828C18.2578 1 18.5578 1.3 18.6328 1.675L19.3828 5.725C19.3828 6.625 18.5578 7.3 17.5828 7.3C16.6078 7.3 15.7828 6.625 15.7828 5.725C15.7828 6.625 14.9578 7.3 13.9828 7.3C13.0078 7.3 12.1828 6.625 12.1828 5.725C12.1828 6.625 11.3578 7.3 10.3828 7.3C9.40776 7.3 8.58276 6.625 8.58276 5.725C8.58276 6.625 7.75776 7.3 6.78276 7.3C5.80776 7.3 4.98276 6.625 4.98276 5.725C4.98276 6.625 4.15776 7.3 3.18276 7.3C2.28276 7.225 1.45776 6.55 1.45776 5.725Z" stroke="#767676" stroke-miterlimit="10" stroke-linecap="round" stroke-linejoin="round"/>
<path d="M13.9828 18.25H6.9328V12.025C6.9328 11.125 7.6078 10.375 8.5078 10.375H12.4078C13.3078 10.375 13.9828 11.05 13.9828 11.95V18.25V18.25Z" stroke="#767676" stroke-miterlimit="10" stroke-linecap="round" stroke-linejoin="round"/>
</svg>
