<?xml version="1.0" encoding="utf-8"?>
<!-- Generator: Adobe Illustrator 16.0.0, SVG Export Plug-In . SVG Version: 6.00 Build 0)  -->
<!DOCTYPE svg PUBLIC "-//W3C//DTD SVG 1.1//EN" "http://www.w3.org/Graphics/SVG/1.1/DTD/svg11.dtd">
<svg version="1.1" id="Layer_1" xmlns="http://www.w3.org/2000/svg" xmlns:xlink="http://www.w3.org/1999/xlink" x="0px" y="0px"
	 width="30px" height="30px" viewBox="0 0 30 30" enable-background="new 0 0 30 30" xml:space="preserve">
<path fill="#ED2224" d="M4.5,0h21C27.985,0,30,2.015,30,4.5v21c0,2.485-2.015,4.5-4.5,4.5h-21C2.015,30,0,27.985,0,25.5v-21
	C0,2.015,2.015,0,4.5,0z"/>
<path fill="#FFFFFF" d="M17.729,14.274l-4.64-2.539c-0.267-0.146-0.582-0.14-0.843,0.015c-0.262,0.155-0.417,0.429-0.417,0.733
	v5.033c0,0.303,0.155,0.576,0.415,0.731c0.136,0.081,0.286,0.122,0.437,0.122c0.138,0,0.276-0.034,0.404-0.104l4.639-2.494
	c0.275-0.148,0.448-0.435,0.449-0.748S18.003,14.424,17.729,14.274z M13.059,16.884v-3.762l3.468,1.897L13.059,16.884z"/>
<path fill="#FFFFFF" d="M25.346,10.801l-0.001-0.009c-0.018-0.169-0.194-1.672-0.926-2.438c-0.845-0.899-1.804-1.009-2.263-1.061
	c-0.039-0.004-0.074-0.008-0.105-0.013l-0.036-0.004c-2.776-0.202-6.97-0.229-7.011-0.229H15h-0.004
	c-0.041,0-4.234,0.028-7.036,0.229L7.923,7.281c-0.03,0.004-0.063,0.008-0.099,0.012C7.37,7.345,6.422,7.455,5.575,8.387
	c-0.696,0.756-0.897,2.228-0.918,2.393l-0.002,0.021C4.648,10.872,4.5,12.546,4.5,14.227v1.571c0,1.682,0.148,3.356,0.154,3.426
	l0.001,0.01c0.018,0.166,0.194,1.643,0.922,2.408c0.794,0.869,1.799,0.984,2.339,1.047c0.085,0.008,0.159,0.018,0.209,0.025
	l0.049,0.008c1.603,0.152,6.629,0.227,6.841,0.23h0.007h0.007c0.042,0,4.234-0.029,7.011-0.23l0.036-0.004
	c0.035-0.004,0.075-0.008,0.117-0.012c0.453-0.049,1.396-0.148,2.231-1.068c0.696-0.756,0.897-2.229,0.919-2.393l0.002-0.021
	c0.006-0.07,0.154-1.744,0.154-3.426v-1.571C25.5,12.546,25.352,10.872,25.346,10.801z M24.27,15.798
	c0,1.555-0.137,3.159-0.149,3.305c-0.052,0.404-0.264,1.336-0.604,1.705c-0.522,0.574-1.06,0.633-1.452,0.674
	c-0.048,0.006-0.091,0.01-0.131,0.014c-2.686,0.195-6.72,0.225-6.906,0.227c-0.207-0.004-5.16-0.08-6.714-0.223
	c-0.08-0.014-0.166-0.023-0.256-0.035c-0.46-0.053-1.089-0.123-1.574-0.656l-0.011-0.012c-0.333-0.348-0.54-1.219-0.592-1.688
	c-0.01-0.111-0.149-1.734-0.149-3.311v-1.571c0-1.554,0.136-3.155,0.148-3.305c0.063-0.478,0.279-1.352,0.604-1.705
	C7.022,8.625,7.59,8.559,7.966,8.515c0.036-0.004,0.069-0.008,0.1-0.012C10.791,8.308,14.854,8.279,15,8.278
	c0.146,0.001,4.208,0.03,6.908,0.226c0.032,0.004,0.068,0.008,0.108,0.013c0.386,0.044,0.971,0.111,1.507,0.683l0.005,0.005
	c0.333,0.347,0.539,1.233,0.592,1.712c0.009,0.105,0.149,1.729,0.149,3.311V15.798z"/>
</svg>
