<svg width="9" height="16" viewBox="0 0 9 16" fill="none" xmlns="http://www.w3.org/2000/svg">
<path d="M0.244363 8.62432L7.06168 15.7444C7.21935 15.9092 7.42984 16 7.65427 16C7.87871 16 8.08919 15.9092 8.24687 15.7444L8.74891 15.2202C9.0756 14.8786 9.0756 14.3234 8.74891 13.9823L3.02425 8.00332L8.75527 2.01767C8.91294 1.85286 9 1.63316 9 1.39888C9 1.16435 8.91294 0.944641 8.75527 0.779699L8.25322 0.255608C8.09542 0.0907955 7.88506 0 7.66062 0C7.43619 0 7.22571 0.0907955 7.06803 0.255608L0.244363 7.38218C0.0863123 7.54752 -0.000495911 7.76826 1.90735e-06 8.00293C-0.000495911 8.2385 0.0863123 8.45912 0.244363 8.62432Z" fill="white"/>
</svg>
