<svg width="32" height="21" viewBox="0 0 32 21" fill="none" xmlns="http://www.w3.org/2000/svg">
<path d="M13.4062 13.3926C13.0977 13.7949 12.6699 14.0996 12.123 14.3066C11.5762 14.5137 10.9551 14.6172 10.2598 14.6172C9.54492 14.6172 8.91211 14.4551 8.36133 14.1309C7.81055 13.8066 7.38477 13.3438 7.08398 12.7422C6.78711 12.1367 6.63281 11.4316 6.62109 10.627V9.95898C6.62109 8.66992 6.92969 7.66406 7.54688 6.94141C8.16406 6.21484 9.02539 5.85156 10.1309 5.85156C11.0801 5.85156 11.834 6.08594 12.3926 6.55469C12.9512 7.02344 13.2871 7.69922 13.4004 8.58203H11.9473C11.7832 7.55469 11.1875 7.04102 10.1602 7.04102C9.49609 7.04102 8.99023 7.28125 8.64258 7.76172C8.29883 8.23828 8.12109 8.93945 8.10938 9.86523V10.5215C8.10938 11.4434 8.30273 12.1602 8.68945 12.6719C9.08008 13.1797 9.62109 13.4336 10.3125 13.4336C11.0703 13.4336 11.6094 13.2617 11.9297 12.918V11.248H10.1719V10.123H13.4062V13.3926ZM16.4121 14.5H14.9883V8.16016H16.4121V14.5ZM14.9004 6.51367C14.9004 6.29492 14.9688 6.11328 15.1055 5.96875C15.2461 5.82422 15.4453 5.75195 15.7031 5.75195C15.9609 5.75195 16.1602 5.82422 16.3008 5.96875C16.4414 6.11328 16.5117 6.29492 16.5117 6.51367C16.5117 6.72852 16.4414 6.9082 16.3008 7.05273C16.1602 7.19336 15.9609 7.26367 15.7031 7.26367C15.4453 7.26367 15.2461 7.19336 15.1055 7.05273C14.9688 6.9082 14.9004 6.72852 14.9004 6.51367ZM18.4688 14.5V9.21484H17.502V8.16016H18.4688V7.58008C18.4688 6.87695 18.6641 6.33398 19.0547 5.95117C19.4453 5.56836 19.9922 5.37695 20.6953 5.37695C20.9453 5.37695 21.2109 5.41211 21.4922 5.48242L21.457 6.5957C21.3008 6.56445 21.1191 6.54883 20.9121 6.54883C20.2324 6.54883 19.8926 6.89844 19.8926 7.59766V8.16016H21.1816V9.21484H19.8926V14.5H18.4688ZM24.0059 6.61914V8.16016H25.125V9.21484H24.0059V12.7539C24.0059 12.9961 24.0527 13.1719 24.1465 13.2812C24.2441 13.3867 24.416 13.4395 24.6621 13.4395C24.8262 13.4395 24.9922 13.4199 25.1602 13.3809V14.4824C24.8359 14.5723 24.5234 14.6172 24.2227 14.6172C23.1289 14.6172 22.582 14.0137 22.582 12.8066V9.21484H21.5391V8.16016H22.582V6.61914H24.0059Z" fill="#CF2626"/>
<rect x="0.5" y="1" width="31" height="19" stroke="#CF2626"/>
</svg>
