<svg width="20" height="20" viewBox="0 0 20 20" fill="none" xmlns="http://www.w3.org/2000/svg">
<path d="M9.99997 0C15.5231 0 20 4.4775 20 10C20 15.5226 15.5231 20 9.99997 20C4.47681 20 0 15.5225 0 10C0 4.47757 4.47688 0 9.99997 0Z" fill="#CF2626"/>
<path d="M14.875 5H5.12501C4.50464 5 4 5.50464 4 6.12501V12.875C4 13.4954 4.50464 14 5.12501 14H14.875C15.4954 14 16 13.4954 16 12.875V6.12501C16 5.50464 15.4954 5 14.875 5ZM14.875 5.75C14.9259 5.75 14.9744 5.76057 15.0187 5.77903L10 10.1288L4.98125 5.77903C5.02556 5.76059 5.07403 5.75 5.12498 5.75H14.875ZM14.875 13.25H5.12501C4.9181 13.25 4.75 13.0819 4.75 12.875V6.57141L9.75427 10.9084C9.82496 10.9696 9.91248 11 10 11C10.0875 11 10.175 10.9696 10.2457 10.9084L15.25 6.57141V12.875C15.25 13.0819 15.0819 13.25 14.875 13.25Z" fill="white"/>
</svg>
