<svg xmlns="http://www.w3.org/2000/svg" width="34" height="34" fill="none"  xmlns:v="https://vecta.io/nano"><rect x=".5" y=".5" width="33" height="33" rx="3.5" fill="#fff" stroke="#ddd"/><path d="M19.23 21.426h-4.86v-8.852h4.86v8.852z" fill="#ff5f00"/><path d="M14.675 17c0-1.786.831-3.377 2.124-4.403-.946-.75-2.14-1.197-3.438-1.197C10.29 11.4 7.8 13.907 7.8 17s2.49 5.6 5.562 5.6c1.298 0 2.492-.448 3.438-1.197-1.294-1.025-2.124-2.616-2.124-4.403z" fill="#eb001b"/><path d="M25.8 17c0 3.093-2.49 5.6-5.562 5.6-1.298 0-2.492-.448-3.438-1.197 1.294-1.025 2.125-2.616 2.125-4.403s-.831-3.377-2.125-4.403c.946-.75 2.14-1.197 3.438-1.197 3.072 0 5.562 2.507 5.562 5.6z" fill="#f79e1b"/></svg>