<svg width="94" height="94" viewBox="0 0 94 94" fill="none" xmlns="http://www.w3.org/2000/svg">
<g filter="url(#filter0_d)">
<rect x="7" y="4" width="80" height="80" rx="40" fill="url(#paint0_linear)"/>
</g>
<path d="M68.0995 45.2875C67.7508 45.2875 67.4012 45.3487 67.0714 45.4686C66.9869 43.6066 65.5738 42.6337 64.1772 42.6337C63.7689 42.6337 63.3593 42.717 62.9819 42.8812C62.5559 41.6196 61.4005 40.9649 60.2555 40.9649C59.9085 40.9649 59.5606 41.0256 59.2321 41.1445V39.1329V22.556C59.2321 21.1466 58.0857 20 56.6765 20H35.3093C33.9001 20 32.7537 21.1466 32.7537 22.556V29.3541H28.899L28.4616 27.0328C28.3691 26.5419 27.9096 26.2144 27.4206 26.2776C27.3806 26.2725 23.9375 26.2688 23.9375 26.2688C23.4197 26.2688 23 26.6886 23 27.2064C23 27.7243 23.4197 28.1441 23.9375 28.1441H26.763L29.4355 42.3253C29.519 42.7684 29.906 43.0893 30.3567 43.0893H31.3791C31.6023 43.8701 32.097 44.5372 32.7537 44.9823V58.9916C32.7537 60.3996 33.9002 61.545 35.3075 61.545L52.6178 61.5787C52.6534 61.6148 52.6883 61.6509 52.7208 61.6874C54.0758 63.2 54.0758 64.4751 54.0758 66.0896C54.0758 67.1429 54.9314 67.9999 55.9831 67.9999H57.5799C58.0977 67.9999 58.5174 67.5801 58.5174 67.0623C58.5174 66.5444 58.0977 66.1246 57.5799 66.1246H55.9831C55.9688 66.1246 55.9508 66.1082 55.9508 66.0896C55.9508 64.3163 55.9508 62.4828 54.1177 60.4365C53.6823 59.95 53.1413 59.555 52.6181 59.1729C51.6334 58.4539 51.0354 57.9723 51.0354 57.3494V50.5675C51.0401 50.3099 51.0979 50.1131 51.1864 50.0533C51.3059 49.9727 51.6194 49.9658 52.0525 50.1331C52.8926 50.4554 53.4355 51.2487 53.4355 52.1543V55.1119C53.4355 55.6298 53.8552 56.0496 54.373 56.0496C54.8908 56.0496 55.3105 55.6298 55.3105 55.1119V52.1543V39.1329C55.3105 38.0496 56.1623 37.9948 56.3331 37.9948C56.5041 37.9948 57.3572 38.0496 57.3572 39.1329V49.8741C57.3572 50.392 57.7769 50.8118 58.2947 50.8118C58.8124 50.8118 59.2321 50.392 59.2321 49.8741V43.9774C59.2321 42.8951 60.0846 42.8403 60.2555 42.8403C60.5256 42.8403 60.7829 42.9365 60.9614 43.1044C61.172 43.3025 61.2789 43.5963 61.2789 43.9774V50.8573C61.2789 51.3752 61.6986 51.795 62.2164 51.795C62.7342 51.795 63.1539 51.3752 63.1539 50.8573V45.6462C63.1539 44.5639 64.0064 44.509 64.1773 44.509C64.4474 44.509 64.7046 44.6053 64.8831 44.7732C65.0938 44.9713 65.2006 45.265 65.2006 45.6462V51.8406C65.2006 52.3585 65.6204 52.7783 66.1381 52.7783C66.6559 52.7783 67.0756 52.3585 67.0756 51.8406V48.301C67.0756 47.2178 67.9287 47.1628 68.0996 47.1628C68.2708 47.1628 69.125 47.2177 69.125 48.301V51.1604V51.7902V57.6671C68.9759 58.9852 68.6679 59.5843 68.3699 60.164C68.0109 60.8623 67.6397 61.5845 67.6397 63.0842V66.0897C67.6397 66.106 67.6212 66.1247 67.6048 66.1247H65.9999C65.4822 66.1247 65.0625 66.5445 65.0625 67.0624C65.0625 67.5802 65.4822 68 65.9999 68H67.6048C68.6579 68 69.5147 67.143 69.5147 66.0897V63.0842C69.5147 62.0383 69.7227 61.6337 70.0374 61.0214C70.3815 60.3518 70.8099 59.5185 70.9945 57.8203C70.9981 57.7866 71 57.7528 71 57.7189V51.7903V51.1605V48.3011C70.9999 46.3226 69.5409 45.2875 68.0995 45.2875ZM40.6042 21.8753H51.3817V22.8616C51.3817 23.407 50.9382 23.8507 50.3929 23.8507H41.5931C41.0479 23.8507 40.6043 23.407 40.6043 22.8616L40.6042 21.8753ZM31.3793 41.214H31.134L29.2528 31.2293H49.1695L47.2906 41.214H47.043C46.6344 39.786 45.3184 38.7373 43.7611 38.7373C42.2026 38.7373 40.8855 39.7859 40.4767 41.214H37.9455C37.5369 39.786 36.2209 38.7373 34.6636 38.7373C33.1052 38.7374 31.7881 39.786 31.3793 41.214ZM45.2999 42.1517C45.2999 43.0017 44.6096 43.6934 43.7611 43.6934C42.9111 43.6934 42.2197 43.0018 42.2197 42.1517C42.2197 41.303 42.9111 40.6125 43.7611 40.6125C44.6096 40.6126 45.2999 41.303 45.2999 42.1517ZM33.1223 42.1517C33.1223 41.303 33.8138 40.6125 34.6637 40.6125C35.5122 40.6125 36.2025 41.3029 36.2025 42.1517C36.2025 43.0017 35.5122 43.6934 34.6637 43.6934C33.8138 43.6934 33.1223 43.0017 33.1223 42.1517ZM35.3093 59.6697C34.9404 59.6697 34.6287 59.3592 34.6287 58.9916V56.8573H49.1604V57.3494C49.1604 58.3496 49.6572 59.0949 50.2838 59.699L35.3093 59.6697ZM57.3572 36.2993C57.0286 36.1803 56.6805 36.1195 56.3332 36.1195C54.8933 36.1195 53.4356 37.1546 53.4356 39.1329V48.7375C53.2144 48.5986 52.9774 48.4793 52.7259 48.3828C51.7345 48.0001 50.8153 48.0414 50.1375 48.499C49.7014 48.7934 49.1779 49.3875 49.1606 50.5458C49.1606 50.5504 49.1605 50.5551 49.1605 50.5597V54.9821H34.6287V45.5679C34.6404 45.568 34.652 45.5687 34.6637 45.5687C36.2212 45.5687 37.5375 44.5188 37.9458 43.0893H40.4766C40.8851 44.5188 42.2024 45.5687 43.7612 45.5687C45.3186 45.5687 46.635 44.5188 47.0433 43.0893H48.0681C48.5191 43.0893 48.9061 42.7682 48.9895 42.3251L51.2214 30.4651C51.273 30.1909 51.1999 29.908 51.0217 29.6932C50.8436 29.4784 50.5791 29.3542 50.3001 29.3542H34.6287V22.556C34.6287 22.1806 34.934 21.8753 35.3093 21.8753H38.7292V22.8616C38.7292 24.441 40.0139 25.7259 41.5929 25.7259H50.3928C51.9719 25.7259 53.2565 24.441 53.2565 22.8616V21.8753H56.6764C57.0517 21.8753 57.3571 22.1806 57.3571 22.556L57.3572 36.2993Z" fill="white"/>
<path d="M39.2123 38.6241C39.7301 38.6241 40.1498 38.2044 40.1498 37.6866V34.2431C40.1498 33.7253 39.7301 33.3056 39.2123 33.3056C38.6945 33.3056 38.2748 33.7253 38.2748 34.2431V37.6866C38.2748 38.2044 38.6945 38.6241 39.2123 38.6241Z" fill="white"/>
<path d="M35.6013 35.7204V34.2431C35.6013 33.7253 35.1816 33.3056 34.6638 33.3056C34.146 33.3056 33.7263 33.7253 33.7263 34.2431V35.7204C33.7263 36.2382 34.146 36.6579 34.6638 36.6579C35.1816 36.6579 35.6013 36.2382 35.6013 35.7204Z" fill="white"/>
<path d="M43.7612 36.6579C44.2789 36.6579 44.6987 36.2382 44.6987 35.7204V34.2431C44.6987 33.7253 44.2789 33.3056 43.7612 33.3056C43.2434 33.3056 42.8237 33.7253 42.8237 34.2431V35.7204C42.8237 36.2382 43.2434 36.6579 43.7612 36.6579Z" fill="white"/>
<path d="M61.7913 66.1246C61.2735 66.1246 60.8538 66.5443 60.8538 67.0621C60.8538 67.5799 61.2735 67.9996 61.7913 67.9996H61.7939C62.3117 67.9996 62.7301 67.5799 62.7301 67.0621C62.7301 66.5443 62.3091 66.1246 61.7913 66.1246Z" fill="white"/>
<defs>
<filter id="filter0_d" x="0" y="0" width="94" height="94" filterUnits="userSpaceOnUse" color-interpolation-filters="sRGB">
<feFlood flood-opacity="0" result="BackgroundImageFix"/>
<feColorMatrix in="SourceAlpha" type="matrix" values="0 0 0 0 0 0 0 0 0 0 0 0 0 0 0 0 0 0 127 0"/>
<feOffset dy="3"/>
<feGaussianBlur stdDeviation="3.5"/>
<feColorMatrix type="matrix" values="0 0 0 0 0 0 0 0 0 0 0 0 0 0 0 0 0 0 0.3 0"/>
<feBlend mode="normal" in2="BackgroundImageFix" result="effect1_dropShadow"/>
<feBlend mode="normal" in="SourceGraphic" in2="effect1_dropShadow" result="shape"/>
</filter>
<linearGradient id="paint0_linear" x1="47" y1="4" x2="47" y2="84" gradientUnits="userSpaceOnUse">
<stop stop-color="#1FA9B2"/>
<stop offset="1" stop-color="#1F69B2"/>
</linearGradient>
</defs>
</svg>
