<svg width="20" height="18" viewBox="0 0 20 18" fill="none" xmlns="http://www.w3.org/2000/svg">
<path d="M7.85356 2.25C4.08787 2.25 1 5.28385 1 8.98367C1 10.6856 1.67782 12.2395 2.73222 13.4235C2.6569 15.1254 1.37657 16.4573 1.37657 16.4573C3.48536 16.7533 5.14226 15.4214 5.44351 15.1994C6.19665 15.4953 7.0251 15.6433 7.85356 15.6433C11.6192 15.6433 14.7071 12.6095 14.7071 8.90967C14.6318 5.28385 11.6192 2.25 7.85356 2.25Z" stroke="#F37721" stroke-miterlimit="10" stroke-linecap="round" stroke-linejoin="round"/>
<path d="M5.4435 8.83563C5.4435 9.4276 4.99162 9.87158 4.38911 9.87158C3.7866 9.87158 3.33472 9.4276 3.33472 8.83563C3.41003 8.24366 3.86191 7.79968 4.38911 7.79968C4.99162 7.79968 5.4435 8.24366 5.4435 8.83563Z" fill="#F37721"/>
<path d="M8.83266 8.83563C8.83266 9.4276 8.38078 9.87158 7.77827 9.87158C7.17576 9.87158 6.72388 9.4276 6.72388 8.83563C6.79919 8.24366 7.25107 7.79968 7.85358 7.79968C8.38078 7.79968 8.83266 8.24366 8.83266 8.83563Z" fill="#F37721"/>
<path d="M12.2218 8.83563C12.2218 9.4276 11.7699 9.87158 11.1674 9.87158C10.5649 9.87158 10.113 9.4276 10.113 8.83563C10.113 8.24366 10.5649 7.79968 11.1674 7.79968C11.7699 7.79968 12.2218 8.24366 12.2218 8.83563Z" fill="#F37721"/>
<path d="M13.0502 2.84194C13.2761 2.76794 13.5774 2.76794 13.8033 2.76794C16.6652 2.76794 19 5.06183 19 7.87369C19 9.20563 18.4728 10.3896 17.7196 11.2775C17.7949 12.6095 18.774 13.6454 18.774 13.6454C17.1171 13.8674 15.9121 12.8315 15.6862 12.6835C15.3849 12.8315 15.0836 12.9054 14.7071 12.9794" stroke="#F37721" stroke-miterlimit="10" stroke-linecap="round" stroke-linejoin="round"/>
</svg>
