<svg width="24" height="24" viewBox="0 0 24 24" fill="none" xmlns="http://www.w3.org/2000/svg">
<path d="M11.9602 22H2.99002C2.43984 22 1.99336 21.552 1.99336 21.0001V3.00003C1.99336 2.44802 2.43989 2.00005 2.99002 2.00005H11.9602C12.5113 2.00005 12.9568 1.55307 12.9568 1.00007C12.9568 0.447079 12.5113 0 11.9602 0H2.99002C1.34152 0 0 1.34603 0 3.00003V21C0 22.654 1.34152 24 2.99002 24H11.9602C12.5113 24 12.9568 23.553 12.9568 23C12.9568 22.447 12.5113 22 11.9602 22Z" fill="#767676"/>
<path d="M23.7032 11.288L17.6434 5.28802C17.2527 4.90001 16.6208 4.90504 16.2341 5.29803C15.8474 5.69103 15.8514 6.32402 16.2441 6.71203L20.5746 11H8.97029C8.41913 11 7.97363 11.447 7.97363 12C7.97363 12.553 8.41913 13 8.97029 13H20.5746L16.2441 17.288C15.8514 17.676 15.8484 18.309 16.2341 18.702C16.4294 18.9 16.6866 19 16.9437 19C17.1969 19 17.45 18.904 17.6434 18.712L23.7032 12.7119C23.8926 12.524 24.0002 12.2679 24.0002 11.9999C24.0002 11.732 23.8936 11.477 23.7032 11.288Z" fill="#767676"/>
</svg>
