<svg width="32" height="32" viewBox="0 0 32 32" fill="none" xmlns="http://www.w3.org/2000/svg">
<rect width="32" height="32" rx="6" fill="#F1F1F1"/>
<path d="M6.16641 7.09044C5.9168 7.33962 6 7.83799 6.0832 8.2533C6.91524 12.7386 9.07852 16.8087 12.157 19.8819C15.2356 22.9552 19.3957 25.2809 23.8055 25.9454C24.2215 26.0285 24.7207 26.0285 24.9704 25.8624C25.0536 25.7793 25.22 25.6963 25.22 25.5301L25.9688 22.2907C26.052 22.0415 25.9688 21.7093 25.7192 21.4601C25.636 21.377 23.1399 20.4634 21.975 19.8819C21.4758 19.6328 20.9766 19.7989 20.727 20.1311L20.311 20.8787C20.1446 21.1279 19.895 21.294 19.6453 21.377C18.4805 21.6262 14.986 18.4699 14.2371 17.7223C13.4883 16.9748 10.1602 13.3201 10.4098 12.2403C10.4098 11.9911 10.5762 11.7419 10.909 11.5758C11.5746 11.2435 11.4082 11.3266 11.6578 11.1605C12.0738 10.9113 12.157 10.3298 11.9906 9.91454C11.4082 8.9178 11.1586 7.92106 10.8258 6.84125C10.6594 6.34288 10.1602 5.92757 9.74415 6.01064C9.74415 6.01064 9.66095 6.01064 6.49922 6.75819C6.33281 6.84125 6.16641 6.92432 6.16641 7.09044Z" stroke="#F37721" stroke-miterlimit="10" stroke-linecap="round" stroke-linejoin="round"/>
<path d="M15.9844 8.6687C19.479 8.6687 22.3911 11.4928 22.3911 15.0644" stroke="#F37721" stroke-miterlimit="10" stroke-linecap="round" stroke-linejoin="round"/>
<path d="M15.9844 6.01074C20.9766 6.01074 25.0536 10.0808 25.0536 15.0645" stroke="#F37721" stroke-miterlimit="10" stroke-linecap="round" stroke-linejoin="round"/>
</svg>
