<?xml version="1.0" encoding="utf-8"?>
<!-- Generator: Adobe Illustrator 16.0.0, SVG Export Plug-In . SVG Version: 6.00 Build 0)  -->
<!DOCTYPE svg PUBLIC "-//W3C//DTD SVG 1.1//EN" "http://www.w3.org/Graphics/SVG/1.1/DTD/svg11.dtd">
<svg version="1.1" id="Layer_1" xmlns="http://www.w3.org/2000/svg" xmlns:xlink="http://www.w3.org/1999/xlink" x="0px" y="0px"
	 width="12px" height="20px" viewBox="0 0 12 20" enable-background="new 0 0 12 20" xml:space="preserve">
<path fill="#464646" d="M11.674,9.22l-9.089-8.9C2.374,0.113,2.094,0,1.794,0s-0.58,0.113-0.79,0.319L0.335,0.975
	c-0.436,0.427-0.436,1.121,0,1.547l7.633,7.474l-7.642,7.482C0.116,17.684,0,17.959,0,18.252s0.116,0.567,0.326,0.773l0.669,0.655
	C1.206,19.887,1.487,20,1.786,20c0.299,0,0.58-0.113,0.791-0.319l9.098-8.908C11.885,10.565,12,10.29,12,9.996
	C12,9.702,11.885,9.426,11.674,9.22z"/>
</svg>
