<svg width="48" height="48" viewBox="0 0 48 48" fill="none" xmlns="http://www.w3.org/2000/svg">
<path d="M0 12C0 5.37258 5.37258 0 12 0H48V36C48 42.6274 42.6274 48 36 48H0V12Z" fill="#F1F1F1"/>
<path d="M20.16 15.6799C16.935 15.6799 13.842 16.9611 11.5616 19.2415C9.28114 21.522 8 24.6149 8 27.8399L8 39.9999H20.16C23.385 39.9999 26.478 38.7188 28.7584 36.4383C31.0389 34.1579 32.32 31.065 32.32 27.8399V27.8399C32.32 24.6149 31.0389 21.522 28.7584 19.2415C26.478 16.9611 23.385 15.6799 20.16 15.6799V15.6799Z" fill="#F37721"/>
<g style="mix-blend-mode:multiply">
<path d="M27.8389 8C24.6142 8 21.5215 9.28114 19.2413 11.5616C16.961 13.842 15.68 16.935 15.68 20.16V20.16C15.68 23.385 16.961 26.478 19.2413 28.7584C21.5215 31.0389 24.6142 32.32 27.8389 32.32V32.32C31.0639 32.32 34.1568 31.0389 36.4373 28.7585C38.7179 26.4782 39.9994 23.3852 40 20.16V8H27.8389Z" fill="#1F69B2"/>
</g>
</svg>
