<svg width="130" height="28" viewBox="0 0 130 28" fill="none" xmlns="http://www.w3.org/2000/svg">
<path d="M10.9429 5.95282C8.0407 5.95282 5.25732 7.11423 3.20511 9.18156C1.15291 11.2489 0 14.0528 0 16.9764L0 28H10.9429C13.8452 28 16.6286 26.8386 18.6808 24.7713C20.733 22.7039 21.8859 19.9 21.8859 16.9764C21.8859 14.0528 20.733 11.2489 18.6808 9.18156C16.6286 7.11423 13.8452 5.95282 10.9429 5.95282Z" fill="#F37721"/>
<g style="mix-blend-mode:multiply">
<path d="M18.3836 0C15.4813 0 12.6979 1.16141 10.6457 3.22873C8.59352 5.29606 7.44061 8.09995 7.44061 11.0236C7.44061 13.9472 8.59352 16.7511 10.6457 18.8184C12.6979 20.8858 15.4813 22.0472 18.3836 22.0472C21.286 22.0472 24.0696 20.8858 26.1221 18.8186C28.1746 16.7513 29.3279 13.9474 29.3284 11.0236V0H18.3836Z" fill="#1F69B2"/>
</g>
<path d="M57.8672 21.377V20.5392C56.9243 21.0363 55.8852 21.3202 54.8223 21.3712C53.7594 21.4223 52.6982 21.2392 51.7127 20.8347C50.7272 20.4302 49.8411 19.8141 49.1162 19.0293C48.3913 18.2445 47.8451 17.3099 47.5155 16.2906C47.1859 15.2713 47.081 14.1919 47.208 13.1276C47.335 12.0633 47.6909 11.0396 48.2509 10.1281C48.8108 9.21652 49.5614 8.43894 50.4503 7.84955C51.3391 7.26016 52.3449 6.87313 53.3975 6.71545L54.2864 6.63456H61.794V21.377H57.8672ZM54.4853 10.6326C53.8235 10.6307 53.1761 10.8267 52.625 11.1956C52.0739 11.5646 51.6438 12.09 51.3893 12.7053C51.1348 13.3206 51.0672 13.9981 51.1951 14.6522C51.3231 15.3062 51.6407 15.9073 52.108 16.3793C52.5752 16.8513 53.171 17.1731 53.8199 17.3038C54.4687 17.4346 55.1415 17.3684 55.7531 17.1138C56.3646 16.8591 56.8874 16.4274 57.2552 15.8733C57.623 15.3192 57.8194 14.6676 57.8194 14.001C57.8189 13.1094 57.4678 12.2544 56.8429 11.6232C56.218 10.9919 55.3703 10.6357 54.4853 10.6326Z" fill="#F37721"/>
<path d="M31.4122 28V6.70969H39.8087C40.9806 6.70969 42.8388 7.68802 43.9687 8.85509C45.1828 10.1111 45.9128 11.7619 46.0277 13.5112C46.1426 15.2606 45.6349 16.9939 44.5958 18.4001C43.5566 19.8064 42.054 20.7936 40.3575 21.1846C38.661 21.5756 36.8817 21.3447 35.339 20.5335V28H31.4122ZM38.7304 10.6327C38.069 10.6323 37.4224 10.8295 36.8723 11.1994C36.3222 11.5693 35.8933 12.0952 35.6399 12.7106C35.3866 13.3261 35.3201 14.0034 35.4489 14.6569C35.5777 15.3104 35.896 15.9108 36.3635 16.3821C36.8311 16.8533 37.4268 17.1743 38.0755 17.3044C38.7242 17.4346 39.3966 17.368 40.0077 17.1131C40.6187 16.8582 41.1411 16.4265 41.5086 15.8725C41.8761 15.3185 42.0722 14.6672 42.0722 14.001C42.0712 13.1083 41.7189 12.2524 41.0924 11.621C40.466 10.9896 39.6166 10.6342 38.7304 10.6327Z" fill="#F37721"/>
<path d="M63.0442 28V6.70969H71.4426C72.6145 6.70969 74.4708 7.68802 75.6007 8.85509C76.817 10.1103 77.549 11.7614 77.6652 13.5116C77.7814 15.2619 77.2741 16.9964 76.2345 18.4036C75.1949 19.8108 73.6911 20.7983 71.9935 21.1887C70.2959 21.5791 68.5157 21.3468 66.9729 20.5335V28H63.0442ZM70.3625 10.6327C69.7011 10.6327 69.0547 10.8302 68.5048 11.2003C67.9549 11.5704 67.5264 12.0965 67.2733 12.712C67.0202 13.3275 66.954 14.0047 67.083 14.6581C67.212 15.3115 67.5305 15.9117 67.9981 16.3827C68.4657 16.8538 69.0615 17.1746 69.7101 17.3046C70.3588 17.4345 71.0311 17.3678 71.642 17.1129C72.253 16.858 72.7752 16.4262 73.1426 15.8723C73.51 15.3184 73.7061 14.6672 73.7061 14.001C73.7056 13.1078 73.3532 12.2513 72.7262 11.6198C72.0993 10.9882 71.2491 10.6332 70.3625 10.6327Z" fill="#F37721"/>
<path d="M116.427 21.377V20.4141C115.453 20.9748 114.365 21.3027 113.246 21.3725C112.127 21.4423 111.007 21.2521 109.972 20.8166C108.937 20.3811 108.016 19.712 107.279 18.8608C106.542 18.0096 106.009 16.9992 105.721 15.9075C105.433 14.8159 105.398 13.6721 105.618 12.5646C105.839 11.4572 106.309 10.4155 106.993 9.52015C107.676 8.62477 108.555 7.8996 109.561 7.40062C110.567 6.90163 111.673 6.64217 112.794 6.64227H120.111V21.377H116.427ZM112.794 10.3476C112.076 10.3476 111.374 10.5622 110.776 10.9643C110.179 11.3664 109.713 11.9378 109.438 12.6065C109.163 13.2751 109.092 14.0108 109.232 14.7206C109.372 15.4304 109.718 16.0824 110.226 16.5941C110.734 17.1059 111.381 17.4544 112.086 17.5956C112.79 17.7367 113.521 17.6643 114.184 17.3873C114.848 17.1104 115.415 16.6414 115.814 16.0396C116.214 15.4379 116.427 14.7304 116.427 14.0067C116.428 13.0369 116.047 12.1062 115.368 11.419C114.689 10.7318 113.767 10.3444 112.804 10.3418L112.794 10.3476Z" fill="#1F69B2"/>
<path d="M100.685 21.377V14.001C100.685 13.0305 100.302 12.0998 99.6212 11.4136C98.94 10.7274 98.0161 10.3418 97.0527 10.3418C96.0894 10.3418 95.1655 10.7274 94.4843 11.4136C93.8031 12.0998 93.4204 13.0305 93.4204 14.001V21.377H89.7383V14.001C89.7383 13.0305 89.3556 12.0998 88.6744 11.4136C87.9932 10.7274 87.0693 10.3418 86.106 10.3418C85.1426 10.3418 84.2187 10.7274 83.5375 11.4136C82.8563 12.0998 82.4736 13.0305 82.4736 14.001V21.377H78.7839V14.001C78.7833 12.5052 79.2344 11.0446 80.0775 9.81334C80.9205 8.58203 82.1155 7.63826 83.5036 7.10741C84.8918 6.57656 86.4074 6.48375 87.8492 6.84132C89.291 7.1989 90.5907 7.98992 91.5755 9.1093C92.5591 7.98418 93.86 7.18799 95.3045 6.827C96.749 6.46601 98.2684 6.55737 99.66 7.0889C101.052 7.62043 102.249 8.56685 103.093 9.80186C103.937 11.0369 104.387 12.5017 104.382 14.001V21.377H100.685Z" fill="#1F69B2"/>
<path d="M125.06 21.3712V0L121.37 0V21.3712H125.06Z" fill="#1F69B2"/>
<path d="M130 21.3712V0L126.31 0V21.3712H130Z" fill="#1F69B2"/>
</svg>
