<svg xmlns="http://www.w3.org/2000/svg" width="68" height="40" fill="none"  xmlns:v="https://vecta.io/nano"><rect x=".5" y=".5" width="67" height="39" rx="5.5" fill="#fff" stroke="#ddd"/><g fill-rule="evenodd"><path d="M39.928 12.296c1.385-.319 2.833-.372 4.245-.198a13.27 13.27 0 0 1 2.666.632l-.796 3.486c-1.088-.469-2.274-.742-3.471-.775-.602-.013-1.217.022-1.786.222-.343.121-.67.309-.891.589-.186.232-.28.538-.208.825.063.259.245.475.45.651.365.306.796.531 1.222.752.958.484 1.949.929 2.808 1.565.733.532 1.358 1.236 1.639 2.077.229.665.239 1.38.133 2.067a4.76 4.76 0 0 1-1.008 2.267c-.63.782-1.502 1.368-2.45 1.765-1.095.46-2.289.682-3.482.756-1.345.078-2.698-.04-4.016-.296-.644-.133-1.286-.295-1.889-.552l.819-3.601 1.697.655c.67.2 1.368.318 2.069.361.642.035 1.296.046 1.924-.1.495-.114.996-.31 1.339-.678a1.18 1.18 0 0 0 .214-1.31c-.169-.333-.481-.576-.796-.785-.477-.31-.997-.554-1.516-.795-1.026-.478-2.035-1.044-2.806-1.854-.572-.596-.975-1.349-1.056-2.154a4.52 4.52 0 0 1 .486-2.503c.3-.582.731-1.101 1.243-1.532.906-.767 2.043-1.259 3.217-1.537z" fill="#243881"/><path d="M6.106 12.302l7.623-.001a2.45 2.45 0 0 1 .649.074c.449.115.852.38 1.122.736a2.15 2.15 0 0 1 .397.892l1.245 6.222.657 3.264 4.707-11.187 4.753-.001-7.333 16.447c-1.592 0-3.184-.004-4.776.002l-3.561-12.942c-.107-.371-.19-.759-.421-1.083-.239-.334-.634-.519-1.007-.693-.916-.41-1.886-.701-2.861-.954L6 12.778l.106-.476z" fill="#192164"/><path d="M28.976 13.294l.229-.996 4.521.002-3.742 16.446H25.46l3.517-15.452z" fill="#28327b"/><path d="M52.564 13.491c.301-.69 1.051-1.18 1.846-1.19l3.937-.003L62 28.748c-1.395.001-2.791 0-4.185 0l-.55-2.456c-1.934-.001-3.867 0-5.801-.001l-.944 2.455h-4.751l6.795-15.255zm.202 9.426h3.751l-1.369-6.167-2.382 6.167z" fill="#344490"/></g></svg>