<svg width="48" height="48" viewBox="0 0 48 48" fill="none" xmlns="http://www.w3.org/2000/svg">
<path d="M0 12C0 5.37258 5.37258 0 12 0H48V36C48 42.6274 42.6274 48 36 48H0V12Z" fill="#F1F1F1"/>
<path d="M20.16 15.6799C16.935 15.6799 13.842 16.9611 11.5616 19.2415C9.28114 21.522 8 24.6149 8 27.8399L8 39.9999H20.16C23.385 39.9999 26.478 38.7188 28.7584 36.4383C31.0389 34.1579 32.32 31.065 32.32 27.8399C32.32 24.6149 31.0389 21.522 28.7584 19.2415C26.478 16.9611 23.385 15.6799 20.16 15.6799Z" fill="#F37721"/>
<g style="mix-blend-mode:multiply">
<path d="M27.8391 8C24.6144 8 21.5217 9.28114 19.2414 11.5616C16.9612 13.842 15.6802 16.935 15.6802 20.16C15.6802 23.385 16.9612 26.478 19.2414 28.7584C21.5217 31.0389 24.6144 32.32 27.8391 32.32C31.0641 32.32 34.1569 31.0389 36.4375 28.7585C38.7181 26.4782 39.9996 23.3852 40.0002 20.16V8H27.8391Z" fill="#1F69B2"/>
</g>
</svg>
