<svg xmlns="http://www.w3.org/2000/svg" width="68" height="40" fill="none"  xmlns:v="https://vecta.io/nano"><rect x=".5" y=".5" width="67" height="39" rx="3.5" fill="#fff" stroke="#ddd"/><path d="M40.576 31.064h-12.15V8.935h12.15v22.129z" fill="#ff5f00"/><path d="M29.188 20a14.01 14.01 0 0 1 5.311-11.007C32.134 7.119 29.149 6 25.905 6 18.225 6 12 12.268 12 20s6.225 14 13.905 14c3.244 0 6.229-1.119 8.594-2.993A14.01 14.01 0 0 1 29.188 20z" fill="#eb001b"/><path d="M57 20c0 7.732-6.225 14-13.905 14a13.79 13.79 0 0 1-8.595-2.993A14.01 14.01 0 0 0 39.812 20 14.01 14.01 0 0 0 34.5 8.993 13.79 13.79 0 0 1 43.095 6C50.775 6 57 12.268 57 20z" fill="#f79e1b"/></svg>