<svg xmlns="http://www.w3.org/2000/svg" width="40" height="24" fill="none"  xmlns:v="https://vecta.io/nano"><rect width="40" height="24" rx="1" fill="#179bd7"/><path d="M6.497 9.098l-.631-1.61-.631 1.61h1.262zm13.964-.634c-.129.085-.28.085-.456.085h-1.122v-.903h1.145c.164 0 .327.012.444.073a.38.38 0 0 1 .199.354c-.023.183-.094.317-.21.39zm8.028.634l-.643-1.61-.643 1.61h1.285zm-14.957 1.756h-.947V7.683l-1.344 3.171h-.818L9.08 7.683v3.171H7.187l-.351-.903H4.908l-.362.903H3.541L5.2 6.805h1.379l1.566 3.83v-3.83h1.507l1.215 2.744 1.11-2.744h1.543l.012 4.049zm3.774 0h-3.085V6.805h3.097v.842h-2.174v.732h2.115v.829h-2.115v.805h2.162v.842zm4.37-2.964c0 .646-.409.976-.654 1.073.199.085.374.22.456.342.128.195.152.378.152.744v.793h-.935v-.512c0-.244.023-.598-.152-.793-.14-.146-.339-.171-.678-.171h-.993v1.476h-.923V6.793h2.127c.467 0 .818.012 1.122.195.304.195.479.451.479.903zm1.484 2.964h-.947V6.805h.947v4.049zm10.961 0h-1.309L31.06 7.817v3.037h-1.881l-.362-.903h-1.928l-.351.903h-1.087c-.456 0-1.017-.11-1.344-.451s-.491-.805-.491-1.549c0-.598.105-1.147.503-1.586.304-.317.771-.476 1.402-.476h.9v.866h-.876c-.339 0-.526.049-.713.244-.164.171-.269.488-.269.915 0 .439.082.744.257.951.14.159.397.207.643.207h.421l1.309-3.184h1.391l1.566 3.83v-3.83h1.414l1.624 2.818V6.793h.947v4.062h-.012zm-30.592.793h1.578l.362-.903h.795l.351.903h3.108v-.683l.28.695h1.613l.28-.695v.695h7.736v-1.476h.152c.105 0 .14.012.14.195v1.281h3.996v-.342c.327.183.83.342 1.484.342h1.683l.362-.903h.795l.351.903h3.249v-.854l.491.854h2.594V6h-2.571v.671L31.995 6h-2.641v.671L29.027 6h-3.564c-.596 0-1.122.085-1.543.329V6h-2.466v.329C21.186 6.085 20.812 6 20.403 6h-8.974l-.596 1.464L10.213 6h-2.84v.671L7.07 6H4.651L3.529 8.683v2.964zm32.942 2.977h-1.683c-.164 0-.281.012-.374.073s-.14.159-.14.293c0 .159.082.256.199.305.093.037.199.049.362.049l.502.012c.502.012.841.11 1.052.329.035.037.058.061.082.098v-1.159zm0 2.671c-.222.341-.666.512-1.262.512h-1.788v-.866h1.776c.175 0 .304-.024.374-.098.07-.061.105-.159.105-.268 0-.122-.047-.207-.117-.268s-.164-.085-.327-.085c-.865-.037-1.951.024-1.951-1.256 0-.585.362-1.207 1.332-1.207h1.846v-.805h-1.718c-.514 0-.888.134-1.157.329v-.329h-2.536c-.409 0-.876.11-1.11.329v-.329h-4.522v.329c-.362-.268-.97-.329-1.25-.329h-2.992v.329c-.28-.293-.923-.329-1.309-.329h-3.342l-.759.866-.713-.866h-4.966V18.6h4.896l.783-.878.748.878h3.015v-1.33h.292c.397.012.876-.012 1.285-.195V18.6h2.489v-1.476h.117c.152 0 .164.012.164.171V18.6h7.584c.479 0 .982-.134 1.262-.366v.366h2.395c.502 0 .982-.073 1.355-.256v-1.049zm-3.693-1.622c.175.195.28.439.28.854 0 .866-.526 1.281-1.449 1.281h-1.8v-.866h1.8c.175 0 .304-.024.374-.098a.4.4 0 0 0 .105-.268c0-.122-.047-.207-.117-.268s-.164-.085-.327-.085c-.865-.037-1.951.024-1.951-1.256 0-.585.351-1.207 1.32-1.207h1.858v.866h-1.694c-.164 0-.28.012-.374.073-.105.061-.14.159-.14.293 0 .159.082.256.199.305.094.037.199.049.362.049l.502.012c.503.012.841.098 1.052.317zm-8.355-.244c-.128.073-.28.085-.456.085h-1.122v-.903h1.145c.164 0 .327 0 .444.073.117.061.187.195.187.366 0 .159-.07.305-.199.378zm.561.5c.21.085.374.22.456.341.129.195.152.378.152.744v.805h-.935v-.5c0-.244.023-.598-.152-.793-.14-.146-.339-.183-.678-.183h-.993v1.476h-.935V13.77h2.138c.467 0 .806.024 1.11.195.292.183.479.439.479.903.012.634-.397.964-.643 1.061zm1.169-2.159h3.085v.842h-2.174v.732h2.115v.829h-2.115v.805h2.174v.842h-3.085v-4.05zm-6.24 1.866h-1.192v-1.025h1.204c.339 0 .561.146.561.5 0 .341-.222.524-.573.524zm-2.127 1.805l-1.426-1.647 1.426-1.598v3.244zm-3.669-.476h-2.279v-.805h2.033v-.829h-2.033v-.732h2.325l1.017 1.183-1.063 1.183zm7.362-1.866c0 1.122-.806 1.354-1.613 1.354h-1.157v1.354h-1.8l-1.145-1.342-1.18 1.342h-3.669v-4.049h3.728l1.145 1.329 1.18-1.329h2.956c.724.012 1.554.22 1.554 1.342z" fill="#fff"/></svg>