<svg width="24" height="24" viewBox="0 0 24 24" fill="none" xmlns="http://www.w3.org/2000/svg">
<path d="M9.12 5.76001C6.70123 5.76001 4.38152 6.72086 2.67119 8.4312C0.960854 10.1415 0 12.4612 0 14.88L0 24H9.12C11.5388 24 13.8585 23.0392 15.5688 21.3288C17.2791 19.6185 18.24 17.2988 18.24 14.88C18.24 12.4612 17.2791 10.1415 15.5688 8.4312C13.8585 6.72086 11.5388 5.76001 9.12 5.76001Z" fill="#F37721"/>
<g style="mix-blend-mode:multiply">
<path d="M14.8792 0C12.4607 0 10.1411 0.960854 8.43096 2.67119C6.72078 4.38152 5.76001 6.70123 5.76001 9.12C5.76001 11.5388 6.72078 13.8585 8.43096 15.5688C10.1411 17.2791 12.4607 18.24 14.8792 18.24C17.2979 18.24 19.6176 17.2792 21.328 15.5689C23.0385 13.8586 23.9996 11.5389 24 9.12V0H14.8792Z" fill="#1F69B2"/>
</g>
</svg>
