<svg width="196" height="42" viewBox="0 0 196 42" fill="none" xmlns="http://www.w3.org/2000/svg">
<path d="M16.4986 8.92922C12.1229 8.92922 7.92641 10.6713 4.83232 13.7723C1.73824 16.8733 0 21.0792 0 25.4646L0 42H16.4986C20.8743 42 25.0708 40.2579 28.1649 37.1569C31.2589 34.0559 32.9972 29.8501 32.9972 25.4646C32.9972 21.0792 31.2589 16.8733 28.1649 13.7723C25.0708 10.6713 20.8743 8.92922 16.4986 8.92922Z" fill="#F37721"/>
<g style="mix-blend-mode:multiply">
<path d="M27.7169 0C23.3412 0 19.1447 1.74212 16.0506 4.8431C12.9565 7.94409 11.2183 12.1499 11.2183 16.5354C11.2183 20.9208 12.9565 25.1267 16.0506 28.2277C19.1447 31.3287 23.3412 33.0708 27.7169 33.0708C32.0928 33.0708 36.2896 31.3288 39.3841 28.2278C42.4787 25.1269 44.2176 20.9211 44.2183 16.5354V0H27.7169Z" fill="#1F69B2"/>
</g>
<path d="M87.2461 32.0655V30.8089C85.8245 31.5544 84.2579 31.9803 82.6553 32.0569C81.0527 32.1334 79.4528 31.8588 77.967 31.2521C76.4811 30.6453 75.1452 29.7212 74.0523 28.544C72.9594 27.3668 72.1358 25.9648 71.6389 24.4359C71.142 22.907 70.9838 21.2879 71.1753 19.6914C71.3668 18.0949 71.9033 16.5595 72.7476 15.1921C73.5919 13.8248 74.7235 12.6584 76.0636 11.7743C77.4038 10.8902 78.9202 10.3097 80.5071 10.0732L81.8474 9.95185H93.1664V32.0655H87.2461ZM82.1472 15.949C81.1495 15.9461 80.1734 16.24 79.3425 16.7934C78.5116 17.3469 77.8632 18.1349 77.4794 19.0579C77.0957 19.9809 76.9938 20.9972 77.1866 21.9782C77.3795 22.9593 77.8585 23.8609 78.563 24.5689C79.2674 25.277 80.1657 25.7596 81.144 25.9558C82.1222 26.1519 83.1366 26.0527 84.0586 25.6707C84.9806 25.2887 85.7688 24.6411 86.3234 23.8099C86.878 22.9788 87.174 22.0013 87.174 21.0014C87.1732 19.6642 86.6438 18.3817 85.7017 17.4347C84.7596 16.4878 83.4815 15.9535 82.1472 15.949Z" fill="#F37721"/>
<path d="M47.3601 42V10.0645H60.0194C61.7863 10.0645 64.5879 11.532 66.2914 13.2826C68.1219 15.1667 69.2225 17.6429 69.3958 20.2669C69.569 22.8908 68.8036 25.4908 67.2369 27.6002C65.6701 29.7096 63.4046 31.1904 60.8468 31.7769C58.2891 32.3633 55.6065 32.0171 53.2805 30.8002V42H47.3601ZM58.3938 15.949C57.3966 15.9484 56.4216 16.2442 55.5922 16.7991C54.7628 17.3539 54.1162 18.1428 53.7342 19.0659C53.3522 19.9891 53.252 21.0051 53.4462 21.9854C53.6403 22.9656 54.1202 23.8662 54.8252 24.5731C55.5301 25.28 56.4283 25.7614 57.4063 25.9566C58.3843 26.1518 59.3981 26.0519 60.3194 25.6696C61.2407 25.2873 62.0282 24.6397 62.5823 23.8087C63.1364 22.9778 63.4321 22.0008 63.4321 21.0014C63.4306 19.6624 62.8994 18.3786 61.9549 17.4315C61.0104 16.4844 59.7298 15.9513 58.3938 15.949Z" fill="#F37721"/>
<path d="M95.0515 42V10.0645H107.714C109.481 10.0645 112.279 11.532 113.983 13.2826C115.817 15.1655 116.92 17.6421 117.095 20.2674C117.271 22.8928 116.506 25.4946 114.938 27.6054C113.371 29.7162 111.104 31.1975 108.544 31.7831C105.985 32.3687 103.301 32.0202 100.975 30.8002V42H95.0515ZM106.085 15.949C105.088 15.949 104.113 16.2453 103.284 16.8005C102.455 17.3556 101.809 18.1447 101.428 19.0679C101.046 19.9912 100.946 21.007 101.141 21.9871C101.335 22.9672 101.815 23.8675 102.52 24.5741C103.226 25.2807 104.124 25.7619 105.102 25.9568C106.08 26.1518 107.093 26.0517 108.014 25.6693C108.936 25.2869 109.723 24.6393 110.277 23.8084C110.831 22.9776 111.126 22.0007 111.126 21.0014C111.126 19.6617 110.594 18.377 109.649 17.4296C108.704 16.4823 107.422 15.9497 106.085 15.949Z" fill="#F37721"/>
<path d="M175.536 32.0655V30.6211C174.068 31.4622 172.427 31.9541 170.74 32.0588C169.053 32.1635 167.364 31.8782 165.804 31.2249C164.244 30.5717 162.855 29.5679 161.744 28.2912C160.632 27.0144 159.829 25.4988 159.395 23.8613C158.961 22.2238 158.908 20.5082 159.24 18.847C159.573 17.1857 160.281 15.6233 161.312 14.2802C162.343 12.9372 163.667 11.8494 165.184 11.1009C166.701 10.3524 168.369 9.96326 170.059 9.9634H181.09V32.0655H175.536ZM170.059 15.5214C168.976 15.5214 167.917 15.8433 167.017 16.4464C166.116 17.0495 165.414 17.9067 165 18.9097C164.585 19.9126 164.477 21.0162 164.688 22.0809C164.899 23.1456 165.421 24.1236 166.187 24.8912C166.953 25.6588 167.929 26.1815 168.991 26.3933C170.053 26.6051 171.154 26.4964 172.155 26.081C173.156 25.6656 174.011 24.9621 174.613 24.0595C175.215 23.1568 175.536 22.0957 175.536 21.0101C175.538 19.5554 174.964 18.1593 173.94 17.1285C172.916 16.0977 171.525 15.5166 170.074 15.5128L170.059 15.5214Z" fill="#1F69B2"/>
<path d="M151.802 32.0655V21.0014C151.802 19.5458 151.225 18.1497 150.198 17.1204C149.171 16.091 147.778 15.5128 146.326 15.5128C144.873 15.5128 143.48 16.091 142.453 17.1204C141.426 18.1497 140.849 19.5458 140.849 21.0014V32.0655H135.298V21.0014C135.298 19.5458 134.721 18.1497 133.694 17.1204C132.667 16.091 131.274 15.5128 129.821 15.5128C128.369 15.5128 126.976 16.091 125.949 17.1204C124.922 18.1497 124.345 19.5458 124.345 21.0014V32.0655H118.782V21.0014C118.781 18.7578 119.461 16.567 120.732 14.72C122.003 12.873 123.805 11.4574 125.898 10.6611C127.991 9.86482 130.276 9.72561 132.449 10.262C134.623 10.7983 136.583 11.9849 138.068 13.6639C139.551 11.9762 141.512 10.782 143.69 10.2405C145.868 9.699 148.158 9.83604 150.256 10.6333C152.355 11.4306 154.16 12.8503 155.432 14.7028C156.705 16.5553 157.383 18.7526 157.376 21.0014V32.0655H151.802Z" fill="#1F69B2"/>
<path d="M188.552 32.0568V7.62939e-06L182.989 7.62939e-06V32.0568H188.552Z" fill="#1F69B2"/>
<path d="M196 32.0568V-3.8147e-06L190.437 -3.8147e-06V32.0568H196Z" fill="#1F69B2"/>
</svg>
