<svg xmlns="http://www.w3.org/2000/svg" width="68" height="40" fill="none"  xmlns:v="https://vecta.io/nano"><rect x=".5" y=".5" width="67" height="39" rx="3.5" fill="#fff" stroke="#ddd"/><path d="M11.046 15.164L9.973 12.48 8.9 15.164h2.145zm23.739-1.057c-.218.142-.477.142-.775.142h-1.907v-1.504h1.947c.278 0 .556.02.755.122a.63.63 0 0 1 .338.589c-.04.305-.159.529-.358.651zm13.647 1.057l-1.093-2.683-1.093 2.683h2.185zm-25.427 2.927h-1.609v-5.286l-2.284 5.286H17.72l-2.284-5.286v5.286h-3.218l-.596-1.504H8.344l-.616 1.504H6.02l2.821-6.749h2.344l2.662 6.383v-6.383h2.563l2.066 4.574 1.887-4.574h2.622l.02 6.749zm6.416 0h-5.244v-6.749h5.264v1.403h-3.695v1.22h3.596v1.382h-3.596v1.342h3.675v1.403zm7.43-4.94c0 1.077-.695 1.626-1.112 1.789.338.142.636.366.775.569.218.325.258.63.258 1.24v1.321h-1.589v-.854c0-.407.04-.996-.258-1.321-.238-.244-.576-.285-1.152-.285h-1.689v2.46h-1.569v-6.749h3.616c.795 0 1.39.02 1.907.325.517.325.815.752.815 1.504zm2.523 4.94h-1.609v-6.749h1.609v6.749zm18.633 0h-2.225l-2.98-5.062v5.062h-3.198l-.616-1.504H45.71l-.596 1.504h-1.847c-.775 0-1.728-.183-2.284-.752s-.834-1.342-.834-2.582c0-.996.179-1.911.854-2.643.517-.529 1.311-.793 2.384-.793h1.53v1.443h-1.49c-.576 0-.894.081-1.212.407-.278.285-.457.813-.457 1.525 0 .732.139 1.24.437 1.586.238.264.675.346 1.093.346h.715l2.225-5.306h2.364l2.662 6.383v-6.383h2.404l2.761 4.696v-4.696h1.609v6.77h-.02zM6 19.412h2.682l.616-1.504h1.351l.596 1.504h5.284v-1.138l.477 1.159h2.741l.477-1.159v1.159h13.151v-2.46h.258c.179 0 .238.02.238.325v2.134h6.794v-.569c.556.305 1.41.569 2.523.569h2.861l.616-1.504h1.351l.596 1.504h5.523V18.01l.834 1.423h4.41V10h-4.37v1.118L54.392 10h-4.489v1.118L49.346 10h-6.059c-1.013 0-1.907.142-2.622.549V10h-4.192v.549c-.457-.407-1.093-.549-1.788-.549H19.429l-1.013 2.44L17.363 10h-4.827v1.118L12.019 10H7.907L6 14.472v4.94zm56 4.961h-2.86c-.278 0-.477.02-.636.122s-.238.264-.238.488a.51.51 0 0 0 .338.508c.159.061.338.081.616.081l.854.02c.854.02 1.43.183 1.788.549.06.061.099.102.139.163v-1.931zm0 4.452c-.378.569-1.132.854-2.146.854h-3.039v-1.443h3.02c.298 0 .517-.041.636-.163.119-.102.179-.264.179-.447 0-.203-.079-.346-.199-.447s-.278-.142-.556-.142c-1.47-.061-3.317.041-3.317-2.094 0-.976.616-2.013 2.265-2.013h3.139v-1.342h-2.92c-.874 0-1.51.224-1.967.549v-.549h-4.311c-.695 0-1.49.183-1.887.549v-.549h-7.688v.549c-.616-.447-1.649-.549-2.126-.549h-5.085v.549c-.477-.488-1.569-.549-2.225-.549H28.09l-1.291 1.443-1.212-1.443h-8.443V31h8.324l1.331-1.464L28.07 31h5.125v-2.216h.497c.675.02 1.49-.02 2.185-.325V31h4.231v-2.46h.199c.258 0 .278.02.278.285V31h12.892c.815 0 1.669-.224 2.145-.61V31h4.072c.854 0 1.669-.122 2.304-.427v-1.748zm-6.277-2.704c.298.325.477.732.477 1.423 0 1.443-.894 2.134-2.463 2.134h-3.059v-1.443h3.059c.298 0 .517-.041.636-.163a.65.65 0 0 0 .179-.447c0-.203-.079-.346-.199-.447s-.278-.142-.556-.142c-1.47-.061-3.318.041-3.318-2.094 0-.976.596-2.013 2.245-2.013h3.159v1.443h-2.88c-.278 0-.477.02-.636.122-.179.102-.238.264-.238.488a.51.51 0 0 0 .338.508c.159.061.338.081.616.081l.854.02c.854.02 1.43.163 1.788.529zm-14.204-.407c-.218.122-.477.142-.775.142h-1.907v-1.504h1.947c.278 0 .556 0 .755.122.199.102.318.325.318.61 0 .264-.119.508-.338.63zm.953.833c.358.142.636.366.775.569.218.325.258.63.258 1.24v1.342h-1.589v-.833c0-.407.04-.996-.258-1.321-.238-.244-.576-.305-1.152-.305h-1.689v2.46h-1.589V22.95h3.635c.795 0 1.371.041 1.887.325.497.305.814.732.814 1.504.02 1.057-.675 1.606-1.093 1.769zm1.986-3.598h5.244v1.403h-3.695v1.22h3.596v1.382h-3.596v1.342h3.695v1.403h-5.244V22.95zm-10.608 3.11h-2.026v-1.708h2.046c.576 0 .953.244.953.834 0 .569-.377.874-.973.874zm-3.615 3.009l-2.424-2.744 2.424-2.663v5.407zm-6.238-.793h-3.874v-1.342h3.456v-1.382h-3.456v-1.22h3.953l1.728 1.972-1.808 1.972zm12.515-3.11c0 1.87-1.371 2.257-2.741 2.257h-1.967v2.256h-3.059l-1.947-2.236-2.006 2.236h-6.238v-6.749h6.337l1.947 2.216 2.006-2.216h5.026c1.232.02 2.642.366 2.642 2.236z" fill="#179bd7"/></svg>