<svg xmlns="http://www.w3.org/2000/svg" width="42" height="26" fill="none"  xmlns:v="https://vecta.io/nano"><rect x="1" y="1" width="40" height="24" rx="1" stroke="#fff"/><g fill-rule="evenodd"><path d="M24.488 8.378c.814-.192 1.667-.223 2.497-.119a7.68 7.68 0 0 1 1.568.38l-.468 2.092c-.64-.282-1.338-.445-2.042-.465-.354-.008-.716.013-1.051.133-.201.072-.394.185-.524.353a.59.59 0 0 0-.123.495c.037.155.144.285.265.39.215.183.468.319.719.451.564.29 1.146.557 1.652.939.431.319.799.742.964 1.246.135.399.141.828.078 1.24-.075.492-.278.966-.593 1.36-.37.469-.884.821-1.441 1.059-.644.276-1.347.409-2.048.454-.791.047-1.587-.024-2.362-.178-.379-.08-.757-.177-1.111-.331l.482-2.16.998.393a5.34 5.34 0 0 0 1.217.217c.378.021.762.028 1.132-.06.291-.068.586-.186.787-.407a.72.72 0 0 0 .126-.786c-.1-.2-.283-.346-.468-.471-.281-.186-.587-.332-.892-.477-.604-.287-1.197-.627-1.651-1.112-.336-.357-.574-.81-.622-1.293a2.76 2.76 0 0 1 .286-1.501c.176-.349.43-.66.731-.919.533-.46 1.202-.755 1.893-.922z" fill="#243881"/><path d="M4.591 8.381h4.484c.129-.001.258.01.382.045.264.069.501.228.66.442.119.158.197.344.234.535l.733 3.733.386 1.958 2.769-6.712h2.796l-4.314 9.868c-.936 0-1.873-.002-2.809.001l-2.095-7.765c-.063-.222-.112-.456-.248-.65-.141-.2-.373-.311-.592-.416-.539-.246-1.109-.421-1.683-.573a17.66 17.66 0 0 0-.765-.179l.062-.285z" fill="#192164"/><path d="M18.044 8.977l.135-.598 2.659.001-2.201 9.868h-2.662l2.069-9.272z" fill="#28327b"/><path d="M31.92 9.095a1.22 1.22 0 0 1 1.086-.714l2.316-.002 2.149 9.869c-.821.001-1.642 0-2.462 0l-.323-1.474c-1.138-.001-2.275 0-3.412-.001l-.555 1.473h-2.795l3.997-9.153zm.119 5.655h2.206l-.805-3.7-1.401 3.7z" fill="#344490"/></g></svg>