<svg xmlns="http://www.w3.org/2000/svg" width="42" height="26" fill="none"  xmlns:v="https://vecta.io/nano"><rect x="1" y="1" width="40" height="24" rx="1" stroke="#f1f1f1"/><path d="M24.868 19.639h-7.147V6.361h7.147v13.277z" fill="#ff5f00"/><path d="M18.169 13c0-2.679 1.222-5.066 3.124-6.604A8.01 8.01 0 0 0 16.238 4.6c-4.517 0-8.18 3.761-8.18 8.4s3.662 8.4 8.18 8.4a8.01 8.01 0 0 0 5.055-1.796c-1.902-1.538-3.124-3.925-3.124-6.604z" fill="#eb001b"/><path d="M34.529 13c0 4.639-3.662 8.4-8.18 8.4-1.908 0-3.664-.671-5.056-1.796 1.903-1.538 3.125-3.925 3.125-6.604s-1.222-5.066-3.125-6.604C22.686 5.271 24.442 4.6 26.35 4.6c4.518 0 8.18 3.761 8.18 8.4z" fill="#f79e1b"/></svg>