<svg width="48" height="48" viewBox="0 0 48 48" fill="none" xmlns="http://www.w3.org/2000/svg">
<path d="M0 12C0 5.37258 5.37258 0 12 0H48V36C48 42.6274 42.6274 48 36 48H0V12Z" fill="#F1F1F1"/>
<path d="M0 12C0 5.37258 5.37258 0 12 0H48V36C48 42.6274 42.6274 48 36 48H0V12Z" fill="white"/>
<path d="M20.16 15.68C16.935 15.68 13.842 16.9611 11.5616 19.2416C9.28114 21.522 8 24.615 8 27.84L8 40H20.16C23.385 40 26.478 38.7189 28.7584 36.4384C31.0389 34.158 32.32 31.065 32.32 27.84C32.32 24.615 31.0389 21.522 28.7584 19.2416C26.478 16.9611 23.385 15.68 20.16 15.68Z" fill="#F37721"/>
<g style="mix-blend-mode:multiply">
<path d="M27.8389 8C24.6141 8 21.5214 9.28114 19.2412 11.5616C16.961 13.842 15.6799 16.935 15.6799 20.16C15.6799 23.385 16.961 26.478 19.2412 28.7584C21.5214 31.0389 24.6141 32.32 27.8389 32.32C31.0638 32.32 34.1567 31.0389 36.4373 28.7585C38.7179 26.4782 39.9994 23.3852 39.9999 20.16V8H27.8389Z" fill="#1F69B2"/>
</g>
</svg>
