<svg xmlns="http://www.w3.org/2000/svg" width="55" height="34" fill="none"  xmlns:v="https://vecta.io/nano"><path d="M34.93 30.277H20.278V3.722H34.93v26.555z" fill="#ff5f00"/><path d="M21.197 17c0-5.359 2.505-10.132 6.405-13.208C24.75 1.543 21.151.2 17.239.2 7.978.2.471 7.722.471 17s7.507 16.8 16.768 16.8c3.912 0 7.511-1.343 10.363-3.592-3.9-3.076-6.405-7.849-6.405-13.208z" fill="#eb001b"/><path d="M54.735 17c0 9.279-7.507 16.8-16.768 16.8a16.68 16.68 0 0 1-10.364-3.592A16.78 16.78 0 0 0 34.008 17a16.78 16.78 0 0 0-6.406-13.208A16.68 16.68 0 0 1 37.967.2C47.228.2 54.735 7.722 54.735 17z" fill="#f79e1b"/></svg>