<svg xmlns="http://www.w3.org/2000/svg" width="68" height="21" fill="none"  fill-rule="evenodd" xmlns:v="https://vecta.io/nano"><path d="M41.149.755c1.67-.383 3.416-.446 5.119-.238 1.098.137 2.175.403 3.215.759l-.96 4.183a11.46 11.46 0 0 0-4.186-.93c-.725-.016-1.468.027-2.154.266-.413.145-.809.371-1.075.706-.224.278-.337.646-.251.99.076.311.296.57.543.781.44.367.959.637 1.474.902 1.155.58 2.35 1.115 3.386 1.877.884.639 1.637 1.483 1.976 2.493.276.798.289 1.656.16 2.481-.154.983-.569 1.931-1.215 2.721-.759.939-1.812 1.642-2.954 2.118-1.321.552-2.761.818-4.199.907-1.621.094-3.253-.048-4.842-.355-.777-.16-1.551-.354-2.278-.662l.987-4.321 2.047.786c.809.24 1.649.381 2.496.434.774.042 1.563.056 2.321-.12.597-.136 1.201-.372 1.614-.814.398-.42.51-1.06.258-1.572-.204-.4-.58-.691-.959-.942-.575-.372-1.203-.665-1.828-.954-1.237-.574-2.454-1.253-3.384-2.224-.69-.715-1.176-1.619-1.274-2.585a5.4 5.4 0 0 1 .585-3.003A6.06 6.06 0 0 1 37.269 2.6c1.092-.92 2.463-1.511 3.88-1.844z" fill="#243881"/><path d="M.363.763L9.555.761c.264-.001.529.021.783.089.542.137 1.027.455 1.353.883.244.317.403.687.479 1.07l1.502 7.467.792 3.917L20.14.763l5.732-.001-8.843 19.736c-1.92 0-3.84-.004-5.759.002L6.975 4.969c-.129-.445-.229-.911-.508-1.3-.289-.401-.765-.623-1.214-.832-1.104-.492-2.274-.841-3.45-1.145a36.96 36.96 0 0 0-1.567-.359L.363.763z" fill="#192164"/><path d="M27.942 1.953l.276-1.196L33.67.76l-4.513 19.735h-5.456l4.241-18.543z" fill="#28327b"/><path d="M56.386 2.189c.363-.828 1.267-1.416 2.226-1.428l4.747-.003 4.405 19.739c-1.682.001-3.365 0-5.047 0l-.663-2.947c-2.332-.001-4.664 0-6.996-.001l-1.139 2.946-5.729.001 8.195-18.306zm.243 11.311h4.523l-1.651-7.4-2.872 7.4z" fill="#344490"/></svg>